<svg width="70" height="71" viewBox="0 0 70 71" fill="none" xmlns="http://www.w3.org/2000/svg">
    <path d="m14.546 45.712-1.338.243-.263-1.45-1.589.289.263 1.449-1.336.242.298 1.645 1.336-.242.263 1.45 1.589-.287-.263-1.451 1.338-.242-.298-1.645zM27.901 23.512l-1.282-.452.49-1.39-1.522-.537-.49 1.388-1.282-.452-.556 1.577 1.28.452-.49 1.39 1.522.537.492-1.389 1.28.453.558-1.577zM60.237 40.11l-1.2.635-.69-1.303-1.429.755.69 1.303-1.201.635.782 1.478 1.2-.635.69 1.301 1.429-.755-.69-1.303 1.2-.635-.781-1.476zM8.96 42.26a.975.975 0 1 0 0-1.95.975.975 0 0 0 0 1.95zM24.142 28.255a.257.257 0 1 1-.515 0 .257.257 0 0 1 .515 0zM12.336 23.829a.91.91 0 1 1-1.822 0 .91.91 0 0 1 1.822 0zM52.473 36.168a.516.516 0 1 1-1.031 0 .516.516 0 0 1 1.031 0zM47.258 20.441a1.155 1.155 0 1 0 0-2.309 1.155 1.155 0 0 0 0 2.31z" stroke="#ACC0F0" stroke-width=".286" stroke-linecap="round" stroke-linejoin="round"/>
    <path d="m8.05 69.355 5.894-5.568h46.78l3.542 5.568H8.05z" fill="#fff" stroke="#263238" stroke-width=".286" stroke-linecap="round" stroke-linejoin="round"/>
    <path d="M64.266 69.354H8.05v1.499h56.216v-1.499z" fill="#263238" stroke="#263238" stroke-width=".286" stroke-linecap="round" stroke-linejoin="round"/>
    <path d="M13.944 67.979v-1.155h9.237v1.155h-9.237z" fill="#fff" stroke="#263238" stroke-width=".286" stroke-miterlimit="10"/>
    <path d="m13.944 66.824 5.457-3.66 7.28.172-3.5 3.488h-9.237z" fill="#fff" stroke="#263238" stroke-width=".286" stroke-linecap="round" stroke-linejoin="round"/>
    <path d="m23.181 67.979 3.5-3.507v-1.136l-3.5 3.488v1.155z" fill="#fff" stroke="#263238" stroke-width=".286" stroke-linecap="round" stroke-linejoin="round"/>
    <path d="M22.931 66.533s-.737.146-.737.785.637.826.637.826M22.194 66.533s-.738.146-.738.785.638.826.638.826M21.456 66.533s-.737.146-.737.785.637.826.637.826M20.719 66.533s-.738.146-.738.785.637.826.637.826M19.982 66.533s-.738.146-.738.785.637.826.637.826M19.244 66.533s-.737.146-.737.785.637.826.637.826M18.507 66.533s-.738.146-.738.785.638.826.638.826M17.77 66.533s-.738.146-.738.785.637.826.637.826M16.942 66.533s-.738.146-.738.785.637.826.637.826M16.111 66.533s-.737.146-.737.785.637.826.637.826M15.19 66.533s-.738.146-.738.785.637.826.637.826" stroke="#263238" stroke-width=".572" stroke-linecap="round" stroke-linejoin="round"/>
    <path d="M19.863 64.061c-.509.28-.912.72-1.148 1.25.67-.211 1.2-.69 1.709-1.167l-.551 1.366a1.62 1.62 0 0 0 1.248-.766.337.337 0 0 0-.159.478c.462-.067.756-.512.989-.917.043.225.06.454.05.683.386.055.78.005 1.14-.145" stroke="#263238" stroke-width=".214" stroke-linecap="round" stroke-linejoin="round"/>
    <path d="M60.412 58.21H44.357v8.815h16.055V58.21zM44.295 67.023l-2.581-2.454v-8.815l2.581 2.456v8.813zM60.412 58.21l-2.581-2.456H41.777l2.58 2.455h16.055z" fill="#fff" stroke="#263238" stroke-width=".286" stroke-linecap="round" stroke-linejoin="round"/>
    <path d="M54.51 61.516h-1.42v-1.484h-2v1.484h-1.548v2h1.548V65h2v-1.483h1.42v-2z" fill="#ACC0F0" stroke="#263238" stroke-width=".286" stroke-miterlimit="10"/>
    <path d="m52.246 58.21-2.582-2.456" stroke="#263238" stroke-width=".286" stroke-linecap="round" stroke-linejoin="round"/>
    <path d="M18.31 20.745a4.795 4.795 0 1 0-6.78-6.782 4.795 4.795 0 0 0 6.78 6.782z" fill="#fff" stroke="#263238" stroke-width=".286" stroke-linecap="round" stroke-linejoin="round"/>
    <path d="M18.908 16.62a1.535 1.535 0 0 1-1.043 1.453l-2.142.722-2.607.88a1.532 1.532 0 0 1-.98-2.903l2.369-.796 2.38-.797a1.534 1.534 0 0 1 2.022 1.448l.001-.008z" fill="#fff"/>
    <path d="M18.908 16.62a1.536 1.536 0 0 1-1.043 1.453l-2.142.722a4.436 4.436 0 0 0-1.218-2.82l2.38-.797a1.533 1.533 0 0 1 2.022 1.448l.001-.007z" fill="#ACC0F0"/>
    <path d="M18.908 16.62a1.535 1.535 0 0 1-1.043 1.453l-2.142.722-2.607.88a1.532 1.532 0 0 1-.98-2.903l2.369-.796 2.38-.797a1.534 1.534 0 0 1 2.022 1.448l.001-.008z" stroke="#263238" stroke-width=".286" stroke-linecap="round" stroke-linejoin="round"/>
    <path d="M15.723 18.795a4.341 4.341 0 0 0-1.218-2.82" stroke="#263238" stroke-width=".286" stroke-linecap="round" stroke-linejoin="round"/>
    <path d="M18.395 16.048c.101.169.152.363.147.56M15.11 16.207l1.911-.637a1.226 1.226 0 0 1 1.041.116" stroke="#fff" stroke-width=".286" stroke-linecap="round" stroke-linejoin="round"/>
    <path d="M47.502 10.849a4.795 4.795 0 1 0-3.738-8.832 4.795 4.795 0 0 0 3.738 8.832z" fill="#fff" stroke="#263238" stroke-width=".286" stroke-linecap="round" stroke-linejoin="round"/>
    <path d="m47.287 8.44-4.182-1.4a1.384 1.384 0 0 1 .88-2.623l4.182 1.398a1.385 1.385 0 0 1 .176 2.55c-.328.164-.708.19-1.056.075z" fill="#ACC0F0"/>
    <path d="m44.223 6.928.7-1.673M46.527 7.694l.697-1.669" stroke="#263238" stroke-width=".286" stroke-linecap="round" stroke-linejoin="round"/>
    <path d="M44.8 7.027a.142.142 0 1 0 0-.283.142.142 0 0 0 0 .283zM46.194 7.303a.142.142 0 1 1-.283 0 .142.142 0 0 1 .283 0zM45.35 5.766a.142.142 0 1 0 0-.284.142.142 0 0 0 0 .284zM46.723 6.029a.142.142 0 1 1-.283 0 .142.142 0 0 1 .283 0z" fill="#263238"/>
    <path d="m47.287 8.44-4.182-1.4a1.384 1.384 0 0 1 .88-2.623l4.182 1.398a1.385 1.385 0 0 1 .176 2.55c-.328.164-.708.19-1.056.075z" stroke="#263238" stroke-width=".286" stroke-linecap="round" stroke-linejoin="round"/>
    <path d="M27.53 10.967a4.795 4.795 0 1 0 0-9.59 4.795 4.795 0 0 0 0 9.59z" fill="#fff" stroke="#263238" stroke-width=".286" stroke-linecap="round" stroke-linejoin="round"/>
    <path d="M30.278 6.295V8.26c0 .498-.318.903-.709.903h-4.077c-.391 0-.708-.405-.708-.903V6.295c0-.499.318-.903.708-.903h.67v-1.14h2.708v1.14h.695c.395 0 .713.404.713.903z" fill="#fff" stroke="#263238" stroke-width=".286" stroke-linecap="round" stroke-linejoin="round"/>
    <path d="M30.276 6.52h-5.492V7.74h5.492V6.52zM26.537 2.917h2.013a.857.857 0 0 1 .857.856v.89h-3.728v-.89a.856.856 0 0 1 .858-.856z" fill="#ACC0F0" stroke="#263238" stroke-width=".286" stroke-miterlimit="10"/>
    <path d="M26.33 2.97v1.694M27.21 2.917v1.747M28.091 2.917v1.747M28.972 3.015v1.649" stroke="#263238" stroke-width=".286" stroke-linecap="round" stroke-linejoin="round"/>
    <path d="M15.245 32.387a4.795 4.795 0 1 0-9.464-1.552 4.795 4.795 0 0 0 9.464 1.552z" fill="#fff" stroke="#263238" stroke-width=".286" stroke-linecap="round" stroke-linejoin="round"/>
    <path d="M12.945 32.848c.522-1.104-.196-2.54-1.604-3.205-1.408-.666-2.973-.31-3.495.793-.523 1.105.195 2.54 1.604 3.206 1.408.666 2.973.31 3.495-.794z" fill="#ACC0F0" stroke="#263238" stroke-width=".286" stroke-linecap="round" stroke-linejoin="round"/>
    <path d="M13.12 32.472c.49-1.036-.254-2.415-1.663-3.081-1.408-.666-2.947-.366-3.437.67-.49 1.036.255 2.416 1.663 3.082 1.408.666 2.947.365 3.437-.67z" fill="#ACC0F0" stroke="#263238" stroke-width=".286" stroke-linecap="round" stroke-linejoin="round"/>
    <path d="m11.383 29.849-1.74 2.447" stroke="#263238" stroke-width=".286" stroke-linecap="round" stroke-linejoin="round"/>
    <path d="M10.335 29.452c.233.032.463.085.686.16M8.79 31.756s-.89-.973-.021-1.91c.2-.205.46-.339.743-.383" stroke="#fff" stroke-width=".286" stroke-linecap="round" stroke-linejoin="round"/>
    <path d="M65.756 32.39a4.795 4.795 0 1 0-9.464-1.552 4.795 4.795 0 0 0 9.464 1.551z" fill="#fff" stroke="#263238" stroke-width=".286" stroke-linecap="round" stroke-linejoin="round"/>
    <path d="M63.776 32.094c-.037.053-.073.107-.111.16-.719.995-1.825 1.924-2.646 2.107v-.013c-.796-.178-1.868-1.062-2.586-2.027a4.942 4.942 0 0 1-.115-.16c-.69-.99-.982-2.03-.213-2.46 1.564-.873 2.914.998 2.914.998s1.354-1.857 2.915-.986c.748.418.492 1.415-.158 2.381z" fill="#ACC0F0" stroke="#263238" stroke-width=".286" stroke-miterlimit="10"/>
    <path d="M63.776 32.094c-.037.053-.073.107-.111.16h-.395l-.453.597-.307-1.771-.478 1.204h-1.129l-.578.964-.446-1.951-.575 1.017h-.871a4.939 4.939 0 0 1-.115-.159h.894l.73-1.295.45 1.967.425-.709h1.115l.637-1.63.34 1.968.28-.368.587.006z" fill="#fff"/>
    <path d="M56.408 22.203a4.795 4.795 0 1 0 0-9.591 4.795 4.795 0 0 0 0 9.59z" fill="#fff" stroke="#263238" stroke-width=".286" stroke-linecap="round" stroke-linejoin="round"/>
    <path d="M56.047 15.19c.047.104-.242.334-.637.514s-.764.242-.81.137c-.047-.105.24-.333.637-.513.396-.18.762-.236.81-.137z" fill="#fff" stroke="#263238" stroke-width=".286" stroke-linecap="round" stroke-linejoin="round"/>
    <path d="m58.206 19.639-1.435.694-1.287-2.65-.889-1.831 1.435-.696.867 1.787 1.309 2.696z" fill="#fff" stroke="#263238" stroke-width=".286" stroke-linecap="round" stroke-linejoin="round"/>
    <path d="m54.86 16.398.623-.289z" fill="#ACC0F0"/>
    <path d="m54.86 16.398.623-.289" stroke="#263238" stroke-width=".286" stroke-linecap="round" stroke-linejoin="round"/>
    <path d="m55.131 16.974.623-.288z" fill="#ACC0F0"/>
    <path d="m55.131 16.974.623-.288" stroke="#263238" stroke-width=".286" stroke-linecap="round" stroke-linejoin="round"/>
    <path d="m57.32 20.067.74.972-.369-1.152-.37.18z" fill="#fff" stroke="#263238" stroke-width=".286" stroke-linecap="round" stroke-linejoin="round"/>
    <path d="M58.206 19.639a2.389 2.389 0 0 1-1.232.656l-.203.038-1.287-2.65 1.413-.74 1.309 2.696z" fill="#ACC0F0" stroke="#263238" stroke-width=".286" stroke-miterlimit="10"/>
    <path d="m55.754 18.186.587-.27" stroke="#263238" stroke-width=".286" stroke-linecap="round" stroke-linejoin="round"/>
    <path d="m56.077 18.803.575-.263z" fill="#ACC0F0"/>
    <path d="m56.077 18.803.575-.263" stroke="#263238" stroke-width=".286" stroke-linecap="round" stroke-linejoin="round"/>
    <path d="m55.092 15.61-.454-1.021.357-.202.489 1.033-.392.19z" fill="#fff" stroke="#263238" stroke-width=".286" stroke-linecap="round" stroke-linejoin="round"/>
    <path d="m55.871 14.262-.108-.239-1.911.856.108.239c.044.101.508-.01 1.037-.246.528-.235.919-.51.874-.61z" fill="#fff" stroke="#263238" stroke-width=".286" stroke-linecap="round" stroke-linejoin="round"/>
    <path d="M55.762 14.023c-.044-.1-.51.01-1.037.245-.527.236-.919.51-.874.61.045.1.51-.01 1.037-.247.527-.237.919-.508.874-.608z" fill="#fff" stroke="#263238" stroke-width=".286" stroke-linecap="round" stroke-linejoin="round"/>
    <path d="M14.732 49.703h-.147v1.656h.147v-1.656z" fill="#ACC0F0"/>
    <path opacity=".1" d="M14.732 49.703h-.147v1.656h.147v-1.656z" fill="#000"/>
    <path d="M57.924 36.583h-.147v2.269h.147v-2.27zM57.924 40.042h-.147v1.231h.147v-1.23z" fill="#ACC0F0"/>
    <path opacity=".1" d="M57.924 36.583h-.147v2.269h.147v-2.27zM57.924 40.042h-.147v1.231h.147v-1.23z" fill="#000"/>
    <path d="M55.205 26.744H17.306c-1.22 0-2.207.988-2.207 2.207v22.185c0 1.219.988 2.207 2.207 2.207h37.9c1.218 0 2.206-.988 2.206-2.207V28.95c0-1.219-.988-2.207-2.207-2.207z" fill="#ACC0F0"/>
    <path d="M55.205 26.631H17.306a2.32 2.32 0 0 0-2.32 2.32v22.185a2.32 2.32 0 0 0 2.32 2.32h37.9a2.32 2.32 0 0 0 2.32-2.32V28.95a2.32 2.32 0 0 0-2.32-2.32z" fill="#ACC0F0" stroke="#000" stroke-width=".226"/>
    <path d="M50.562 36.006a2.738 2.738 0 1 0 0-5.477h-3.534a2.739 2.739 0 0 0 0 5.477h3.534zM26.683 36.005H20.16a.95.95 0 0 0-.95.95v4.264c0 .525.425.95.95.95h6.523a.95.95 0 0 0 .95-.95v-4.264a.95.95 0 0 0-.95-.95z" fill="#ACC0F0"/>
    <path d="M20.16 36.118h6.523c.462 0 .837.375.837.837v4.264a.838.838 0 0 1-.837.838H20.16a.838.838 0 0 1-.838-.838v-4.264c0-.462.375-.837.838-.837z" fill="#fff" stroke="#000" stroke-width=".226"/>
    <path d="M31.196 29.856H19.883a.673.673 0 1 0 0 1.345h11.313a.673.673 0 1 0 0-1.345z" fill="#ACC0F0"/>
    <path d="M19.883 29.97h11.313a.56.56 0 1 1 0 1.119H19.883a.56.56 0 1 1 0-1.12z" fill="#fff" stroke="#000" stroke-width=".226"/>
    <path d="M25.285 45.229h-5.088a.987.987 0 0 0-.988.987v.923c0 .545.442.987.988.987h5.088a.987.987 0 0 0 .987-.987v-.923a.987.987 0 0 0-.987-.987z" fill="#ACC0F0"/>
    <path d="M20.197 45.342h5.088c.482 0 .874.391.874.874v.923a.874.874 0 0 1-.874.874h-5.088a.874.874 0 0 1-.875-.874v-.923c0-.483.392-.874.875-.874z" fill="#fff" stroke="#000" stroke-width=".226"/>
    <path d="M34.294 45.229h-5.088a.987.987 0 0 0-.987.987v.923c0 .545.442.987.987.987h5.088a.987.987 0 0 0 .987-.987v-.923a.987.987 0 0 0-.987-.987z" fill="#ACC0F0"/>
    <path d="M29.206 45.342h5.088c.483 0 .874.391.874.874v.923a.874.874 0 0 1-.874.874h-5.088a.874.874 0 0 1-.874-.874v-.923c0-.483.391-.874.874-.874z" fill="#fff" stroke="#000" stroke-width=".226"/>
    <path d="M43.304 45.229h-5.088a.987.987 0 0 0-.988.987v.923c0 .545.442.987.988.987h5.088a.987.987 0 0 0 .987-.987v-.923a.987.987 0 0 0-.987-.987z" fill="#ACC0F0"/>
    <path d="M38.216 45.342h5.088c.482 0 .874.391.874.874v.923a.874.874 0 0 1-.874.874h-5.088a.874.874 0 0 1-.875-.874v-.923c0-.483.392-.874.875-.874z" fill="#fff" stroke="#000" stroke-width=".226"/>
    <path d="M52.313 45.229h-5.089a.987.987 0 0 0-.987.987v.923c0 .545.442.987.987.987h5.089a.987.987 0 0 0 .987-.987v-.923a.987.987 0 0 0-.987-.987z" fill="#ACC0F0"/>
    <path d="M47.224 45.342h5.089c.482 0 .874.391.874.874v.923a.874.874 0 0 1-.874.874h-5.089a.874.874 0 0 1-.874-.874v-.923c0-.483.392-.874.874-.874z" fill="#fff" stroke="#000" stroke-width=".226"/>
</svg>
