<svg width="69" height="68" viewBox="0 0 69 68" fill="none" xmlns="http://www.w3.org/2000/svg">
<path d="M65.8971 8H4.1029C2.9415 8 2 8.53814 2 9.20191V56.7982C2 57.4619 2.9415 58 4.1029 58H65.8971C67.0585 58 68 57.4619 68 56.7982V9.20191C68 8.53814 67.0585 8 65.8971 8Z" fill="white" stroke="white" stroke-width="1.5" stroke-linecap="round" stroke-linejoin="round"/>
<path d="M38 26.0017H29.3314V18H20.6658V26.0017H12V34.0009H20.6658V42H29.3314V34.0009H38V26.0017Z" fill="#B6D9F2" stroke="#505050" stroke-width="1.5" stroke-linecap="round" stroke-linejoin="round"/>
<path d="M68 21.8823V58.6832C68 59.4102 67.0076 60 65.7846 60H4.21538C2.99236 60 2 59.4102 2 58.6832V9.31678C2 8.58982 2.99236 8 4.21538 8H65.7846C67.0076 8 68 8.58982 68 9.31678V21.8823Z" stroke="#454545" stroke-width="1.5" stroke-linecap="round" stroke-linejoin="round"/>
<path d="M44 22H58" stroke="#454545" stroke-width="1.5" stroke-linecap="round" stroke-linejoin="round"/>
<path d="M58 34H44" stroke="#454545" stroke-width="1.5" stroke-linecap="round" stroke-linejoin="round"/>
<path d="M58 48L12 48" stroke="#454545" stroke-width="1.5" stroke-linecap="round" stroke-linejoin="round"/>
</svg>
