<svg width="120" height="120" viewBox="0 0 120 120" fill="none" xmlns="http://www.w3.org/2000/svg">
<g style="mix-blend-mode:multiply">
<g style="mix-blend-mode:multiply">
<path d="M45.6533 97.0267L71.9733 97.5333C80.3599 97.6933 85.7733 88.6667 81.6933 81.3467L68.4266 57.5733C64.3066 50.1867 53.6799 50.2133 49.5199 57.6133L36.4666 80.8667C32.4533 88.0267 37.4799 96.8533 45.6533 97.0133V97.0267Z" fill="#C1F5C8"/>
</g>
</g>
<path d="M59.6666 40.4267L64.5333 97.84H54.7999L59.6666 40.4267Z" fill="white"/>
<path d="M64.5333 98.84H54.8C54.52 98.84 54.2533 98.72 54.0667 98.52C53.88 98.3067 53.7867 98.04 53.8133 97.76L58.68 40.3467C58.72 39.8267 59.16 39.4267 59.68 39.4267C60.2 39.4267 60.6266 39.8267 60.68 40.3467L65.5467 97.76C65.5733 98.04 65.48 98.32 65.2933 98.52C65.1067 98.72 64.84 98.84 64.56 98.84H64.5333ZM55.88 96.84H63.44L59.6533 52.2667L55.8667 96.84H55.88Z" fill="#36354C"/>
<path d="M75.8534 97.6667H43.4667C40.6534 97.6667 38.1467 99.4267 37.16 102.067L35.3334 107H83.9867L82.16 102.067C81.1734 99.4267 78.6667 97.6667 75.8534 97.6667Z" fill="white"/>
<path d="M84 108H35.3333C35 108 34.6933 107.84 34.5067 107.573C34.32 107.307 34.28 106.96 34.3867 106.653L36.2133 101.72C37.3333 98.6933 40.24 96.6667 43.4533 96.6667H75.84C79.0533 96.6667 81.96 98.6933 83.08 101.72L84.9067 106.653C85.0133 106.96 84.9733 107.307 84.7867 107.573C84.6 107.84 84.2933 108 83.96 108H84ZM36.7733 106H82.56L81.2267 102.413C80.4 100.173 78.24 98.6667 75.8533 98.6667H43.4667C41.08 98.6667 38.9333 100.173 38.0933 102.413L36.76 106H36.7733Z" fill="#36354C"/>
<path d="M20.08 66.9067L29.88 40.2667L39.0266 66.9067" fill="white"/>
<path d="M39.0266 67.9067C38.6133 67.9067 38.2266 67.64 38.0799 67.2267L29.8399 43.2533L21.0133 67.2533C20.8266 67.7733 20.2399 68.04 19.7333 67.8533C19.2133 67.6667 18.9466 67.0933 19.1333 66.5733L28.9333 39.9333C29.0799 39.5467 29.4533 39.28 29.8666 39.28C30.2933 39.28 30.6666 39.56 30.7999 39.96L39.9466 66.6C40.1199 67.12 39.8533 67.6933 39.3199 67.8667C39.2133 67.9067 39.1066 67.92 38.9999 67.92L39.0266 67.9067Z" fill="#36354C"/>
<path d="M15.6666 69.28H43.4266V71.36C43.4266 76.4934 39.2533 80.6667 34.12 80.6667H24.9733C19.84 80.6667 15.6666 76.4934 15.6666 71.36V69.28Z" fill="#E7E7F0"/>
<path d="M34.1333 81.6667H24.9733C19.2933 81.6667 14.6666 77.04 14.6666 71.36V69.2667C14.6666 68.72 15.12 68.2667 15.6666 68.2667H43.4266C43.9733 68.2667 44.4266 68.72 44.4266 69.2667V71.36C44.4266 77.04 39.8 81.6667 34.12 81.6667H34.1333ZM16.6666 70.28V71.3734C16.6666 75.9467 20.3866 79.68 24.9733 79.68H34.1333C38.7066 79.68 42.44 75.96 42.44 71.3734V70.28H16.6666Z" fill="#36354C"/>
<path d="M80.3066 66.9067L90.1066 40.2667L99.2533 66.9067" fill="white"/>
<path d="M99.2533 67.9067C98.8399 67.9067 98.4533 67.64 98.3066 67.2267L90.0666 43.2533L81.2399 67.2533C81.0533 67.7733 80.4666 68.04 79.9599 67.8533C79.4399 67.6667 79.1733 67.0933 79.3599 66.5733L89.1599 39.9333C89.3066 39.5467 89.6799 39.28 90.0933 39.28C90.5199 39.28 90.8933 39.56 91.0266 39.96L100.173 66.6C100.347 67.12 100.08 67.6933 99.5466 67.8667C99.4399 67.9067 99.3333 67.92 99.2266 67.92L99.2533 67.9067Z" fill="#36354C"/>
<path d="M75.8933 69.28H103.653V71.36C103.653 76.4934 99.48 80.6667 94.3467 80.6667H85.1867C80.0533 80.6667 75.88 76.4934 75.88 71.36V69.28H75.8933Z" fill="#E7E7F0"/>
<path d="M94.36 81.6667H85.2C79.52 81.6667 74.8933 77.04 74.8933 71.36V69.2667C74.8933 68.72 75.3466 68.2667 75.8933 68.2667H103.667C104.213 68.2667 104.667 68.72 104.667 69.2667V71.36C104.667 77.04 100.04 81.6667 94.36 81.6667ZM76.8933 70.28V71.3734C76.8933 75.9467 80.6133 79.68 85.2 79.68H94.36C98.9333 79.68 102.667 75.96 102.667 71.3734V70.28H76.8933Z" fill="#36354C"/>
<path d="M29.88 41.2667C29.4666 41.2667 29.08 41.0133 28.9333 40.6C28.7466 40.08 29.0133 39.5067 29.5333 39.32C60.0266 28.44 90.1466 39.2133 90.44 39.32C90.96 39.5067 91.2266 40.08 91.04 40.6C90.8533 41.12 90.28 41.3867 89.76 41.2C89.4666 41.0933 60 30.5733 30.2133 41.2C30.1066 41.24 29.9866 41.2533 29.88 41.2533V41.2667Z" fill="#36354C"/>
<path d="M60.0799 13H59.7732C51.6068 13 44.9866 19.6202 44.9866 27.7867V27.8533C44.9866 36.0198 51.6068 42.64 59.7732 42.64H60.0799C68.2464 42.64 74.8666 36.0198 74.8666 27.8533V27.7867C74.8666 19.6202 68.2464 13 60.0799 13Z" fill="white"/>
<path d="M60.0666 43.64H59.7732C51.0666 43.64 43.9866 36.56 43.9866 27.8533C43.9866 19.1467 51.0666 12 59.7732 12H60.0666C68.7732 12 75.8532 19.08 75.8532 27.7867C75.8532 36.4933 68.7732 43.64 60.0666 43.64ZM59.7732 14C52.1732 14 45.9866 20.1867 45.9866 27.7867C45.9866 35.3867 52.1732 41.64 59.7732 41.64H60.0666C67.6666 41.64 73.8532 35.4533 73.8532 27.8533C73.8532 20.2533 67.6799 14 60.0666 14H59.7732Z" fill="#36354C"/>
<path d="M64.8265 22.7333H55.0132C54.4665 22.7333 54.0132 22.28 54.0132 21.7333C54.0132 21.1867 54.4665 20.7333 55.0132 20.7333H64.8265C65.3732 20.7333 65.8265 21.1867 65.8265 21.7333C65.8265 22.28 65.3732 22.7333 64.8265 22.7333Z" fill="#36354C"/>
<path d="M64.8265 26.9333H55.0132C54.4665 26.9333 54.0132 26.48 54.0132 25.9333C54.0132 25.3867 54.4665 24.9333 55.0132 24.9333H64.8265C65.3732 24.9333 65.8265 25.3867 65.8265 25.9333C65.8265 26.48 65.3732 26.9333 64.8265 26.9333Z" fill="#36354C"/>
<path d="M61.8532 38.16C61.5732 38.16 61.2799 38.04 61.0799 37.8L55.0399 30.5067C54.7999 30.2133 54.7465 29.7867 54.9065 29.44C55.0665 29.0933 55.4265 28.8667 55.8132 28.8667H57.3065C59.0665 28.8667 60.5065 27.4933 60.5065 25.8C60.5065 24.1067 59.0798 22.7333 57.3065 22.7333H55.0132C54.4665 22.7333 54.0132 22.28 54.0132 21.7333C54.0132 21.1867 54.4665 20.7333 55.0132 20.7333H57.3065C60.1732 20.7333 62.5065 23 62.5065 25.8C62.5065 28.3867 60.5065 30.5333 57.9198 30.8267L62.6265 36.52C62.9732 36.9467 62.9198 37.5733 62.4932 37.9333C62.3065 38.0933 62.0798 38.16 61.8532 38.16Z" fill="#36354C"/>
</svg>
