<svg xmlns="http://www.w3.org/2000/svg" width="272.001" height="77.927" viewBox="0 0 272.001 77.927">
    <defs>
        <linearGradient id="linear-gradient" x1=".518" x2=".482" y1="1.921" y2="-1.337" gradientUnits="objectBoundingBox">
            <stop offset="0" stop-color="#0060ff"/>
            <stop offset="1" stop-color="#84b2ff"/>
        </linearGradient>
        <style>
            .cls-1,.cls-4{fill:none}.cls-1{stroke:#195dff;stroke-linecap:round;stroke-miterlimit:10}.cls-9{fill:#e2edff}.cls-15,.cls-5{fill:#002226}.cls-11,.cls-6{fill:#fff}.cls-11,.cls-9{stroke:#002226}.cls-14,.cls-15{stroke:none}
        </style>
    </defs>
    <g id="Group_16598" transform="translate(-1448.499 -477)">
        <path id="Line_61" d="M0 0L112.782 0" class="cls-1" transform="translate(1607.218 554.427)"/>
        <path id="Path_10501" fill="none" stroke="#195dff" stroke-linecap="round" d="M-25.014 0H90.324" transform="translate(1474.013 554.427)"/>
        <g id="Group_14084" transform="translate(1507.265 477)">
            <g id="Group_14083">
                <path id="Path_527" fill="#e2edff" d="M1429.547 336.822h-81.733v-25.478h72.048l6.723 5.463a8.019 8.019 0 0 1 2.962 6.225z" transform="translate(-1280.022 -274.04)"/>
                <g id="Path_529" class="cls-4">
                    <path d="M1328.254 346.1c0-9.3 4.216-16.837 9.417-16.837h-9.99c-5.2 0-9.417 7.538-9.417 16.837s4.216 16.837 9.417 16.837h9.99c-5.201.002-9.417-7.537-9.417-16.837z" class="cls-14" transform="translate(-1260.933 -285.618)"/>
                    <path d="M1332.817 361.94c-.986-.879-1.889-2.034-2.677-3.444-1.86-3.327-2.886-7.728-2.886-12.394 0-4.665 1.025-9.067 2.886-12.394.788-1.41 1.691-2.565 2.678-3.443h-5.137c-2.137 0-4.191 1.57-5.785 4.42-1.697 3.033-2.631 7.088-2.631 11.417 0 4.33.934 8.384 2.63 11.418 1.595 2.85 3.65 4.42 5.786 4.42h5.136m4.854 1h-9.99c-5.2 0-9.416-7.539-9.416-16.838 0-9.299 4.216-16.837 9.416-16.837h9.99c-5.201 0-9.417 7.538-9.417 16.837 0 9.3 4.216 16.837 9.417 16.837z" class="cls-15" transform="translate(-1260.933 -285.618)"/>
                </g>
                <ellipse id="Ellipse_8" cx="9.417" cy="16.837" class="cls-5" rx="9.417" ry="16.837" transform="translate(67.321 43.647)"/>
                <ellipse id="Ellipse_9" cx="6.676" cy="13.13" class="cls-6" rx="6.676" ry="13.13" transform="translate(70.819 47.354)"/>
                <g id="Path_530" class="cls-4">
                    <path d="M1174.913 346.1c0-9.3 4.217-16.837 9.417-16.837h-9.989c-5.2 0-9.417 7.538-9.417 16.837s4.216 16.837 9.417 16.837h9.989c-5.2.002-9.417-7.537-9.417-16.837z" class="cls-14" transform="translate(-1161.869 -285.618)"/>
                    <path d="M1179.477 361.94c-.986-.879-1.89-2.034-2.678-3.444-1.86-3.327-2.886-7.728-2.886-12.394 0-4.665 1.025-9.067 2.886-12.394.789-1.41 1.692-2.565 2.678-3.443h-5.136c-2.137 0-4.192 1.57-5.786 4.42-1.697 3.033-2.631 7.088-2.631 11.417 0 4.33.934 8.385 2.63 11.418 1.595 2.85 3.65 4.42 5.787 4.42h5.136m4.853 1h-9.989c-5.201 0-9.417-7.539-9.417-16.838 0-9.299 4.216-16.837 9.417-16.837h9.99c-5.201 0-9.418 7.538-9.418 16.837 0 9.3 4.217 16.837 9.417 16.837z" class="cls-15" transform="translate(-1161.869 -285.618)"/>
                </g>
                <g id="Ellipse_10" fill="none" stroke="#002226" transform="translate(13.044 43.647)">
                    <ellipse cx="9.417" cy="16.837" class="cls-14" rx="9.417" ry="16.837"/>
                    <ellipse cx="9.417" cy="16.837" rx="8.917" ry="16.337"/>
                </g>
                <g id="Path_531" class="cls-4">
                    <path d="M1510.561 346.1c0-9.3 4.216-16.837 9.417-16.837h-9.99c-5.2 0-9.417 7.538-9.417 16.837s4.216 16.837 9.417 16.837h9.99c-5.201.002-9.417-7.537-9.417-16.837z" class="cls-14" transform="translate(-1378.709 -285.618)"/>
                    <path d="M1515.124 361.94c-.986-.879-1.89-2.034-2.678-3.444-1.86-3.327-2.885-7.728-2.885-12.394 0-4.665 1.024-9.067 2.885-12.394.789-1.41 1.692-2.565 2.678-3.443h-5.136c-2.137 0-4.192 1.57-5.786 4.42-1.697 3.033-2.631 7.088-2.631 11.417 0 4.33.934 8.384 2.63 11.418 1.595 2.85 3.65 4.42 5.787 4.42h5.136m4.854 1h-9.99c-5.2 0-9.417-7.539-9.417-16.838 0-9.299 4.216-16.837 9.417-16.837h9.99c-5.201 0-9.417 7.538-9.417 16.837 0 9.3 4.216 16.837 9.417 16.837z" class="cls-15" transform="translate(-1378.709 -285.618)"/>
                </g>
                <ellipse id="Ellipse_11" cx="9.417" cy="16.837" class="cls-5" rx="9.417" ry="16.837" transform="translate(131.851 43.647)"/>
                <ellipse id="Ellipse_12" cx="6.676" cy="13.13" class="cls-6" rx="6.676" ry="13.13" transform="translate(135.349 47.354)"/>
                <path id="Path_532" fill="url(#linear-gradient)" d="M1212.488 359.615h-12.079l-.675-.674a3.712 3.712 0 0 0-2.625-1.087h-30.193a3.715 3.715 0 0 0-2.625 1.087l-.41.411h-1.1a6.486 6.486 0 0 1-6.485-6.485v-9.957h68.523l-5.46 11.852a7.287 7.287 0 0 1-6.871 4.853z" transform="translate(-1156.295 -294.432)"/>
                <path id="Path_533" d="M1212.488 359.615h-12.079l-.675-.674a3.712 3.712 0 0 0-2.625-1.087h-30.193a3.715 3.715 0 0 0-2.625 1.087l-.41.411h-1.1a6.486 6.486 0 0 1-6.485-6.485v-9.957h68.523l-5.46 11.852a7.287 7.287 0 0 1-6.871 4.853z" class="cls-9" transform="translate(-1156.295 -294.432)"/>
                <path id="Path_534" fill="#1a2e35" d="M1516.122 212.065a.23.23 0 0 1-.119-.032.234.234 0 0 1-.084-.321l3.288-5.638a.235.235 0 1 1 .406.237l-3.289 5.638a.234.234 0 0 1-.202.116z" transform="translate(-1388.604 -205.957)"/>
                <path id="Path_535" d="M1439.883 243.086v-6.408c0-3.368-4.9-19.265-11.631-22.241s-23.024-4.307-33.283-3.759-23.945 22.006-23.945 22.006l1.442 17.726c2.085 0 8.775.1 9.75 18.363a5.02 5.02 0 0 0 5.006 4.765h35.924a5.01 5.01 0 0 0 4.963-4.306c.921-6.507 3.392-18.094 9.306-18.094a7.336 7.336 0 0 1 7.126 7.625 27.6 27.6 0 0 0-3.17-12.844z" class="cls-9" transform="translate(-1295.017 -208.204)"/>
                <path id="Path_536" d="M1259.721 210.9c-18.691 0-39.862 22.006-39.862 22.006h53.507s13.686-21.458 23.945-22.006z" class="cls-11" transform="translate(-1197.36 -208.424)"/>
                <path id="Path_538" d="M1232.3 273.068l-19.767 15.6-53.185-.17s-3.055 4.438-3.055 9.293h68.523c1.122-2.976 5.058-6.265 8.973-6.265.002-5.536-1.489-18.458-1.489-18.458z" class="cls-9" transform="translate(-1156.295 -249.313)"/>
                <path id="Path_540" d="M1164.924 288.5s9.343-10.885 19.446-15.428h53.507l-19.767 15.6z" class="cls-9" transform="translate(-1161.87 -249.313)"/>
                <path id="Rectangle_2164" d="M0 0H35.084V1.018H0z" transform="translate(9.343 39.183)"/>
                <path id="Path_541" d="M1278.09 300.134l1.886-1.886a3.118 3.118 0 0 1 1.542-.842l14.2-3.092a3.114 3.114 0 0 1 1.509.045l.759.213a3.12 3.12 0 0 1 1.5 5.058l-3.052 3.488a3.117 3.117 0 0 1-2.06 1.052l-13.791 1.277a3.118 3.118 0 0 1-2.489-.9 3.119 3.119 0 0 1-.004-4.413z" class="cls-11" transform="translate(-1234.388 -262.992)"/>
                <path id="Path_542" d="M1170.379 305.931l-1.559-2.907a2.562 2.562 0 0 0-.941-.987 2.562 2.562 0 0 0-2.508-.071l-1.179.618a2.563 2.563 0 0 0-1.237 1.447l-.723 2.128a2.564 2.564 0 0 0 1.991 3.349l3.246.561a2.563 2.563 0 0 0 2.693-1.31l.215-.4a2.562 2.562 0 0 0 .002-2.428z" class="cls-11" transform="translate(-1160.042 -267.792)"/>
                <path id="Path_543" fill="#fff" stroke="#000" d="M1397.11 239.534h49.467a2.688 2.688 0 0 0 2.574-3.463c-1.125-3.763-3.294-9.637-6.535-12.635a2.71 2.71 0 0 0-1.284-.657c-5.83-1.236-15.205-2.059-22.16-2.537a21.866 21.866 0 0 0-17.106 6.5 60.029 60.029 0 0 0-7.136 8.707 2.626 2.626 0 0 0 2.18 4.085z" transform="translate(-1310.174 -215.152)"/>
                <path id="Path_544" d="M1298.666 353.371c0 1.543-1.578 2.793-3.524 2.793s-3.524-1.25-3.524-2.793 1.578-2.793 3.524-2.793 3.524 1.25 3.524 2.793z" transform="translate(-1243.718 -299.387)"/>
                <path id="Path_545" d="M1225.683 310.629c1.157 0 1.72 1.183 1.261 2.642a3.614 3.614 0 0 1-2.928 2.642c-1.156 0-1.72-1.183-1.26-2.642a3.613 3.613 0 0 1 2.927-2.642z" class="cls-5" transform="translate(-1199.128 -273.578)"/>
                <path id="Path_546" d="M1160.707 353.371c0 1.543-.444 2.793-.992 2.793s-.992-1.25-.992-2.793.444-2.793.992-2.793.992 1.25.992 2.793z" transform="translate(-1157.863 -299.387)"/>
                <path id="Path_547" d="M1397.594 265.1v-1.58a3.058 3.058 0 0 1 3.682-2.993l6.023 1.256a3.058 3.058 0 0 1 2.434 2.993v.327a3.058 3.058 0 0 1-3.057 3.058h-6.024a3.058 3.058 0 0 1-3.058-3.061z" class="cls-5" transform="translate(-1312.183 -241.169)"/>
                <path id="Path_548" d="M1483.109 221.816s-.8-.08-2.205-.2c6.2 12.693 4.617 18.84 4.617 18.84h4.725c.048-7.731-7.137-18.64-7.137-18.64z" class="cls-5" transform="translate(-1366.004 -216.071)"/>
                <path id="Path_549" fill="#edf0f5" d="M1284.507 235.569a4.031 4.031 0 0 1-4.011 3.644h-24.35c-1.777 0-2.42-1.98-1.135-3.459a69.056 69.056 0 0 1 7.546-7.367 22.315 22.315 0 0 1 15.6-5.5c.648.046 1.323.095 2.014.148a4.035 4.035 0 0 1 3.634 3.181 30.671 30.671 0 0 1 .702 9.353z" opacity="0.51" transform="translate(-1219.632 -216.867)"/>
                <path id="Path_550" d="M1495.1 313.44a.235.235 0 0 1-.235-.235c0-4.755 2.424-24.362 3.059-27.3a17.951 17.951 0 0 0 0-8.107.235.235 0 1 1 .45-.133 18.436 18.436 0 0 1 0 8.339c-.634 2.931-3.049 22.467-3.049 27.2a.235.235 0 0 1-.225.236z" class="cls-5" transform="translate(-1375.026 -252.172)"/>
                <path id="Path_551" d="M1481.984 297.521h-5.73a.71.71 0 0 1-.715-.868l.118-.666a1.084 1.084 0 0 1 1.021-.868h5.73a.71.71 0 0 1 .714.868l-.117.666a1.085 1.085 0 0 1-1.021.868z" transform="translate(-1362.53 -263.558)"/>
                <path id="Line_195" d="M0 0L29.177 0" class="cls-1" transform="translate(3.927 77.427)"/>
            </g>
        </g>
    </g>
</svg>
