<svg width="36" height="34" viewBox="0 0 36 34" fill="none" xmlns="http://www.w3.org/2000/svg">
<path fill-rule="evenodd" clip-rule="evenodd" d="M17.7888 0.193999C17.7447 0.0772474 17.6329 -8.96973e-06 17.5081 7.81116e-10C17.3833 8.97127e-06 17.2716 0.0772814 17.2275 0.194039L16.5979 1.86173L14.9595 2.50141C14.8444 2.54635 14.7686 2.65727 14.7686 2.78084C14.7686 2.90441 14.8444 3.01534 14.9595 3.0603L16.5979 3.70028L17.2275 5.3677C17.2716 5.48445 17.3833 5.56172 17.5081 5.56173C17.6329 5.56174 17.7447 5.48449 17.7888 5.36774L18.4187 3.70028L20.0568 3.0603C20.1719 3.01533 20.2477 2.9044 20.2477 2.78084C20.2477 2.65728 20.1719 2.54636 20.0568 2.50141L18.4187 1.86173L17.7888 0.193999ZM17.112 2.19858L17.5082 1.14921L17.9046 2.19862C17.9346 2.27812 17.9969 2.34115 18.0761 2.37206L19.1231 2.78092L18.0761 3.18998C17.9969 3.22089 17.9346 3.28391 17.9046 3.36339L17.5082 4.41264L17.112 3.36343C17.082 3.28393 17.0197 3.22089 16.9405 3.18997L15.8933 2.78092L16.9405 2.37207C17.0197 2.34116 17.082 2.2781 17.112 2.19858ZM3.02017 6.06119C2.97607 5.94444 2.8643 5.86718 2.7395 5.86719C2.6147 5.8672 2.50294 5.94447 2.45886 6.06123L1.82924 7.72892L0.190889 8.3686C0.0757836 8.41354 9.08399e-06 8.52446 8.19047e-10 8.64803C-9.09543e-06 8.7716 0.075749 8.88253 0.190848 8.92749L1.82924 9.56746L2.45886 11.2349C2.50295 11.3516 2.6147 11.4289 2.7395 11.4289C2.86429 11.4289 2.97606 11.3517 3.02016 11.2349L3.65007 9.56746L5.28821 8.92748C5.4033 8.88252 5.47905 8.77159 5.47904 8.64803C5.47903 8.52447 5.40327 8.41355 5.28817 8.3686L3.65007 7.72892L3.02017 6.06119ZM2.34341 8.06576L2.73958 7.0164L3.13594 8.0658C3.16597 8.1453 3.22831 8.20834 3.30747 8.23925L4.35447 8.64811L3.30743 9.05717C3.22829 9.08808 3.16597 9.1511 3.13595 9.23058L2.73958 10.2798L2.3434 9.23062C2.31338 9.15112 2.25105 9.08808 2.17189 9.05716L1.1247 8.64811L2.17185 8.23926C2.25103 8.20834 2.31338 8.14529 2.34341 8.06576ZM26.0801 30.5019H9.91682V32.633C9.87847 33.0006 9.70593 33.1922 9.70593 33.1922C9.50918 33.595 9.02788 33.8622 8.59502 33.9119C7.63344 34.0227 4.78199 34.0362 3.84361 33.9047C3.18675 33.8125 2.6439 33.2254 2.59042 32.5554L2.59345 27.9793C2.55424 27.313 2.49591 26.6715 2.43935 26.0493C2.15825 22.9571 1.92066 20.3435 4.28858 17.5556C4.48262 17.3274 4.75526 17.0623 5.0377 16.7877L5.03773 16.7876L5.03778 16.7876L5.03781 16.7875C5.47941 16.3582 5.94493 15.9056 6.17139 15.5342C6.59181 14.844 6.89952 13.8809 7.21166 12.904L7.21166 12.9039C7.57299 11.773 7.94024 10.6235 8.49513 9.85739C9.25693 8.80524 11.0219 8.69065 12.3705 8.6031L12.3706 8.6031L12.3706 8.60309L12.3706 8.60309C12.5564 8.59103 12.7342 8.57949 12.9004 8.56607C15.5834 8.34965 18.3027 8.37243 20.9816 8.48737C21.2304 8.49809 21.4899 8.50767 21.7562 8.51751L21.7565 8.51752L21.7568 8.51753L21.7569 8.51754C23.1374 8.56851 24.7045 8.62638 25.957 8.88502C27.6149 9.22756 28.2741 11.2719 28.8782 13.1456C29.1708 14.0531 29.4505 14.9206 29.8245 15.5352C30.0846 15.9629 30.5441 16.4153 31.0072 16.8714L31.0073 16.8715L31.0073 16.8715C31.401 17.2592 31.7975 17.6497 32.0766 18.0299C34.0548 20.7205 33.8261 23.1751 33.5607 26.0233C33.5018 26.6544 33.4412 27.3048 33.4024 27.9814C33.3647 28.6372 33.3929 29.3456 33.4212 30.0549C33.4557 30.9191 33.4902 31.7845 33.4055 32.5574C33.3318 33.2254 32.8091 33.8156 32.1523 33.9067C31.2129 34.0382 28.3614 34.0248 27.4009 33.914C26.968 33.8643 26.5069 33.5847 26.29 33.1943L26.2776 33.1725C26.2184 33.0681 26.0725 32.8107 26.0791 32.6351V30.504L26.0801 30.5019ZM28.0917 13.419C28.3201 14.0672 28.547 14.7112 28.7979 15.3074C27.7275 15.2919 26.6561 15.265 25.5857 15.2339C25.5857 15.2339 14.5774 15.0444 9.04504 15.2277C9.01229 15.2287 8.91924 15.2369 8.79121 15.2482L8.79104 15.2483C8.2759 15.2937 7.19492 15.3892 7.19654 15.2681L9.04604 10.5771C9.51498 9.76466 10.3063 9.68757 11.1252 9.6078C11.2384 9.59678 11.3522 9.5857 11.4656 9.57262C15.5521 9.09938 20.4387 9.09938 24.5313 9.57262C24.6564 9.5871 24.7783 9.59927 24.8968 9.61111L24.8973 9.61116L24.8973 9.61116L24.8974 9.61117C25.8294 9.70428 26.554 9.77666 27.0507 10.7852C27.4478 11.5911 27.7712 12.5092 28.0917 13.419L28.0917 13.419ZM14.5088 15.9515L6.7223 16.2549C4.93334 17.976 3.28361 19.81 3.11612 22.4754C3.03641 23.7388 3.13024 25.7042 3.27251 26.9738C3.58401 29.7727 6.03592 29.7155 8.18822 29.6652H8.1883H8.18837H8.18845H8.18853H8.18861C8.51114 29.6577 8.82693 29.6503 9.12777 29.6527C16.2594 29.7097 23.4799 29.6962 30.6156 29.5368C32.5034 28.9869 32.679 27.5651 32.8011 25.8119C32.9443 23.7491 33.0614 21.763 32.1866 19.8555C31.6846 18.7595 30.8368 17.8726 30.007 17.0045L30.007 17.0045L30.0069 17.0044L30.0065 17.004C29.7757 16.7625 29.5463 16.5225 29.3261 16.2798C27.7739 16.1226 26.2108 16.0863 24.6495 16.05H24.6495L24.6495 16.05C23.5263 16.0238 22.404 15.9977 21.2873 15.9267L14.5088 15.9526V15.9515ZM9.01073 30.5019H5.64973C5.31272 30.4936 4.7497 30.4108 4.42984 30.1622L3.42185 29.4166V32.4787C3.42185 32.7542 3.79417 33.0296 4.06256 33.0617C4.96663 33.1705 7.54363 33.1715 8.44669 33.0617C8.46026 33.0601 8.47517 33.0585 8.49114 33.0569C8.6534 33.0403 8.92539 33.0124 9.01174 32.7107V30.5019H9.01073ZM32.5751 29.4166L31.5339 30.2366C31.2756 30.3743 30.997 30.4812 30.3462 30.5019H26.9095V32.4011C26.9095 32.8049 27.2788 33.0338 27.6239 33.0638C27.7369 33.0731 32.004 33.0555 32.004 33.0555C32.229 33.0586 32.5751 32.6724 32.5751 32.4787V29.4166ZM22.856 25.1437H13.1902C12.9183 25.1437 12.6978 25.3642 12.6978 25.6361C12.6978 25.9081 12.9183 26.1285 13.1902 26.1285H22.856C23.1279 26.1285 23.3484 25.9081 23.3484 25.6361C23.3484 25.3642 23.1279 25.1437 22.856 25.1437ZM6.29088 20.259C6.06356 20.2262 5.90276 20.203 5.66741 20.2431C5.02467 20.3529 4.4223 21.0044 4.33451 21.6651C4.15592 23.0177 4.41322 24.4076 5.95296 24.5651C6.66027 24.6376 9.32001 24.651 9.89615 24.4284C11.1776 23.9323 11.3128 22.0525 10.1383 21.3544C9.67417 21.0789 6.91151 20.3477 6.29602 20.2597L6.29088 20.259ZM5.19116 23.0208C5.03981 22.3684 5.05595 21.1887 5.89645 21.0914C6.18954 21.0573 7.6873 21.5011 8.2805 21.6769L8.42301 21.719C8.51736 21.7469 8.63467 21.7766 8.76137 21.8087C9.11431 21.8981 9.54015 22.0059 9.74581 22.1447C10.325 22.5361 10.1494 23.5501 9.42798 23.6371C8.64196 23.7324 6.75209 23.7158 5.94791 23.6392C5.58366 23.605 5.27995 23.403 5.19116 23.0208ZM29.7622 20.2403C31.4967 20.0228 31.8821 21.7721 31.651 23.1869C31.5259 23.9512 30.7591 24.4887 30.0447 24.5612C29.3364 24.6337 26.6777 24.6472 26.1015 24.4245C24.697 23.8808 24.7091 21.7959 26.1146 21.2253C26.8038 20.9456 29.0387 20.3315 29.7622 20.2414V20.2403ZM29.9156 21.0886C29.5422 21.1176 26.5192 21.9689 26.2529 22.1419C25.6676 22.523 25.8452 23.5452 26.5697 23.6332C27.3547 23.7285 29.2456 23.7109 30.0497 23.6353C30.9266 23.5525 30.9437 22.5406 30.8348 21.8146C30.7651 21.3506 30.3585 21.0544 29.9176 21.0886H29.9156ZM33.2606 5.86719C33.3854 5.86718 33.4972 5.94444 33.5413 6.06119L34.1712 7.72892L35.8093 8.3686C35.9244 8.41355 36.0002 8.52447 36.0002 8.64803C36.0002 8.77159 35.9244 8.88252 35.8093 8.92748L34.1712 9.56746L33.5413 11.2349C33.4972 11.3517 33.3854 11.4289 33.2606 11.4289C33.1358 11.4289 33.0241 11.3516 32.98 11.2349L32.3504 9.56746L30.712 8.92749C30.5969 8.88253 30.5211 8.7716 30.5211 8.64803C30.5211 8.52446 30.5969 8.41354 30.712 8.3686L32.3504 7.72892L32.98 6.06123C33.0241 5.94447 33.1358 5.8672 33.2606 5.86719ZM33.2607 7.0164L32.8645 8.06576C32.8345 8.14529 32.7722 8.20834 32.693 8.23926L31.6458 8.64811L32.693 9.05716C32.7722 9.08808 32.8345 9.15112 32.8645 9.23062L33.2607 10.2798L33.6571 9.23058C33.6871 9.1511 33.7494 9.08808 33.8285 9.05717L34.8756 8.64811L33.8286 8.23925C33.7494 8.20834 33.6871 8.1453 33.6571 8.0658L33.2607 7.0164Z" fill="url(#paint0_linear_5335_561)"/>
<defs>
<linearGradient id="paint0_linear_5335_561" x1="17.8432" y1="0.292385" x2="17.8432" y2="33.78" gradientUnits="userSpaceOnUse">
<stop stop-color="#73ABFF"/>
<stop offset="1" stop-color="#4883DC"/>
</linearGradient>
</defs>
</svg>
