<svg width="68" height="68" viewBox="0 0 68 68" fill="none" xmlns="http://www.w3.org/2000/svg">
<g clip-path="url(#clip0_101_1278)">
<path d="M36.4645 67.2169V54.3681H56.968V67.2169H67.2177V8.32187H56.968V0.78125H36.4645V8.32187H26.2148V67.2169H36.4645Z" fill="#B6D9F2" stroke="#B6D9F2" stroke-width="2.83333" stroke-linecap="round" stroke-linejoin="round"/>
<path d="M36.4648 64.283V54.3633H56.9683V64.283" stroke="#454545" stroke-width="2.83333" stroke-linejoin="round"/>
<path d="M67.2169 67.2188H0.78125" stroke="#454545" stroke-width="2.83333" stroke-linecap="round" stroke-linejoin="round"/>
<path d="M26.2148 53.5078V67.2243" stroke="#454545" stroke-width="2.83333" stroke-linecap="round" stroke-linejoin="round"/>
<path d="M26.2148 15.3906V21.2406" stroke="#454545" stroke-width="2.83333" stroke-linecap="round" stroke-linejoin="round"/>
<path d="M67.2177 67.2169V8.32187H56.968V0.78125H36.4645V8.32187H26.2148V15.3899" stroke="#454545" stroke-width="2.83333" stroke-linecap="square" stroke-linejoin="round"/>
<path d="M56.9688 15.1562V49.4822" stroke="#454545" stroke-width="2.83333" stroke-linecap="square" stroke-linejoin="round"/>
<path d="M36.4648 15.1562V49.4822" stroke="#454545" stroke-width="2.83333" stroke-linecap="square" stroke-linejoin="round"/>
<path d="M46.7188 8.32422V49.486" stroke="#454545" stroke-width="2.83333" stroke-linecap="square" stroke-linejoin="round"/>
<path d="M16.0038 21C13.0992 24.8172 7.47328 27.4081 1 27.4081V31.6123C1 42.7093 7.04146 52.3805 16.0038 57.5665C24.9621 52.3765 31.0077 42.7093 31.0077 31.6123V27.4081C24.5385 27.4081 18.9125 24.8212 16.0038 21Z" fill="white" stroke="#454545" stroke-width="2.83333" stroke-linecap="round" stroke-linejoin="round"/>
<path d="M25.0061 33.0273L15.4449 46.6909L8.90234 38.3681" stroke="#454545" stroke-width="2.83333" stroke-linecap="round" stroke-linejoin="round"/>
<path d="M16.0038 21C13.0992 24.8172 7.47328 27.4081 1 27.4081V31.6123C1 42.7093 7.04146 52.3805 16.0038 57.5665C24.9621 52.3765 31.0077 42.7093 31.0077 31.6123V27.4081C24.5385 27.4081 18.9125 24.8212 16.0038 21Z" fill="white" stroke="#454545" stroke-width="2.83333" stroke-linecap="round" stroke-linejoin="round"/>
<path d="M25.0061 33.0273L15.4449 46.6909L8.90234 38.3681" stroke="#454545" stroke-width="2.83333" stroke-linecap="round" stroke-linejoin="round"/>
</g>
<defs>
<clipPath id="clip0_101_1278">
<rect width="68" height="68" fill="white"/>
</clipPath>
</defs>
</svg>
