<svg width="62" height="62" viewBox="0 0 62 62" fill="none" xmlns="http://www.w3.org/2000/svg">
    <g clip-path="url(#gwfei9gd1a)">
        <path d="M34.702 62C49.226 62 61 61.167 61 60.139c0-1.029-11.774-1.862-26.298-1.862s-26.299.833-26.299 1.861C8.403 61.168 20.177 62 34.702 62z" fill="#263238" fill-opacity=".5"/>
        <path d="M12.168 55.271H12v1.922h.168V55.27z" fill="#E2F3FF"/>
        <path opacity=".1" d="M12.168 55.271H12v1.922h.168V55.27z" fill="#000"/>
        <path d="M58.474 28.634H15.114c-1.395 0-2.526 1.147-2.526 2.561v25.739c0 1.415 1.13 2.561 2.526 2.561h43.361c1.395 0 2.526-1.146 2.526-2.561V31.195c0-1.414-1.13-2.56-2.526-2.56z" fill="#E2F3FF"/>
        <path d="M58.474 28.534H15.114c-1.452 0-2.626 1.193-2.626 2.661v25.739c0 1.468 1.174 2.661 2.626 2.661h43.361c1.452 0 2.626-1.193 2.626-2.661V31.195c0-1.468-1.174-2.66-2.626-2.66z" fill="#E2F3FF" stroke="#000" stroke-width=".2"/>
        <path d="M53.164 39.38c.83 0 1.628-.334 2.215-.93a3.2 3.2 0 0 0 .918-2.247 3.2 3.2 0 0 0-.918-2.246 3.112 3.112 0 0 0-2.215-.93H49.12c-.831 0-1.628.334-2.216.93a3.2 3.2 0 0 0-.918 2.246c0 .843.33 1.651.918 2.247.588.596 1.384.93 2.215.93h4.045zM25.841 39.379h-7.463c-.6 0-1.087.494-1.087 1.103v4.947c0 .609.487 1.102 1.087 1.102h7.463c.6 0 1.088-.493 1.088-1.102v-4.947c0-.61-.487-1.103-1.088-1.103z" fill="#E2F3FF"/>
        <path d="M17.406 39.479h7.463c.544 0 .987.448.987 1.003v4.947a.995.995 0 0 1-.987 1.002h-7.463a.995.995 0 0 1-.988-1.002v-4.947a.995.995 0 0 1 .988-1.003z" fill="#fff" stroke="#000" stroke-width=".2"/>
        <path d="M31.005 32.245H18.06c-.425 0-.77.35-.77.78 0 .431.345.78.77.78h12.944c.425 0 .77-.349.77-.78 0-.43-.345-.78-.77-.78z" fill="#E2F3FF"/>
        <path d="M16.585 32.1h9.83c.111 0 .23.078.327.243.096.163.158.395.158.657s-.062.493-.158.657c-.097.165-.216.243-.327.243h-9.83c-.111 0-.23-.078-.327-.243A1.325 1.325 0 0 1 16.1 33c0-.262.062-.493.158-.657.097-.165.216-.243.327-.243z" fill="#fff" stroke="#000" stroke-width=".2"/>
        <path d="M24.242 50.081H18.42c-.623 0-1.129.513-1.129 1.146v1.07c0 .633.506 1.145 1.13 1.145h5.821c.624 0 1.13-.513 1.13-1.145v-1.07c0-.633-.506-1.146-1.13-1.146z" fill="#E2F3FF"/>
        <path d="M17.448 50.181h5.821c.568 0 1.03.467 1.03 1.046v1.07c0 .579-.462 1.045-1.03 1.045h-5.821c-.567 0-1.03-.466-1.03-1.045v-1.07c0-.579.463-1.046 1.03-1.046z" fill="#fff" stroke="#000" stroke-width=".2"/>
        <path d="M34.549 50.081h-5.822c-.624 0-1.13.513-1.13 1.146v1.07c0 .633.506 1.145 1.13 1.145h5.822c.623 0 1.129-.512 1.129-1.145v-1.07c0-.633-.506-1.146-1.13-1.146z" fill="#E2F3FF"/>
        <path d="M27.755 50.181h5.822c.567 0 1.03.467 1.03 1.046v1.07c0 .579-.463 1.045-1.03 1.045h-5.822c-.567 0-1.029-.466-1.029-1.045v-1.07c0-.579.462-1.046 1.03-1.046z" fill="#fff" stroke="#000" stroke-width=".2"/>
        <path d="M44.857 50.081h-5.821c-.624 0-1.13.513-1.13 1.146v1.07c0 .633.506 1.145 1.13 1.145h5.821c.624 0 1.13-.512 1.13-1.145v-1.07c0-.633-.506-1.146-1.13-1.146z" fill="#E2F3FF"/>
        <path d="M38.064 50.181h5.822c.567 0 1.029.467 1.029 1.046v1.07c0 .579-.462 1.045-1.03 1.045h-5.821c-.567 0-1.03-.466-1.03-1.045v-1.07c0-.579.463-1.046 1.03-1.046z" fill="#fff" stroke="#000" stroke-width=".2"/>
        <path d="M55.166 50.081h-5.822c-.623 0-1.13.513-1.13 1.146v1.07c0 .633.507 1.145 1.13 1.145h5.822c.623 0 1.13-.512 1.13-1.145v-1.07c0-.633-.507-1.146-1.13-1.146z" fill="#E2F3FF"/>
        <path d="M48.372 50.181h5.821c.567 0 1.03.467 1.03 1.046v1.07c0 .579-.463 1.045-1.03 1.045h-5.821c-.568 0-1.03-.466-1.03-1.045v-1.07c0-.579.462-1.046 1.03-1.046z" fill="#fff" stroke="#000" stroke-width=".2"/>
        <path d="M30.624 38.06c-.304 0-.572-.059-.804-.176a1.26 1.26 0 0 1-.532-.504 1.549 1.549 0 0 1-.188-.776c0-.296.063-.553.188-.772.125-.221.303-.39.532-.508.232-.12.5-.18.804-.18.2 0 .379.02.536.06.157.04.303.103.436.188v.672a1.138 1.138 0 0 0-.4-.204 1.822 1.822 0 0 0-.508-.064c-.275 0-.487.072-.636.216-.15.141-.224.339-.224.592 0 .253.075.452.224.596.152.144.364.216.636.216.192 0 .364-.023.516-.068.152-.045.293-.117.424-.216v.668c-.253.173-.588.26-1.004.26zm2.805 0c-.283 0-.539-.061-.768-.184a1.403 1.403 0 0 1-.54-.512 1.466 1.466 0 0 1-.196-.76c0-.285.065-.539.196-.76.133-.221.313-.393.54-.516.23-.123.485-.184.768-.184.28 0 .533.061.76.184.23.123.41.295.54.516.13.221.196.475.196.76 0 .285-.065.539-.196.76-.13.219-.31.39-.54.512a1.57 1.57 0 0 1-.76.184zm0-.664c.141 0 .27-.032.388-.096a.714.714 0 0 0 .28-.276c.07-.12.104-.26.104-.42a.803.803 0 0 0-.104-.416.688.688 0 0 0-.276-.276.779.779 0 0 0-.392-.1.787.787 0 0 0-.396.1.714.714 0 0 0-.28.276.828.828 0 0 0-.1.416c0 .16.033.3.1.42.07.12.163.212.28.276.12.064.252.096.396.096zm1.975-2.192h1.256c.328 0 .584.083.768.248.187.165.28.403.28.712a.992.992 0 0 1-.136.532.826.826 0 0 1-.384.328l.496.976h-.728l-.444-.876h-.4V38h-.708v-2.796zm1.132 1.324c.142 0 .25-.027.328-.08.078-.056.116-.15.116-.284 0-.139-.038-.233-.116-.284a.562.562 0 0 0-.328-.08h-.424v.728h.424zm1.654-1.324h1.232c.326 0 .586.085.78.256.195.17.292.41.292.716 0 .315-.097.559-.292.732-.192.17-.452.256-.78.256h-.524V38h-.708v-2.796zm1.12 1.364c.142 0 .252-.03.332-.088.083-.059.124-.16.124-.304s-.04-.243-.12-.296a.602.602 0 0 0-.336-.08h-.412v.768h.412zm2.988 1.492c-.282 0-.538-.061-.767-.184a1.405 1.405 0 0 1-.54-.512 1.467 1.467 0 0 1-.197-.76c0-.285.066-.539.197-.76.133-.221.313-.393.54-.516.229-.123.485-.184.767-.184.28 0 .534.061.76.184.23.123.41.295.54.516.131.221.197.475.197.76 0 .285-.066.539-.197.76-.13.219-.31.39-.54.512a1.57 1.57 0 0 1-.76.184zm0-.664c.142 0 .271-.032.389-.096a.713.713 0 0 0 .28-.276c.069-.12.104-.26.104-.42a.802.802 0 0 0-.104-.416.687.687 0 0 0-.276-.276.779.779 0 0 0-.393-.1.787.787 0 0 0-.395.1.715.715 0 0 0-.28.276.829.829 0 0 0-.1.416c0 .16.033.3.1.42.069.12.162.212.28.276.12.064.252.096.395.096zm1.976-2.192h1.256c.328 0 .584.083.768.248.186.165.28.403.28.712a.993.993 0 0 1-.136.532.827.827 0 0 1-.384.328l.496.976h-.728l-.444-.876h-.4V38h-.708v-2.796zm1.132 1.324c.141 0 .25-.027.328-.08.077-.056.116-.15.116-.284 0-.139-.039-.233-.116-.284a.562.562 0 0 0-.328-.08h-.424v.728h.424zm2.514-1.324h.696L49.732 38h-.724l-.224-.576h-1.032l-.224.576H46.8l1.12-2.796zm.688 1.676-.34-.94-.344.94h.684zm1.753-1.08h-.788v-.596h2.288v.596h-.792V38h-.708v-2.2zm1.919-.596h1.984v.596h-1.276v.524h.932v.556h-.932v.524h1.276V38H52.28v-2.796zm-23.1 4h.708v1.08h1.096v-1.08h.708V42h-.708v-1.128h-1.096V42h-.708v-2.796zm3.071 0h1.984v.596H32.96v.524h.932v.556h-.932v.524h1.276V42h-1.984v-2.796zm3.506 0h.696L37.569 42h-.724l-.224-.576h-1.032l-.224.576h-.728l1.12-2.796zm.688 1.676-.34-.94-.344.94h.684zm1.605-1.676h.708v2.2h1.215V42H38.05v-2.796zm2.55.596h-.787v-.596H42.1v.596h-.792V42H40.6v-2.2zm1.92-.596h.708v1.08h1.096v-1.08h.708V42h-.708v-1.128h-1.096V42h-.708v-2.796zm-13.34 4h1.232c.325 0 .585.085.78.256.195.17.292.41.292.716 0 .315-.097.559-.292.732-.192.17-.452.256-.78.256h-.524V46h-.708v-2.796zm1.12 1.364c.141 0 .252-.03.332-.088.083-.059.124-.16.124-.304s-.04-.243-.12-.296a.602.602 0 0 0-.336-.08h-.412v.768h.412zm2.988 1.492c-.282 0-.538-.061-.768-.184a1.403 1.403 0 0 1-.54-.512 1.466 1.466 0 0 1-.196-.76c0-.285.066-.539.196-.76.134-.221.314-.393.54-.516.23-.123.486-.184.768-.184.28 0 .534.061.76.184.23.123.41.295.54.516.131.221.196.475.196.76 0 .285-.065.539-.196.76-.13.219-.31.39-.54.512a1.57 1.57 0 0 1-.76.184zm0-.664c.142 0 .271-.032.388-.096a.715.715 0 0 0 .28-.276c.07-.12.104-.26.104-.42a.803.803 0 0 0-.104-.416.688.688 0 0 0-.276-.276.78.78 0 0 0-.392-.1.787.787 0 0 0-.396.1.713.713 0 0 0-.28.276.828.828 0 0 0-.1.416c0 .16.034.3.1.42.07.12.163.212.28.276.12.064.252.096.396.096zm1.976-2.192h.708v2.2h1.216V46h-1.924v-2.796zm2.325 0h.708V46h-.708v-2.796zm2.71 2.856c-.304 0-.572-.059-.804-.176a1.26 1.26 0 0 1-.532-.504 1.549 1.549 0 0 1-.188-.776c0-.296.063-.553.188-.772.125-.221.303-.39.532-.508.232-.12.5-.18.804-.18.2 0 .379.02.536.06.157.04.303.103.436.188v.672a1.138 1.138 0 0 0-.4-.204 1.822 1.822 0 0 0-.508-.064c-.275 0-.487.072-.636.216-.15.141-.224.339-.224.592 0 .253.075.452.224.596.152.144.364.216.636.216.192 0 .364-.023.516-.068.152-.045.293-.117.424-.216v.668c-.253.173-.588.26-1.004.26zm2.255-1.124-1.032-1.732h.756l.632 1.084.66-1.084h.752l-1.06 1.732V46h-.708v-1.064z" fill="#002226"/>
        <path d="M22.935 33.63a.481.481 0 0 0-.486.475l-.004.986a.91.91 0 0 1-.919.898.91.91 0 0 1-.91-.905l.015-3.678a.475.475 0 0 0-.191-.38l-.01-28.17h-.58l.009 28.167a.473.473 0 0 0-.196.38l-.015 3.677c-.005 1.023.836 1.86 1.875 1.864 1.037.005 1.886-.824 1.89-1.849l.005-.985a.481.481 0 0 0-.483-.48v0zM20.28 2.673l.152.027-.11-2.538A.163.163 0 0 0 20.158 0a.163.163 0 0 0-.164.161l-.133 2.55c.27-.027.42-.038.42-.038z" fill="#263238" stroke="#263238" stroke-width=".08" stroke-linecap="round" stroke-linejoin="round"/>
        <path d="m30.975 16.183-.007-.004.007.004zM11.63 16.608a.09.09 0 0 1-.031-.013" stroke="#263238" stroke-width=".08" stroke-linecap="round" stroke-linejoin="round"/>
        <path d="M14.867 7.664c1.487-2.612 3.773-4.007 4.281-4.365.248-.175.444-.486.592-.821-.158.125-.406.29-.797.496-1.001.527-5.911 1.185-8.35 2.305-2.438 1.12-5.878 4.05-7.08 5.5C2.538 11.95.754 14.16.181 14.958c-.135.188-.202.298-.177.298.134 0 .134.198.268.033.133-.165-.034-.395 1.369-.658 1.403-.264 3.874-.066 6.346.263 2.471.33 3.607 1.12 3.64 1.219.032.092-.138.41-.03.48.418-1.437 1.99-6.688 3.268-8.93z" fill="#ACC0F0"/>
        <path opacity=".24" d="M14.867 7.664c1.487-2.612 3.773-4.007 4.281-4.365.248-.175.444-.486.592-.821-.158.125-.406.29-.797.496-1.001.527-5.911 1.185-8.35 2.305-2.438 1.12-5.878 4.05-7.08 5.5C2.538 11.95.754 14.16.181 14.958c-.135.188-.202.298-.177.298.134 0 .134.198.268.033.133-.165-.034-.395 1.369-.658 1.403-.264 3.874-.066 6.346.263 2.471.33 3.607 1.12 3.64 1.219.032.092-.138.41-.03.48.418-1.437 1.99-6.688 3.268-8.93z" fill="#000"/>
        <path d="M14.867 7.664c1.487-2.612 3.773-4.007 4.281-4.365.248-.175.444-.486.592-.821-.158.125-.406.29-.797.496-1.001.527-5.911 1.185-8.35 2.305-2.438 1.12-5.878 4.05-7.08 5.5C2.538 11.95.754 14.16.181 14.958c-.135.188-.202.298-.177.298.134 0 .134.198.268.033.133-.165-.034-.395 1.369-.658 1.403-.264 3.874-.066 6.346.263 2.471.33 3.607 1.12 3.64 1.219.032.092-.138.41-.03.48.418-1.437 1.99-6.688 3.268-8.93h0z" stroke="#263238" stroke-width=".08" stroke-linecap="round" stroke-linejoin="round"/>
        <path d="M40.821 13.644a981.66 981.66 0 0 0-4.275-4.347s-3.674-3.458-6.28-4.347c-2.605-.889-9.269-1.9-9.552-2.075l-.028-.02c.23.296.541.533.967.658 2.068.608 4.064 1.466 5.805 4.793 1.32 2.52 2.992 6.229 3.726 7.88-.055.05-.178.006-.208-.006.043.018.287.106.226-.134a6.614 6.614 0 0 1-.1-.462s2.404-2.24 9.385-1.976c0 0 .234.395.4.462.168.065.435.099-.066-.428v.002z" fill="#ACC0F0"/>
        <path d="M40.821 13.644a981.66 981.66 0 0 0-4.275-4.347s-3.674-3.458-6.28-4.347c-2.605-.889-9.269-1.9-9.552-2.075l-.028-.02c.23.296.541.533.967.658 2.068.608 4.064 1.466 5.805 4.793 1.32 2.52 2.992 6.229 3.726 7.88-.055.05-.178.006-.208-.006.043.018.287.106.226-.134a6.614 6.614 0 0 1-.1-.462s2.404-2.24 9.385-1.976c0 0 .234.395.4.462.168.065.435.099-.066-.428v.002z" stroke="#263238" stroke-width=".08" stroke-linecap="round" stroke-linejoin="round"/>
        <path d="M27.458 8.308c-1.742-3.327-3.737-4.186-5.806-4.794a1.857 1.857 0 0 1-.967-.658c-.186-.134-.327-.41-.394-.563a.183.183 0 0 0-.167-.109h-.01a.182.182 0 0 0-.144.074 1.28 1.28 0 0 1-.228.22c-.149.335-.344.646-.592.821-.508.358-2.794 1.753-4.282 4.365-1.278 2.242-2.85 7.492-3.267 8.93.008.006.018.011.03.014.167.033.368-.428.368-.428s2.939-1.021 8.483-1.055c5.544-.033 9.285.395 10.12.56l.367.494s.153.066.216.01c-.734-1.652-2.406-5.361-3.726-7.881h-.001z" fill="#ACC0F0"/>
        <path opacity=".16" d="M27.458 8.308c-1.742-3.327-3.737-4.186-5.806-4.794a1.857 1.857 0 0 1-.967-.658c-.186-.134-.327-.41-.394-.563a.183.183 0 0 0-.167-.109h-.01a.182.182 0 0 0-.144.074 1.28 1.28 0 0 1-.228.22c-.149.335-.344.646-.592.821-.508.358-2.794 1.753-4.282 4.365-1.278 2.242-2.85 7.492-3.267 8.93.008.006.018.011.03.014.167.033.368-.428.368-.428s2.939-1.021 8.483-1.055c5.544-.033 9.285.395 10.12.56l.367.494s.153.066.216.01c-.734-1.652-2.406-5.361-3.726-7.881h-.001z" fill="#000"/>
        <path d="M27.458 8.308c-1.742-3.327-3.737-4.186-5.806-4.794a1.857 1.857 0 0 1-.967-.658c-.186-.134-.327-.41-.394-.563a.183.183 0 0 0-.167-.109h-.01a.182.182 0 0 0-.144.074 1.28 1.28 0 0 1-.228.22c-.149.335-.344.646-.592.821-.508.358-2.794 1.753-4.282 4.365-1.278 2.242-2.85 7.492-3.267 8.93.008.006.018.011.03.014.167.033.368-.428.368-.428s2.939-1.021 8.483-1.055c5.544-.033 9.285.395 10.12.56l.367.494s.153.066.216.01c-.734-1.652-2.406-5.361-3.726-7.881h-.001z" stroke="#263238" stroke-width=".08" stroke-linecap="round" stroke-linejoin="round"/>
        <path d="M16.889 45.6s-.175 2.587.203 3.879c.378 1.292 2.77 7.442 2.77 7.442s.057 1.091-.03 1.207c-.088.115-.496.747-1.049 1.006-.552.258-1.72.918-1.457 1.004.262.086 2.593-.172 2.855-.057.262.116 1.428-.344 1.72-.46.292-.115 0-.833 0-.833a35.736 35.736 0 0 1-.874-3.622c-.262-1.58-.67-3.763-.903-4.855a8.966 8.966 0 0 0-.671-1.945l.291-2.7-2.855-.065z" fill="#fff" stroke="#263238" stroke-width=".104" stroke-miterlimit="10"/>
        <path d="m19.161 59.506-.299-.416c-.027.015-.052.029-.079.041-.554.259-1.72.919-1.457 1.005.262.086 2.593-.172 2.855-.057.262.115 1.428-.345 1.72-.46.292-.115 0-.834 0-.834s-.03-.097-.078-.265c-.399.176-.774.4-1.117.667-.612.52-1.545.32-1.545.32z" fill="#263238" stroke="#263238" stroke-width=".104" stroke-miterlimit="10"/>
        <path d="M18.739 45.802s.233 2.64.582 3.563c.35.922.35 7.183.35 7.7 0 .516-.846 1.35-.846 1.35s-1.457 1.063-1.865 1.178c-.407.116-.728.259-.525.431.203.173 2.215.173 2.914.173.7 0 1.603.027 1.692-.116.071-.185.119-.378.14-.575 0 0-.174-1.608-.117-2.326.058-.719 1.108-5.086 1.02-6.55a13.61 13.61 0 0 0-.525-2.874c-.028-.116.205-2.097.205-2.097l-3.025.143z" fill="#fff" stroke="#263238" stroke-width=".104" stroke-miterlimit="10"/>
        <path d="M21.187 59.506s-.009-.068-.02-.183c-1.31.1-3.012.183-3.012.183l-.197-.486c-.392.261-.808.52-.996.574-.41.114-.73.258-.526.43.203.173 2.215.173 2.914.173.7 0 1.603.028 1.692-.115.073-.185.122-.379.145-.576z" fill="#263238" stroke="#263238" stroke-width=".104" stroke-miterlimit="10"/>
        <path d="M15.858 38.715s-.204 2.072-.117 2.992c.088.92.332 5.486.332 5.486s1.653 1.003 3.141 1.09c1.489.085 3.737-.695 3.737-.695s.496-5.42.204-6.864a214.26 214.26 0 0 0-.438-2.128s-3.947-.202-4.961-.46c-1.015-.259-1.269-.406-1.269-.406l-.335-.039-.294 1.024z" fill="#263238" stroke="#263238" stroke-width=".104" stroke-linecap="round" stroke-linejoin="round"/>
        <path d="M16.472 38.179s1.518.718 3.764.43l-.14-4.2.993-6.36-1.605-.057-1.81.634-1.08 8.06-.122 1.493z" fill="#fff" stroke="#263238" stroke-width=".104" stroke-linecap="round" stroke-linejoin="round"/>
        <path d="M17.916 27.368s-.39 1.741-.322 1.966c.07.226.78 1.425 1.261 1.334.483-.09 1.514-1.74 1.652-2.056.138-.316-.14-.86-.16-.973-.02-.113-.3-1.29-.3-1.29s-1.096.929-2.131 1.02z" fill="#fff" stroke="#263238" stroke-width=".104" stroke-linecap="round" stroke-linejoin="round"/>
        <path d="M18.052 28.421s-.423 3.398-.447 4.725c-.024 1.327-.789 7.391-.789 7.391s-.104.18-.789-.026a2.099 2.099 0 0 1-1.025-.674s1.183-4.357 1.21-4.564c.026-.207-.21-2.23-.21-2.23l-2.368 2.022s.053-1.09.263-1.323c.21-.233 1.789-3.137 1.92-3.422.131-.285-.027-1.141.447-1.401.473-.26 1.788-.498 1.788-.498z" fill="#ACC0F0" stroke="#263238" stroke-width=".104" stroke-linecap="round" stroke-linejoin="round"/>
        <path d="m15.756 37.813 1 .328-.036.256-.89-.218" stroke="#263238" stroke-width=".104" stroke-linecap="round" stroke-linejoin="round"/>
        <path d="M17.474 34.62s-.422-4.021-.367-4.928z" fill="#fff"/>
        <path d="M17.474 34.62s-.422-4.021-.367-4.928" stroke="#263238" stroke-width=".104" stroke-linecap="round" stroke-linejoin="round"/>
        <path d="M20.471 28.217s-1.446 4.875-1.446 5.989c0 1.114.282 6.57.282 6.57s1.31.386 2.336.255c1.026-.13 2.396-.704 2.396-.704l-1.394-4.098s2.227-5.241 2.227-5.604c0-.363.288-1.037 0-1.219-.29-.182-2.788-1.011-3.13-1.167-.343-.155-.85-.389-1.27-.022z" fill="#ACC0F0" stroke="#263238" stroke-width=".104" stroke-linecap="round" stroke-linejoin="round"/>
        <path d="m22.65 38.287-2.414.323.154.336 1.371-.146" stroke="#263238" stroke-width=".104" stroke-linecap="round" stroke-linejoin="round"/>
        <path d="M21.848 28.287c-.048-.02-.089-.035-.114-.047-.342-.156-.846-.39-1.268-.025 0 0-1.447 4.874-1.447 5.988 0 .187.016.492.043.872.118-.39.386-1 .878-2.246.645-1.617 1.578-3.778 1.908-4.542z" fill="#ACC0F0" stroke="#263238" stroke-width=".104" stroke-linecap="round" stroke-linejoin="round"/>
        <path d="M16.765 21.636s-1.439.945-1.526 1.633c-.088.688-.023 1.096-.023 1.763 0 .667-.37 2.752-.021 3.526.35.774.846 1.462 1.55 1.655.705.193 1.135.022 1.308-.15.129-.148.232-.315.306-.495 0 0-.37.043-.37-.386 0-.43.414-1.741.414-1.741s-.938-.474-1.112-.926c-.175-.452-.698-2.838-.654-3.03.043-.194.828-.625.845-1.16.017-.537-.325-.861-.717-.689z" fill="#263238" stroke="#263238" stroke-width=".104" stroke-linecap="round" stroke-linejoin="round"/>
        <path d="M16.634 22.581s-.371.797-.262 1.441c.108.645.326 1.762.436 2.214.11.451.675.946.959 1.205.283.258.785.622 1.155.536.371-.086.917-.973.917-.973s.435-.494.545-.924c.11-.43-.262-1.182-.502-1.977a2.434 2.434 0 0 0-.662-1.116 2.485 2.485 0 0 0-1.147-.625c-.981-.232-1.287.07-1.44.22z" fill="#fff" stroke="#263238" stroke-width=".104" stroke-linecap="round" stroke-linejoin="round"/>
        <path d="M17.462 24.86s.304.495.282.645c-.023.15-.175.796-.088.834.088.037.392-.023.392-.023M18.05 26.773s.459.044.846-.451M17.309 24.84s-.371-.152-.544.15M17.92 24.753s.065-.301.61-.151" stroke="#263238" stroke-width=".104" stroke-linecap="round" stroke-linejoin="round"/>
        <path d="M18.53 25.16c.04.113.015.222-.054.246-.069.024-.155-.049-.194-.161-.04-.113-.016-.223.053-.246.07-.024.15.051.195.16zM17.353 25.376c.04.112.015.222-.053.245-.067.024-.155-.048-.194-.16-.04-.113-.016-.223.052-.247.068-.023.157.05.195.162z" fill="#263238"/>
        <path d="M16.395 22.452s.87 1.25 1.743 1.806c.872.556 1.722.695 1.745 1.204.023.508-.393 1.677-.065 2.515.328.838.937 1.14 1.787.972.85-.166 1.243-.946 1.243-.946s-.479.322-.633-.043c-.153-.366-.501-.903-.064-1.784s.697-1.29-.109-2.752c-.806-1.461-1.767-2.305-2.526-2.627-.758-.323-3.144.194-3.121 1.655z" fill="#263238" stroke="#263238" stroke-width=".104" stroke-linecap="round" stroke-linejoin="round"/>
        <path d="m16.074 34.462-.102-1.005-.387.383.489.622z" fill="#fff" stroke="#263238" stroke-width=".104" stroke-linecap="round" stroke-linejoin="round"/>
        <path d="m14.968 31.98.423.556-.329.499s-.045.06.18.417c.156.237.336.459.536.661 0 0 .713-1.48.767-1.746.054-.267-1.192-1.832-1.192-1.832s-.429.813-.385 1.445z" fill="#fff" stroke="#263238" stroke-width=".104" stroke-linecap="round" stroke-linejoin="round"/>
        <path d="m13.773 29.152 2.109 2.47 1.398.088-2-2.612-1.507.054z" fill="#fff" stroke="#263238" stroke-width=".104" stroke-linecap="round" stroke-linejoin="round"/>
        <path d="M14.854 30.555s-.264.16-.202.3c.062.141.506.46.83.5.324.04.165-.155.164-.258-.002-.102-.792-.542-.792-.542z" fill="#fff" stroke="#263238" stroke-width=".104" stroke-linecap="round" stroke-linejoin="round"/>
        <path d="M14.753 31.016s-.203.22-.14.379c.061.16.83.38.972.4a.164.164 0 0 0 .183-.107.158.158 0 0 0-.082-.193c-.204-.14-.933-.48-.933-.48zM14.773 31.595s-.06.278.08.38c.141.101.8.025.908-.017.108-.042-.178-.163-.178-.163l-.81-.2z" fill="#fff" stroke="#263238" stroke-width=".104" stroke-linecap="round" stroke-linejoin="round"/>
        <path d="m19.063 32.885-.78-.724s-.253-.834-.367-1.085c-.114-.252-.206-.317-.482-.566-.277-.248-.458-.139-.505.024l-.045.158s-1.33-.068-1.536-.158c-.206-.09-.436-.295-.551-.158-.116.136.046.316.23.429.191.125.4.224.618.293.183.046.413.09.413.09l-.963-.139a.213.213 0 0 0 .07.227l.297.293c.08.142.18.272.299.385.122.104.26.19.408.253.194.09.371.154.371.154-.177 0-.353-.016-.527-.046-.23-.045-.437-.158-.413 0 .024.159.183.227.435.271.253.045 1.331.181 1.423.205.091.023 1.284 1.111 1.284 1.111l.32-1.017z" fill="#fff" stroke="#263238" stroke-width=".104" stroke-linecap="round" stroke-linejoin="round"/>
        <path d="M16.885 30.692c.218.061.426.152.618.271z" fill="#fff"/>
        <path d="M16.885 30.692c.218.061.426.152.618.271M16.059 31.188l.596.137M15.463 31.573s.757.248 1.147.339" stroke="#263238" stroke-width=".104" stroke-linecap="round" stroke-linejoin="round"/>
        <path d="M24.99 29.713a24.554 24.554 0 0 1-.742 3.676c-.524 1.785-.796 3.39-.905 3.516-.108.125-1.285-.322-2.244-.894-.958-.57-2.896-1.945-2.896-1.945l.815-1.535 2.878 1.695s.09-.196.217-.232a.96.96 0 0 0 .217-.09l.272-3.426" fill="#ACC0F0"/>
        <path d="M24.99 29.713a24.554 24.554 0 0 1-.742 3.676c-.524 1.785-.796 3.39-.905 3.516-.108.125-1.285-.322-2.244-.894-.958-.57-2.896-1.945-2.896-1.945l.815-1.535 2.878 1.695s.09-.196.217-.232a.96.96 0 0 0 .217-.09l.272-3.426" stroke="#263238" stroke-width=".104" stroke-linecap="round" stroke-linejoin="round"/>
        <path d="m15.058 33.038 1.016 1.424s-.306.924-.612 1.285c-.306.362-1.303.523-1.629.14-.325-.384-.245-.965-.06-1.286.184-.321 1.285-1.563 1.285-1.563z" fill="#ACC0F0" stroke="#263238" stroke-width=".104" stroke-linecap="round" stroke-linejoin="round"/>
    </g>
    <defs>
        <clipPath id="gwfei9gd1a">
            <path fill="#fff" d="M0 0h62v62H0z"/>
        </clipPath>
    </defs>
</svg>
