<svg width="67" height="67" viewBox="0 0 67 67" fill="none" xmlns="http://www.w3.org/2000/svg">
<path d="M21.0049 46.5909H60.9482V42.814C60.9482 37.4617 56.6081 33.1216 51.2598 33.1216H21.0089" fill="#B6D9F2"/>
<path d="M21.0049 46.5909H60.9482V42.814C60.9482 37.4617 56.6081 33.1216 51.2598 33.1216H21.0089" stroke="#B6D9F2" stroke-width="1.5" stroke-linejoin="round"/>
<path d="M65.6704 24.9851V43.0388C65.6704 45.0001 64.0793 46.5912 62.118 46.5912H9.6741C5.12918 46.5912 1.44284 42.9049 1.44284 38.3599V16.4033" stroke="#454545" stroke-width="1.5" stroke-linecap="round" stroke-linejoin="round"/>
<path d="M17.0786 34.3787C17.7764 31.4033 15.9302 28.4257 12.9549 27.7278C9.97956 27.03 7.00189 28.8762 6.30404 31.8515C5.60619 34.8268 7.45242 37.8045 10.4277 38.5023C13.403 39.2002 16.3807 37.354 17.0786 34.3787Z" fill="#B6D9F2" stroke="#454545" stroke-width="1.5" stroke-linecap="round" stroke-linejoin="round"/>
<path d="M60.9483 42.814C60.9483 37.4617 56.6082 33.1216 51.2598 33.1216H21.0089" stroke="#454545" stroke-width="1.5" stroke-linejoin="round"/>
<path d="M11.6946 46.5908V53.8336" stroke="#454545" stroke-width="1.5" stroke-linejoin="round"/>
<path d="M60.9482 46.5908V53.8336" stroke="#454545" stroke-width="1.5" stroke-linejoin="round"/>
<path d="M15.9244 61.646C16.3045 59.3124 14.7208 57.1126 12.3872 56.7325C10.0536 56.3525 7.85371 57.9361 7.47365 60.2697C7.0936 62.6034 8.67727 64.8032 11.0109 65.1833C13.3445 65.5633 15.5444 63.9796 15.9244 61.646Z" stroke="#454545" stroke-width="1.5" stroke-linecap="round" stroke-linejoin="round"/>
<path d="M63.9728 63.973C65.6447 62.3011 65.6447 59.5905 63.9728 57.9186C62.301 56.2468 59.5904 56.2468 57.9185 57.9186C56.2467 59.5905 56.2467 62.3011 57.9185 63.973C59.5904 65.6448 62.301 65.6448 63.9728 63.973Z" stroke="#454545" stroke-width="1.5" stroke-linecap="round" stroke-linejoin="round"/>
<path d="M19.205 56.6655H53.5834" stroke="#454545" stroke-width="1.5" stroke-linecap="round" stroke-linejoin="round"/>
<path d="M45.2694 9.58573V1H36.6876V9.58573H28.1058V18.1675H36.6876V26.7493H45.2694V18.1675H53.8512V9.58573H45.2694Z" fill="white" stroke="#454545" stroke-width="1.5" stroke-linecap="round" stroke-linejoin="round"/>
</svg>
