<svg xmlns="http://www.w3.org/2000/svg" width="30" height="30" viewBox="0 0 30 30">
    <defs>
        <style>
            .cls-2{fill:#264a9f}
        </style>
    </defs>
    <g id="location">
        <path id="Rectangle_2770" fill="none" d="M0 0H30V30H0z"/>
        <path id="Path_12970" d="M48.94 18.9c3.148-4.776 2.752-4.18 2.843-4.3a8.941 8.941 0 0 0 1.752-5.319 9.538 9.538 0 0 0-19.068 0 8.99 8.99 0 0 0 1.8 5.387l2.795 4.232C36.076 19.34 31 20.662 31 23.572c0 1.061.716 2.573 4.129 3.751A28.224 28.224 0 0 0 44 28.6c6.242 0 13-1.7 13-5.027 0-2.912-5.068-4.232-8.06-4.673zm-11.223-5.162l-.03-.042A7.35 7.35 0 0 1 36.2 9.273a7.8 7.8 0 0 1 15.6 0 7.311 7.311 0 0 1-1.424 4.339c-.083.106.352-.548-6.377 9.659zM44 26.924c-6.818 0-11.268-1.937-11.268-3.352 0-.95 2.286-2.513 7.353-3.123l3.184 4.83a.883.883 0 0 0 1.462 0l3.184-4.83c5.066.609 7.353 2.172 7.353 3.123.001 1.402-4.409 3.352-11.268 3.352z" class="cls-2" transform="translate(-28.901 .7)"/>
        <path id="Path_12971" d="M185 91a4 4 0 1 0 4 4 4 4 0 0 0-4-4zm0 6.4a2.4 2.4 0 1 1 2.4-2.4 2.4 2.4 0 0 1-2.4 2.4z" class="cls-2" transform="translate(-169.89 -85.087)"/>
    </g>
</svg>
