<svg xmlns="http://www.w3.org/2000/svg" width="57" height="56" fill="none" xmlns:v="https://vecta.io/nano"><style><![CDATA[.B{stroke-linecap:round}.C{stroke-width:1.5}.D{stroke-linejoin:round}]]></style><g class="C D"><path d="M28.55 49.036L1.539 24.715v28.58c0 .943.763 1.706 1.706 1.706h50.613c.943 0 1.706-.763 1.706-1.706v-28.58L28.553 49.036h-.004z" fill="#b6d9f2" stroke="#b6d9f2"/><g stroke="#454545"><path d="M27.378 1.45L1.554 24.703s-.015.022-.015.033v28.558c0 .943.763 1.706 1.706 1.706h50.613c.943 0 1.706-.763 1.706-1.706V24.736s-.007-.026-.015-.033L29.725 1.45c-.667-.601-1.68-.601-2.347 0z"/><path d="M5.719 28.477l21.657 19.502c.667.6 1.68.6 2.347 0L51.38 28.477" class="B"/></g></g><use href="#B" fill="#fff"/><use href="#B" stroke="#fff" class="B C D"/><use href="#B" fill="#fff"/><g stroke="#454545" class="C D"><use href="#B" class="B"/><path d="M33.309 25.083c.881 3.651-2.325 6.857-5.976 5.976a4.87 4.87 0 0 1-3.537-3.537c-.881-3.651 2.325-6.857 5.976-5.976a4.87 4.87 0 0 1 3.537 3.537z"/><path d="M38.873 26.301c0 3.408-1.039 4.904-2.708 4.904-1.846 0-2.712-1.496-2.712-4.904m-.883 9.513a10.28 10.28 0 0 1-4.02.811 10.29 10.29 0 0 1-4.02-.811 10.42 10.42 0 0 1-3.283-2.211 10.25 10.25 0 0 1-2.211-3.283 10.28 10.28 0 0 1-.81-4.02 10.29 10.29 0 0 1 .81-4.02 10.42 10.42 0 0 1 2.211-3.283 10.31 10.31 0 0 1 3.283-2.211 10.28 10.28 0 0 1 4.02-.81 10.29 10.29 0 0 1 4.02.81 10.42 10.42 0 0 1 3.283 2.211 10.32 10.32 0 0 1 2.214 3.283 10.28 10.28 0 0 1 .81 4.02" class="B"/></g><defs ><path id="B" d="M11.18 27.916v-17.49h34.737v17.49"/></defs></svg>