<svg width="28" height="34" viewBox="0 0 28 34" fill="none" xmlns="http://www.w3.org/2000/svg">
<path fill-rule="evenodd" clip-rule="evenodd" d="M19.361 11.6541C19.552 11.8535 19.5452 12.1701 19.3458 12.3611L12.0381 19.3611C11.8516 19.5397 11.5598 19.5469 11.3647 19.3778L8.67242 17.0445C8.46374 16.8637 8.44119 16.5479 8.62204 16.3392C8.8029 16.1305 9.11867 16.108 9.32735 16.2888L11.6753 18.3238L18.654 11.6389C18.8534 11.4479 19.1699 11.4547 19.361 11.6541Z" fill="url(#paint0_linear_5335_583)"/>
<path fill-rule="evenodd" clip-rule="evenodd" d="M26.9259 8.38475H21.6056C20.6379 8.38475 19.4275 7.2809 19.4275 6.33157V1.07684H6.33499C6.31582 1.07684 6.29694 1.07508 6.27842 1.0717C5.39974 1.07412 4.58085 1.07268 3.90124 1.07148C2.86147 1.06965 2.14771 1.06839 2.04458 1.08241C1.55397 1.14922 1.11977 1.60719 1.07407 2.08533L1.07121 31.8765C1.0962 32.4013 1.54397 32.931 2.106 32.956L26.1275 32.9052C26.421 32.8711 26.9259 32.3394 26.9259 32.0825V8.38475ZM2.10671 0.0300695C2.29958 0.013791 4.76443 -0.0069603 7.45672 0.0276898C10.7785 -0.0154174 19.6649 -0.00275605 19.9681 0.0286775C19.9889 0.030824 20.0097 0.0320878 20.0302 0.0333401C20.1097 0.0381784 20.1864 0.0428442 20.2544 0.0975805L27.7136 7.30457L27.98 7.67135L28 31.9468C27.9172 33.0166 27.0588 33.8949 25.9647 34H2.0353C0.910528 33.8733 0.0442767 32.988 0 31.8779L0.0035707 2.01712C0.142114 0.924418 0.978372 0.126116 2.10671 0.0300695ZM20.4987 1.84243V6.33157C20.4987 6.67818 21.1757 7.34076 21.5342 7.34076H26.1404L20.4987 1.84243ZM22.1796 27.7305H5.81486C5.52484 27.7305 5.28973 27.9656 5.28973 28.2556C5.28973 28.5456 5.52484 28.7807 5.81486 28.7807H22.1796C22.4696 28.7807 22.7048 28.5456 22.7048 28.2556C22.7048 27.9656 22.4696 27.7305 22.1796 27.7305ZM5.77965 23.4141H22.2205C22.4919 23.4141 22.7119 23.6341 22.7119 23.9054C22.7119 24.1768 22.4919 24.3968 22.2205 24.3968H5.77965C5.50827 24.3968 5.28828 24.1768 5.28828 23.9054C5.28828 23.6341 5.50827 23.4141 5.77965 23.4141Z" fill="url(#paint1_linear_5335_583)"/>
<defs>
<linearGradient id="paint0_linear_5335_583" x1="13.9999" y1="11.5" x2="13.9999" y2="19.5" gradientUnits="userSpaceOnUse">
<stop stop-color="#73ABFF"/>
<stop offset="1" stop-color="#4883DC"/>
</linearGradient>
<linearGradient id="paint1_linear_5335_583" x1="14" y1="0" x2="14" y2="34" gradientUnits="userSpaceOnUse">
<stop stop-color="#73ABFF"/>
<stop offset="1" stop-color="#4883DC"/>
</linearGradient>
</defs>
</svg>
