<svg width="66" height="62" viewBox="0 0 66 62" fill="none" xmlns="http://www.w3.org/2000/svg">
    <path d="M58.148 42.627H.479M58.148 43.835H.479" stroke="#263238" stroke-width=".105" stroke-linecap="round" stroke-linejoin="round"/>
    <path d="M35.115 61.555c12.68 0 22.958-2.986 22.958-6.67 0-3.684-10.279-6.67-22.958-6.67-12.68 0-22.958 2.986-22.958 6.67 0 3.684 10.279 6.67 22.958 6.67z" fill="#263238" fill-opacity=".3"/>
    <path d="m47.502 49.927-18.137 10.47-.001.001a1.089 1.089 0 0 1-.986 0l-12.87-7.43a1.087 1.087 0 0 1-.493-.853v-6.752a1.087 1.087 0 0 1 .493-.85l18.14-10.473a1.088 1.088 0 0 1 .985 0h.001l12.868 7.43a1.09 1.09 0 0 1 .494.853v6.749a1.096 1.096 0 0 1-.494.855z" fill="#ACC0F0" stroke="#000" stroke-width=".075"/>
    <path opacity=".4" d="M15.133 44.925c.03-.058.064-.113.104-.165l.23.34 12.872 7.434h.002c.152.08.32.123.492.125v7.856a.985.985 0 0 1-.455-.117l-12.871-7.43a1.092 1.092 0 0 1-.492-.855v-6.75c.009-.152.049-.301.118-.438z" fill="#000" stroke="#000" stroke-width=".075"/>
    <path opacity=".2" d="M28.909 60.515v-7.857a1.07 1.07 0 0 0 .488-.127L47.54 42.058c.138-.083.218-.19.229-.305a.273.273 0 0 0 0-.041 1.112 1.112 0 0 1 .227.608v6.752a1.09 1.09 0 0 1-.493.853l-18.14 10.473a.997.997 0 0 1-.454.117z" fill="#000" stroke="#000" stroke-width=".075"/>
    <path d="m15.506 44.514 18.14-10.474a1.089 1.089 0 0 1 .986 0h.001l12.87 7.431c.134.075.193.171.193.26 0 .09-.059.187-.194.265l-18.14 10.472a1.098 1.098 0 0 1-.985 0l-12.87-7.433c-.135-.077-.194-.174-.194-.263 0-.088.059-.183.193-.258z" fill="#ACC0F0" stroke="#000" stroke-width=".075"/>
    <path opacity=".3" d="m15.506 44.514 18.14-10.474a1.089 1.089 0 0 1 .986 0h.001l12.87 7.431c.134.075.193.171.193.26 0 .09-.059.187-.194.265l-18.14 10.472a1.098 1.098 0 0 1-.985 0l-12.87-7.433c-.135-.077-.194-.174-.194-.263 0-.088.059-.183.193-.258z" fill="#000" stroke="#000" stroke-width=".075"/>
    <path opacity=".1" d="m15.015 48.343 13.566 7.83a.585.585 0 0 0 .58 0L47.998 45.3v.651L29.124 56.848a.51.51 0 0 1-.505 0l-13.604-7.852v-.653z" fill="#000" stroke="#000" stroke-width=".075"/>
    <mask id="f9ysh2kp7a" fill="#fff">
        <path d="M26.446 51.391v-.022a6.215 6.215 0 0 1 4.856 0v.022l-1.917 1.1c-.156.085-.33.127-.508.123a1.047 1.047 0 0 1-.512-.122l-1.912-1.1"/>
    </mask>
    <path d="M26.446 51.391v-.022a6.215 6.215 0 0 1 4.856 0v.022l-1.917 1.1c-.156.085-.33.127-.508.123a1.047 1.047 0 0 1-.512-.122l-1.912-1.1" fill="#455A64"/>
    <path d="m26.446 51.37-.03-.07-.045.02v.05h.075zm2.428-.495v.076-.076zm2.428.494h.076v-.05l-.046-.02-.03.07zm0 .022.038.065.038-.021v-.044h-.076zm-1.917 1.1.036.067h.002l-.038-.066zm-.508.123.002-.075h-.003l.001.075zm-.512-.122-.038.065.002.001.036-.066zm-1.843-1.1V51.37h-.151V51.392h.15zm-.046.046a6.141 6.141 0 0 1 2.398-.487V50.8c-.844 0-1.68.17-2.457.5l.059.138zm2.398-.487c.824 0 1.64.166 2.399.487l.059-.138a6.291 6.291 0 0 0-2.458-.5v.15zm2.353.418V51.392h.15V51.37h-.15zm.038-.043-1.917 1.1.075.131 1.917-1.1-.075-.131zm-1.915 1.1a.958.958 0 0 1-.471.113l-.003.15c.19.004.378-.04.545-.13l-.071-.133zm-.474.113a.971.971 0 0 1-.476-.114l-.07.133c.168.09.358.136.549.132l-.003-.15zm-.474-.112-1.912-1.101-.075.13 1.912 1.101.075-.13z" fill="#000" mask="url(#f9ysh2kp7a)"/>
    <path d="M47.502 41.471c.135.077.193.174.193.262 0 .088-.058.184-.193.261l-1.597.92c-.572-.334-.85-.765-.852-1.188-.002-.422.271-.852.834-1.187l1.615.932zM15.51 44.514h.001l1.615-.933c.564.336.836.766.834 1.188-.002.423-.28.853-.852 1.188l-1.597-.92c-.134-.08-.192-.177-.192-.266 0-.088.058-.182.192-.257zM32.048 35.083a1.294 1.294 0 0 1-.105-.064l1.702-.982a1.089 1.089 0 0 1 .986 0l1.727.997a2.07 2.07 0 0 1-.075.049c-.583.336-1.35.505-2.117.505-.769 0-1.535-.169-2.118-.505z" fill="#455A64" stroke="#000" stroke-width=".075"/>
    <path d="M31.256 51.462c-.197 1.41-1.132 2.658-2.34 3.522v-2.326c.17-.003.337-.046.488-.127l1.852-1.07zM47.54 42.058c.148-.086.23-.203.23-.328v-.02a1.092 1.092 0 0 1 .228.609v1.685c-.576.327-1.088.39-1.455.218-.364-.172-.599-.583-.604-1.24l1.6-.924zM45.937 50.827c.01-.662.244-1.393.62-2.045.372-.643.88-1.206 1.439-1.547v1.837a1.104 1.104 0 0 1-.436.812l-1.623.943zM28.909 60.516v-2.227c.574-.325 1.086-.35 1.454-.14.367.21.602.662.607 1.32l-1.61.929a.997.997 0 0 1-.451.118z" fill="#37474F" stroke="#000" stroke-width=".075"/>
    <path d="M28.345 52.525c.15.083.318.128.488.133v2.325c-1.21-.869-2.143-2.114-2.34-3.522l1.851 1.063h.001zM28.841 60.52a.995.995 0 0 1-.452-.119l-1.608-.932c.005-.658.239-1.11.605-1.32.366-.21.877-.185 1.455.14v2.23zM15.02 50.307c.583.337 1.112.916 1.495 1.581.371.644.603 1.366.615 2.023l-1.688-.98a1.098 1.098 0 0 1-.427-.813v-1.814a.08.08 0 0 1 .004.003zM15.473 45.094l1.602.925c-.005.657-.24 1.11-.607 1.32-.367.21-.88.186-1.453-.139v-1.845a1.09 1.09 0 0 1 .23-.604l-.001.017c0 .124.081.24.229.326z" fill="#263238" stroke="#000" stroke-width=".075"/>
    <path d="M32.776 53.39a.261.261 0 0 1 .083-.088l1.005-.58a.26.26 0 0 1 .236-.004l.09.051a.268.268 0 0 1 .117.205v1.9a.26.26 0 0 1-.12.206l-1.002.579a.26.26 0 0 1-.236 0l-.09-.051a.267.267 0 0 1-.117-.205v-1.896a.261.261 0 0 1 .034-.116z" fill="#ACC0F0" stroke="#000" stroke-width=".075"/>
    <path opacity=".5" d="M32.776 53.39a.261.261 0 0 1 .083-.088l1.005-.58a.26.26 0 0 1 .236-.004l.09.051a.268.268 0 0 1 .117.205v1.9a.26.26 0 0 1-.12.206l-1.002.579a.26.26 0 0 1-.236 0l-.09-.051a.267.267 0 0 1-.117-.205v-1.896a.261.261 0 0 1 .034-.116z" fill="#fff" stroke="#000" stroke-width=".075"/>
    <path opacity=".1" d="m32.76 53.42.297.174a.314.314 0 0 0-.028.12V55.613c0 .026.004.052.014.073a.26.26 0 0 1-.094-.028l-.09-.05a.264.264 0 0 1-.118-.205v-1.896a.25.25 0 0 1 .02-.087z" fill="#000" stroke="#000" stroke-width=".075"/>
    <path opacity=".1" d="m32.76 53.42.297.174a.314.314 0 0 0-.028.12V55.613c0 .026.004.052.014.073a.26.26 0 0 1-.094-.028l-.09-.05a.264.264 0 0 1-.118-.205v-1.896a.25.25 0 0 1 .02-.087z" fill="#ACC0F0" stroke="#000" stroke-width=".075"/>
    <path d="M33.184 55.659c-.03.018-.05.015-.058.01-.009-.005-.021-.02-.021-.056v-1.898a.263.263 0 0 1 .117-.209l1.006-.58c.03-.017.049-.014.058-.009.008.006.02.02.02.055v1.902a.258.258 0 0 1-.118.205l-1.004.58z" fill="#ACC0F0" stroke="#000" stroke-width=".075"/>
    <path opacity=".2" d="M33.184 55.659c-.03.018-.05.015-.058.01-.009-.005-.021-.02-.021-.056v-1.898a.263.263 0 0 1 .117-.209l1.006-.58c.03-.017.049-.014.058-.009.008.006.02.02.02.055v1.902a.258.258 0 0 1-.118.205l-1.004.58z" fill="#fff" stroke="#000" stroke-width=".075"/>
    <path d="M42.997 47.49a.267.267 0 0 1 .083-.09l1.005-.579a.26.26 0 0 1 .236 0l.089.051a.263.263 0 0 1 .117.205v1.898a.267.267 0 0 1-.117.204l-1.003.58a.277.277 0 0 1-.238 0l-.087-.053a.262.262 0 0 1-.12-.205v-1.895a.266.266 0 0 1 .035-.117z" fill="#ACC0F0" stroke="#000" stroke-width=".075"/>
    <path opacity=".5" d="M42.997 47.49a.267.267 0 0 1 .083-.09l1.005-.579a.26.26 0 0 1 .236 0l.089.051a.263.263 0 0 1 .117.205v1.898a.267.267 0 0 1-.117.204l-1.003.58a.277.277 0 0 1-.238 0l-.087-.053a.262.262 0 0 1-.12-.205v-1.895a.266.266 0 0 1 .035-.117z" fill="#fff" stroke="#000" stroke-width=".075"/>
    <path opacity=".1" d="m42.98 47.521.297.172a.304.304 0 0 0-.027.118v1.899c0 .027.005.053.015.075a.259.259 0 0 1-.096-.028l-.09-.05a.262.262 0 0 1-.117-.206v-1.896a.22.22 0 0 1 .017-.084z" fill="#000" stroke="#000" stroke-width=".075"/>
    <path opacity=".1" d="m42.98 47.521.297.172a.304.304 0 0 0-.027.118v1.899c0 .027.005.053.015.075a.259.259 0 0 1-.096-.028l-.09-.05a.262.262 0 0 1-.117-.206v-1.896a.22.22 0 0 1 .017-.084z" fill="#ACC0F0" stroke="#000" stroke-width=".075"/>
    <path d="M43.326 49.713v-1.898a.268.268 0 0 1 .117-.205l1.005-.58c.031-.017.05-.014.059-.009.008.005.02.02.02.055v1.899a.263.263 0 0 1-.117.205l-1.004.58c-.03.017-.05.014-.06.008-.008-.005-.02-.02-.02-.055z" fill="#ACC0F0" stroke="#000" stroke-width=".075"/>
    <path opacity=".2" d="M43.326 49.713v-1.898a.268.268 0 0 1 .117-.205l1.005-.58c.031-.017.05-.014.059-.009.008.005.02.02.02.055v1.899a.263.263 0 0 1-.117.205l-1.004.58c-.03.017-.05.014-.06.008-.008-.005-.02-.02-.02-.055z" fill="#fff" stroke="#000" stroke-width=".075"/>
    <path d="M36.708 53.532c.013.022.02.046.022.07v.768a.164.164 0 0 1-.072.126l-1.087.628a.156.156 0 0 1-.144 0l-.058-.034a.158.158 0 0 1-.074-.126V54.2a.164.164 0 0 1 .074-.127l1.086-.627a.163.163 0 0 1 .144 0l.059.033c.02.014.038.032.05.054z" fill="#263238" stroke="#000" stroke-width=".075"/>
    <path d="M35.571 55.124c-.016.01-.024.007-.025.006-.003-.002-.01-.008-.01-.025v-.766a.158.158 0 0 1 .074-.126l1.087-.629c.016-.009.023-.006.025-.005.002.002.008.008.008.024v.768a.164.164 0 0 1-.072.125l-1.087.628z" fill="#37474F" stroke="#000" stroke-width=".075"/>
    <path d="M42.227 50.34c.012.022.02.047.021.072v.766a.158.158 0 0 1-.073.126l-1.086.628a.163.163 0 0 1-.144 0l-.058-.034a.163.163 0 0 1-.073-.126v-.765a.16.16 0 0 1 .073-.126l1.085-.628a.165.165 0 0 1 .145 0l.058.033a.164.164 0 0 1 .052.055z" fill="#263238" stroke="#000" stroke-width=".075"/>
    <path d="M41.087 51.94c-.015.01-.023.006-.024.005-.003-.002-.009-.008-.009-.024v-.768a.163.163 0 0 1 .072-.126l1.087-.629c.017-.009.024-.005.026-.004.003.001.009.007.009.024v.768a.162.162 0 0 1-.073.126l-1.088.628z" fill="#37474F" stroke="#000" stroke-width=".075"/>
    <path d="M41.719 51.82v.389a.943.943 0 0 1-.424.739l-.002.001-4.089 2.359a.475.475 0 0 1-.118.048l-.035.009-.01-.035a.45.45 0 0 1-.017-.124m4.695-3.385-4.695 3.385m4.695-3.385-.019-.011-.338-.195v-.271l.605-.35.6.345v.922c0 .246-.147.561-.391.872-.244.31-.58.61-.952.825l-3.46 2 3.955-4.137zm-4.695 3.385v-.67m0 .67v-.67m0 0-.266-.154-.337-.194-.602.346v.271l.34.195.018.011v.653a.375.375 0 0 0 .143.319c.026.019.092.056.159.095l.002.001a7.56 7.56 0 0 1 .151.091c.109.064.266.083.46.05a2.1 2.1 0 0 0 .672-.262l-.74-1.422z" fill="#263238" stroke="#000" stroke-width=".075"/>
    <path d="M37.761 55.97c-.373.218-.705.306-.94.278a.423.423 0 0 1-.268-.12.397.397 0 0 1-.097-.282l.01-.95.001-.021-.019-.011-.586-.339.564-.324.604.347v.67c0 .139.049.246.138.298.09.052.207.04.327-.029l4.089-2.359h.002a.94.94 0 0 0 .424-.738V51.679l-.019-.01-.586-.34.567-.327.592.35v.921c0 .246-.147.562-.391.873-.244.31-.58.61-.952.824l-3.46 2z" fill="#37474F" stroke="#000" stroke-width=".075"/>
    <path d="m42.528 51.322-.56.327-.568-.326.567-.329.56.328zM36.983 54.527l-.563.326-.568-.328.564-.325.567.327z" fill="#455A64" stroke="#000" stroke-width=".075"/>
    <path opacity=".15" d="m25.702 58.804-10.26-5.886a1.101 1.101 0 0 1-.426-.805v-7.296l13.016 7.533-2.33 6.454zM15.506 44.514l18.113-10.46 12.569 7.255c.134.078.192.174.192.263 0 .09-.058.186-.192.265L28.076 52.294l-12.57-7.256c-.134-.077-.193-.175-.193-.264 0-.09.059-.185.193-.26z" fill="#000" stroke="#000" stroke-width=".075"/>
    <path d="M44.681 41.885 26.544 52.358a1.098 1.098 0 0 1-.987 0l-12.869-7.437a1.097 1.097 0 0 1-.493-.854v-6.744a1.093 1.093 0 0 1 .493-.854l18.139-10.474a1.098 1.098 0 0 1 .986 0l12.868 7.43h.001a1.092 1.092 0 0 1 .493.855v6.752a1.086 1.086 0 0 1-.493.853z" fill="#ACC0F0" stroke="#000" stroke-width=".075"/>
    <path opacity=".45" d="m25.52 44.49.002.001c.152.081.32.125.493.127v7.857a.986.986 0 0 1-.455-.117l-12.872-7.437a1.092 1.092 0 0 1-.491-.854v-6.744a1.1 1.1 0 0 1 .221-.603c0 .019 0 .038.004.056.017.109.096.21.226.284l12.873 7.43z" fill="#fff" stroke="#000" stroke-width=".075"/>
    <path opacity=".1" d="m25.52 44.49.002.001c.152.081.32.125.493.127v7.857a.986.986 0 0 1-.455-.117l-12.872-7.437a1.092 1.092 0 0 1-.491-.854v-6.744a1.1 1.1 0 0 1 .221-.603c0 .019 0 .038.004.056.017.109.096.21.226.284l12.873 7.43z" fill="#000" stroke="#000" stroke-width=".075"/>
    <path opacity=".55" d="m26.578 44.491 18.143-10.473c.137-.083.218-.19.228-.305a.273.273 0 0 0 .001-.041 1.092 1.092 0 0 1 .227.608v6.752a1.09 1.09 0 0 1-.493.853l-18.14 10.473h-.001a.998.998 0 0 1-.454.117v-7.857a1.07 1.07 0 0 0 .489-.127z" fill="#fff" stroke="#000" stroke-width=".075"/>
    <path d="M44.684 33.426c.133.075.192.171.192.26 0 .09-.059.188-.192.265l-18.14 10.473h-.002a1.086 1.086 0 0 1-.984 0l-12.872-7.43c-.134-.078-.192-.173-.192-.262 0-.089.058-.185.192-.263l18.141-10.474a1.095 1.095 0 0 1 .985 0l12.872 7.431z" fill="#ACC0F0" stroke="#000" stroke-width=".075"/>
    <path opacity=".65" d="M44.684 33.426c.133.075.192.171.192.26 0 .09-.059.188-.192.265l-18.14 10.473h-.002a1.086 1.086 0 0 1-.984 0l-12.872-7.43c-.134-.078-.192-.173-.192-.262 0-.089.058-.185.192-.263l18.141-10.474a1.095 1.095 0 0 1 .985 0l12.872 7.431z" fill="#fff" stroke="#000" stroke-width=".075"/>
    <path d="M13.894 36.55a.079.079 0 0 1 .107.029.079.079 0 0 1-.029.107l-.048.029-.02-.011-.018.033.019.032.019-.011.048.027m-.078-.236-.285.166.037.021m.248-.187.019.033a.041.041 0 0 1 .056.015.041.041 0 0 1-.015.057l-.087.05-.057.033.057.032.086.049m-.06-.269.02.033-.267.154m0 0-.037.022.285.164m-.248-.186.266.153m-.018.033c.012.007.025.01.039.011m-.04-.01.018-.034m-.017.033.018-.032m.021.043a.079.079 0 0 0 .075-.1.08.08 0 0 0-.036-.048m-.039.148v-.038m0 .038.002-.038h-.001m.038-.11-.02.033h.001m.02-.033-.02.033m0 0a.043.043 0 0 1 .015.057l.033.019-.033-.019a.04.04 0 0 1-.034.02m-.022-.006a.056.056 0 0 0 .022.006" fill="#fff" stroke="#000" stroke-width=".075"/>
    <mask id="ly8elgxbpb" fill="#fff">
        <path d="M14.337 36.461a.079.079 0 0 1-.04-.146l.404-.233a.08.08 0 0 1 .063-.013.08.08 0 0 1 .062.068.08.08 0 0 1-.02.061.08.08 0 0 1-.026.02l-.404.234a.09.09 0 0 1-.04.01zm.806-.471a.079.079 0 0 1-.039-.147l.404-.234a.079.079 0 0 1 .079.137l-.404.244a.067.067 0 0 1-.04 0zm.809-.472a.078.078 0 0 1-.072-.108.078.078 0 0 1 .032-.038l.404-.233a.08.08 0 0 1 .063-.014.08.08 0 0 1 .052.038.078.078 0 0 1-.01.092.078.078 0 0 1-.026.02l-.404.243a.089.089 0 0 1-.04.008v-.008zm.806-.472a.079.079 0 0 1-.075-.058.078.078 0 0 1 .036-.088l.404-.234a.08.08 0 0 1 .108.029.079.079 0 0 1-.03.107l-.403.244a.067.067 0 0 1-.04.014v-.014zm.809-.472a.079.079 0 0 1-.073-.108.079.079 0 0 1 .033-.038l.41-.214a.078.078 0 0 1 .093 0 .078.078 0 0 1 .029.088.08.08 0 0 1-.043.047l-.404.235a.09.09 0 0 1-.045.01v-.02zm.806-.471a.079.079 0 0 1-.075-.099.079.079 0 0 1 .036-.048l.404-.234a.078.078 0 0 1 .06-.008.079.079 0 0 1 .019.145l-.408.258a.067.067 0 0 1-.036.01v-.024zm.808-.472a.079.079 0 0 1-.067-.04.08.08 0 0 1 .028-.108l.404-.233a.074.074 0 0 1 .06-.008.075.075 0 0 1 .047.037.08.08 0 0 1-.028.108l-.404.233a.092.092 0 0 1-.04.042v-.031zm23.85-.247a.086.086 0 0 1-.038-.01l-.405-.234a.079.079 0 1 1 .079-.135l.404.233a.079.079 0 0 1-.04.146zm-23.05-.189a.079.079 0 0 1-.075-.098.079.079 0 0 1 .037-.048l.404-.233a.079.079 0 0 1 .078.136l-.404.232a.068.068 0 0 1-.04.011zm22.236-.245a.074.074 0 0 1-.039-.011l-.404-.233a.078.078 0 0 1-.037-.047.075.075 0 0 1 .008-.06.08.08 0 0 1 .108-.03l.404.235a.078.078 0 0 1 .008.13.079.079 0 0 1-.048.016zm-21.427-.22a.077.077 0 0 1-.067-.04.08.08 0 0 1 .028-.108l.404-.233a.079.079 0 0 1 .06-.008.079.079 0 0 1 .055.096.08.08 0 0 1-.036.049l-.405.233a.09.09 0 0 1-.032.01h-.007zm20.62-.247a.08.08 0 0 1-.039-.01l-.404-.232a.08.08 0 0 1-.008-.132.079.079 0 0 1 .058-.015c.01.001.02.005.029.01l.404.233a.079.079 0 0 1 .028.107.077.077 0 0 1-.061.039h-.006zm-19.813-.22a.078.078 0 0 1-.075-.058.078.078 0 0 1 .036-.088l.402-.233a.08.08 0 0 1 .063-.014.08.08 0 0 1 .051.038.08.08 0 0 1 .007.063.08.08 0 0 1-.042.048l-.403.233a.073.073 0 0 1-.031.01h-.008zm19.004-.246a.074.074 0 0 1-.04-.01l-.404-.233a.078.078 0 0 1-.036-.048.079.079 0 0 1 .055-.096.08.08 0 0 1 .06.007l.404.234a.079.079 0 0 1 .036.088.078.078 0 0 1-.075.058zm-18.197-.22a.077.077 0 0 1-.068-.04.08.08 0 0 1 .028-.108l.404-.232a.079.079 0 0 1 .06-.009.079.079 0 0 1 .055.097.08.08 0 0 1-.036.049l-.404.232a.084.084 0 0 1-.032.011h-.007zm17.392-.245a.085.085 0 0 1-.04-.011l-.404-.233a.08.08 0 0 1 .02-.145.079.079 0 0 1 .059.008l.404.233a.08.08 0 0 1 0 .137.078.078 0 0 1-.04.01zm-16.578-.222a.079.079 0 0 1-.075-.098.079.079 0 0 1 .036-.048l.404-.227a.08.08 0 0 1 .063-.013.077.077 0 0 1 .051.038.08.08 0 0 1 .007.063.078.078 0 0 1-.042.048l-.404.233a.067.067 0 0 1-.04.004zm15.776-.245a.074.074 0 0 1-.04-.011l-.404-.233a.08.08 0 0 1-.042-.047.078.078 0 0 1 .028-.088.077.077 0 0 1 .063-.013.08.08 0 0 1 .03.013l.404.233a.079.079 0 0 1-.04.146zm-14.968-.22a.078.078 0 0 1-.067-.04.08.08 0 0 1 .028-.108l.398-.231a.078.078 0 0 1 .06-.009.077.077 0 0 1 .047.037.08.08 0 0 1-.028.109l-.393.23a.074.074 0 0 1-.045.012zm14.16-.246a.081.081 0 0 1-.038-.01l-.397-.233a.08.08 0 0 1-.008-.132.079.079 0 0 1 .058-.015c.01.001.02.005.029.01l.404.233a.08.08 0 0 1-.004.139.08.08 0 0 1-.043.008zm-13.351-.221a.078.078 0 0 1-.075-.058.078.078 0 0 1 .035-.088l.403-.233a.08.08 0 0 1 .062-.014.08.08 0 0 1 .052.038.08.08 0 0 1 .007.063.08.08 0 0 1-.042.048l-.403.233a.074.074 0 0 1-.04.01zm12.544-.246a.074.074 0 0 1-.04-.01l-.404-.233a.08.08 0 0 1-.022-.103.078.078 0 0 1 .1-.033l.405.233a.079.079 0 0 1 .036.088.078.078 0 0 1-.075.058zm-11.736-.22a.078.078 0 0 1-.068-.04.08.08 0 0 1 .029-.108l.404-.232a.078.078 0 0 1 .06-.009.078.078 0 0 1 .047.037.08.08 0 0 1-.029.109l-.404.232a.07.07 0 0 1-.039.011zm10.93-.245a.07.07 0 0 1-.039-.011l-.404-.233a.08.08 0 0 1-.009-.13.08.08 0 0 1 .058-.016.08.08 0 0 1 .03.01l.404.232a.08.08 0 0 1-.001.138.079.079 0 0 1-.04.01h.002zm-10.123-.222a.08.08 0 0 1-.068-.04.079.079 0 0 1 .028-.106l.404-.233a.079.079 0 0 1 .1.032.079.079 0 0 1-.02.104l-.405.234a.081.081 0 0 1-.04.01zm9.314-.237a.075.075 0 0 1-.04-.011l-.404-.233a.078.078 0 0 1-.013-.135.078.078 0 0 1 .092 0l.404.232a.079.079 0 0 1-.04.147zm-8.508-.22a.079.079 0 0 1-.075-.059.078.078 0 0 1 .036-.088l.404-.234a.078.078 0 0 1 .108.03.079.079 0 0 1-.03.107l-.403.233a.073.073 0 0 1-.04.003v.008zm7.706-.246a.068.068 0 0 1-.04-.01l-.404-.233a.08.08 0 0 1-.028-.109.079.079 0 0 1 .107-.028l.404.232a.08.08 0 0 1 .028.109.078.078 0 0 1-.072.033l.005.006zm-6.893-.221a.079.079 0 0 1-.072-.109.079.079 0 0 1 .033-.038l.403-.232a.079.079 0 1 1 .078.135l-.402.234a.089.089 0 0 1-.044.002l.004.008zm6.08-.257a.075.075 0 0 1-.04-.01l-.404-.233a.077.077 0 0 1-.042-.048.077.077 0 0 1 .007-.064.08.08 0 0 1 .084-.037c.01.002.021.007.03.013l.404.233a.078.078 0 0 1 .036.088.079.079 0 0 1-.075.058zm-5.278-.22a.079.079 0 0 1-.072-.108.079.079 0 0 1 .033-.038l.404-.234a.08.08 0 0 1 .116.089.079.079 0 0 1-.037.047l-.404.233a.07.07 0 0 1-.04.014v-.003zm4.477-.242a.07.07 0 0 1-.039-.011l-.404-.233a.08.08 0 0 1-.009-.13.08.08 0 0 1 .087-.007l.405.233a.08.08 0 0 1 0 .137.078.078 0 0 1-.04.01zm-3.664-.222a.079.079 0 0 1-.075-.098.079.079 0 0 1 .036-.048l.404-.233a.079.079 0 0 1 .079.136l-.404.234a.08.08 0 0 1-.046.01h.006zm2.856-.245a.09.09 0 0 1-.04-.01l-.41-.234a.08.08 0 0 1-.021-.103.078.078 0 0 1 .1-.032l.404.233a.079.079 0 0 1 .036.088.078.078 0 0 1-.075.058h.006zm-2.044-.22a.078.078 0 0 1-.072-.109.079.079 0 0 1 .032-.038l.405-.234a.08.08 0 0 1 .107.03.08.08 0 0 1-.029.107l-.404.233a.07.07 0 0 1-.049.01h.01zm1.24-.246a.067.067 0 0 1-.039-.01l-.297-.167h-.082a.083.083 0 0 1-.08-.107.076.076 0 0 1 .038-.043.073.073 0 0 1 .028-.008h.014a.419.419 0 0 1 .157.026l.293.17a.078.078 0 0 1 .036.087.079.079 0 0 1-.075.059l.008-.007z"/>
    </mask>
    <path d="M14.337 36.461a.079.079 0 0 1-.04-.146l.404-.233a.08.08 0 0 1 .063-.013.08.08 0 0 1 .062.068.08.08 0 0 1-.02.061.08.08 0 0 1-.026.02l-.404.234a.09.09 0 0 1-.04.01zm.806-.471a.079.079 0 0 1-.039-.147l.404-.234a.079.079 0 0 1 .079.137l-.404.244a.067.067 0 0 1-.04 0zm.809-.472a.078.078 0 0 1-.072-.108.078.078 0 0 1 .032-.038l.404-.233a.08.08 0 0 1 .063-.014.08.08 0 0 1 .052.038.078.078 0 0 1-.01.092.078.078 0 0 1-.026.02l-.404.243a.089.089 0 0 1-.04.008v-.008zm.806-.472a.079.079 0 0 1-.075-.058.078.078 0 0 1 .036-.088l.404-.234a.08.08 0 0 1 .108.029.079.079 0 0 1-.03.107l-.403.244a.067.067 0 0 1-.04.014v-.014zm.809-.472a.079.079 0 0 1-.073-.108.079.079 0 0 1 .033-.038l.41-.214a.078.078 0 0 1 .093 0 .078.078 0 0 1 .029.088.08.08 0 0 1-.043.047l-.404.235a.09.09 0 0 1-.045.01v-.02zm.806-.471a.079.079 0 0 1-.075-.099.079.079 0 0 1 .036-.048l.404-.234a.078.078 0 0 1 .06-.008.079.079 0 0 1 .019.145l-.408.258a.067.067 0 0 1-.036.01v-.024zm.808-.472a.079.079 0 0 1-.067-.04.08.08 0 0 1 .028-.108l.404-.233a.074.074 0 0 1 .06-.008.075.075 0 0 1 .047.037.08.08 0 0 1-.028.108l-.404.233a.092.092 0 0 1-.04.042v-.031zm23.85-.247a.086.086 0 0 1-.038-.01l-.405-.234a.079.079 0 1 1 .079-.135l.404.233a.079.079 0 0 1-.04.146zm-23.05-.189a.079.079 0 0 1-.075-.098.079.079 0 0 1 .037-.048l.404-.233a.079.079 0 0 1 .078.136l-.404.232a.068.068 0 0 1-.04.011zm22.236-.245a.074.074 0 0 1-.039-.011l-.404-.233a.078.078 0 0 1-.037-.047.075.075 0 0 1 .008-.06.08.08 0 0 1 .108-.03l.404.235a.078.078 0 0 1 .008.13.079.079 0 0 1-.048.016zm-21.427-.22a.077.077 0 0 1-.067-.04.08.08 0 0 1 .028-.108l.404-.233a.079.079 0 0 1 .06-.008.079.079 0 0 1 .055.096.08.08 0 0 1-.036.049l-.405.233a.09.09 0 0 1-.032.01h-.007zm20.62-.247a.08.08 0 0 1-.039-.01l-.404-.232a.08.08 0 0 1-.008-.132.079.079 0 0 1 .058-.015c.01.001.02.005.029.01l.404.233a.079.079 0 0 1 .028.107.077.077 0 0 1-.061.039h-.006zm-19.813-.22a.078.078 0 0 1-.075-.058.078.078 0 0 1 .036-.088l.402-.233a.08.08 0 0 1 .063-.014.08.08 0 0 1 .051.038.08.08 0 0 1 .007.063.08.08 0 0 1-.042.048l-.403.233a.073.073 0 0 1-.031.01h-.008zm19.004-.246a.074.074 0 0 1-.04-.01l-.404-.233a.078.078 0 0 1-.036-.048.079.079 0 0 1 .055-.096.08.08 0 0 1 .06.007l.404.234a.079.079 0 0 1 .036.088.078.078 0 0 1-.075.058zm-18.197-.22a.077.077 0 0 1-.068-.04.08.08 0 0 1 .028-.108l.404-.232a.079.079 0 0 1 .06-.009.079.079 0 0 1 .055.097.08.08 0 0 1-.036.049l-.404.232a.084.084 0 0 1-.032.011h-.007zm17.392-.245a.085.085 0 0 1-.04-.011l-.404-.233a.08.08 0 0 1 .02-.145.079.079 0 0 1 .059.008l.404.233a.08.08 0 0 1 0 .137.078.078 0 0 1-.04.01zm-16.578-.222a.079.079 0 0 1-.075-.098.079.079 0 0 1 .036-.048l.404-.227a.08.08 0 0 1 .063-.013.077.077 0 0 1 .051.038.08.08 0 0 1 .007.063.078.078 0 0 1-.042.048l-.404.233a.067.067 0 0 1-.04.004zm15.776-.245a.074.074 0 0 1-.04-.011l-.404-.233a.08.08 0 0 1-.042-.047.078.078 0 0 1 .028-.088.077.077 0 0 1 .063-.013.08.08 0 0 1 .03.013l.404.233a.079.079 0 0 1-.04.146zm-14.968-.22a.078.078 0 0 1-.067-.04.08.08 0 0 1 .028-.108l.398-.231a.078.078 0 0 1 .06-.009.077.077 0 0 1 .047.037.08.08 0 0 1-.028.109l-.393.23a.074.074 0 0 1-.045.012zm14.16-.246a.081.081 0 0 1-.038-.01l-.397-.233a.08.08 0 0 1-.008-.132.079.079 0 0 1 .058-.015c.01.001.02.005.029.01l.404.233a.08.08 0 0 1-.004.139.08.08 0 0 1-.043.008zm-13.351-.221a.078.078 0 0 1-.075-.058.078.078 0 0 1 .035-.088l.403-.233a.08.08 0 0 1 .062-.014.08.08 0 0 1 .052.038.08.08 0 0 1 .007.063.08.08 0 0 1-.042.048l-.403.233a.074.074 0 0 1-.04.01zm12.544-.246a.074.074 0 0 1-.04-.01l-.404-.233a.08.08 0 0 1-.022-.103.078.078 0 0 1 .1-.033l.405.233a.079.079 0 0 1 .036.088.078.078 0 0 1-.075.058zm-11.736-.22a.078.078 0 0 1-.068-.04.08.08 0 0 1 .029-.108l.404-.232a.078.078 0 0 1 .06-.009.078.078 0 0 1 .047.037.08.08 0 0 1-.029.109l-.404.232a.07.07 0 0 1-.039.011zm10.93-.245a.07.07 0 0 1-.039-.011l-.404-.233a.08.08 0 0 1-.009-.13.08.08 0 0 1 .058-.016.08.08 0 0 1 .03.01l.404.232a.08.08 0 0 1-.001.138.079.079 0 0 1-.04.01h.002zm-10.123-.222a.08.08 0 0 1-.068-.04.079.079 0 0 1 .028-.106l.404-.233a.079.079 0 0 1 .1.032.079.079 0 0 1-.02.104l-.405.234a.081.081 0 0 1-.04.01zm9.314-.237a.075.075 0 0 1-.04-.011l-.404-.233a.078.078 0 0 1-.013-.135.078.078 0 0 1 .092 0l.404.232a.079.079 0 0 1-.04.147zm-8.508-.22a.079.079 0 0 1-.075-.059.078.078 0 0 1 .036-.088l.404-.234a.078.078 0 0 1 .108.03.079.079 0 0 1-.03.107l-.403.233a.073.073 0 0 1-.04.003v.008zm7.706-.246a.068.068 0 0 1-.04-.01l-.404-.233a.08.08 0 0 1-.028-.109.079.079 0 0 1 .107-.028l.404.232a.08.08 0 0 1 .028.109.078.078 0 0 1-.072.033l.005.006zm-6.893-.221a.079.079 0 0 1-.072-.109.079.079 0 0 1 .033-.038l.403-.232a.079.079 0 1 1 .078.135l-.402.234a.089.089 0 0 1-.044.002l.004.008zm6.08-.257a.075.075 0 0 1-.04-.01l-.404-.233a.077.077 0 0 1-.042-.048.077.077 0 0 1 .007-.064.08.08 0 0 1 .084-.037c.01.002.021.007.03.013l.404.233a.078.078 0 0 1 .036.088.079.079 0 0 1-.075.058zm-5.278-.22a.079.079 0 0 1-.072-.108.079.079 0 0 1 .033-.038l.404-.234a.08.08 0 0 1 .116.089.079.079 0 0 1-.037.047l-.404.233a.07.07 0 0 1-.04.014v-.003zm4.477-.242a.07.07 0 0 1-.039-.011l-.404-.233a.08.08 0 0 1-.009-.13.08.08 0 0 1 .087-.007l.405.233a.08.08 0 0 1 0 .137.078.078 0 0 1-.04.01zm-3.664-.222a.079.079 0 0 1-.075-.098.079.079 0 0 1 .036-.048l.404-.233a.079.079 0 0 1 .079.136l-.404.234a.08.08 0 0 1-.046.01h.006zm2.856-.245a.09.09 0 0 1-.04-.01l-.41-.234a.08.08 0 0 1-.021-.103.078.078 0 0 1 .1-.032l.404.233a.079.079 0 0 1 .036.088.078.078 0 0 1-.075.058h.006zm-2.044-.22a.078.078 0 0 1-.072-.109.079.079 0 0 1 .032-.038l.405-.234a.08.08 0 0 1 .107.03.08.08 0 0 1-.029.107l-.404.233a.07.07 0 0 1-.049.01h.01zm1.24-.246a.067.067 0 0 1-.039-.01l-.297-.167h-.082a.083.083 0 0 1-.08-.107.076.076 0 0 1 .038-.043.073.073 0 0 1 .028-.008h.014a.419.419 0 0 1 .157.026l.293.17a.078.078 0 0 1 .036.087.079.079 0 0 1-.075.059l.008-.007z" fill="#fff" stroke="#000" stroke-width=".151" mask="url(#ly8elgxbpb)"/>
    <path d="M43.437 33.848h-.001a.04.04 0 0 1-.036-.02.038.038 0 0 1-.004-.03.04.04 0 0 1 .019-.025l.001-.001.085-.05.055-.033-.055-.032-.085-.05a.041.041 0 0 1-.016-.056.042.042 0 0 1 .057-.015l.259.153-.26.153a.036.036 0 0 1-.02.006z" fill="#fff" stroke="#000" stroke-width=".075"/>
    <mask id="5tyo2uftkc" fill="#fff">
        <path d="M26.048 43.873a.404.404 0 0 1-.157-.027l-.292-.168a.08.08 0 0 1-.01-.131.079.079 0 0 1 .088-.006l.288.167s.032.008.08.008a.081.081 0 0 1 .085.077.074.074 0 0 1-.069.08h-.013zm.43-.197a.079.079 0 0 1-.068-.039.08.08 0 0 1 .028-.108l.405-.233a.079.079 0 0 1 .078.137l-.404.232a.074.074 0 0 1-.04.011zm-1.241-.221a.09.09 0 0 1-.04-.01l-.402-.234a.078.078 0 0 1-.014-.136.078.078 0 0 1 .093 0l.402.233a.078.078 0 0 1 .036.088.079.079 0 0 1-.075.059zm2.044-.246a.079.079 0 0 1-.075-.058.078.078 0 0 1 .036-.088l.404-.233a.079.079 0 1 1 .079.136l-.404.232a.068.068 0 0 1-.037.011h-.003zm-2.854-.22a.07.07 0 0 1-.04-.01l-.4-.227a.078.078 0 0 1-.037-.048.075.075 0 0 1 .009-.06.08.08 0 0 1 .107-.03l.404.235a.078.078 0 0 1 .035.088.078.078 0 0 1-.075.058l-.003-.006zm3.666-.237a.079.079 0 0 1-.075-.059.078.078 0 0 1 .035-.088l.404-.234a.08.08 0 0 1 .108.03.078.078 0 0 1-.029.107l-.404.233a.074.074 0 0 1-.04.01zm-4.47-.222a.08.08 0 0 1-.039-.01l-.404-.24a.077.077 0 0 1-.042-.048.077.077 0 0 1 .007-.063.08.08 0 0 1 .084-.038c.01.003.02.007.03.014l.404.232a.079.079 0 0 1 .028.107.078.078 0 0 1-.067.038v.008zm5.276-.25a.079.079 0 0 1-.039-.146l.404-.233a.08.08 0 0 1 .063-.013.078.078 0 0 1 .042.129.08.08 0 0 1-.026.02l-.398.23a.08.08 0 0 1-.046.013zm-6.087-.223a.07.07 0 0 1-.04-.011l-.4-.238a.075.075 0 0 1-.037-.047.079.079 0 0 1 .056-.096.08.08 0 0 1 .06.006l.404.235a.08.08 0 0 1 .035.088.078.078 0 0 1-.075.058l-.003.005zm6.896-.249a.078.078 0 0 1-.072-.108.079.079 0 0 1 .032-.038l.405-.234a.08.08 0 0 1 .107.029.08.08 0 0 1-.029.107l-.404.244a.073.073 0 0 1-.04 0zm-7.706-.222a.09.09 0 0 1-.039-.009l-.402-.234a.077.077 0 0 1-.043-.048.078.078 0 0 1 .007-.064.08.08 0 0 1 .084-.037.08.08 0 0 1 .03.013l.403.233a.079.079 0 0 1-.04.146zm8.515-.242a.079.079 0 0 1-.039-.146l.403-.233a.078.078 0 0 1 .062-.013.08.08 0 0 1 .052.037.079.079 0 0 1-.036.111l-.404.236a.091.091 0 0 1-.038.008zm-9.315-.22a.071.071 0 0 1-.04-.01l-.403-.234a.078.078 0 0 1-.037-.047.079.079 0 0 1 .056-.096.08.08 0 0 1 .06.007l.402.234a.079.079 0 0 1-.04.146h.002zm10.122-.245a.079.079 0 0 1-.04-.146l.405-.235a.079.079 0 0 1 .079.137l-.406.23a.074.074 0 0 1-.04.014h.002zm-10.93-.222a.09.09 0 0 1-.04-.01l-.402-.234a.078.078 0 0 1-.014-.135.078.078 0 0 1 .092 0l.403.233a.079.079 0 0 1 .03.107.081.081 0 0 1-.07.04zm11.737-.245a.079.079 0 0 1-.04-.146l.405-.233a.079.079 0 0 1 .078.135l-.404.234a.08.08 0 0 1-.04.01zm-12.544-.22a.07.07 0 0 1-.04-.011l-.404-.233a.078.078 0 0 1-.036-.048.079.079 0 0 1 .056-.096.08.08 0 0 1 .06.007l.403.234a.079.079 0 0 1-.039.147zm13.352-.246a.079.079 0 0 1-.075-.058.078.078 0 0 1 .036-.088l.404-.234a.079.079 0 0 1 .079.137l-.405.232a.074.074 0 0 1-.04.011h.001zm-14.152-.221a.09.09 0 0 1-.04-.01l-.402-.233a.082.082 0 0 1-.03-.108.08.08 0 0 1 .108-.028l.403.232a.08.08 0 0 1 .036.088.079.079 0 0 1-.075.059zm14.968-.246a.079.079 0 0 1-.039-.146l.403-.233a.08.08 0 0 1 .108.029.082.082 0 0 1-.03.108l-.402.233a.09.09 0 0 1-.05.01h.01zm-15.775-.22a.071.071 0 0 1-.04-.01l-.404-.234a.08.08 0 0 1-.021-.103.078.078 0 0 1 .1-.032l.404.233a.079.079 0 0 1-.04.146zm16.582-.245a.079.079 0 0 1-.04-.147l.405-.232a.079.079 0 0 1 .078.135l-.404.233a.074.074 0 0 1-.048.01h.009zm-17.39-.22a.092.092 0 0 1-.04-.011l-.402-.233a.078.078 0 0 1-.037-.048.078.078 0 0 1 .008-.06.08.08 0 0 1 .107-.029l.403.233a.08.08 0 0 1 .039.09.079.079 0 0 1-.078.058zm18.197-.246a.078.078 0 0 1-.076-.099.08.08 0 0 1 .036-.048l.404-.233a.079.079 0 0 1 .06-.009.079.079 0 0 1 .055.097.08.08 0 0 1-.036.049l-.42.232a.08.08 0 0 1-.033.011h.01zm-19.014-.221a.071.071 0 0 1-.039-.011l-.404-.233a.08.08 0 0 1-.022-.103.078.078 0 0 1 .1-.032l.405.232a.079.079 0 0 1-.04.147zm19.814-.246a.079.079 0 0 1-.04-.146l.405-.233a.078.078 0 0 1 .1.032.079.079 0 0 1-.021.104l-.405.232a.07.07 0 0 1-.04.011h.001zm-20.622-.22a.092.092 0 0 1-.04-.01l-.4-.234a.082.082 0 0 1-.03-.108.08.08 0 0 1 .108-.028l.401.239a.08.08 0 0 1 .03.108.078.078 0 0 1-.069.033zm21.429-.245a.079.079 0 0 1-.07-.04.08.08 0 0 1 .03-.108l.403-.233a.08.08 0 0 1 .109.029.082.082 0 0 1-.03.108l-.403.233a.092.092 0 0 1-.04.01zm-22.235-.222a.07.07 0 0 1-.04-.01l-.404-.234a.078.078 0 0 1 .079-.135l.404.233a.079.079 0 0 1-.04.146zm23.041-.245a.079.079 0 0 1-.039-.147l.404-.232a.078.078 0 0 1 .093 0 .08.08 0 0 1 .029.087.08.08 0 0 1-.043.048l-.404.233a.07.07 0 0 1-.04.01zm.807-.472a.077.077 0 0 1-.067-.04.08.08 0 0 1 .028-.108l.404-.233a.08.08 0 0 1 .109.029.082.082 0 0 1-.03.108l-.404.233a.08.08 0 0 1-.04.017v-.006zm.809-.472a.079.079 0 0 1-.076-.058.078.078 0 0 1 .036-.088l.404-.233a.078.078 0 0 1 .079.136l-.404.232a.07.07 0 0 1-.04.022v-.01zm.808-.471a.079.079 0 0 1-.07-.04.08.08 0 0 1 .03-.108l.403-.233a.08.08 0 0 1 .06-.008.08.08 0 0 1 .056.097.08.08 0 0 1-.037.048l-.403.232a.074.074 0 0 1-.04.029v-.017zm.806-.472a.079.079 0 0 1-.072-.108.079.079 0 0 1 .033-.039l.404-.232a.079.079 0 1 1 .079.135l-.403.256a.086.086 0 0 1-.04.01v-.022zm.809-.472a.08.08 0 0 1-.08-.068.078.078 0 0 1 .017-.059.077.077 0 0 1 .023-.02l.403-.233a.08.08 0 0 1 .06-.008.08.08 0 0 1 .056.096.08.08 0 0 1-.037.048l-.403.233a.074.074 0 0 1-.04.04v-.029zm.806-.472a.079.079 0 0 1-.072-.108.08.08 0 0 1 .033-.038l.404-.233a.078.078 0 0 1 .1.032.079.079 0 0 1-.021.104l-.404.234a.085.085 0 0 1-.041.042l.001-.033z"/>
    </mask>
    <path d="M26.048 43.873a.404.404 0 0 1-.157-.027l-.292-.168a.08.08 0 0 1-.01-.131.079.079 0 0 1 .088-.006l.288.167s.032.008.08.008a.081.081 0 0 1 .085.077.074.074 0 0 1-.069.08h-.013zm.43-.197a.079.079 0 0 1-.068-.039.08.08 0 0 1 .028-.108l.405-.233a.079.079 0 0 1 .078.137l-.404.232a.074.074 0 0 1-.04.011zm-1.241-.221a.09.09 0 0 1-.04-.01l-.402-.234a.078.078 0 0 1-.014-.136.078.078 0 0 1 .093 0l.402.233a.078.078 0 0 1 .036.088.079.079 0 0 1-.075.059zm2.044-.246a.079.079 0 0 1-.075-.058.078.078 0 0 1 .036-.088l.404-.233a.079.079 0 1 1 .079.136l-.404.232a.068.068 0 0 1-.037.011h-.003zm-2.854-.22a.07.07 0 0 1-.04-.01l-.4-.227a.078.078 0 0 1-.037-.048.075.075 0 0 1 .009-.06.08.08 0 0 1 .107-.03l.404.235a.078.078 0 0 1 .035.088.078.078 0 0 1-.075.058l-.003-.006zm3.666-.237a.079.079 0 0 1-.075-.059.078.078 0 0 1 .035-.088l.404-.234a.08.08 0 0 1 .108.03.078.078 0 0 1-.029.107l-.404.233a.074.074 0 0 1-.04.01zm-4.47-.222a.08.08 0 0 1-.039-.01l-.404-.24a.077.077 0 0 1-.042-.048.077.077 0 0 1 .007-.063.08.08 0 0 1 .084-.038c.01.003.02.007.03.014l.404.232a.079.079 0 0 1 .028.107.078.078 0 0 1-.067.038v.008zm5.276-.25a.079.079 0 0 1-.039-.146l.404-.233a.08.08 0 0 1 .063-.013.078.078 0 0 1 .042.129.08.08 0 0 1-.026.02l-.398.23a.08.08 0 0 1-.046.013zm-6.087-.223a.07.07 0 0 1-.04-.011l-.4-.238a.075.075 0 0 1-.037-.047.079.079 0 0 1 .056-.096.08.08 0 0 1 .06.006l.404.235a.08.08 0 0 1 .035.088.078.078 0 0 1-.075.058l-.003.005zm6.896-.249a.078.078 0 0 1-.072-.108.079.079 0 0 1 .032-.038l.405-.234a.08.08 0 0 1 .107.029.08.08 0 0 1-.029.107l-.404.244a.073.073 0 0 1-.04 0zm-7.706-.222a.09.09 0 0 1-.039-.009l-.402-.234a.077.077 0 0 1-.043-.048.078.078 0 0 1 .007-.064.08.08 0 0 1 .084-.037.08.08 0 0 1 .03.013l.403.233a.079.079 0 0 1-.04.146zm8.515-.242a.079.079 0 0 1-.039-.146l.403-.233a.078.078 0 0 1 .062-.013.08.08 0 0 1 .052.037.079.079 0 0 1-.036.111l-.404.236a.091.091 0 0 1-.038.008zm-9.315-.22a.071.071 0 0 1-.04-.01l-.403-.234a.078.078 0 0 1-.037-.047.079.079 0 0 1 .056-.096.08.08 0 0 1 .06.007l.402.234a.079.079 0 0 1-.04.146h.002zm10.122-.245a.079.079 0 0 1-.04-.146l.405-.235a.079.079 0 0 1 .079.137l-.406.23a.074.074 0 0 1-.04.014h.002zm-10.93-.222a.09.09 0 0 1-.04-.01l-.402-.234a.078.078 0 0 1-.014-.135.078.078 0 0 1 .092 0l.403.233a.079.079 0 0 1 .03.107.081.081 0 0 1-.07.04zm11.737-.245a.079.079 0 0 1-.04-.146l.405-.233a.079.079 0 0 1 .078.135l-.404.234a.08.08 0 0 1-.04.01zm-12.544-.22a.07.07 0 0 1-.04-.011l-.404-.233a.078.078 0 0 1-.036-.048.079.079 0 0 1 .056-.096.08.08 0 0 1 .06.007l.403.234a.079.079 0 0 1-.039.147zm13.352-.246a.079.079 0 0 1-.075-.058.078.078 0 0 1 .036-.088l.404-.234a.079.079 0 0 1 .079.137l-.405.232a.074.074 0 0 1-.04.011h.001zm-14.152-.221a.09.09 0 0 1-.04-.01l-.402-.233a.082.082 0 0 1-.03-.108.08.08 0 0 1 .108-.028l.403.232a.08.08 0 0 1 .036.088.079.079 0 0 1-.075.059zm14.968-.246a.079.079 0 0 1-.039-.146l.403-.233a.08.08 0 0 1 .108.029.082.082 0 0 1-.03.108l-.402.233a.09.09 0 0 1-.05.01h.01zm-15.775-.22a.071.071 0 0 1-.04-.01l-.404-.234a.08.08 0 0 1-.021-.103.078.078 0 0 1 .1-.032l.404.233a.079.079 0 0 1-.04.146zm16.582-.245a.079.079 0 0 1-.04-.147l.405-.232a.079.079 0 0 1 .078.135l-.404.233a.074.074 0 0 1-.048.01h.009zm-17.39-.22a.092.092 0 0 1-.04-.011l-.402-.233a.078.078 0 0 1-.037-.048.078.078 0 0 1 .008-.06.08.08 0 0 1 .107-.029l.403.233a.08.08 0 0 1 .039.09.079.079 0 0 1-.078.058zm18.197-.246a.078.078 0 0 1-.076-.099.08.08 0 0 1 .036-.048l.404-.233a.079.079 0 0 1 .06-.009.079.079 0 0 1 .055.097.08.08 0 0 1-.036.049l-.42.232a.08.08 0 0 1-.033.011h.01zm-19.014-.221a.071.071 0 0 1-.039-.011l-.404-.233a.08.08 0 0 1-.022-.103.078.078 0 0 1 .1-.032l.405.232a.079.079 0 0 1-.04.147zm19.814-.246a.079.079 0 0 1-.04-.146l.405-.233a.078.078 0 0 1 .1.032.079.079 0 0 1-.021.104l-.405.232a.07.07 0 0 1-.04.011h.001zm-20.622-.22a.092.092 0 0 1-.04-.01l-.4-.234a.082.082 0 0 1-.03-.108.08.08 0 0 1 .108-.028l.401.239a.08.08 0 0 1 .03.108.078.078 0 0 1-.069.033zm21.429-.245a.079.079 0 0 1-.07-.04.08.08 0 0 1 .03-.108l.403-.233a.08.08 0 0 1 .109.029.082.082 0 0 1-.03.108l-.403.233a.092.092 0 0 1-.04.01zm-22.235-.222a.07.07 0 0 1-.04-.01l-.404-.234a.078.078 0 0 1 .079-.135l.404.233a.079.079 0 0 1-.04.146zm23.041-.245a.079.079 0 0 1-.039-.147l.404-.232a.078.078 0 0 1 .093 0 .08.08 0 0 1 .029.087.08.08 0 0 1-.043.048l-.404.233a.07.07 0 0 1-.04.01zm.807-.472a.077.077 0 0 1-.067-.04.08.08 0 0 1 .028-.108l.404-.233a.08.08 0 0 1 .109.029.082.082 0 0 1-.03.108l-.404.233a.08.08 0 0 1-.04.017v-.006zm.809-.472a.079.079 0 0 1-.076-.058.078.078 0 0 1 .036-.088l.404-.233a.078.078 0 0 1 .079.136l-.404.232a.07.07 0 0 1-.04.022v-.01zm.808-.471a.079.079 0 0 1-.07-.04.08.08 0 0 1 .03-.108l.403-.233a.08.08 0 0 1 .06-.008.08.08 0 0 1 .056.097.08.08 0 0 1-.037.048l-.403.232a.074.074 0 0 1-.04.029v-.017zm.806-.472a.079.079 0 0 1-.072-.108.079.079 0 0 1 .033-.039l.404-.232a.079.079 0 1 1 .079.135l-.403.256a.086.086 0 0 1-.04.01v-.022zm.809-.472a.08.08 0 0 1-.08-.068.078.078 0 0 1 .017-.059.077.077 0 0 1 .023-.02l.403-.233a.08.08 0 0 1 .06-.008.08.08 0 0 1 .056.096.08.08 0 0 1-.037.048l-.403.233a.074.074 0 0 1-.04.04v-.029zm.806-.472a.079.079 0 0 1-.072-.108.08.08 0 0 1 .033-.038l.404-.233a.078.078 0 0 1 .1.032.079.079 0 0 1-.021.104l-.404.234a.085.085 0 0 1-.041.042l.001-.033z" fill="#fff" stroke="#000" stroke-width=".151" mask="url(#5tyo2uftkc)"/>
    <path opacity=".1" d="m26.303 48.806 18.875-10.898v-.65L26.341 48.13l-.019-.032-.018.708zm0 0a.502.502 0 0 1-.504 0m.505 0h-.505m0 0-13.604-7.852v-.653m13.604 8.505-13.604-8.505m0 0 13.566 7.83-13.566-7.83z" fill="#000" stroke="#000" stroke-width=".075"/>
    <mask id="fh7jgkl6bd" fill="#fff">
        <path d="M23.627 43.35v-.021a6.217 6.217 0 0 1 4.856 0v.022l-1.917 1.1c-.156.084-.33.126-.508.123a1.047 1.047 0 0 1-.513-.123l-1.912-1.1"/>
    </mask>
    <path d="M23.627 43.35v-.021a6.217 6.217 0 0 1 4.856 0v.022l-1.917 1.1c-.156.084-.33.126-.508.123a1.047 1.047 0 0 1-.513-.123l-1.912-1.1" fill="#ACC0F0"/>
    <path d="m23.627 43.329-.03-.07-.045.02v.05h.075zm2.428-.494v.075-.075zm2.428.494h.075v-.05l-.046-.02-.03.07zm0 .022.037.065.038-.022v-.043h-.075zm-1.917 1.1.036.067.002-.001-.038-.066zm-.508.123.002-.075h-.003l.001.075zm-.513-.123-.037.066h.002l.035-.066zm-1.843-1.1V43.328h-.15V43.35h.15zm-.046.047a6.14 6.14 0 0 1 2.399-.488v-.15c-.844 0-1.68.17-2.457.5l.058.138zm2.399-.488c.824 0 1.64.166 2.398.488l.06-.139a6.291 6.291 0 0 0-2.458-.5v.151zm2.353.419V43.35h.15V43.328h-.15zm.037-.044-1.916 1.101.075.13 1.916-1.1-.075-.13zm-1.915 1.1a.957.957 0 0 1-.47.114l-.003.15c.19.004.377-.041.545-.131l-.072-.133zm-.473.114a.972.972 0 0 1-.476-.114l-.071.133c.169.09.358.135.55.131l-.003-.15zm-.474-.113-1.912-1.1-.075.13 1.912 1.1.075-.13z" fill="#000" mask="url(#fh7jgkl6bd)"/>
    <path d="m44.683 33.949-1.598.921c-.572-.334-.85-.764-.852-1.187-.002-.422.271-.851.835-1.186l1.615.932c.134.078.193.175.193.263 0 .087-.058.182-.193.257zM12.69 36.985c-.134-.075-.192-.17-.192-.257 0-.088.058-.185.192-.263l1.615-.932c.563.335.837.765.835 1.186-.002.423-.28.854-.852 1.188l-1.598-.922zM29.229 27.041h-.001a1.499 1.499 0 0 1-.104-.063l1.702-.983a1.095 1.095 0 0 1 .984 0l1.73 1a.855.855 0 0 1-.036.022c-.013.008-.026.015-.04.025-.583.336-1.349.505-2.117.505s-1.535-.17-2.118-.506zM28.427 43.421c-.197 1.41-1.132 2.657-2.34 3.52v-2.323c.17-.003.337-.047.488-.127l1.852-1.07z" fill="#ACC0F0" stroke="#000" stroke-width=".075"/>
    <path d="M44.721 34.017c.149-.085.231-.203.232-.328a.36.36 0 0 0 0-.018 1.09 1.09 0 0 1 .227.607v1.685c-.577.327-1.09.39-1.457.217-.364-.171-.6-.583-.604-1.24l1.602-.923zM44.74 41.852l-1.621.943c.008-.663.243-1.395.619-2.047.37-.643.878-1.206 1.437-1.547v1.83a1.1 1.1 0 0 1-.434.821zM26.09 52.474v-2.226c.573-.326 1.085-.35 1.452-.14.367.21.602.663.607 1.32l-1.608.928a.995.995 0 0 1-.452.118z" fill="#ACC0F0" stroke="#000" stroke-width=".075"/>
    <g opacity=".15" fill="#000" stroke="#000" stroke-width=".075">
        <path d="M28.427 43.422c-.197 1.41-1.132 2.657-2.34 3.52v-2.324c.17-.003.337-.046.488-.127l1.852-1.07zM44.721 34.017c.149-.085.231-.203.232-.328v-.018a1.101 1.101 0 0 1 .226.607v1.685c-.576.327-1.09.39-1.456.217-.364-.171-.6-.582-.604-1.24l1.602-.923zM44.742 41.852l-1.622.943c.008-.663.243-1.395.619-2.047.37-.643.878-1.206 1.437-1.547v1.831a1.1 1.1 0 0 1-.434.82zM26.09 52.475v-2.227c.573-.326 1.085-.35 1.452-.14.367.21.602.663.607 1.321l-1.608.928a.995.995 0 0 1-.452.118z"/>
    </g>
    <path d="M25.526 44.484c.15.083.317.129.488.133v2.325c-1.211-.87-2.143-2.114-2.34-3.521l1.851 1.063zM26.012 52.48a.995.995 0 0 1-.451-.119l-1.61-.932c.005-.658.24-1.11.608-1.321.368-.21.88-.186 1.453.14v2.231zM14.317 45.87l-1.688-.981a1.101 1.101 0 0 1-.434-.813v-1.813l.006.003c.582.334 1.111.913 1.496 1.579.372.645.605 1.368.62 2.025zM12.652 37.054l1.603.923c-.005.658-.24 1.11-.607 1.321-.367.21-.879.186-1.453-.14v-1.843a1.094 1.094 0 0 1 .23-.605v.016c-.002.125.08.242.227.328z" fill="#ACC0F0" stroke="#000" stroke-width=".075"/>
    <g opacity=".3" fill="#000" stroke="#000" stroke-width=".075">
        <path d="M25.526 44.484c.15.083.317.129.488.133v2.324c-1.211-.869-2.143-2.113-2.34-3.52l1.851 1.063zM26.012 52.479a.996.996 0 0 1-.451-.118l-1.61-.932c.005-.658.24-1.111.608-1.321.368-.21.88-.186 1.453.14v2.231zM14.317 45.87l-1.688-.981a1.101 1.101 0 0 1-.434-.813v-1.813l.006.003c.582.334 1.111.913 1.496 1.579.372.645.605 1.368.62 2.025zM12.652 37.054l1.603.923c-.005.658-.24 1.11-.607 1.321-.367.21-.879.186-1.453-.14v-1.843a1.094 1.094 0 0 1 .23-.605v.016c-.002.125.08.242.227.328z"/>
    </g>
    <path d="M29.957 45.349a.264.264 0 0 1 .083-.089l1.003-.579a.276.276 0 0 1 .237 0l.089.053a.258.258 0 0 1 .117.204v1.896a.264.264 0 0 1-.117.205l-1.003.58a.278.278 0 0 1-.238 0l-.088-.053a.26.26 0 0 1-.119-.205v-1.896a.265.265 0 0 1 .036-.116z" fill="#ACC0F0" stroke="#000" stroke-width=".075"/>
    <path opacity=".3" d="M29.957 45.349a.264.264 0 0 1 .083-.089l1.003-.579a.276.276 0 0 1 .237 0l.089.053a.258.258 0 0 1 .117.204v1.896a.264.264 0 0 1-.117.205l-1.003.58a.278.278 0 0 1-.238 0l-.088-.053a.26.26 0 0 1-.119-.205v-1.896a.265.265 0 0 1 .036-.116z" fill="#000" stroke="#000" stroke-width=".075"/>
    <path opacity=".1" d="m29.95 45.38.296.174a.313.313 0 0 0-.029.12v1.897a.155.155 0 0 0 .01.074.259.259 0 0 1-.09-.027l-.089-.05a.266.266 0 0 1-.119-.205v-1.896a.25.25 0 0 1 .02-.087z" fill="#000" stroke="#000" stroke-width=".075"/>
    <path d="M31.407 44.891c.032-.018.05-.015.059-.01.008.005.02.02.02.056v1.898a.262.262 0 0 1-.117.204l-1.004.58c-.03.017-.05.014-.06.009-.008-.005-.02-.02-.02-.055v-1.897a.26.26 0 0 1 .119-.205l1.003-.58z" fill="#ACC0F0" stroke="#000" stroke-width=".075"/>
    <path opacity=".2" d="M31.407 44.891c.032-.018.05-.015.059-.01.008.005.02.02.02.056v1.898a.262.262 0 0 1-.117.204l-1.004.58c-.03.017-.05.014-.06.009-.008-.005-.02-.02-.02-.055v-1.897a.26.26 0 0 1 .119-.205l1.003-.58z" fill="#000" stroke="#000" stroke-width=".075"/>
    <path d="M40.176 39.447a.264.264 0 0 1 .084-.088l1.003-.58a.276.276 0 0 1 .237 0l.089.053a.264.264 0 0 1 .119.205v1.896a.265.265 0 0 1-.12.205l-1.002.579a.26.26 0 0 1-.237 0l-.089-.051a.265.265 0 0 1-.119-.205v-1.897a.264.264 0 0 1 .035-.117z" fill="#ACC0F0" stroke="#000" stroke-width=".075"/>
    <path opacity=".3" d="M40.176 39.447a.264.264 0 0 1 .084-.088l1.003-.58a.276.276 0 0 1 .237 0l.089.053a.264.264 0 0 1 .119.205v1.896a.265.265 0 0 1-.12.205l-1.002.579a.26.26 0 0 1-.237 0l-.089-.051a.265.265 0 0 1-.119-.205v-1.897a.264.264 0 0 1 .035-.117z" fill="#000" stroke="#000" stroke-width=".075"/>
    <path opacity=".1" d="m40.16 39.481.298.172a.304.304 0 0 0-.027.118v1.899c0 .027.005.053.015.074a.258.258 0 0 1-.096-.027l-.09-.051a.262.262 0 0 1-.117-.205v-1.897a.22.22 0 0 1 .017-.083z" fill="#000" stroke="#000" stroke-width=".075"/>
    <path d="m40.585 41.717 1.004-.58a.263.263 0 0 0 .119-.205l-1.123.785zm0 0c-.031.018-.05.015-.06.01-.008-.005-.02-.02-.02-.056v-1.897a.26.26 0 0 1 .118-.205l-.038 2.148z" fill="#ACC0F0" stroke="#000" stroke-width=".075"/>
    <path opacity=".2" d="m40.585 41.717 1.004-.58a.263.263 0 0 0 .119-.205l-1.123.785zm0 0c-.031.018-.05.015-.06.01-.008-.005-.02-.02-.02-.056v-1.897a.26.26 0 0 1 .118-.205l-.038 2.148z" fill="#000" stroke="#000" stroke-width=".075"/>
    <path d="M33.89 45.482c.012.022.019.047.02.073v.766a.157.157 0 0 1-.072.125l-1.086.628a.165.165 0 0 1-.145 0l-.058-.033a.159.159 0 0 1-.072-.126v-.767a.164.164 0 0 1 .072-.127l1.086-.627a.165.165 0 0 1 .145 0l.058.033a.162.162 0 0 1 .051.055z" fill="#263238" stroke="#000" stroke-width=".075"/>
    <path d="m33.838 46.454-1.087.628c-.017.01-.024.006-.026.005-.002 0-.008-.007-.008-.024v-.768a.16.16 0 0 1 .072-.126l1.087-.628c.017-.01.024-.006.025-.005.002.001.008.007.008.026v.766a.158.158 0 0 1-.071.126z" fill="#37474F" stroke="#000" stroke-width=".075"/>
    <path d="M39.408 42.298a.16.16 0 0 1 .02.072v.766a.168.168 0 0 1-.072.126l-1.086.628a.167.167 0 0 1-.145 0l-.058-.034a.158.158 0 0 1-.071-.125v-.768a.159.159 0 0 1 .071-.126l1.087-.628a.152.152 0 0 1 .143 0l.06.034a.16.16 0 0 1 .05.055z" fill="#263238" stroke="#000" stroke-width=".075"/>
    <path d="M39.393 42.36v-.001c.016-.01.023-.006.024-.005.003.002.01.008.01.025v.766a.167.167 0 0 1-.072.127l-1.086.628c-.017.009-.025.006-.026.004-.003-.001-.01-.007-.01-.023v-.767a.163.163 0 0 1 .073-.126l1.087-.629z" fill="#37474F" stroke="#000" stroke-width=".075"/>
    <path d="m33.937 46.34.266.154-.704 1.447a.371.371 0 0 1-.143-.318v-.654l-.018-.01-.338-.196v-.27l.602-.347.335.194zm5.809-3.043v.922c0 .247-.146.562-.39.873-.244.31-.58.61-.953.824l-3.46 2c-.246.143-.475.23-.67.263-.196.034-.354.014-.462-.051l5.935-4.831z" fill="#ACC0F0" stroke="#000" stroke-width=".075"/>
    <path opacity=".4" d="m33.937 46.34.266.154-.704 1.447a.371.371 0 0 1-.143-.318v-.654l-.018-.01-.338-.196v-.27l.602-.347.335.194zm5.809-3.043v.922c0 .247-.146.562-.39.873-.244.31-.58.61-.953.824l-3.46 2c-.246.143-.475.23-.67.263-.196.034-.354.014-.462-.051l5.935-4.831z" fill="#000" stroke="#000" stroke-width=".075"/>
    <path d="m33.041 46.485.565-.325.602.35v.67c0 .137.05.244.14.296.09.051.206.04.326-.03l4.088-2.358.002-.001a.94.94 0 0 0 .426-.738V43.64l-.019-.011-.587-.34.568-.328.591.35v.921c0 .247-.146.563-.39.873-.244.31-.581.61-.953.824l-3.46 2c-.372.219-.704.306-.939.279a.425.425 0 0 1-.268-.121.397.397 0 0 1-.097-.282l.01-.948v-.022l-.02-.011-.585-.338z" fill="#ACC0F0" stroke="#000" stroke-width=".075"/>
    <path opacity=".2" d="m33.041 46.485.565-.325.602.35v.67c0 .137.05.244.14.296.09.051.206.04.326-.03l4.088-2.358.002-.001a.94.94 0 0 0 .426-.738V43.64l-.019-.011-.587-.34.568-.328.591.35v.921c0 .247-.146.563-.39.873-.244.31-.581.61-.953.824l-3.46 2c-.372.219-.704.306-.939.279a.425.425 0 0 1-.268-.121.397.397 0 0 1-.097-.282l.01-.948v-.022l-.02-.011-.585-.338z" fill="#000" stroke="#000" stroke-width=".075"/>
    <path d="m39.707 43.28-.56.33-.566-.328.566-.33.56.328z" fill="#ACC0F0" stroke="#000" stroke-width=".075"/>
    <path opacity=".3" d="m39.707 43.28-.56.33-.566-.328.566-.33.56.328z" fill="#000" stroke="#000" stroke-width=".075"/>
    <path d="m34.16 46.486-.562.325-.567-.328.565-.324.565.327z" fill="#ACC0F0" stroke="#000" stroke-width=".075"/>
    <path opacity=".3" d="m34.16 46.486-.562.325-.567-.328.565-.324.565.327z" fill="#000" stroke="#000" stroke-width=".075"/>
    <path d="M47.174 49.862a1.022 1.022 0 0 1-.403-.469.671.671 0 0 1-.045-.219v-.002l.03-.36.51-5.781 2.932.226-1.733 6.611a.883.883 0 0 1-.105.05 1.624 1.624 0 0 1-.31.098c-.252.052-.576.051-.876-.154z" fill="#FFBE9D" stroke="#000" stroke-width=".075"/>
    <path d="M49.59 45.939s.932-2.727 1.299-4.142c.487-1.877-1.228-7.89-2.251-11.457m.952 15.599-.952-15.6m.952 15.6-.005-.037c-.008 0-.015.002-.023.003l-.005.014-.002.006v.001l.035.013zm-.952-15.6-.014-.045-.028.038.013.046.029-.038zm-2.592 3.53v-.014l-.038.002.03.023.008-.011zm.751 11.363v-.007l-.003-.006-.034.015.037-.002z" fill="#37474F" stroke="#000" stroke-width=".075"/>
    <path opacity=".25" d="m46.495 33.864-.015.015.005.02.037-.009-.037.01v.001l.002.004.004.016.016.063.062.24a242.4 242.4 0 0 1 .89 3.58c.243 1.014.485 2.065.666 2.938.09.436.166.827.218 1.146.052.32.081.566.08.712-.006.597-.21 2.532-.414 4.322a395.386 395.386 0 0 1-.364 3.089l-1.6-16.14c.603-.569 1.167-1.178 1.688-1.824a2.86 2.86 0 0 1-.162.387c-.176.352-.497.85-1.076 1.43z" fill="#000" stroke="#000" stroke-width=".075"/>
    <path d="m47.884 52.111-1.23.346.21-.546 1.534-.455-.514.655z" fill="#000" stroke="#000" stroke-width=".075"/>
    <path d="m46.668 52.226-.094.239a1.749 1.749 0 0 1-.501-.486 1.093 1.093 0 0 1-.114-.223l-.003-.011v-.033l.006-.107c.004-.09.012-.212.026-.348.024-.25.067-.536.137-.724l.9.736-.134.356-.018.046.05.004.664.065 1.44 1.436.005.004 1.82 1.27a.518.518 0 0 1-.216.493c-.036.019-.116.044-.23.07-.114.025-.26.05-.424.066a3.615 3.615 0 0 1-1.086-.042c-.63-.131-1.391-.296-1.795-.948-.186-.299-.266-.663-.305-1.003a6.97 6.97 0 0 1-.035-.479l-.003-.072c-.005-.115-.01-.218-.018-.299l-.072-.01z" fill="#263238" stroke="#000" stroke-width=".075"/>
    <path d="m48.637 49.495-.005.006c-.11.147-.323.216-.54.24-.22.025-.453.006-.617-.036-.347-.086-.55-.25-.667-.392a.878.878 0 0 1-.14-.237l-.004-.013.002.003c0 .001.002.005.006.008a.037.037 0 0 0 .04.008c-.005-.012-.009-.021-.01-.027l-.003-.006-.039-.001v-.004m1.977.451-2.529.968a1.887 1.887 0 0 1 .21-.973c.05-.097.095-.202.138-.3.084-.192.157-.357.223-.38l-.003.046m1.961.64.002-.008.066-.257a.128.128 0 0 1 .065.054.436.436 0 0 1 .055.153c.011.06.017.124.021.182l.003.054c.002.035.004.067.007.09.02.142.037.286.054.43.027.216.053.432.086.647.057.4.15.794.278 1.176v.002c.122.328.291.636.504.913.208.289.482.523.8.681a.528.528 0 0 1 .282.337.748.748 0 0 1-.11.637c-.2.194-.46.226-.782.267l-.012.001a4.049 4.049 0 0 1-.934-.04h-.002a3.158 3.158 0 0 1-1.454-.538c-.202-.144-.327-.36-.41-.603a4.112 4.112 0 0 1-.157-.75c-.017-.123-.025-.252-.034-.383a9.326 9.326 0 0 0-.016-.233 1.936 1.936 0 0 0-.135-.612c-.063-.144-.173-.305-.283-.47l-.1-.148c-.143-.217-.265-.43-.285-.618m2.491-.965-2.491.965m.515-1.416v-.003c0-.002 0-.005.003-.009a.038.038 0 0 1 .037-.022l.016-.198m-.056.232.015-.188m-.015.188.037.004-.552 1.412m.57-1.648a.044.044 0 0 0-.036-.003l.037.003zm0 0-.017.033c-.002-.001-.004-.002-.009 0a.06.06 0 0 0-.014.01m0 0a.786.786 0 0 0-.103.168c-.026.055-.053.116-.082.182l-.022.049c-.037.083-.076.17-.118.253a1.85 1.85 0 0 0-.205.953" fill="#37474F" stroke="#000" stroke-width=".075"/>
    <path d="M50.564 53.542h.001a.687.687 0 0 1 .296.407v.001a.748.748 0 0 1-.11.637c-.2.194-.462.226-.783.267l-.012.001a4.044 4.044 0 0 1-.934-.04h-.002a3.16 3.16 0 0 1-1.454-.538c-.034-.025-.055-.074-.046-.15a.68.68 0 0 1 .122-.286c.15-.22.437-.48.892-.697.392-.182.828-.25 1.257-.199.1.122.224.224.356.317.069.049.139.095.21.141l.023.016c.062.04.124.081.184.123z" fill="#455A64" stroke="#000" stroke-width=".075"/>
    <path d="M47.546 52.881c-.003-.082.024-1.229.055-2.596l.023-1.012c.04-1.708.078-3.44.072-3.754-.42-.103-1.018-.12-1.597-.016-.584.104-1.14.328-1.468.697.054.274.311 1.918.56 3.56.257 1.685.506 3.374.523 3.586m1.832-.465-1.73 1.352-.033.018.034-.018a.824.824 0 0 1-.107-.421c0-.046.002-.091.004-.14l.004-.07c.002-.077.004-.16-.004-.256m1.832-.465v.003m0-.003v.003m-1.832.462-.038.003.038-.003zm1.833-.462c.034.33.1.657.197.975m-.197-.975.338 2.063m0 0a.563.563 0 0 0 .139-.172c.03-.062.021-.14-.01-.23a1.43 1.43 0 0 0-.053-.132l-.018-.037a2.97 2.97 0 0 1-.04-.089 2.513 2.513 0 0 1-.159-.428m.14 1.088a1.357 1.357 0 0 1-.955.325h-.002m.958-.325-.958.325m.817-1.413.037-.01-.036.01zm-.817 1.413a.992.992 0 0 1-.515-.151l.515.15z" fill="#FFBE9D" stroke="#000" stroke-width=".075"/>
    <mask id="5v70so68ee" fill="#fff">
        <path d="M48.624 30.294c-.833 1.73-1.162 2.42-2.618 3.564 0 0 1.782 7.403 1.86 8.839.131 2.39-.075 4.139-.185 5.763-.275.36-2.027.563-2.728.03a53.265 53.265 0 0 1-.522-3.125c-.227-1.752.015-2.28.053-2.74-.944-2.407-3.063-5.921-3.839-8.437a6.47 6.47 0 0 1-.239-1.329c-.172-1.596.48-2.816.864-3.669l7.354 1.101"/>
    </mask>
    <path d="M48.624 30.294c-.833 1.73-1.162 2.42-2.618 3.564 0 0 1.782 7.403 1.86 8.839.131 2.39-.075 4.139-.185 5.763-.275.36-2.027.563-2.728.03a53.265 53.265 0 0 1-.522-3.125c-.227-1.752.015-2.28.053-2.74-.944-2.407-3.063-5.921-3.839-8.437a6.47 6.47 0 0 1-.239-1.329c-.172-1.596.48-2.816.864-3.669l7.354 1.101" fill="#37474F"/>
    <path d="m46.006 33.858-.046-.06-.038.03.011.047.073-.017zm1.86 8.839.076-.005-.075.005zm-.185 5.763.06.046.014-.018.001-.023-.075-.005zm-2.728.03-.074.014.005.029.023.017.046-.06zm-.522-3.125.074-.01-.074.01zm.053-2.74.075.007.002-.017-.007-.017-.07.028zm-3.839-8.437-.072.02v.002l.072-.022zm-.239-1.329.076-.006v-.002l-.075.008zm.864-3.669.011-.074-.056-.009-.024.052.069.031zm7.287 1.072c-.418.866-.706 1.465-1.07 1.99-.363.525-.803.978-1.527 1.546l.093.119c.732-.575 1.184-1.039 1.558-1.578.372-.538.665-1.149 1.081-2.012l-.135-.066zm-2.55 3.596-.074.017v.002l.001.003.004.016a15.884 15.884 0 0 1 .072.3 304.325 304.325 0 0 1 .823 3.56c.228 1.014.458 2.073.636 2.968.178.898.303 1.624.322 1.977l.15-.008c-.02-.366-.147-1.103-.324-1.998-.179-.897-.409-1.957-.637-2.973a281.598 281.598 0 0 0-.895-3.86l-.004-.017-.001-.004v-.001l-.074.017zM47.79 42.7c.13 2.384-.075 4.126-.185 5.754l.15.01c.11-1.621.317-3.376.186-5.773l-.15.009zm-.17 5.713a.425.425 0 0 1-.142.105c-.07.037-.159.07-.263.1a3.43 3.43 0 0 1-.743.116 3.544 3.544 0 0 1-.823-.048c-.261-.05-.49-.134-.652-.257l-.09.12c.187.143.441.233.714.285.274.051.574.065.858.05.285-.015.558-.058.778-.121a1.61 1.61 0 0 0 .29-.11.567.567 0 0 0 .193-.148l-.12-.092zm-2.595.061a53.214 53.214 0 0 1-.52-3.12l-.15.02c.116.91.35 2.262.523 3.13l.148-.03zm-.52-3.12c-.113-.87-.11-1.435-.073-1.837a6.01 6.01 0 0 1 .07-.504c.023-.14.046-.263.056-.382l-.15-.012c-.01.11-.03.225-.055.368a6.154 6.154 0 0 0-.07.516c-.038.415-.042.99.072 1.87l.15-.019zm.048-2.757c-.473-1.207-1.241-2.692-1.985-4.184-.745-1.495-1.466-2.997-1.852-4.248l-.143.044c.39 1.265 1.116 2.778 1.86 4.271.746 1.496 1.51 2.973 1.98 4.172l.14-.055zm-3.836-8.431a6.389 6.389 0 0 1-.236-1.314l-.15.011c.033.456.114.906.241 1.345l.145-.042zm-.237-1.316c-.17-1.572.472-2.773.858-3.63l-.138-.062c-.381.848-1.045 2.088-.87 3.708l.15-.016zm.778-3.586 7.354 1.1.023-.148-7.355-1.101-.022.149z" fill="#000" mask="url(#5v70so68ee)"/>
    <path d="m46.07 56.283.36.02-.36.156v-.176z" fill="#000" stroke="#000" stroke-width=".075"/>
    <path d="m46.408 56.964.033-.017a58.606 58.606 0 0 1-.258-.494l-.085-.164-.024-.046-.006-.012-.002-.003v-.001l-.034.017.034-.017-.071.017v.218a.929.929 0 0 1-.08-.054 3.206 3.206 0 0 1-.234-.192 3.131 3.131 0 0 1-.228-.224 1.094 1.094 0 0 1-.078-.095.24.24 0 0 1-.034-.061 3.267 3.267 0 0 1-.044-.812l.007.003.158.072.57.26 1.748.8a306.43 306.43 0 0 1 2.77 1.276c.142.07.184.22.187.364a.984.984 0 0 1-.026.244l-.003.013a1.36 1.36 0 0 1-.724.416h-.002a3.21 3.21 0 0 1-2.227-.22l-.001-.001c-.51-.226-.784-.454-.957-.672-.125-.157-.197-.309-.268-.456a4.315 4.315 0 0 0-.088-.177l-.033.018zm0 0c.03.056.057.113.085.172.17.356.364.759 1.246 1.149.7.342 1.5.422 2.253.223l-3.922-2.19c.064.123.2.387.338.646z" fill="#263238" stroke="#000" stroke-width=".075"/>
    <path d="m45.267 54.97.036-.01a1.198 1.198 0 0 1-.026-.455c.007-.078.019-.156.031-.236l.005-.028.03-.21c.024-.24.03-.48.019-.72 0-.085-.015-.197-.029-.303l-.01-.075a1.906 1.906 0 0 1-.015-.17c0-.025 0-.045.002-.061a.092.092 0 0 1 .008-.031.248.248 0 0 1 .21-.124l.028.192v.009l.006.007c.075.114.197.16.3.19l.052.015.087.026c.04.014.062.029.074.045.02.028.033.062.043.101.007.028.012.056.018.085l.008.039c.016.082.04.175.126.226l.019.01.019-.01a.24.24 0 0 0 .1-.114c.02-.045.033-.096.044-.142.013-.049.024-.093.04-.131a.182.182 0 0 1 .067-.084.39.39 0 0 1 .24-.019l.007.001a.98.98 0 0 0 .72-.243v-.001a.5.5 0 0 1 .092-.072c.03-.016.055-.019.076-.01a.081.081 0 0 1 .046.051c.008.023.01.049.013.08V52.808c.015.107.024.225.024.343v.001c.005.125.029.248.07.367.055.142.116.283.177.422l.04.092m-2.797.937.036-.01c.027.09.081.184.155.283.073.098.162.198.256.298l.127.13c.147.153.292.303.38.437.115.172.197.357.284.554l.002.006c.087.196.18.404.313.629.132.22.444.47.815.67.37.2.789.345 1.127.364.673.036 1.16-.048 1.484-.178.325-.132.475-.305.497-.442.03-.27-.015-.472-.113-.647-.098-.176-.252-.327-.446-.489a12.623 12.623 0 0 0-.242-.195c-.355-.281-.789-.625-1.214-1.183-.267-.36-.49-.75-.663-1.164m-2.798.937c.069.235.316.49.548.73.148.152.289.298.375.429.113.171.195.355.283.555.087.195.18.405.315.632.274.46 1.28 1.014 1.972 1.052 1.354.074 1.972-.338 2.02-.652.073-.661-.289-.948-.816-1.366-.355-.282-.784-.622-1.206-1.175a5.592 5.592 0 0 1-.659-1.156m-2.832.951c-.068-.238-.03-.487.008-.735.011-.07.022-.14.03-.209.024-.237.03-.475.019-.713 0-.084-.014-.192-.028-.298-.02-.158-.04-.31-.011-.363l2.598.854m.182.527.035-.014m-.035.014.035-.014m0 0a10.013 10.013 0 0 1-.217-.513m0 0a1.22 1.22 0 0 1-.068-.355l.068.355z" fill="#37474F" stroke="#000" stroke-width=".075"/>
    <path d="M48.19 56.665c.384-.26.899-.394 1.686-.331l.054.043c.256.2.468.366.613.558.155.204.233.437.196.772-.021.135-.172.309-.497.441-.323.132-.81.22-1.483.186a3.18 3.18 0 0 1-1.462-.57c.261-.458.516-.842.894-1.1z" fill="#455A64" stroke="#000" stroke-width=".075"/>
    <path d="M52.061 25.069h.001l-1.854 1.69-3.905-4.206.133-3.033c.487-.052.845.027 1.206.28.372.26.75.706 1.27 1.39.522.684 1.315 1.66 1.978 2.467a228.215 228.215 0 0 0 1.102 1.329l.07.083z" fill="#E2E9FA" stroke="#000" stroke-width=".075"/>
    <path d="M52.061 25.069h.001l-1.854 1.69-3.905-4.206.133-3.033c.487-.052.845.027 1.206.28.372.26.75.706 1.27 1.39.522.684 1.315 1.66 1.978 2.467a228.215 228.215 0 0 0 1.102 1.329l.07.083z" fill="#ACC0F0" stroke="#000" stroke-width=".075"/>
    <path d="M45.163 16.138h-.029l-.008.027-.679 2.296c-.928-.01-1.681-.465-2.204-1.155-.529-.697-.822-1.632-.822-2.582 0-1.905 1.21-3.486 3.108-3.486h.629c1.902 0 3.437 1.263 3.437 3.156-.004.61-.38 1.045-1 1.33-.62.284-1.479.414-2.432.414z" fill="#263238" stroke="#000" stroke-width=".075"/>
    <path d="M40.043 19.535h-.579v-4.664a1.505 1.505 0 0 1 1.505-1.504h.666l-.088 4.664a1.504 1.504 0 0 1-1.504 1.504zM48.95 12.607l-.02.035.036.019a.598.598 0 0 1 .324.483.955.955 0 0 1-.165.595l-.001.002a.827.827 0 0 1-.234.25 1.09 1.09 0 0 1-.535.15h-.002a3.886 3.886 0 0 1-3.544-1.713v-.001a.754.754 0 0 1-.087-.149.907.907 0 0 1 .097-.8l.025-.039-.043-.017-.452-.18a4.61 4.61 0 0 0 1.36-.442h.002l.04-.025c.265-.154.53-.31.82-.33a.928.928 0 0 1 .994.827l.007.069.054-.043c.324-.258.8-.357 1.14-.141a.888.888 0 0 1 .382.673c.014.273-.055.544-.197.777z" fill="#263238" stroke="#000" stroke-width=".075"/>
    <path d="m42.136 26.853.035-.013v-.001l-.002-.005-.008-.02-.028-.076a79.531 79.531 0 0 1-.426-1.195c-.25-.714-.53-1.556-.662-2.073-.144-.566-.125-1.125-.064-1.588a8.01 8.01 0 0 1 .127-.704c.026-.125.048-.227.056-.297l.014-.128c.015-.132.027-.249.045-.354.024-.137.055-.251.108-.348.104-.19.295-.323.704-.424l1.637-.157 2.63.038h.001c.038 0 .09.016.158.053.067.036.145.09.23.16.173.14.377.344.595.593.434.498.918 1.179 1.305 1.902.207.39.34.824.306 1.285-.034.46-.234.951-.697 1.456l-.008.008-.001.01c-.061.335-.108.888-.14 1.355a39.578 39.578 0 0 0-.044.785l-.002.05v.017l.037.002-.038-.002v.005c.044.485.16.98.279 1.487l.007.031c.12.513.242 1.037.295 1.578-.608.57-1.81 1.043-3.228 1.137-1.42.094-3.052-.192-4.515-1.138.215-.58.544-1.424.82-2.128.14-.358.268-.68.36-.912l.109-.274.03-.075.007-.02.002-.004v-.001l-.034-.015zm0 0 .035.014.005-.013-.005-.014-.035.013z" fill="#fff" stroke="#000" stroke-width=".075"/>
    <path d="m42.129 26.858.035.014v.002l-.003.005-.008.019-.03.074-.108.275-.36.912c-.276.704-.605 1.548-.82 2.127a7.414 7.414 0 0 0 4.303 1.144c-.25-.05-.481-.103-.683-.157-.276-.074-.5-.152-.639-.232-.616-.355-.917-.954-1.108-1.595-.099-.33-.029-.666.071-.995.025-.083.052-.166.079-.247.08-.248.16-.491.185-.733a1.825 1.825 0 0 0-.08-.717 6.86 6.86 0 0 0-.114-.344l-.003-.008c-.04-.113-.08-.229-.116-.35a31.423 31.423 0 0 1-.417-1.542 8.803 8.803 0 0 1-.226-1.01 2.57 2.57 0 0 1-.02-.508.579.579 0 0 1 .022-.106l.023-.08.011-.038c.012-.04.022-.077.029-.11a.219.219 0 0 0 .004-.078l-.328-1.686-.725.276-.007.031c-.106.502-.293 1.379-.058 2.273.132.517.413 1.36.662 2.073a87.376 87.376 0 0 0 .427 1.196l.027.076.008.02.002.004v.002l-.035.013zm0 0 .035.014.005-.014-.005-.013-.035.013zm-.005-3.364a2.527 2.527 0 0 1-.019-.5l.244 1.507a8.788 8.788 0 0 1-.225-1.007z" fill="#ACC0F0" stroke="#000" stroke-width=".075"/>
    <mask id="ttj7xhpxyf" fill="#fff">
        <path d="M40.12 28.34c.454-1.677 1.55-4.514 1.55-4.514.67-1.596.6-3.338.359-4.245-1.415.081-1.967.314-2.673 2.201-.535 1.436-1.552 4.865-2.005 6.41a1.165 1.165 0 0 0 .44 1.275"/>
    </mask>
    <path d="M40.12 28.34c.454-1.677 1.55-4.514 1.55-4.514.67-1.596.6-3.338.359-4.245-1.415.081-1.967.314-2.673 2.201-.535 1.436-1.552 4.865-2.005 6.41a1.165 1.165 0 0 0 .44 1.275" fill="#FFBE9D"/>
    <path d="m41.67 23.826-.07-.029v.002l.07.027zm.359-4.245.073-.02-.016-.06-.061.004.004.076zm-2.673 2.201-.07-.026.07.026zm-2.005 6.41-.073-.022.073.022zm2.842.167c.226-.835.613-1.96.943-2.88a90.439 90.439 0 0 1 .557-1.5l.035-.093a2.46 2.46 0 0 1 .01-.024l.002-.006v-.002l-.07-.028-.07-.027v.002l-.003.006-.01.025-.035.093-.13.344c-.11.293-.262.7-.427 1.16-.331.919-.72 2.05-.948 2.89l.146.04zm1.547-4.504c.677-1.613.606-3.373.362-4.294l-.146.039c.237.893.308 2.618-.355 4.197l.139.058zm.285-4.35c-.708.041-1.221.12-1.644.44-.422.317-.742.865-1.096 1.81l.141.053c.352-.941.66-1.453 1.046-1.744.383-.289.854-.367 1.561-.408l-.008-.15zm-2.74 2.25c-.536 1.44-1.554 4.872-2.007 6.415l.145.043c.453-1.546 1.47-4.972 2.003-6.405l-.14-.052zm-2.007 6.415a1.24 1.24 0 0 0 .018.754l.143-.05a1.09 1.09 0 0 1-.016-.661l-.145-.043zm.018.754c.084.243.242.454.451.604l.088-.122a1.09 1.09 0 0 1-.396-.531l-.143.049z" fill="#000" mask="url(#ttj7xhpxyf)"/>
    <mask id="tr7217mx0g" fill="#fff">
        <path d="M45.327 30.958a.157.157 0 0 1 .044-.093c.217-.255 1.005-.404 1.054-.535.049-.13-.305-.402-.969-.298-.663.103-.786.314-1.634.267-.548-.035-2.778-1.352-3.591-2.214l-2.436 1.393c1.379.988 3.367 2.005 4.254 2.458.886.453 1.641.82 2.7 1.011"/>
    </mask>
    <path d="M45.327 30.958a.157.157 0 0 1 .044-.093c.217-.255 1.005-.404 1.054-.535.049-.13-.305-.402-.969-.298-.663.103-.786.314-1.634.267-.548-.035-2.778-1.352-3.591-2.214l-2.436 1.393c1.379.988 3.367 2.005 4.254 2.458.886.453 1.641.82 2.7 1.011" fill="#FFBE9D"/>
    <path d="m45.371 30.865.054.053.004-.004-.058-.049zm-1.549-.566-.004.075.004-.075zm-3.591-2.214.054-.052-.04-.043-.052.03.038.065zm-2.436 1.393-.038-.065-.101.058.095.068.044-.06zm7.607 1.488a.082.082 0 0 1 .023-.048l-.107-.106a.233.233 0 0 0-.066.137l.15.017zm.027-.052a.725.725 0 0 1 .225-.154c.101-.05.218-.096.333-.138.113-.042.227-.082.313-.12a.836.836 0 0 0 .115-.058.191.191 0 0 0 .08-.087l-.14-.053c.003-.008.004-.003-.021.013a.683.683 0 0 1-.094.047c-.081.035-.188.073-.305.116-.115.043-.239.091-.348.145a.867.867 0 0 0-.273.191l.115.098zm1.066-.557c.027-.071-.007-.142-.05-.192a.575.575 0 0 0-.208-.141c-.18-.078-.45-.12-.792-.067l.023.149c.32-.05.56-.009.71.056.075.033.125.07.153.101.03.035.021.047.023.041l.141.053zm-1.05-.4c-.338.053-.545.135-.757.192-.211.058-.446.098-.861.075l-.009.15c.432.024.683-.017.91-.08.227-.061.413-.137.74-.188l-.023-.149zm-1.618.267a1.048 1.048 0 0 1-.258-.066 4.351 4.351 0 0 1-.393-.167 11.7 11.7 0 0 1-1.011-.553c-.727-.441-1.48-.982-1.88-1.405l-.109.104c.414.438 1.181.987 1.91 1.43.366.221.724.417 1.026.56.15.072.288.131.407.173.116.042.22.07.299.074l.01-.15zm-3.634-2.204-2.435 1.393.074.13 2.436-1.393-.075-.13zm-2.442 1.52c1.385.99 3.378 2.01 4.263 2.463l.069-.134c-.888-.454-2.87-1.468-4.244-2.452l-.088.122zm4.263 2.463c.888.453 1.651.826 2.721 1.018l.027-.148c-1.047-.188-1.793-.552-2.68-1.004l-.068.134z" fill="#000" mask="url(#tr7217mx0g)"/>
    <path d="m42.08 22.922-.002.004-1.765 4.635c-.914.106-1.552-.06-1.96-.252a2.158 2.158 0 0 1-.45-.28 1.407 1.407 0 0 1-.128-.118l.003-.01.019-.083a57.503 57.503 0 0 1 .329-1.336c.21-.818.485-1.822.745-2.57l.192-.56c.37-1.086.53-1.55 1.036-2.1.291-.316.592-.479.949-.562.352-.082.758-.087 1.265-.08.133.803.076 1.626-.015 2.253a9.511 9.511 0 0 1-.215 1.045l-.004.014z" fill="#E2E9FA" stroke="#000" stroke-width=".075"/>
    <path d="m42.08 22.922-.002.004-1.765 4.635c-.914.106-1.552-.06-1.96-.252a2.158 2.158 0 0 1-.45-.28 1.407 1.407 0 0 1-.128-.118l.003-.01.019-.083a57.503 57.503 0 0 1 .329-1.336c.21-.818.485-1.822.745-2.57l.192-.56c.37-1.086.53-1.55 1.036-2.1.291-.316.592-.479.949-.562.352-.082.758-.087 1.265-.08.133.803.076 1.626-.015 2.253a9.511 9.511 0 0 1-.215 1.045l-.004.014z" fill="#ACC0F0" stroke="#000" stroke-width=".075"/>
    <path d="m45.881 19.494.034-.015-.034.015v.001l.002.003.005.011c.004.01.01.026.02.045.016.038.04.094.066.162.055.137.125.325.186.527.062.203.115.42.136.616.02.18.01.337-.037.449-.728-.305-1.364-.775-1.821-1.173a8.585 8.585 0 0 1-.727-.715l-.004-.004V17.125l-.066.079-.003.004a.637.637 0 0 1-.24.153c-.156.055-.386.065-.678-.128-.289-.192-.442-.527-.48-.862-.036-.336.045-.659.211-.825.166-.167.428-.226.668-.183.24.043.447.187.515.415l.008.028h.029l-.001-.039v.038h.008a.568.568 0 0 0 .096-.014c.066-.012.164-.036.291-.08.256-.091.631-.268 1.116-.613a3.843 3.843 0 0 0 1.515-2.092c.411.052.79.299 1.064.784.282.5.452 1.252.428 2.302-.022.89-.178 1.441-.362 1.785-.183.342-.394.48-.528.54-.135.062-.343.098-.587.107-.243.01-.519-.01-.79-.054l-.043-.008v1.025l.003.007z" fill="#FFBE9D" stroke="#000" stroke-width=".075"/>
    <path d="M45.917 18.505c-.574-.075-1.757-.513-1.942-.98.073.237.218.446.415.598.354.302 1.527.643 1.527.643v-.261z" fill="#EB996E"/>
    <path d="m46.288 23.827 3.66.854.018.004.015-.013 2.361-2.062 3.04.76.02.006.015-.015 2.155-2.05-3.94 10.02-1.313 1.142-2.418-.105h-.014l-.011.009-2.287 1.861-2.562-.566 1.261-9.845z" fill="#E2E9FA" stroke="#000" stroke-width=".075"/>
    <path opacity=".6" d="m46.288 23.827 3.66.854.018.004.015-.013 2.361-2.062 3.04.76.02.006.015-.015 2.155-2.05-3.94 10.02-1.313 1.142-2.418-.105h-.014l-.011.009-2.287 1.861-2.562-.566 1.261-9.845z" fill="#fff" stroke="#000" stroke-width=".075"/>
    <path opacity=".1" d="m49.99 24.665 2.277-1.99-2.401 9.71-2.204 1.794 2.328-9.514zM52.411 32.392l3.012-9.037 2.149-2.043-3.94 10.018-1.22 1.062z" fill="#000" stroke="#000" stroke-width=".075"/>
    <path d="M47.73 33.813h-.017l-2.185-.456a.08.08 0 0 1-.063-.088l1.199-8.815a.076.076 0 0 1 .034-.054.074.074 0 0 1 .063-.01l3.035.737 2.315-1.934a.077.077 0 0 1 .068-.016l2.997.65 1.638-1.372a.08.08 0 0 1 .123.093l-3.397 8.705a.078.078 0 0 1-.02.03l-.996.865a.076.076 0 0 1-.056.019l-2.43-.142-2.26 1.776a.08.08 0 0 1-.048.012zm-2.098-.597 2.077.434 2.255-1.77a.094.094 0 0 1 .054-.018l2.428.141.956-.83 3.277-8.402-1.431 1.2a.074.074 0 0 1-.068.016l-2.998-.65-2.323 1.934a.082.082 0 0 1-.068.018l-2.987-.728-1.172 8.655z" fill="#fff"/>
    <path d="m44.786 32.949.011-.037-.037-.006.026.043zm0 0-.037-.007M55.14 27.704l-.009.006a1.355 1.355 0 0 1-.458.223c-.036.012-.071.023-.105.036a.717.717 0 0 0-.223.12.608.608 0 0 0-.17.246c-.095.235-.13.535-.092.764.02.116.056.209.109.268l.947-1.663zm0 0 .003-.01m-.004.01.004-.01m0 0 .175-.447m-.175.447.175-.447m0 0 .033.064c.04.082.088.202.119.353.06.3.054.724-.224 1.21-.072.13-.157.247-.286.343-.13.095-.306.172-.563.22l.921-2.19z" fill="#FFBE9D" stroke="#000" stroke-width=".075"/>
    <path d="M44.542 32.748h-.377l.941-1.694.377.188-.565 1.695-.376-.189z" fill="#FFBE9D"/>
    <path d="m32.004 15.41-1.043-2.832a7.036 7.036 0 1 0-1.967 1.575l3.01 1.257z" fill="#fff"/>
    <path d="m32.004 15.41-3.023-1.234-.03-.014.025-.021.026.034a7.222 7.222 0 0 1-1.566.624c-.65.17-1.32.248-1.992.23a6.303 6.303 0 0 1-1.107-.125c-.186-.043-.38-.08-.569-.126l-.572-.186a7.094 7.094 0 0 1-3.861-3.498 6.96 6.96 0 0 1-.754-2.877c-.026-1.053.181-2.1.605-3.064a6.933 6.933 0 0 1 1.956-2.608l.335-.264c.11-.09.236-.16.353-.237.116-.078.233-.16.359-.222l.374-.195a2.74 2.74 0 0 1 .383-.17l.386-.157.4-.11c.13-.045.262-.081.397-.11a7.194 7.194 0 0 1 3.185.036 6.92 6.92 0 0 1 2.714 1.313 7.15 7.15 0 0 1 2.624 4.59 7.6 7.6 0 0 1-.071 2.304 6.944 6.944 0 0 1-.66 1.89 7.042 7.042 0 0 1-.943 1.377l-.005-.018c.655 1.814.985 2.699 1.024 2.84l-1.063-2.825-.003-.01a6.983 6.983 0 0 0 1.574-3.254 7.58 7.58 0 0 0 .063-2.283 7.09 7.09 0 0 0-2.605-4.54 6.89 6.89 0 0 0-2.684-1.295 7.115 7.115 0 0 0-3.148-.031 3.394 3.394 0 0 0-.393.108l-.395.109-.382.156c-.13.046-.256.103-.377.168l-.37.192c-.125.06-.234.146-.355.218-.12.072-.24.146-.348.236l-.329.26a6.859 6.859 0 0 0-1.933 2.575 7.085 7.085 0 0 0-.585 3.032c.034.987.278 1.955.716 2.839a7.034 7.034 0 0 0 3.836 3.46l.566.184c.19.05.38.084.564.128a6.43 6.43 0 0 0 1.097.127 6.984 6.984 0 0 0 3.536-.83l.024.034-.01-.036 3.01 1.277z" fill="#263238"/>
    <path d="m22.738 10.791.39-.639c.24-.385.355-.835.328-1.288l-.08-1.382a2.255 2.255 0 0 1 1.785-2.337l-.039-.66a.305.305 0 0 1 .577-.15.303.303 0 0 1 .03.116l.037.637a2.26 2.26 0 0 1 2.12 2.124l.082 1.43c.03.493.223.96.549 1.33l.4.453-6.179.366zM26.213 11.597a.974.974 0 0 1-1.023-.116.95.95 0 0 1-.277-.376l1.8-.117a.976.976 0 0 1-.5.609z" fill="#37474F"/>
</svg>
