<svg xmlns="http://www.w3.org/2000/svg" width="63.171" height="53.245" viewBox="0 0 63.171 53.245">
    <defs>
        <filter id="prefix__Path_2345" width="19.495" height="19.445" x="40.635" y="2.937" filterUnits="userSpaceOnUse">
            <feOffset dx="-3" dy="-3"/>
            <feGaussianBlur result="blur" stdDeviation="3"/>
            <feFlood flood-color="#fff"/>
            <feComposite in2="blur" operator="in"/>
            <feComposite in="SourceGraphic"/>
        </filter>
        <filter id="prefix__Path_2346" width="19.41" height="19.422" x="3.039" y="30.894" filterUnits="userSpaceOnUse">
            <feOffset dx="-3" dy="-3"/>
            <feGaussianBlur result="blur-2" stdDeviation="3"/>
            <feFlood flood-color="#fff"/>
            <feComposite in2="blur-2" operator="in"/>
            <feComposite in="SourceGraphic"/>
        </filter>
        <filter id="prefix__Path_2347" width="21.126" height="19.531" x="2.934" y="3.039" filterUnits="userSpaceOnUse">
            <feOffset dx="-3" dy="-3"/>
            <feGaussianBlur result="blur-3" stdDeviation="3"/>
            <feFlood flood-color="#fff"/>
            <feComposite in2="blur-3" operator="in"/>
            <feComposite in="SourceGraphic"/>
        </filter>
        <filter id="prefix__Path_2349" width="19.372" height="19.364" x="40.757" y="30.846" filterUnits="userSpaceOnUse">
            <feOffset dx="-3" dy="-3"/>
            <feGaussianBlur result="blur-4" stdDeviation="3"/>
            <feFlood flood-color="#fff"/>
            <feComposite in2="blur-4" operator="in"/>
            <feComposite in="SourceGraphic"/>
        </filter>
        <filter id="prefix__Path_2350" width="63.171" height="53.245" x="0" y="0" filterUnits="userSpaceOnUse">
            <feOffset dx="-3" dy="-3"/>
            <feGaussianBlur result="blur-5" stdDeviation="3"/>
            <feFlood flood-color="#fff"/>
            <feComposite in2="blur-5" operator="in"/>
            <feComposite in="SourceGraphic"/>
        </filter>
        <style>
            .prefix__cls-1{fill:#264a9f;stroke:transparent}
        </style>
    </defs>
    <g id="prefix__Group_10767" data-name="Group 10767">
        <g transform="translate(814.616 -5157.619) translate(-814.62 5157.62)">
            <path id="prefix__Path_2345-2" d="M-776.716 5172.362a1.584 1.584 0 0 1 .142.261v-.7h-.839a1.5 1.5 0 0 1 .697.439z" class="prefix__cls-1" data-name="Path 2345" transform="translate(830.2 -5156.48)"/>
        </g>
        <g transform="translate(814.616 -5157.619) translate(-814.62 5157.62)">
            <path id="prefix__Path_2346-2" d="M-800.253 5188.9v.678h.719a1.48 1.48 0 0 1-.489-.324 1.574 1.574 0 0 1-.23-.354z" class="prefix__cls-1" data-name="Path 2346" transform="translate(815.79 -5145.77)"/>
        </g>
        <g transform="translate(814.616 -5157.619) translate(-814.62 5157.62)">
            <path id="prefix__Path_2347-2" d="M-799.605 5171.984h-.711v.875a1.522 1.522 0 0 1 .246-.482 1.519 1.519 0 0 1 .465-.393z" class="prefix__cls-1" data-name="Path 2347" transform="translate(815.75 -5156.44)"/>
        </g>
        <g transform="translate(814.616 -5157.619) translate(-814.62 5157.62)">
            <path id="prefix__Path_2349-2" d="M-776.65 5188.871a1.548 1.548 0 0 1-.253.374 1.617 1.617 0 0 1-.39.256h.642z" class="prefix__cls-1" data-name="Path 2349" transform="translate(830.28 -5145.79)"/>
        </g>
        <g transform="translate(814.616 -5157.619) translate(-814.62 5157.62)">
            <path id="prefix__Path_2350-2" d="M-758.8 5170.986a2.932 2.932 0 0 0-2.076-.867h-38.304a2.941 2.941 0 0 0-2.936 2.938v28.373a2.938 2.938 0 0 0 2.936 2.935h38.3a2.939 2.939 0 0 0 2.936-2.935v-28.363a2.919 2.919 0 0 0-.856-2.081zm-4.482 2.329l-16.355 13.742a.6.6 0 0 1-.775 0l-16.38-13.761a1.91 1.91 0 0 0-.268-.137l34.235-.1a1.592 1.592 0 0 0-.455.256zm-33.359 27.734l9.913-10.626a1.5 1.5 0 0 0 .434-1.083 1.507 1.507 0 0 0-.463-1.074 1.5 1.5 0 0 0-.731-.393 1.529 1.529 0 0 0-1.456.46l-9.908 10.617a1.445 1.445 0 0 0-.232.348l-.091-24.415a1.546 1.546 0 0 0 .444.766l16.358 13.744a3.662 3.662 0 0 0 2.35.856 3.657 3.657 0 0 0 2.348-.856l16.359-13.744a1.47 1.47 0 0 0 .328-.414v24.065a1.515 1.515 0 0 0-.2-.335l-9.921-10.631a1.524 1.524 0 0 0-1.036-.507 1.569 1.569 0 0 0-1.107.375 1.541 1.541 0 0 0-.094 2.2l9.947 10.66a1.55 1.55 0 0 0 .4.264l-34.2.1a1.674 1.674 0 0 0 .56-.377z" class="prefix__cls-1" data-name="Path 2350" transform="translate(814.62 -5157.62)"/>
        </g>
    </g>
</svg>
