<svg width="48" height="34" viewBox="0 0 48 34" fill="none" xmlns="http://www.w3.org/2000/svg">
<mask id="path-1-inside-1_5335_578" fill="white">
<path d="M41.781 18.6479C41.6604 18.5 41.5998 18.6562 41.5097 18.6985L38.8582 20.701C39.4927 22.5766 38.18 24.802 36.4065 24.9279C36.6415 26.526 35.6223 28.4119 34.1257 28.6265C33.7745 28.6771 33.4094 28.5667 33.0638 28.6822C32.7144 29.8759 31.8597 31.0871 30.6798 31.2883C30.3287 31.3481 29.7712 31.2316 29.512 31.3306C29.3736 31.3832 29.1729 31.863 29.0336 32.0352C28.1352 33.1515 26.8615 33.8015 25.5032 33.3785C24.9021 33.1907 22.4931 31.5586 22.1828 31.6143C21.5148 32.7182 20.6396 34.0264 19.2953 33.9996C18.1879 33.9779 16.7971 32.7203 16.4692 31.5627C14.8489 31.9517 13.276 30.7972 12.8366 29.0619C11.1058 29.1702 9.39914 27.6227 9.47068 25.6428C7.7473 25.2529 6.18929 23.6527 6.79317 21.5511C6.89908 21.1818 7.24528 21 7.18244 20.5731L5.94031 19.1638C5.7192 19.5135 5.49716 19.9045 5.05865 19.7353C3.5 19 0.559285 16.8992 0.559285 16.8992C0.294507 16.6856 0 16.5 5.69945e-10 16.1244L8.32609 0.0753151L8.5 0H8.72187C10.475 0.932655 12.2104 2.09847 13.8223 3.3035C14.176 3.56792 14 4.5 13.5947 4.48685L17.4456 6.1809C17.9148 5.86211 18.1061 5.37618 18.6088 5.00992C20.8654 3.36643 27.5443 3.63983 30.2134 4.15568C31.5819 4.41979 33.2765 5.47831 34.4508 4.48788C34.1628 4.02053 34.0197 3.55936 34.4638 3.15081C35.9707 2.35433 37.3048 1.14312 38.8155 0.361094C39.1462 0.189832 39.5132 -0.0402361 39.8346 0.269273L48 16.1306V16.5L47.8105 16.8383L42.972 19.919C42.3412 20.0985 41.9436 19.204 41.7828 18.65L41.781 18.6479ZM8.89839 1.68373L1.5227 15.8531L5.01219 18.0939L12.3888 3.92458L8.89839 1.68373ZM39.1741 1.76008L35.6911 3.95862L43.0055 18.2466L46.4884 16.0481L39.1741 1.76008ZM40.872 17.3903L35.1402 5.88068C34.9525 5.81981 34.3263 6.30574 34.0188 6.36248C32.798 6.59152 31.7194 5.97456 30.5665 5.71354C27.9429 5.11928 24.7414 5.07389 22.0908 5.47419C21.2175 5.60624 19.9438 5.73108 19.247 6.33256C18.3598 7.09705 15.6367 11.8408 15.5457 13.0438C15.529 13.2676 15.5392 13.4822 15.6535 13.6752C18.017 14.6274 19.8314 12.2297 20.8682 10.1921L23.3701 9.27187C28.5291 12.0956 33.5078 15.5363 38.0481 19.4547L40.872 17.3903ZM16.7442 7.41894L12.8505 5.76925L6.67147 17.7163C6.61387 17.835 6.66496 17.8845 6.71978 17.9763C6.9957 18.4344 8.02601 19.4166 8.02601 19.4166L8.11706 19.4671C9.50943 17.5 11.7738 18.1558 12.8022 19.9799C14.5879 16.9271 18.7054 19.2154 17.9491 22.5539C19.2925 22.8727 20.4724 24.1376 20.4631 25.7378C22.3779 26.0008 24.0641 28.0962 23.0617 30.2483L23.0886 30.3856L25.9919 32.0074C26.8317 32.2013 27.9391 31.5483 28.2364 30.6517L24.1143 27.7093C23.673 27.1873 24.0334 26.4001 24.6643 26.4713C25.2951 26.5425 27.6716 28.5502 28.4009 29.0258C29.0308 29.4364 29.8084 30.0461 30.5656 29.8202C31.0737 29.6685 31.9656 28.611 31.7231 28.0178L26.2074 24.1479C25.6927 23.3019 26.2817 22.6437 27.1197 23.0326C28.9462 23.8807 30.8155 25.9647 32.7247 26.9015C34.3932 27.7207 35.5332 26.4166 34.8726 24.6194L28.3033 20.1728C27.7208 19.6476 28.2643 18.6098 28.9602 18.9265L35.9001 23.4773C37.1162 23.7012 38.18 22.1041 37.4656 20.9156C36.7548 19.7333 33.4075 17.4604 32.1877 16.5804C29.9273 14.9503 27.4468 13.2026 25.06 11.8274C24.6643 11.5994 23.4017 10.8091 23.0468 10.8597C22.8842 10.8823 21.8771 11.2806 21.7536 11.3838C21.4897 11.6056 20.9397 12.7342 20.6359 13.1294C18.1368 16.3813 12.4092 16.4184 14.8127 10.8854C15.3413 9.66907 16.2629 8.64769 16.7442 7.41894ZM9.85716 19.6961C9.24957 19.8334 7.98421 21.7358 7.96656 22.4178C7.94054 23.4175 9.16409 24.2934 10.0021 24.0788C10.4229 23.9705 11.6623 22.1609 11.731 21.6739C11.8927 20.5298 10.8484 19.4712 9.85809 19.6951L9.85716 19.6961ZM14.8656 20.0067C14.4727 20.083 14.0444 20.6288 13.7796 20.9641C12.779 22.2331 11.9763 23.9436 10.9488 25.2353C10.3217 26.6849 12.19 28.2716 13.2705 27.1966C14.0416 25.6717 16.04 23.7868 16.6048 22.2486C17.0377 21.0683 15.8681 19.8117 14.8656 20.0067ZM14.6427 29.6283C15.2205 30.2174 15.9954 30.4289 16.6085 29.7707C17.073 29.2713 18.292 27.4607 18.6747 26.8128C19.0073 26.2485 19.1773 25.9544 19.0231 25.2281C18.8438 24.3831 17.6147 23.5506 16.9727 24.2005L14.1243 28.3531C14.0007 28.7194 14.4095 29.39 14.6427 29.6283ZM19.8314 27.4287L17.6899 30.6662C17.7364 31.8856 19.1095 32.9906 20.0841 32.189C20.4529 31.8856 21.9691 29.6407 22.0258 29.1919C22.1679 28.0622 20.6759 26.6725 19.8314 27.4287Z"/>
</mask>
<path d="M41.781 18.6479C41.6604 18.5 41.5998 18.6562 41.5097 18.6985L38.8582 20.701C39.4927 22.5766 38.18 24.802 36.4065 24.9279C36.6415 26.526 35.6223 28.4119 34.1257 28.6265C33.7745 28.6771 33.4094 28.5667 33.0638 28.6822C32.7144 29.8759 31.8597 31.0871 30.6798 31.2883C30.3287 31.3481 29.7712 31.2316 29.512 31.3306C29.3736 31.3832 29.1729 31.863 29.0336 32.0352C28.1352 33.1515 26.8615 33.8015 25.5032 33.3785C24.9021 33.1907 22.4931 31.5586 22.1828 31.6143C21.5148 32.7182 20.6396 34.0264 19.2953 33.9996C18.1879 33.9779 16.7971 32.7203 16.4692 31.5627C14.8489 31.9517 13.276 30.7972 12.8366 29.0619C11.1058 29.1702 9.39914 27.6227 9.47068 25.6428C7.7473 25.2529 6.18929 23.6527 6.79317 21.5511C6.89908 21.1818 7.24528 21 7.18244 20.5731L5.94031 19.1638C5.7192 19.5135 5.49716 19.9045 5.05865 19.7353C3.5 19 0.559285 16.8992 0.559285 16.8992C0.294507 16.6856 0 16.5 5.69945e-10 16.1244L8.32609 0.0753151L8.5 0H8.72187C10.475 0.932655 12.2104 2.09847 13.8223 3.3035C14.176 3.56792 14 4.5 13.5947 4.48685L17.4456 6.1809C17.9148 5.86211 18.1061 5.37618 18.6088 5.00992C20.8654 3.36643 27.5443 3.63983 30.2134 4.15568C31.5819 4.41979 33.2765 5.47831 34.4508 4.48788C34.1628 4.02053 34.0197 3.55936 34.4638 3.15081C35.9707 2.35433 37.3048 1.14312 38.8155 0.361094C39.1462 0.189832 39.5132 -0.0402361 39.8346 0.269273L48 16.1306V16.5L47.8105 16.8383L42.972 19.919C42.3412 20.0985 41.9436 19.204 41.7828 18.65L41.781 18.6479ZM8.89839 1.68373L1.5227 15.8531L5.01219 18.0939L12.3888 3.92458L8.89839 1.68373ZM39.1741 1.76008L35.6911 3.95862L43.0055 18.2466L46.4884 16.0481L39.1741 1.76008ZM40.872 17.3903L35.1402 5.88068C34.9525 5.81981 34.3263 6.30574 34.0188 6.36248C32.798 6.59152 31.7194 5.97456 30.5665 5.71354C27.9429 5.11928 24.7414 5.07389 22.0908 5.47419C21.2175 5.60624 19.9438 5.73108 19.247 6.33256C18.3598 7.09705 15.6367 11.8408 15.5457 13.0438C15.529 13.2676 15.5392 13.4822 15.6535 13.6752C18.017 14.6274 19.8314 12.2297 20.8682 10.1921L23.3701 9.27187C28.5291 12.0956 33.5078 15.5363 38.0481 19.4547L40.872 17.3903ZM16.7442 7.41894L12.8505 5.76925L6.67147 17.7163C6.61387 17.835 6.66496 17.8845 6.71978 17.9763C6.9957 18.4344 8.02601 19.4166 8.02601 19.4166L8.11706 19.4671C9.50943 17.5 11.7738 18.1558 12.8022 19.9799C14.5879 16.9271 18.7054 19.2154 17.9491 22.5539C19.2925 22.8727 20.4724 24.1376 20.4631 25.7378C22.3779 26.0008 24.0641 28.0962 23.0617 30.2483L23.0886 30.3856L25.9919 32.0074C26.8317 32.2013 27.9391 31.5483 28.2364 30.6517L24.1143 27.7093C23.673 27.1873 24.0334 26.4001 24.6643 26.4713C25.2951 26.5425 27.6716 28.5502 28.4009 29.0258C29.0308 29.4364 29.8084 30.0461 30.5656 29.8202C31.0737 29.6685 31.9656 28.611 31.7231 28.0178L26.2074 24.1479C25.6927 23.3019 26.2817 22.6437 27.1197 23.0326C28.9462 23.8807 30.8155 25.9647 32.7247 26.9015C34.3932 27.7207 35.5332 26.4166 34.8726 24.6194L28.3033 20.1728C27.7208 19.6476 28.2643 18.6098 28.9602 18.9265L35.9001 23.4773C37.1162 23.7012 38.18 22.1041 37.4656 20.9156C36.7548 19.7333 33.4075 17.4604 32.1877 16.5804C29.9273 14.9503 27.4468 13.2026 25.06 11.8274C24.6643 11.5994 23.4017 10.8091 23.0468 10.8597C22.8842 10.8823 21.8771 11.2806 21.7536 11.3838C21.4897 11.6056 20.9397 12.7342 20.6359 13.1294C18.1368 16.3813 12.4092 16.4184 14.8127 10.8854C15.3413 9.66907 16.2629 8.64769 16.7442 7.41894ZM9.85716 19.6961C9.24957 19.8334 7.98421 21.7358 7.96656 22.4178C7.94054 23.4175 9.16409 24.2934 10.0021 24.0788C10.4229 23.9705 11.6623 22.1609 11.731 21.6739C11.8927 20.5298 10.8484 19.4712 9.85809 19.6951L9.85716 19.6961ZM14.8656 20.0067C14.4727 20.083 14.0444 20.6288 13.7796 20.9641C12.779 22.2331 11.9763 23.9436 10.9488 25.2353C10.3217 26.6849 12.19 28.2716 13.2705 27.1966C14.0416 25.6717 16.04 23.7868 16.6048 22.2486C17.0377 21.0683 15.8681 19.8117 14.8656 20.0067ZM14.6427 29.6283C15.2205 30.2174 15.9954 30.4289 16.6085 29.7707C17.073 29.2713 18.292 27.4607 18.6747 26.8128C19.0073 26.2485 19.1773 25.9544 19.0231 25.2281C18.8438 24.3831 17.6147 23.5506 16.9727 24.2005L14.1243 28.3531C14.0007 28.7194 14.4095 29.39 14.6427 29.6283ZM19.8314 27.4287L17.6899 30.6662C17.7364 31.8856 19.1095 32.9906 20.0841 32.189C20.4529 31.8856 21.9691 29.6407 22.0258 29.1919C22.1679 28.0622 20.6759 26.6725 19.8314 27.4287Z" fill="url(#paint0_linear_5335_578)" stroke="#DFE9FC" stroke-width="0.4" mask="url(#path-1-inside-1_5335_578)"/>
<defs>
<linearGradient id="paint0_linear_5335_578" x1="24" y1="0" x2="23.4479" y2="51.4989" gradientUnits="userSpaceOnUse">
<stop stop-color="#6CA4F9"/>
<stop offset="1" stop-color="#4883DC"/>
</linearGradient>
</defs>
</svg>
