<svg xmlns="http://www.w3.org/2000/svg" width="34.267" height="35.571" viewBox="0 0 34.267 35.571">
    <path fill="#264a9f" d="M436.617 1483.262v-.715a12.844 12.844 0 0 0-12.706-12.953h-.126a12.847 12.847 0 0 0-12.83 12.706v.964a5.641 5.641 0 0 0-4.3 5.488v2.4a5.722 5.722 0 0 0 5.709 5.652h.474a1.646 1.646 0 0 0 1.293-.507 1.839 1.839 0 0 0 .556-1.334v-10.027a1.811 1.811 0 0 0-.508-1.293 1.838 1.838 0 0 0-1.333-.554h-.072v-.549a11.065 11.065 0 0 1 11.06-11.065 11.061 11.061 0 0 1 11.06 11.065v.549h-.063a1.69 1.69 0 0 0-1.293.508 1.837 1.837 0 0 0-.556 1.331v10.026a1.829 1.829 0 0 0 1.84 1.849h.486c.137 0 .276-.01.413-.022a3.883 3.883 0 0 1-3.808 3.032h-2.777a4.477 4.477 0 1 0-4.4 5.354 4.543 4.543 0 0 0 4.394-3.583h2.779a5.688 5.688 0 0 0 5.647-5.291 5.63 5.63 0 0 0 3.357-5.15v-2.391a5.642 5.642 0 0 0-4.296-5.49zm2.579 5.442v2.392a3.877 3.877 0 0 1-3.894 3.893l-.55-.071.071-10.105h.478a3.914 3.914 0 0 1 3.899 3.887zm-30.724 2.386v-2.39a3.889 3.889 0 0 1 3.9-3.893l.55.071-.072 10.107h-.5a3.879 3.879 0 0 1-3.874-3.9zm19.016 9.608a2.691 2.691 0 0 1-2.589 2.7h-.108a2.7 2.7 0 0 1 0-5.4 2.7 2.7 0 0 1 2.7 2.7z" transform="translate(-406.654 -1469.593)"/>
</svg>
