<svg width="62" height="62" viewBox="0 0 62 62" fill="none" xmlns="http://www.w3.org/2000/svg">
    <g opacity=".3" stroke="#000" stroke-width=".11" stroke-linecap="round" stroke-linejoin="round">
        <path d="M13.747 21.347H3.855l.1-1.91h9.892l-.1 1.91zM13.747 24.02H3.855l.1-1.909h9.892l-.1 1.91zM13.747 26.694H3.855l.1-1.91h9.892l-.1 1.91zM13.747 29.367H3.855l.1-1.91h9.892l-.1 1.91zM13.747 32.042H3.855l.1-1.91h9.892l-.1 1.91zM13.747 34.715H3.855l.1-1.91h9.892l-.1 1.91zM13.747 37.389H3.855l.1-1.911h9.892l-.1 1.91zM13.747 40.062H3.855l.1-1.91h9.892l-.1 1.91zM13.747 42.736H3.855l.1-1.911h9.892l-.1 1.91zM13.747 45.409H3.855l.1-1.91h9.892l-.1 1.91zM13.747 48.082H3.855l.1-1.909h9.892l-.1 1.91zM24.206 21.347h-9.891l.1-1.91h9.891l-.1 1.91zM24.206 24.02h-9.891l.1-1.909h9.891l-.1 1.91zM24.206 26.694h-9.891l.1-1.91h9.891l-.1 1.91zM24.206 29.367h-9.891l.1-1.91h9.891l-.1 1.91zM24.206 32.042h-9.891l.1-1.91h9.891l-.1 1.91zM24.206 34.715h-9.891l.1-1.91h9.891l-.1 1.91zM24.206 37.389h-9.891l.1-1.911h9.891l-.1 1.91zM24.206 40.062h-9.891l.1-1.91h9.891l-.1 1.91zM24.206 42.736h-9.891l.1-1.911h9.891l-.1 1.91zM24.206 45.409h-9.891l.1-1.91h9.891l-.1 1.91zM24.206 48.082h-9.891l.1-1.909h9.891l-.1 1.91z"/>
    </g>
    <g opacity=".3" stroke="#000" stroke-width=".11" stroke-linecap="round" stroke-linejoin="round">
        <path d="M54.62 23.323H41.854v9.66h12.768v-9.66z"/>
        <path d="M53.926 24.122H42.545v8.063h11.381v-8.063zM46.256 25.392h3.96M43.692 26.562h9.088M45.717 28.9h5.038M43.782 31.24h1.98M50.71 31.24h1.979"/>
    </g>
    <g opacity=".3" stroke="#000" stroke-width=".11" stroke-linecap="round" stroke-linejoin="round">
        <path d="M58.087 35.02H48.69v7.11h9.397v-7.11z"/>
        <path d="M57.578 35.607H49.2v5.936h8.377v-5.936zM51.933 36.543h2.913M50.045 37.403h6.69M51.535 39.125h3.709M50.11 40.847h1.458M55.21 40.847h1.457"/>
    </g>
    <path d="m47.201 40.021-13.641-.474a24.57 24.57 0 0 0-1.687 0l-12.708.474.564-17.843a32.53 32.53 0 0 0 0-2.029l-.564-16.836h28.036V40.02z" fill="#263238" stroke="#263238" stroke-width=".11" stroke-linecap="round" stroke-linejoin="round"/>
    <path d="M47.652 2.683H19.616V39.39h28.036V2.683z" fill="#E2EDFF" stroke="#263238" stroke-width=".11" stroke-linecap="round" stroke-linejoin="round"/>
    <path d="M21.174 4.429h.687v1.046h1.062V4.43h.686v2.71h-.686V6.045h-1.062V7.14h-.687v-2.71zm2.977 0h1.923v.577h-1.237v.508h.904v.54h-.904v.507h1.237v.578h-1.923v-2.71zm3.398 0h.674l1.082 2.71h-.702l-.217-.559h-1l-.217.559h-.706l1.086-2.71zm.667 1.624-.33-.91-.333.91h.663zM29.77 4.43h.686V6.56h1.179v.578H29.77v-2.71zm2.473.577h-.764V4.43h2.218v.577h-.768V7.14h-.686V5.006zm1.86-.577h.686v1.046h1.062V4.43h.687v2.71h-.687V6.045H34.79V7.14h-.686v-2.71zm-11.53 6.768c-.295 0-.554-.057-.78-.17a1.222 1.222 0 0 1-.515-.49 1.501 1.501 0 0 1-.182-.751c0-.287.06-.537.182-.749.122-.214.294-.378.516-.492.225-.116.484-.174.779-.174.194 0 .367.019.52.058.152.038.293.1.422.182v.651a1.102 1.102 0 0 0-.388-.197 1.766 1.766 0 0 0-.492-.063c-.266 0-.472.07-.616.21-.145.137-.218.328-.218.574 0 .245.073.438.218.577.147.14.352.21.616.21.186 0 .353-.022.5-.066.148-.044.285-.114.411-.21v.648c-.245.168-.57.252-.973.252zm1.437-2.768h.686v1.046h1.063V8.43h.686v2.71h-.687v-1.094h-1.062v1.094h-.686v-2.71zm2.977 0h1.922v.577h-1.236v.508h.903v.54h-.903v.507h1.236v.578h-1.922v-2.71zm3.732 2.768c-.294 0-.554-.057-.78-.17a1.222 1.222 0 0 1-.515-.49 1.5 1.5 0 0 1-.182-.751c0-.287.06-.537.182-.749.122-.214.294-.378.516-.492.225-.116.485-.174.78-.174.193 0 .366.019.519.058.152.038.293.1.422.182v.651a1.102 1.102 0 0 0-.387-.197 1.767 1.767 0 0 0-.493-.063c-.266 0-.471.07-.616.21-.145.137-.217.328-.217.574 0 .245.072.438.217.577.147.14.352.21.616.21.186 0 .353-.022.5-.066.148-.044.285-.114.411-.21v.648c-.245.168-.57.252-.973.252zm1.437-2.768h.686v1.124l.935-1.124h.814l-1.097 1.318 1.17 1.392h-.814L32.843 9.94v1.198h-.686v-2.71zm4.069 2.768c-.408 0-.716-.109-.923-.326-.206-.22-.31-.509-.31-.868V8.429h.686v1.582c0 .18.048.317.144.41.098.094.232.14.403.14.17 0 .304-.046.4-.14.095-.093.143-.23.143-.41V8.428h.686v1.574c0 .362-.103.651-.31.868-.204.217-.51.326-.919.326zm1.752-2.768h1.194c.315 0 .567.082.756.248.189.165.283.397.283.694 0 .305-.094.541-.283.71-.186.165-.438.247-.756.247h-.508v.81h-.686v-2.71zm1.085 1.322a.535.535 0 0 0 .322-.086c.08-.056.12-.155.12-.294 0-.14-.038-.235-.116-.287a.583.583 0 0 0-.326-.078h-.399v.745h.4z" fill="#002226"/>
    <path d="M45.787 12.688H21.479v24.607h24.308V12.687z" fill="#fff" stroke="#263238" stroke-width=".11" stroke-linecap="round" stroke-linejoin="round"/>
    <path d="M39 4h7M39 6h7M41 5h5M41 7h5M22.306 15.392h8.15M22.306 17.52h8.15M22.306 16.493h12.337M22.306 20.113h8.15M22.306 22.241h8.15M22.306 21.214h12.337M22.132 35.968h7.725M36.781 35.968h7.725M23.37 35.098s.038.878 1.185-.687c1.148-1.566.994-1.45.688-.572a7.744 7.744 0 0 1-.922 1.713s1.375-2.177 1.375-1.567c0 .61-1.299 3.208-1.031 2.98.267-.23 1.108-1.375 1.108-1.375s-.115.763.19.419c.304-.344.65-1.03.611-.648-.038.382-.535.839-.038.382.497-.458.879-1.032.764-.612-.115.42-.42.574-.115.42.306-.152 2.024-3.017 1.49-2.673-.536.344-1.528 3.322-1.07 3.093.46-.23.993-1.375.955-.801-.038.573.114.573.263.382M61.077 59.244H.923M61.077 60.503H.923" stroke="#263238" stroke-width=".11" stroke-linecap="round" stroke-linejoin="round"/>
    <path d="M57.782 45.35H45.027a.837.837 0 0 0-.829.716L42.291 59.11h15.166l1.159-12.852a.835.835 0 0 0-.834-.909z" fill="#263238" stroke="#263238" stroke-width=".11" stroke-linecap="round" stroke-linejoin="round"/>
    <path d="M40.51 43.22s-3.45 1.713-4.635 2.186c-1.185.473-1.476.685-1.581.975-.106.29-4.715 7.533-5.24 8.192-.526.658-1.66 2.08-1.502 3.054.158.974 1.423 1.818 2.635 1.792 1.212-.027 1.976-.264 2.108-.606.132-.343 3.477-6.325 3.477-6.325l1.054 6.663h13.46s1.054-9.112 1.054-10.456c0-1.344.263-2.924-.29-3.267-.554-.342-2.845-1.131-4.531-1.685-1.687-.553-2.213-.659-2.607-.659-.394 0-3.402.136-3.402.136z" fill="#fff" stroke="#263238" stroke-width=".11" stroke-linecap="round" stroke-linejoin="round"/>
    <path d="M40.146 43.268s-.448.843-.475 1.528c-.026.685-.131 1.949-.527 2.713-.395.764-.685 1.186-.474 1.105.21-.08 1.422-1.421 1.553-1.712.132-.292.343.263.343.263s-.395 1.132-.448 1.29c-.053.158 1.659 2.344 1.659 2.344s1.476-1.158 1.818-1.422c.343-.263.237-.474.264-.817.026-.342.131-.842.315-1.131.183-.29.712.846 1.08 1.373.368.527.738.711.685.316-.053-.396-.237-1.16-.369-2.504s-.105-2.95-.448-3.45c-.342-.501-2.14-.6-3.319-.684a1.743 1.743 0 0 0-1.657.788z" fill="#fff" stroke="#263238" stroke-width=".11" stroke-linecap="round" stroke-linejoin="round"/>
    <path d="m34.825 47.754.948 4.738-1.225-3.15M40.277 44.538s.37 2.054.712 3.634c.188.899.453 1.78.79 2.635 0 0 1.74-2.924 2.24-4.45a17.63 17.63 0 0 0 .66-2.582h-4.402v.763z" stroke="#263238" stroke-width=".11" stroke-linecap="round" stroke-linejoin="round"/>
    <path d="m42.2 45.244-.948 1.186.66 1.265-.649 1.569c.143.522.315 1.035.517 1.537 0 0 .542-.911 1.108-1.976l-.476-1.097.58-1.318-.792-1.166z" fill="#ACC0F0" stroke="#263238" stroke-width=".11" stroke-linecap="round" stroke-linejoin="round"/>
    <path d="M40.277 43.774v.764s.255 1.418.537 2.802l1.333-1.407 1.406 1.558c.176-.37.331-.75.465-1.136a17.63 17.63 0 0 0 .659-2.581h-4.4z" fill="#fff" stroke="#263238" stroke-width=".11" stroke-linecap="round" stroke-linejoin="round"/>
    <path d="M28.794 55.353s2.46-.899 3.787 1.287" stroke="#263238" stroke-width=".11" stroke-linecap="round" stroke-linejoin="round"/>
    <path d="M32.624 55.965s-1.374.311-2.108 1.483c-.734 1.171.76 1.301 1.172 1.301.412 0 .802-.276.825-.42.022-.144.562-1.532.541-1.856a.528.528 0 0 0-.43-.508z" fill="#fff" stroke="#263238" stroke-width=".11" stroke-linecap="round" stroke-linejoin="round"/>
    <path d="M31.992 56.45s-.76.659-.709.922c.052.264 1.18 1.279 1.397 1.132a.334.334 0 0 0 .146-.45 115.46 115.46 0 0 1-.834-1.604z" fill="#fff" stroke="#263238" stroke-width=".11" stroke-linecap="round" stroke-linejoin="round"/>
    <path d="M31.287 57.366s-.447.476-.3.693c.146.217 1.167.772 1.432.605.265-.168.093-.339.093-.339l-1.225-.959zM33.904 56.425l-.915-.158.215 1.316.934.03-.234-1.188z" fill="#fff" stroke="#263238" stroke-width=".11" stroke-linecap="round" stroke-linejoin="round"/>
    <path d="m32.258 54.355 1.072 3.754.52.473v-.668l-1.133-3.69a.237.237 0 0 0-.438-.042.238.238 0 0 0-.02.173z" fill="#263238" stroke="#263238" stroke-width=".11" stroke-linecap="round" stroke-linejoin="round"/>
    <path d="M32.624 55.965s-.632.37-.569.651c.063.28.746 1.593.992 1.61.247.017.396-.131.36-.416-.035-.285-.263-1.318-.418-1.543-.154-.225-.17-.315-.365-.302zM33.904 56.425s.673.085.79.29c.118.206-.353 1.025-.503 1.212-.15.188-.419.18-.427-.295.013-.405.06-.809.14-1.207z" fill="#fff" stroke="#263238" stroke-width=".11" stroke-linecap="round" stroke-linejoin="round"/>
    <path d="M30.262 58.01h7.388a.78.78 0 0 1 .779.779.659.659 0 0 1-.66.659h-7.404a.606.606 0 0 1-.606-.606v-.33a.502.502 0 0 1 .503-.502z" fill="#fff" stroke="#263238" stroke-width=".11" stroke-linecap="round" stroke-linejoin="round"/>
    <path d="M43.41 56.312s-1.923-.21-2.397-.369c-.475-.158-1.24-.29-1.503-.079-.263.21-1.553 1.713-1.58 1.896-.028.183-.29.79-.159.949.11.11.246.191.395.237 0 0 1.713.474 1.897.5.183.027 1.948-.052 1.948-.052l.923-.343 1.29-.026s.026.422.052-.606-.867-2.107-.867-2.107z" fill="#fff" stroke="#263238" stroke-width=".11" stroke-linecap="round" stroke-linejoin="round"/>
    <path d="M38.17 58.947s.027-.606.158-.87c.132-.263 1.633-1.606 1.633-1.606M38.666 59.103s.263-.66.369-.712c.105-.053 1.342-.843 1.342-.843M39.565 59.287s.053-.263.185-.316c.132-.053 1.238-.553 1.238-.553M40.751 59.419l.501-.132-.053-.237-.527.132" stroke="#263238" stroke-width=".11" stroke-linecap="round" stroke-linejoin="round"/>
    <path d="M49.443 47.83s-1.396 2.923-1.318 3.952c.078 1.03.423 2.738.423 2.738s-2.212.868-2.977 1.186c-.764.317-2.162.606-2.162.606l.71 2.792-.104.29h7.663s.58-.106.686-.237c.105-.132.21-.185.263-.606.053-.422.395-4.109.316-5.14-.079-1.03-1.16-6.372-1.29-6.926-.133-.553-.368-.922-.606-1.054-.237-.132-1.265-.236-1.265-.236" fill="#fff"/>
    <path d="M49.443 47.83s-1.396 2.923-1.318 3.952c.078 1.03.423 2.738.423 2.738s-2.212.868-2.977 1.186c-.764.317-2.162.606-2.162.606l.71 2.792-.104.29h7.663s.58-.106.686-.237c.105-.132.21-.185.263-.606.053-.422.395-4.109.316-5.14-.079-1.03-1.16-6.372-1.29-6.926-.133-.553-.368-.922-.606-1.054-.237-.132-1.265-.236-1.265-.236" stroke="#263238" stroke-width=".11" stroke-linecap="round" stroke-linejoin="round"/>
    <path d="M48.732 54.573s2.028.105 3.03.736M49.1 54.309s1.423-.079 2.187.158M48.706 47.748s-.712 1.66-.738 2.292a11.12 11.12 0 0 1-.08 1.002" stroke="#263238" stroke-width=".11" stroke-linecap="round" stroke-linejoin="round"/>
    <path d="M45.466 43.352s1.606 2.287.315 8.666" stroke="#263238" stroke-width=".219" stroke-linecap="round" stroke-linejoin="round"/>
    <path d="M46.545 52.202a.791.791 0 1 0-1.582 0 .791.791 0 0 0 1.582 0z" fill="#fff" stroke="#263238" stroke-width=".11" stroke-linecap="round" stroke-linejoin="round"/>
    <path d="M39.983 43.59s-.815.526-.947 2.66M40.169 49.481c-.2 1.44-.47 2.985-.527 3.323-.132.725-.992.978-1.546.74" stroke="#263238" stroke-width=".219" stroke-linecap="round" stroke-linejoin="round"/>
    <path d="M38.106 49.577c-.18-.807-.291-1.507-.252-1.827.185-1.474 1.186-1.5 1.186-1.5s1.186.158 1.264 1.422c.008.606-.036 1.212-.132 1.81" stroke="#263238" stroke-width=".219" stroke-linecap="round" stroke-linejoin="round"/>
    <path d="M40.33 53.44s-.554.316-.923.105c-.249-.142-.922-2.288-1.301-3.969" stroke="#263238" stroke-width=".219" stroke-linecap="round" stroke-linejoin="round"/>
    <path d="m40.523 53.154-.218.094a.207.207 0 0 0-.108.272l.002.006a.207.207 0 0 0 .272.108l.218-.094a.207.207 0 0 0 .108-.272l-.003-.006a.207.207 0 0 0-.271-.108zM38.165 53.297l-.203-.122a.207.207 0 0 0-.284.07l-.004.006a.207.207 0 0 0 .071.284l.203.122a.207.207 0 0 0 .284-.07l.004-.006a.207.207 0 0 0-.071-.284z" stroke="#263238" stroke-width=".11" stroke-linecap="round" stroke-linejoin="round"/>
    <path d="M39.04 37.216s-.422 1-.343 1.632c.08.633.923 1.318.923 1.318s.29-2.818.29-2.924c0-.105-.529-.342-.87-.026z" fill="#263238" stroke="#263238" stroke-width=".11" stroke-linecap="round" stroke-linejoin="round"/>
    <path d="m38.737 40.798.56-.391" stroke="#263238" stroke-width=".219" stroke-linecap="round" stroke-linejoin="round"/>
    <path d="M39.355 37.4s-.105 2.792-.053 3.318c.053.526.264 2.212.448 2.74.185.526.79 2.212 1.265 2.396.475.184 1.422.316 1.738.105.316-.21 1.475-1 1.79-1.764.188-.445.313-.915.37-1.395a1.939 1.939 0 0 0 1.001-1.397c.158-1.001-.263-1.29-.263-1.29l.026-1.739s-.29-1.21-1.054-1.87c-.764-.658-1.659-.711-2.581-.21-.923.5-2.687 1.106-2.687 1.106z" fill="#fff" stroke="#263238" stroke-width=".11" stroke-linecap="round" stroke-linejoin="round"/>
    <path d="M44.306 37.242s.026-.685-.631-.448c-.658.237-.817.685-1.792 1.08-.975.396-2.265-.052-2.712-.316-.447-.263-.764-.632-.158-1.317.606-.685 2.028-1.37 3.558-1.37 1.53 0 2.713 1.264 3.213 1.791.5.528.58 1.186.395 1.66-.184.472-.526 1.791-.526 1.791s-.211-.026-.29.289c-.08.315-.053.659-.396.685-.342.026-.316-.895-.316-.895s-.842-.263-.947-.87c-.106-.605.602-1.5.602-2.08z" fill="#263238" stroke="#263238" stroke-width=".11" stroke-linecap="round" stroke-linejoin="round"/>
    <path d="m41.17 41.228-2.437-.43.14 1.093a.319.319 0 0 0 .264.274l1.481.233a.317.317 0 0 0 .363-.253l.188-.917zM41.613 41.274l2.825-.082-.277 1.023a.337.337 0 0 1-.334.226l-1.713.024a.371.371 0 0 1-.387-.291l-.114-.9zM41.173 41.228l.44.046M44.438 41.192l.922-.79M41.988 40.955s.79-.605 1.529-.237M40.804 40.823s-.606-.658-1.291-.21" stroke="#263238" stroke-width=".219" stroke-linecap="round" stroke-linejoin="round"/>
    <path d="M40.962 43.115s-.131.553 0 .658c.225.124.484.17.737.132M40.567 44.19s.527.395 1.028.422c.5.026 1.079-.343 1.079-.343M42.516 41.509s.316.369.843-.027M39.921 41.346s.264.409.838.089" stroke="#263238" stroke-width=".11" stroke-linecap="round" stroke-linejoin="round"/>
    <path d="M23.58 37.24s.166 2.51.04 2.72l-.37.626s.167 1.8-.168 2.008c-.259.14-.543.225-.836.252 0 0-.335 1.339-.461 1.506-.127.167-.88.712-1.13.79-.25.08-1.046.132-2.929-1.003-1.882-1.136-2.594-1.506-2.552-2.134.042-.627.132-1.338.132-1.338s.21-3.014.586-3.933c.377-.92 5.147-1.423 6.193-1.172 1.046.252 1.494 1.678 1.494 1.678z" fill="#fff" stroke="#263238" stroke-width=".11" stroke-linecap="round" stroke-linejoin="round"/>
    <path d="m18.726 41.38.293.21s-.251 1.004-.131 1.465" stroke="#263238" stroke-width=".11" stroke-linecap="round" stroke-linejoin="round"/>
    <path d="M22.909 40.54c-.043.193-.144.332-.226.314-.081-.019-.114-.187-.071-.38.044-.192.144-.332.225-.313.082.018.115.188.072.38z" fill="#263238"/>
    <path d="M22.482 39.772s.456-.456.837-.025" stroke="#263238" stroke-width=".11" stroke-linecap="round" stroke-linejoin="round"/>
    <path d="M21.906 36.905s.543 1.004.502 1.213c-.041.21-1.758.712-1.758.712s-.167 1.004-.419 1.13l-.25.124c-.201-.272-.37-.567-.502-.879-.293-.627-.712-.79-1.172-.167-.46.623-.084 2.092.168 2.218l.25.125s-.21.21-1.004.336c-.795.126-1.38.292-1.966.125-.585-.167-1.423-1.758-1.713-3.808-.29-2.05.627-3.806 1.845-4.348 1.217-.542 3.975-.042 4.183.083.208.125 1.633-.543 2.47-.125.836.418.79.879 1.003 1.171.214.293 1.297-.083 1.381.963.085 1.047-.334 1.674-.879 1.757-.544.083-2.14-.63-2.14-.63z" fill="#263238" stroke="#263238" stroke-width=".11" stroke-linecap="round" stroke-linejoin="round"/>
    <path d="M11.998 43.473s-4.009 2.139-4.773 2.562c-.764.423-.879.802-.922 1.185-.044.384 0 13.288 0 13.288H27.96s-3.285-9.862-3.393-10.963c-.108-1.102-.342-3.056-.648-3.285-.306-.23-4.622-2.139-4.622-2.139s-1.032-1.106-3.475-1.106-3.823.458-3.823.458z" fill="#ACC0F0" stroke="#263238" stroke-width=".11" stroke-linecap="round" stroke-linejoin="round"/>
    <path d="M14.481 51.33c.113.045.228.086.342.124M10.205 47.788s1.581 2.206 3.74 3.294M11.578 50.346s.878.879 2.71 1.376M22.459 47.18c-.61.694-1.47 1.802-1.754 2.822M23.11 46.49s-.121.116-.311.318M20.933 48.78s-.573 1.107-.686 1.795" stroke="#263238" stroke-width=".11" stroke-linecap="round" stroke-linejoin="round"/>
    <path d="M11.77 43.663s2.214-.076 4.315-.038c2.1.038 3.476.688 3.476.688s-1.261-1.528-1.833-1.872c-.572-.343-2.33-.922-3.78-.458-.894.3-1.661.892-2.178 1.68z" fill="#ACC0F0" stroke="#263238" stroke-width=".11" stroke-linecap="round" stroke-linejoin="round"/>
    <path d="m5.471 60.494-2.018-7.74a.646.646 0 0 1 .632-.777h16.06a.648.648 0 0 1 .633.509l1.782 8.016" fill="#263238"/>
    <path d="m5.471 60.494-2.018-7.74a.646.646 0 0 1 .632-.777h16.06a.648.648 0 0 1 .633.509l1.782 8.016" stroke="#263238" stroke-width=".11" stroke-linecap="round" stroke-linejoin="round"/>
</svg>
