<svg xmlns="http://www.w3.org/2000/svg" width="56" height="56" fill="none" stroke="#454545" stroke-width="1.5" xmlns:v="https://vecta.io/nano"><path d="M27.617 15.148a13.05 13.05 0 0 1 7.788 16.729M29.988 8.074A20.71 20.71 0 0 1 42.347 34.62M32.356 1C47.071 6.366 54.65 22.648 49.284 37.363" stroke-linecap="round" stroke-linejoin="round"/><path d="M39.441 48.215v4.065c.002.377-.107.751-.321 1.096s-.528.656-.921.911-.858.449-1.363.57-1.041.166-1.573.132c-5.897-.453-11.562-1.878-16.54-4.159-4.631-2.08-8.557-4.856-11.499-8.129-3.239-3.535-5.255-7.559-5.884-11.747-.048-.375.015-.752.185-1.109s.443-.684.802-.962a4.08 4.08 0 0 1 1.282-.652c.487-.152 1.013-.231 1.545-.231h5.75c.93-.006 1.832.226 2.537.655s1.166 1.024 1.296 1.675c.243 1.301.693 2.578 1.342 3.807.258.485.314 1.012.161 1.519s-.508.972-1.023 1.34l-2.434 1.721c2.728 3.392 6.701 6.2 11.499 8.129l2.434-1.721c.521-.364 1.179-.615 1.896-.723s1.462-.069 2.148.114a33.24 33.24 0 0 0 5.385.948c.931.093 1.781.424 2.389.931s.931 1.154.907 1.819z" fill="#b6d9f2" stroke-linejoin="round"/></svg>