<svg width="76" height="63" viewBox="0 0 76 63" fill="none" xmlns="http://www.w3.org/2000/svg">
    <path d="M39.484 62.909c19.817 0 35.881-.597 35.881-1.334 0-.737-16.064-1.334-35.88-1.334-19.817 0-35.882.597-35.882 1.334 0 .736 16.065 1.334 35.881 1.334z" fill="#E2EDFF"/>
    <path opacity=".8" d="M39.484 62.909c19.817 0 35.881-.597 35.881-1.334 0-.737-16.064-1.334-35.88-1.334-19.817 0-35.882.597-35.882 1.334 0 .736 16.065 1.334 35.881 1.334z" fill="#fff"/>
    <path d="M56.73 11.444a.266.266 0 0 0-.266.266v1.364h-4.862V11.71a.266.266 0 0 0-.532 0v34.352a.266.266 0 0 0 .532 0v-7.684h4.862v7.684a.266.266 0 0 0 .532 0V11.705a.266.266 0 0 0-.267-.261zm-.266 26.407h-4.862v-1.724h4.862v1.724zm0-2.258h-4.862v-1.722h4.862v1.722zm0-2.256h-4.862v-1.716h4.862v1.716zm0-2.254h-4.862v-1.71h4.862v1.71zm0-2.252h-4.862v-1.69h4.862v1.69zm0-2.245h-4.862v-1.7h4.862v1.7zm0-2.235h-4.862v-1.716h4.862v1.716zm0-2.256h-4.862V20.38h4.862v1.716zm0-2.25h-4.862v-1.722h4.862v1.722zm0-2.256h-4.862v-1.726h4.862v1.726zm0-2.258h-4.862v-1.725h4.862v1.725z" fill="#fff"/>
    <path d="M10.683 39.139s3.982-5.45 2.04-6.74c-2.02-1.332-2.97 2.703-3.397 4.684-.911 4.228-.654 5.126-.042 4.196l1.399-2.14z" fill="#E2EDFF"/>
    <path opacity=".5" d="M10.683 39.139s3.982-5.45 2.04-6.74c-2.02-1.332-2.97 2.703-3.397 4.684-.911 4.228-.654 5.126-.042 4.196l1.399-2.14z" fill="#fff"/>
    <path d="M12.176 42.49s5.535-3.862 4.115-5.703c-1.478-1.917-3.686 1.596-4.734 3.327-2.236 3.703-2.282 4.636-1.402 3.955l2.021-1.579z" fill="#E2EDFF"/>
    <path opacity=".5" d="M12.176 42.49s5.535-3.862 4.115-5.703c-1.478-1.917-3.686 1.596-4.734 3.327-2.236 3.703-2.282 4.636-1.402 3.955l2.021-1.579z" fill="#fff"/>
    <path d="M12.296 46.97s4.789-2.151 3.971-3.765c-.851-1.68-3.048.683-4.1 1.857-2.247 2.508-2.417 3.214-1.646 2.822l1.775-.914z" fill="#E2EDFF"/>
    <path opacity=".5" d="M12.296 46.97s4.789-2.151 3.971-3.765c-.851-1.68-3.048.683-4.1 1.857-2.247 2.508-2.417 3.214-1.646 2.822l1.775-.914z" fill="#fff"/>
    <path d="M12.58 51.47s4.789-2.152 3.973-3.765c-.853-1.678-3.049.682-4.102 1.858-2.245 2.508-2.418 3.214-1.644 2.82l1.773-.913z" fill="#E2EDFF"/>
    <path opacity=".5" d="M12.58 51.47s4.789-2.152 3.973-3.765c-.853-1.678-3.049.682-4.102 1.858-2.245 2.508-2.418 3.214-1.644 2.82l1.773-.913z" fill="#fff"/>
    <path d="M6.963 41.416S1.7 37.19.333 39.069c-1.42 1.951 2.564 3.092 4.523 3.61 4.182 1.104 5.09.886 4.19.234l-2.083-1.497z" fill="#E2EDFF"/>
    <path opacity=".5" d="M6.963 41.416S1.7 37.19.333 39.069c-1.42 1.951 2.564 3.092 4.523 3.61 4.182 1.104 5.09.886 4.19.234l-2.083-1.497z" fill="#fff"/>
    <path d="M7.12 44.947S1.122 41.85.155 43.966c-1.005 2.2 3.127 2.52 5.143 2.637 4.319.252 5.166-.142 4.154-.603L7.12 44.947z" fill="#E2EDFF"/>
    <path opacity=".5" d="M7.12 44.947S1.122 41.85.155 43.966c-1.005 2.2 3.127 2.52 5.143 2.637 4.319.252 5.166-.142 4.154-.603L7.12 44.947z" fill="#fff"/>
    <path d="M7.844 48.905s-5.143-2.483-5.91-.668c-.8 1.885 2.7 2.059 4.415 2.11 3.657.114 4.365-.241 3.498-.596l-2.003-.846z" fill="#E2EDFF"/>
    <path opacity=".5" d="M7.844 48.905s-5.143-2.483-5.91-.668c-.8 1.885 2.7 2.059 4.415 2.11 3.657.114 4.365-.241 3.498-.596l-2.003-.846z" fill="#fff"/>
    <path d="M8.096 52.103s-4.852-3.015-5.808-1.293c-.995 1.79 2.469 2.334 4.168 2.568 3.625.5 4.364.225 3.547-.23l-1.907-1.045z" fill="#E2EDFF"/>
    <path opacity=".5" d="M8.096 52.103s-4.852-3.015-5.808-1.293c-.995 1.79 2.469 2.334 4.168 2.568 3.625.5 4.364.225 3.547-.23l-1.907-1.045z" fill="#fff"/>
    <path d="M7.637 36.062s-.911-7.915-3.901-7.107c-3.106.844-.506 4.849.814 6.786 2.804 4.121 3.836 4.575 3.614 3.288l-.527-2.967z" fill="#E2EDFF"/>
    <path opacity=".5" d="M7.637 36.062s-.911-7.915-3.901-7.107c-3.106.844-.506 4.849.814 6.786 2.804 4.121 3.836 4.575 3.614 3.288l-.527-2.967z" fill="#fff"/>
    <path d="M4.348 31.839s4.55 8.527 5.256 12.485c.813 4.547.944 9.627.383 13.607M8.886 41.69l2.229-6.827M9.604 44.324l4.197-5.276M9.337 43.365 3.26 40.813M10.13 47.898l4.57-3.501M9.888 46.396l-4.772-.993M10.117 50.05l-3.696-.584M10.43 52.417l2.486-2.228M10.38 53.419 6.131 52.35" stroke="#E2EDFF" stroke-width=".374" stroke-linecap="round" stroke-linejoin="round"/>
    <path d="M7.233 54.719h5.021v1.039h-.438l-.906 5.67H8.578l-.907-5.67h-.438v-1.04z" fill="#E2EDFF"/>
    <path opacity=".5" d="M7.233 54.719h5.021v1.039h-.438l-.906 5.67H8.578l-.907-5.67h-.438v-1.04z" fill="#fff"/>
    <path d="M15.501 1.179a1.635 1.635 0 0 0-1.628-.325c-.975.325-1.91 1.735-1.674 2.928.165.827.931 2.045 1.163 2.51.233.465-.094 1.25-.832 2.882-.737 1.632-1.023 3.162 1.116 4.51 2.139 1.348 4.56-.791 5.801-2.325 1.242-1.534-.93-5.067-1.117-6.562-.186-1.495-.506-4.361-2.829-3.618z" fill="#263238"/>
    <path d="M20.529 11.462a5.12 5.12 0 0 1-4.097 1.479l-.513 2.137.976 4.879 6.369-3.3-1.442-3.725-1.293-1.47z" fill="#E2EDFF" stroke="#263238" stroke-width=".299" stroke-linecap="round" stroke-linejoin="round"/>
    <path opacity=".3" d="M20.529 11.462a5.12 5.12 0 0 1-4.097 1.479l-.513 2.137.976 4.879 6.369-3.3-1.442-3.725-1.293-1.47z" fill="#263238"/>
    <path d="m20.529 11.462-.976-6.463-2.89.592-1.442.93S13.5 7.87 13.5 8.009c0 .138 2.91 5.008 2.91 5.008a5.395 5.395 0 0 0 4.118-1.555z" fill="#fff"/>
    <path d="m20.529 11.462-.976-6.463-2.89.592-1.442.93S13.5 7.87 13.5 8.009c0 .138 2.91 5.008 2.91 5.008a5.395 5.395 0 0 0 4.118-1.555z" stroke="#263238" stroke-width=".1" stroke-linecap="round" stroke-linejoin="round"/>
    <path opacity=".5" d="M16.65 11.185s2.038-1.51 1.85-1.064c-.188.447-1.596 1.562-1.973 1.596-.378.034.124-.532.124-.532z" fill="#E2EDFF"/>
    <path d="m16.712 8.316.08.083.497.525.127 2.016.609-.095-.48-1.89.769 1.6.64-.64-1.376-1.248-.034-.992-.704-.353" fill="#263238"/>
    <path d="M15.593 5.921s-.605.279-.605.836c0 .556.655 1.881 1.064 2.16.41.278 1.112-.997 1.112-.997s1.064.51 1.348.046c.284-.465-.65-1.999-1.254-2.417-.603-.419-1.665.372-1.665.372z" fill="#fff" stroke="#263238" stroke-width=".1" stroke-linecap="round" stroke-linejoin="round"/>
    <path d="M15.082 5.363c.167.425.307.86.42 1.301.091.465 1.347 1.256 1.485 1.302.139.046.233-1.488.233-1.488l-.371-1.812-1.767.697z" fill="#fff"/>
    <mask id="w9sd6bvhia" style="mask-type:luminance" maskUnits="userSpaceOnUse" x="15" y="4" width="3" height="4">
        <path d="M15.082 5.363c.167.425.307.86.42 1.301.091.465 1.347 1.256 1.485 1.302.139.046.233-1.488.233-1.488l-.371-1.812-1.767.697z" fill="#fff"/>
    </mask>
    <g mask="url(#w9sd6bvhia)">
        <path d="M16.888 4.859a1.803 1.803 0 0 0-.238-.05l-1.282.452-.168.44c.085.238.193.557.259.816.21.17.464.276.732.307.385.026.724-.271.963-.637l-.266-1.328z" fill="#E2EDFF" style="mix-blend-mode:multiply" opacity=".5"/>
    </g>
    <path d="M15.082 5.363c.167.425.307.86.42 1.301.091.465 1.347 1.256 1.485 1.302.139.046.233-1.488.233-1.488l-.371-1.812-1.767.697z" stroke="#263238" stroke-width=".1" stroke-linecap="round" stroke-linejoin="round"/>
    <path d="M14.246 4.572s-.513-.417-.513 0c0 .416.467.65.837.65" fill="#fff"/>
    <path d="M14.246 4.572s-.513-.417-.513 0c0 .416.467.65.837.65" stroke="#263238" stroke-width=".1" stroke-linecap="round" stroke-linejoin="round"/>
    <path d="M16.987 3.224s.327-.51.419.048c.042.363-.057.73-.279 1.021l-.14-1.07z" fill="#fff" stroke="#263238" stroke-width=".1" stroke-linecap="round" stroke-linejoin="round"/>
    <g opacity=".5">
        <path d="M14.246 4.572s-.513-.417-.513 0c0 .416.467.65.837.65" fill="#E2EDFF"/>
        <path d="M14.246 4.572s-.513-.417-.513 0c0 .416.467.65.837.65" stroke="#263238" stroke-width=".1" stroke-linecap="round" stroke-linejoin="round"/>
    </g>
    <path opacity=".5" d="M16.987 3.224s.327-.51.419.048c.042.363-.057.73-.279 1.021l-.14-1.07z" fill="#E2EDFF" stroke="#263238" stroke-width=".1" stroke-linecap="round" stroke-linejoin="round"/>
    <path d="M13.67 3.227s.399 1.662 1.255 2.483c.857.821 1.774.828 2.091-.635.26-1.206-.387-2.814-.387-2.814s-2.089-1.72-2.96.966z" fill="#fff"/>
    <mask id="wdu9jzn4wb" style="mask-type:luminance" maskUnits="userSpaceOnUse" x="13" y="1" width="5" height="6">
        <path d="M13.67 3.227s.399 1.662 1.255 2.483c.857.821 1.774.828 2.091-.635.26-1.206-.387-2.814-.387-2.814s-2.089-1.72-2.96.966z" fill="#fff"/>
    </mask>
    <g mask="url(#wdu9jzn4wb)">
        <path d="m15.157 1.72.324.816s.511-.114.798.503c.288.617.577 1.522.412 2.222-.158.667-.532.887-1.109.903.628.268 1.197 0 1.433-1.092.261-1.206-.386-2.815-.386-2.815s-.708-.58-1.472-.537z" fill="#E2EDFF" style="mix-blend-mode:multiply" opacity=".5"/>
    </g>
    <path d="M13.67 3.227s.399 1.662 1.255 2.483c.857.821 1.774.828 2.091-.635.26-1.206-.387-2.814-.387-2.814s-2.089-1.72-2.96.966z" stroke="#263238" stroke-width=".1" stroke-linecap="round" stroke-linejoin="round"/>
    <path d="M15.255 4.105c.05.094.04.195-.02.227s-.149-.02-.197-.113c-.048-.094-.04-.194.02-.225.06-.032.149.02.197.111zM16.18 3.818c.036.1.013.199-.05.22-.064.021-.146-.04-.178-.138-.032-.1-.012-.199.051-.22.064-.022.142.042.178.138z" fill="#263238"/>
    <path d="M16.245 3.286a.4.4 0 0 0-.483.028c-.255.199.227 1.194.227 1.194s.01.314-.393.168M16.244 5a.458.458 0 0 1-.71.176M15.164 3.55s-.454-.427-.652.397" stroke="#263238" stroke-width=".1" stroke-linecap="round" stroke-linejoin="round"/>
    <path d="M16.656 1.734c-.499-.433-.901-.427-1.077-.37a1.19 1.19 0 0 0-.544-.178c-1.394-.186-1.58.887-1.58 1.907s-.887 2.23-.279 2.37a.727.727 0 0 0 .837-.418s.651-1.064.651-1.814.81-.68.81-.68a.434.434 0 0 1 .653-.074c.37.316.412.687.71.782.297.096.796-.383.796-.383a7.016 7.016 0 0 0-.977-1.142z" fill="#263238"/>
    <path d="M15.514 2.013s-.56-.45-1.064.055-.449 1.46-.617 2.08c-.169.619-.62.73-.62.73" stroke="#fff" stroke-width=".1" stroke-linecap="round" stroke-linejoin="round"/>
    <path d="M15.122 1.844s-.605-.6-1.366.16c-.58.581-.32.963-.434 1.919M15.795 1.73s1.065-.505 1.519.788" stroke="#fff" stroke-width=".1" stroke-linecap="round" stroke-linejoin="round"/>
    <path d="m13.5 8.012-1.608 6.473 4.718 1.338.232-.837-3.098-1.43 1.051-3.724s-.138-.697-.886-1.486" fill="#fff"/>
    <mask id="t30d06okyc" style="mask-type:luminance" maskUnits="userSpaceOnUse" x="11" y="8" width="6" height="8">
        <path d="m13.5 8.012-1.608 6.473 4.718 1.338.232-.837-3.098-1.43 1.051-3.724s-.138-.697-.886-1.486" fill="#fff"/>
    </mask>
    <g mask="url(#t30d06okyc)">
        <path d="m16.849 14.99-3.098-1.428 1.051-3.725a2.86 2.86 0 0 0-.395-.867l-.101-.076v1.028c0 .658-.823 2.756-1.112 3.25-.29.492-.74 1.11-.74 1.11l.905-.412 3.428 1.373.062-.252z" fill="#E2EDFF" style="mix-blend-mode:multiply" opacity=".5"/>
    </g>
    <path d="m13.5 8.012-1.608 6.473 4.718 1.338.232-.837-3.098-1.43 1.051-3.724s-.138-.697-.886-1.486" stroke="#263238" stroke-width=".1" stroke-linecap="round" stroke-linejoin="round"/>
    <path d="m26.765 9.956-3.572-.75-3.648-4.216.54 3.391 2.237 2.132 4.498.206-.055-.763z" fill="#fff"/>
    <mask id="ukgdjzcy0d" style="mask-type:luminance" maskUnits="userSpaceOnUse" x="19" y="4" width="8" height="7">
        <path d="m26.765 9.956-3.572-.75-3.648-4.216.54 3.391 2.237 2.132 4.498.206-.055-.763z" fill="#fff"/>
    </mask>
    <g mask="url(#ukgdjzcy0d)">
        <path d="m19.545 4.99.434 2.707.277.846.036.031c.104-.108.695-.721.845-.721.151 0 1.852 1.48 1.605 1.596l-.248.122 4.237.699.03-.325-3.564-.748-3.652-4.207z" fill="#E2EDFF" style="mix-blend-mode:multiply" opacity=".5"/>
    </g>
    <path d="m26.765 9.956-3.572-.75-3.648-4.216.54 3.391 2.237 2.132 4.498.206-.055-.763z" stroke="#263238" stroke-width=".1" stroke-linecap="round" stroke-linejoin="round"/>
    <path d="m60.108 45.85-45.485-6.665a.551.551 0 0 1-.464-.626l3.788-25.842a.548.548 0 0 1 .624-.464l.862.126a.548.548 0 0 0 .557-.27l1.144-1.977a.52.52 0 0 1 .138-.16c.268-.194.6-.275.928-.227l11.465 1.681c.258.037.497.152.687.33.05.05.09.111.117.178l1.02 2.525a.548.548 0 0 0 .43.339l28.137 4.125a.552.552 0 0 1 .466.624l-3.788 25.84a.552.552 0 0 1-.626.463z" fill="#263238" stroke="#263238" stroke-width=".299" stroke-miterlimit="10"/>
    <path d="M60.592 45.724H15.508a.996.996 0 0 1-.996-.997V19.501a.997.997 0 0 1 .996-.997h.123a1.003 1.003 0 0 0 .927-.628l.687-1.725a.97.97 0 0 1 .399-.479c.195-.115.418-.177.645-.177h11.588c.156 0 .31.028.456.083.202.082.371.23.479.419l1.18 2.009a.998.998 0 0 0 .86.493h27.74a.997.997 0 0 1 .997.997v25.231a.996.996 0 0 1-.997.997z" fill="#E2EDFF"/>
    <path d="M60.592 45.724H15.508a.996.996 0 0 1-.996-.997V19.501a.997.997 0 0 1 .996-.997h.123a1.003 1.003 0 0 0 .927-.628l.687-1.725a.97.97 0 0 1 .399-.479c.195-.115.418-.177.645-.177h11.588c.156 0 .31.028.456.083.202.082.371.23.479.419l1.18 2.009a.998.998 0 0 0 .86.493h27.74a.997.997 0 0 1 .997.997v25.231a.996.996 0 0 1-.997.997z" stroke="#263238" stroke-width=".299" stroke-miterlimit="10"/>
    <path d="M27.25 18.42h-7.214a.65.65 0 0 1 0-1.3h7.215a.65.65 0 0 1 0 1.3z" fill="#fff"/>
    <path d="M60.592 50.126H15.508a.997.997 0 0 1-.996-.997V23.903a.997.997 0 0 1 .996-.997h.123a1 1 0 0 0 .927-.628l.687-1.724a.963.963 0 0 1 .399-.478c.195-.117.418-.178.645-.178h11.588c.156 0 .31.028.456.084.203.081.372.23.479.42l1.18 2.011a.996.996 0 0 0 .86.493h27.74a.997.997 0 0 1 .997.997v25.226a.997.997 0 0 1-.997.997z" fill="#263238" stroke="#263238" stroke-width=".299" stroke-miterlimit="10"/>
    <path d="m30.707 13.217-7.158-.886a.653.653 0 0 1-.565-.726.65.65 0 0 1 .727-.564l7.156.887a.65.65 0 0 1-.16 1.29z" fill="#E2EDFF"/>
    <path opacity=".5" d="m30.707 13.217-7.158-.886a.653.653 0 0 1-.565-.726.65.65 0 0 1 .727-.564l7.156.887a.65.65 0 0 1-.16 1.29z" fill="#fff"/>
    <path d="M27.25 22.823h-7.214a.65.65 0 1 1 0-1.302h7.215a.651.651 0 0 1 0 1.302z" fill="#E2EDFF"/>
    <path opacity=".5" d="M27.25 22.823h-7.214a.65.65 0 1 1 0-1.302h7.215a.651.651 0 0 1 0 1.302z" fill="#fff"/>
    <path d="M62.066 30.493H14.032a.935.935 0 0 0-.934.935v29.065c0 .517.418.935.934.935h48.034a.935.935 0 0 0 .934-.935V31.428a.935.935 0 0 0-.934-.935z" fill="#fff"/>
    <mask id="7af9tkhn0e" style="mask-type:luminance" maskUnits="userSpaceOnUse" x="13" y="30" width="50" height="32">
        <path d="M62.066 30.493H14.032a.935.935 0 0 0-.934.935v29.065c0 .517.418.935.934.935h48.034a.935.935 0 0 0 .934-.935V31.428a.935.935 0 0 0-.934-.935z" fill="#fff"/>
    </mask>
    <g mask="url(#7af9tkhn0e)">
        <path d="M63 38.82A74.758 74.758 0 0 1 44.36 51.57c-10.081 4.822-21.605 8.146-28.32 9.857h46.024a.937.937 0 0 0 .936-.934V38.82z" fill="#E2EDFF" style="mix-blend-mode:multiply"/>
        <path opacity=".2" d="M63 38.82A74.758 74.758 0 0 1 44.36 51.57c-10.081 4.822-21.605 8.146-28.32 9.857h46.024a.937.937 0 0 0 .936-.934V38.82z" fill="#fff"/>
    </g>
    <path d="M62.066 30.493H14.032a.935.935 0 0 0-.934.935v29.065c0 .517.418.935.934.935h48.034a.935.935 0 0 0 .934-.935V31.428a.935.935 0 0 0-.934-.935z" stroke="#263238" stroke-width=".299" stroke-miterlimit="10"/>
    <path d="M13.82 33.21v-1.241a.937.937 0 0 1 .936-.935h2.03M13.82 52.064V34.723M62.277 57.98v1.964a.933.933 0 0 1-.934.936h-1.637M62.277 32.774V56.52" stroke="#263238" stroke-width=".299" stroke-miterlimit="10"/>
    <path d="M45.468 41.804H30.629a.484.484 0 0 0-.484.484v7.572c0 .267.217.484.484.484h14.839a.484.484 0 0 0 .484-.485v-7.57a.484.484 0 0 0-.484-.485z" fill="#263238" stroke="#263238" stroke-width=".299" stroke-miterlimit="10"/>
    <path d="M45.468 41.804H30.629a.484.484 0 0 0-.484.484v1.629c0 .267.217.484.484.484h14.839a.484.484 0 0 0 .484-.485V42.29a.484.484 0 0 0-.484-.485z" fill="#fff" stroke="#263238" stroke-width=".299" stroke-miterlimit="10"/>
    <path d="m16.61 15.823.324.604.69.497a.268.268 0 0 0 .301.01l.06-.038a.211.211 0 0 0 .084-.266l-.392-.901.264.206a.204.204 0 0 0 .282-.033.205.205 0 0 0 0-.257l-.615-.778-.77.119-.229.837z" fill="#fff" stroke="#263238" stroke-width=".1" stroke-miterlimit="10"/>
    <path d="m17.993 16.896-.617-.81M17.632 16.924l-.485-.642" stroke="#263238" stroke-width=".149" stroke-linecap="round" stroke-linejoin="round"/>
    <path d="m26.765 9.956.964.057 1.175.75s.065.229-.098.26c-.163.033-1.045-.292-1.045-.292l-.941-.012-.055-.763z" fill="#fff" stroke="#263238" stroke-width=".1" stroke-miterlimit="10"/>
    <path d="m26.814 10.6 1.013.457s.163-.229-.066-.326l-.333-.229" fill="#fff"/>
    <path d="m26.814 10.6 1.013.457s.163-.229-.066-.326l-.333-.229" stroke="#263238" stroke-width=".299" stroke-linejoin="round"/>
    <path d="M46 54c4.419-4.418 4.419-11.582 0-16-4.418-4.418-11.581-4.418-16 0-4.418 4.418-4.418 11.582 0 16 4.419 4.418 11.582 4.418 16 0z" fill="#fff" stroke="#000" stroke-width=".2" stroke-linecap="round" stroke-linejoin="round"/>
    <path d="M38.02 52.375a1.197 1.197 0 0 1-1.223-1.223A1.223 1.223 0 0 1 38 49.929a1.224 1.224 0 1 1 .028 2.43l-.01.016zM43.053 47.11a1.085 1.085 0 0 1-.786-.337 6.115 6.115 0 0 0-8.18-.287c-.17.14-.336.305-.519.425a1.002 1.002 0 0 1-1.358-.147.991.991 0 0 1 .034-1.346 7.516 7.516 0 0 1 2.905-1.877 8.012 8.012 0 0 1 6.336.263c.843.386 1.61.92 2.262 1.578a.997.997 0 0 1 .214 1.131.955.955 0 0 1-.908.596z" fill="#263238"/>
    <path d="M37.977 46.412a4.752 4.752 0 0 1 3.513 1.53 1.009 1.009 0 0 1 .043 1.381 1.027 1.027 0 0 1-1.416.089 5.276 5.276 0 0 0-1.122-.755c-1.064-.431-2.036-.19-2.883.568a1.205 1.205 0 0 1-1.052.41.99.99 0 0 1-.612-1.584 4.162 4.162 0 0 1 1.713-1.257 4.78 4.78 0 0 1 1.816-.382zM38.004 41.654a9.311 9.311 0 0 0-4.813 1.318c-.599.392-1.175.817-1.727 1.272a1.117 1.117 0 0 1-1.07.26.982.982 0 0 1-.691-1.023.983.983 0 0 1 .134-.42c.121-.178.265-.34.428-.48a11.442 11.442 0 0 1 6.544-2.899c3.421-.342 6.394.7 8.971 2.936a1.239 1.239 0 0 1 .517.843 1 1 0 0 1-1.587.918c-.202-.138-.38-.306-.569-.471a9.48 9.48 0 0 0-5.87-2.232l-.267-.022z" fill="#263238"/>
    <path fill-rule="evenodd" clip-rule="evenodd" d="M48.113 38.343c.481.704.3 1.665-.403 2.146L29.366 53.03a1.544 1.544 0 0 1-1.743-2.55l18.344-12.54a1.544 1.544 0 0 1 2.146.404z" fill="#ACC0F0" stroke="#000" stroke-width=".2" stroke-linecap="round" stroke-linejoin="round"/>
    <path fill-rule="evenodd" clip-rule="evenodd" d="M44.908 39.092c-3.815-3.815-10-3.815-13.816 0-3.815 3.815-3.815 10 0 13.816 3.815 3.815 10.001 3.815 13.816 0 3.815-3.815 3.815-10 0-13.816zm-16-2.184c5.021-5.021 13.163-5.021 18.184 0 5.022 5.021 5.022 13.163 0 18.184-5.021 5.021-13.163 5.021-18.184 0-5.021-5.021-5.021-13.163 0-18.184z" fill="#ACC0F0" stroke="#000" stroke-width=".2" stroke-linecap="round" stroke-linejoin="round"/>
    <path d="m62.59 27.895-.418-1.252-.47-.644a.064.064 0 0 0-.117.039v1.855l.355.466.65-.464z" fill="#fff"/>
    <path d="m69.412 33.37-3.511.124a.683.683 0 0 1-.632-.371l-2.678-5.228s-.603.326-.649.464c-.046.139 1.983 5.227 2.605 6.79a.683.683 0 0 0 .662.428l3.925-.166" fill="#fff"/>
    <path d="m69.412 33.37-3.511.124a.683.683 0 0 1-.632-.371l-2.678-5.228s-.603.326-.649.464c-.046.139 1.983 5.227 2.605 6.79a.683.683 0 0 0 .662.428l3.925-.166M62.848 28.546l-.55.227" stroke="#263238" stroke-width=".1" stroke-miterlimit="10"/>
    <g opacity=".5">
        <path d="m69.412 33.37-3.511.124a.683.683 0 0 1-.632-.371l-2.678-5.228s-.603.326-.649.464c-.046.139 1.983 5.227 2.605 6.79a.683.683 0 0 0 .662.428l3.925-.166" fill="#ACC0F0"/>
        <path d="m69.412 33.37-3.511.124a.683.683 0 0 1-.632-.371l-2.678-5.228s-.603.326-.649.464c-.046.139 1.983 5.227 2.605 6.79a.683.683 0 0 0 .662.428l3.925-.166M62.848 28.546l-.55.227" stroke="#263238" stroke-width=".1" stroke-miterlimit="10"/>
    </g>
    <path d="m62.59 27.895-.418-1.252-.47-.644a.064.064 0 0 0-.117.039v1.855l.355.466.65-.464z" fill="#ACC0F0"/>
    <mask id="wxfhrzygpf" style="mask-type:luminance" maskUnits="userSpaceOnUse" x="61" y="25" width="2" height="4">
        <path d="m62.59 27.895-.418-1.252-.47-.644a.064.064 0 0 0-.117.039v1.855l.355.466.65-.464z" fill="#fff"/>
    </mask>
    <g mask="url(#wxfhrzygpf)">
        <path opacity=".5" d="m62.59 27.895-.418-1.252-.47-.644a.064.064 0 0 0-.117.039v1.855l.355.466.65-.464z" fill="#fff"/>
    </g>
    <path d="m62.59 27.895-.418-1.252-.47-.644a.064.064 0 0 0-.117.039v1.855l.355.466.65-.464z" stroke="#263238" stroke-width=".1" stroke-miterlimit="10"/>
    <path d="M70.499 30.065c-.169.214-.29.461-.355.726-.051.34.03 1.65.03 1.65l-1.826.207s.138-1.332.145-1.554a1.976 1.976 0 0 1 .967-1.312c.627-.309 1.161-.158 1.039.283z" fill="#fff"/>
    <mask id="6owpxowt0g" style="mask-type:luminance" maskUnits="userSpaceOnUse" x="68" y="29" width="3" height="4">
        <path d="M70.499 30.065c-.169.214-.29.461-.355.726-.051.34.03 1.65.03 1.65l-1.826.207s.138-1.332.145-1.554a1.976 1.976 0 0 1 .967-1.312c.627-.309 1.161-.158 1.039.283z" fill="#fff"/>
    </mask>
    <g mask="url(#6owpxowt0g)">
        <path d="M70.486 30.08c-.331-.09-.734-.192-1.074-.273a1.983 1.983 0 0 0-.924 1.285c0 .085-.025.334-.05.607.177-.041.46-.103.669-.14.165-.027.329-.068.487-.123l-.062 1.064h.041l.596-.067s-.082-1.31-.03-1.651c.065-.256.183-.496.347-.702z" fill="#ACC0F0" style="mix-blend-mode:multiply" opacity=".5"/>
    </g>
    <path d="M70.499 30.065c-.169.214-.29.461-.355.726-.051.34.03 1.65.03 1.65l-1.826.207s.138-1.332.145-1.554a1.976 1.976 0 0 1 .967-1.312c.627-.309 1.161-.158 1.039.283z" stroke="#263238" stroke-width=".1" stroke-miterlimit="10"/>
    <path d="M70.878 30.29c1.515-2-2.137-4.078-3.096-2.09-.134.245-.24.504-.316.773-.145.089-.532.326-.603.392-.07.066.177.234.314.317-.26.64-.222 1.315-.147 1.467.13.262.768.266 1.188.188.42-.078.587-.48.71-.59.122-.11.732.03.947.093.214.064.709-.154 1.003-.55z" fill="#fff"/>
    <mask id="mrjh0vxb1h" style="mask-type:luminance" maskUnits="userSpaceOnUse" x="66" y="27" width="6" height="5">
        <path d="M70.878 30.29c1.515-2-2.137-4.078-3.096-2.09-.134.245-.24.504-.316.773-.145.089-.532.326-.603.392-.07.066.177.234.314.317-.26.64-.222 1.315-.147 1.467.13.262.768.266 1.188.188.42-.078.587-.48.71-.59.122-.11.732.03.947.093.214.064.709-.154 1.003-.55z" fill="#fff"/>
    </mask>
    <g mask="url(#mrjh0vxb1h)">
        <path d="M69.38 30.1s.032.15-.273.272c-.305.123-.365.03-.456.243a.76.76 0 0 1-.608.548c-.29.055-.581.092-.875.112.242.135.72.124 1.065.062.418-.076.587-.48.709-.59.122-.11.732.03.947.093.05.01.102.01.153 0 .08-.178.128-.369.141-.564l-.803-.177z" fill="#ACC0F0" style="mix-blend-mode:multiply" opacity=".5"/>
    </g>
    <path d="M70.878 30.29c1.515-2-2.137-4.078-3.096-2.09-.134.245-.24.504-.316.773-.145.089-.532.326-.603.392-.07.066.177.234.314.317-.26.64-.222 1.315-.147 1.467.13.262.768.266 1.188.188.42-.078.587-.48.71-.59.122-.11.732.03.947.093.214.064.709-.154 1.003-.55z" stroke="#263238" stroke-width=".1" stroke-miterlimit="10"/>
    <path d="M67.92 29.149c-.039.085-.104.138-.147.118-.043-.02-.046-.104 0-.19.046-.085.105-.138.147-.118.043.02.04.104 0 .19z" fill="#263238"/>
    <path d="M67.885 28.602s.177-.147.213.192M67.142 30.026s0 .178.319.178" stroke="#263238" stroke-width=".1" stroke-linecap="round" stroke-linejoin="round"/>
    <path d="m66.71 41.632-.14 1.735s-.971 6.906-.925 7.698c.046.793.15 8.983.15 8.983l1.17.186 1.312-9.084 1.843-9.23-3.41-.288z" fill="#ACC0F0" stroke="#263238" stroke-width=".1" stroke-miterlimit="10"/>
    <path opacity=".2" d="m66.71 41.632-.14 1.735s-.971 6.906-.925 7.698c.046.793.15 8.983.15 8.983l1.17.186 1.312-9.084 1.843-9.23-3.41-.288z" fill="#263238"/>
    <path d="M68.188 47.94s-.449 2.641-.788 3.936c-.338 1.294-.337 2.586-.337 3.99 0 1.405-.505 3.994-.505 3.994" stroke="#263238" stroke-width=".1" stroke-miterlimit="10"/>
    <path d="M69.08 41.206c.77-.404 1.596-.672 1.832-.134.468 1.074-.093 2.708-.093 2.708l.428 7.533.782 9.09-1.169-.188s-1.794-7.67-2.075-8.139c-.28-.468-.721-7.035-.721-7.035l-.887-.807" fill="#ACC0F0"/>
    <path d="M69.08 41.206c.77-.404 1.596-.672 1.832-.134.468 1.074-.093 2.708-.093 2.708l.428 7.533.782 9.09-1.169-.188s-1.794-7.67-2.075-8.139c-.28-.468-.721-7.035-.721-7.035l-.887-.807" stroke="#263238" stroke-width=".1" stroke-miterlimit="10"/>
    <path d="M69.08 41.206c.77-.404 1.596-.672 1.832-.134.468 1.074-.093 2.708-.093 2.708l.428 7.533.782 9.09-1.169-.188s-1.794-7.67-2.075-8.139c-.28-.468-.721-7.035-.721-7.035l-.887-.807" fill="#263238" opacity=".2"/>
    <path d="M69.991 46.913c.027 1.747.204 2.588.343 3.05.168.561.111 1.629.111 2.127 0 .499-.225-.112.282 2.194s.843 5.508.843 5.508M69.991 43.106s.055-.114 0 2.529v.411" stroke="#263238" stroke-width=".1" stroke-miterlimit="10"/>
    <path d="m67.397 42.604-.038.791-.182.55.273.319" stroke="#263238" stroke-width=".1" stroke-linecap="round" stroke-linejoin="round"/>
    <path d="M67.039 43.076s.457.457 1.645.319" stroke="#263238" stroke-width=".1" stroke-linecap="round" stroke-linejoin="round"/>
    <path d="M69.846 42.68c.887-.177.944-.422 1.25-.628a2.56 2.56 0 0 0-.177-.98c-.232-.532-1.064-.27-1.832.134l-.372.59-1.999-.164-.064.784a6.53 6.53 0 0 0 3.194.264z" fill="#263238"/>
    <path d="m66.91 42.175-.02.312.507.117.039-.41-.527-.02z" fill="#fff" stroke="#263238" stroke-width=".1" stroke-miterlimit="10"/>
    <path d="m70.45 42.638-.086-.777.257-.085.13.69" fill="#ACC0F0"/>
    <path d="m70.45 42.638-.086-.777.257-.085.13.69" stroke="#263238" stroke-width=".1" stroke-miterlimit="10"/>
    <path d="m68.467 42.897-.172-.907h.43l.173.777" fill="#ACC0F0"/>
    <path d="m68.467 42.897-.172-.907h.43l.173.777" stroke="#263238" stroke-width=".1" stroke-miterlimit="10"/>
    <g opacity=".2" fill="#263238">
        <path d="m70.45 42.638-.086-.777.257-.085.13.69M68.467 42.897l-.172-.907h.43l.173.777"/>
    </g>
    <path d="M66.48 34.758s-.147.984-.589 2.66a113.296 113.296 0 0 0-.887 3.686l.247 1.032.736-1.082.493-6.296zM67.71 33.334s-1.033.245-1.13.736a4.075 4.075 0 0 0-.1.688l1.574-1.277 1.966-.787-2.31.64z" fill="#263238" stroke="#263238" stroke-width=".1" stroke-miterlimit="10"/>
    <path d="M67.992 32.954s-.84.95-1.173 1.34c-.333.39-.335 4.577-.335 5.192 0 .616-.333 2.286.224 2.621.557.336 3.963.224 4.299-.335.335-.558.556-7.255.502-7.869a1.708 1.708 0 0 0-.951-1.284c-.388-.179-2.566.335-2.566.335z" fill="#fff"/>
    <mask id="gcmg7bhqfi" style="mask-type:luminance" maskUnits="userSpaceOnUse" x="66" y="32" width="6" height="11">
        <path d="M67.992 32.954s-.84.95-1.173 1.34c-.333.39-.335 4.577-.335 5.192 0 .616-.333 2.286.224 2.621.557.336 3.963.224 4.299-.335.335-.558.556-7.255.502-7.869a1.708 1.708 0 0 0-.951-1.284c-.388-.179-2.566.335-2.566.335z" fill="#fff"/>
    </mask>
    <g mask="url(#gcmg7bhqfi)">
        <path d="M70.557 32.62a.446.446 0 0 0-.145-.033l-.242.126c.406.333.686.795.791 1.31a6.96 6.96 0 0 1-.03 2.25c-.12.82-2.068 0-1.702.305.365.305 1.732.82 1.794 1.094.063.273-.677.729-.943.76-.266.033.177.64.456 1.155.278.516.177 1.242-.456 1.735-.633.493-2.103.736-2.738.76-.206 0-.334.054-.373.114.976.218 3.737.076 4.037-.424.335-.558.557-7.255.502-7.869a1.708 1.708 0 0 0-.951-1.284z" fill="#ACC0F0" style="mix-blend-mode:multiply" opacity=".5"/>
    </g>
    <path d="M67.992 32.954s-.84.95-1.173 1.34c-.333.39-.335 4.577-.335 5.192 0 .616-.333 2.286.224 2.621.557.336 3.963.224 4.299-.335.335-.558.556-7.255.502-7.869a1.708 1.708 0 0 0-.951-1.284c-.388-.179-2.566.335-2.566.335z" stroke="#263238" stroke-width=".1" stroke-miterlimit="10"/>
    <path d="M69.706 37.202c-.899-.28-1.687-1.064-1.687-1.064.2.931.742 1.754 1.519 2.306" fill="#fff"/>
    <path d="M69.706 37.202c-.899-.28-1.687-1.064-1.687-1.064.2.931.742 1.754 1.519 2.306" stroke="#263238" stroke-width=".1" stroke-linecap="round" stroke-linejoin="round"/>
    <path d="m70.39 32.006-2.679.613-.167.782 3.014-.782-.167-.613z" fill="#fff" stroke="#263238" stroke-width=".1" stroke-miterlimit="10"/>
    <path d="m67.12 61.405-.155-1.178-1.17-.186-.973.694-.872.478v.192h3.17zM72.175 61.497l-.145-1.094-1.17-.188-.973.693-.872.48v.109h3.16z" fill="#263238" stroke="#263238" stroke-width=".1" stroke-miterlimit="10"/>
    <path d="m62.08 26.873-.72-.417s-.28-.033-.159.279l.72.555" fill="#fff"/>
    <path d="m62.08 26.873-.72-.417s-.28-.033-.159.279l.72.555" stroke="#263238" stroke-width=".1" stroke-linecap="round" stroke-linejoin="round"/>
    <path d="M61.974 27.957a.721.721 0 0 0-.147-.23l-.135-.146-.733-.908s-.227-.153-.177.177l.454.887-.807-.757s-.152-.126-.152.051.732.96.732.96l-.809-.38s-.177.126-.05.252c.128.126.808.38.808.38l-.605-.026s-.178.151-.052.203c.126.051.834.2.834.2.09.076.193.136.303.177l.178.328.679-.342-.321-.826z" fill="#fff" stroke="#263238" stroke-width=".1" stroke-linecap="round" stroke-linejoin="round"/>
    <path d="m69.226 35.83-4.047.948a.91.91 0 0 1-1.006-.566l-2.554-7.094.68-.342 2.821 5.226a.631.631 0 0 0 .681.322l3.095-.875" fill="#fff"/>
    <path d="m69.226 35.83-4.047.948a.91.91 0 0 1-1.006-.566l-2.554-7.094.68-.342 2.821 5.226a.631.631 0 0 0 .681.322l3.095-.875M62.68 29.445l-.788.393" stroke="#263238" stroke-width=".1" stroke-miterlimit="10"/>
    <path d="M68.722 28.22s-.43.432-.216.755c.127.186.224.391.287.608 0 0-.177.43-.035.43s.07-.322.323-.25c.251.074.501.503.287.646-.16.09-.33.162-.507.213a.12.12 0 0 0-.025.22c.233.158.502.255.782.284.229.005.458-.019.68-.071 0 0 .71-.968 1.221-1.22.51-.252.287-1.4.287-1.543 0-.144-.502-.466-.502-.466s.144-.323-.502-1.04c-.645-.716-1.865-.862-1.9-.61a.355.355 0 0 0 .143.355s-1.076-.467-1.578.035 1.255 1.655 1.255 1.655z" fill="#263238" stroke="#263238" stroke-width=".1" stroke-miterlimit="10"/>
    <path d="M68.722 28.221s.872 1.064 2.165 1.167M68.414 28.546s.406 1.18 2.085 1.518" stroke="#fff" stroke-width=".1" stroke-linecap="round" stroke-linejoin="round"/>
</svg>
