<svg width="153" height="26" viewBox="0 0 153 26" fill="none" xmlns="http://www.w3.org/2000/svg">
<g clip-path="url(#clip0_1728_459)">
<path d="M13.9311 0.244083L17.779 8.10107C17.8422 8.2305 17.9645 8.31982 18.1061 8.3405L26.7103 9.60051C27.0669 9.65262 27.2093 10.0943 26.9512 10.3478L20.7253 16.4634C20.6227 16.5639 20.576 16.709 20.6002 16.8509L22.0701 25.4865C22.1308 25.8442 21.7582 26.1171 21.4394 25.948L13.7436 21.8706C13.6168 21.8037 13.4658 21.8037 13.339 21.8706L5.6432 25.948C5.32436 26.1167 4.95176 25.8442 5.01249 25.4865L6.48237 16.8509C6.50659 16.7086 6.45981 16.5639 6.35722 16.4634L0.131333 10.3478C-0.12678 10.0943 0.0156128 9.65303 0.37221 9.60051L8.9765 8.3405C9.11808 8.31982 9.24036 8.23009 9.30356 8.10107L13.1514 0.244083C13.3107 -0.0813611 13.7715 -0.0813611 13.9307 0.244083H13.9311Z" fill="#FEAE00"/>
<path d="M13.5419 2.0625L10.113 8.75582C9.93325 9.10691 9.58773 9.34138 9.19749 9.37694L1.75244 10.0617L9.61851 10.4323C10.1179 10.4558 10.5755 10.1506 10.7486 9.67799L13.5419 2.0625Z" fill="#FFAB00"/>
<path d="M5.18222 24.4942L5.01315 25.4879C4.95242 25.8456 5.32502 26.1185 5.64387 25.9494L13.3396 21.872C13.4664 21.805 13.6174 21.805 13.7442 21.872L21.44 25.9494C21.7589 26.1185 22.1315 25.8456 22.0707 25.4879L20.6008 16.8522C20.5766 16.71 20.6234 16.5653 20.726 16.4648L26.9519 10.3491C27.21 10.0956 27.0676 9.65441 26.711 9.6019L23.8291 9.17969C19.1679 17.6094 12.0302 22.0478 5.18222 24.4942Z" fill="#FFAD00"/>
</g>
<g clip-path="url(#clip1_1728_459)">
<path d="M76.7645 0.244083L80.6124 8.10107C80.6756 8.2305 80.7979 8.31982 80.9394 8.3405L89.5437 9.60051C89.9003 9.65262 90.0427 10.0943 89.7846 10.3478L83.5587 16.4634C83.4561 16.5639 83.4093 16.709 83.4336 16.8509L84.9034 25.4865C84.9642 25.8442 84.5916 26.1171 84.2727 25.948L76.577 21.8706C76.4502 21.8037 76.2991 21.8037 76.1723 21.8706L68.4766 25.948C68.1577 26.1167 67.7851 25.8442 67.8459 25.4865L69.3157 16.8509C69.34 16.7086 69.2932 16.5639 69.1906 16.4634L62.9647 10.3478C62.7066 10.0943 62.849 9.65303 63.2056 9.60051L71.8099 8.3405C71.9514 8.31982 72.0737 8.23009 72.1369 8.10107L75.9848 0.244083C76.144 -0.0813611 76.6049 -0.0813611 76.7641 0.244083H76.7645Z" fill="#FEAE00"/>
<path d="M76.3753 2.0625L72.9464 8.75582C72.7666 9.10691 72.4211 9.34138 72.0309 9.37694L64.5858 10.0617L72.4519 10.4323C72.9513 10.4558 73.4088 10.1506 73.582 9.67799L76.3753 2.0625Z" fill="#FFAB00"/>
<path d="M68.0156 24.4942L67.8465 25.4879C67.7858 25.8456 68.1584 26.1185 68.4772 25.9494L76.173 21.872C76.2998 21.805 76.4508 21.805 76.5776 21.872L84.2734 25.9494C84.5922 26.1185 84.9648 25.8456 84.9041 25.4879L83.4342 16.8522C83.41 16.71 83.4568 16.5653 83.5594 16.4648L89.7853 10.3491C90.0434 10.0956 89.901 9.65441 89.5444 9.6019L86.6625 9.17969C82.0013 17.6094 74.8636 22.0478 68.0156 24.4942Z" fill="#FFAD00"/>
</g>
<g clip-path="url(#clip2_1728_459)">
<path d="M45.3478 0.244083L49.1957 8.10107C49.2589 8.2305 49.3811 8.31982 49.5227 8.3405L58.127 9.60051C58.4836 9.65262 58.626 10.0943 58.3679 10.3478L52.142 16.4634C52.0394 16.5639 51.9926 16.709 52.0168 16.8509L53.4867 25.4865C53.5475 25.8442 53.1749 26.1171 52.856 25.948L45.1602 21.8706C45.0334 21.8037 44.8824 21.8037 44.7556 21.8706L37.0599 25.948C36.741 26.1167 36.3684 25.8442 36.4291 25.4865L37.899 16.8509C37.9232 16.7086 37.8765 16.5639 37.7739 16.4634L31.548 10.3478C31.2899 10.0943 31.4323 9.65303 31.7889 9.60051L40.3932 8.3405C40.5347 8.31982 40.657 8.23009 40.7202 8.10107L44.5681 0.244083C44.7273 -0.0813611 45.1881 -0.0813611 45.3474 0.244083H45.3478Z" fill="#FEAE00"/>
<path d="M44.9586 2.0625L41.5296 8.75582C41.3499 9.10691 41.0044 9.34138 40.6141 9.37694L33.1691 10.0617L41.0352 10.4323C41.5346 10.4558 41.9921 10.1506 42.1653 9.67799L44.9586 2.0625Z" fill="#FFAB00"/>
<path d="M36.5988 24.4942L36.4298 25.4879C36.369 25.8456 36.7416 26.1185 37.0605 25.9494L44.7563 21.872C44.8831 21.805 45.0341 21.805 45.1609 21.872L52.8566 25.9494C53.1755 26.1185 53.5481 25.8456 53.4874 25.4879L52.0175 16.8522C51.9933 16.71 52.04 16.5653 52.1426 16.4648L58.3685 10.3491C58.6266 10.0956 58.4842 9.65441 58.1276 9.6019L55.2457 9.17969C50.5845 17.6094 43.4468 22.0478 36.5988 24.4942Z" fill="#FFAD00"/>
</g>
<g clip-path="url(#clip3_1728_459)">
<path d="M108.181 0.244083L112.029 8.10107C112.092 8.2305 112.214 8.31982 112.356 8.3405L120.96 9.60051C121.317 9.65262 121.459 10.0943 121.201 10.3478L114.975 16.4634C114.873 16.5639 114.826 16.709 114.85 16.8509L116.32 25.4865C116.381 25.8442 116.008 26.1171 115.689 25.948L107.994 21.8706C107.867 21.8037 107.716 21.8037 107.589 21.8706L99.8932 25.948C99.5744 26.1167 99.2018 25.8442 99.2625 25.4865L100.732 16.8509C100.757 16.7086 100.71 16.5639 100.607 16.4634L94.3813 10.3478C94.1232 10.0943 94.2656 9.65303 94.6222 9.60051L103.227 8.3405C103.368 8.31982 103.49 8.23009 103.554 8.10107L107.401 0.244083C107.561 -0.0813611 108.021 -0.0813611 108.181 0.244083H108.181Z" fill="#FEAE00"/>
<path d="M107.792 2.0625L104.363 8.75582C104.183 9.10691 103.838 9.34138 103.447 9.37694L96.0024 10.0617L103.869 10.4323C104.368 10.4558 104.825 10.1506 104.999 9.67799L107.792 2.0625Z" fill="#FFAB00"/>
<path d="M99.4322 24.4942L99.2632 25.4879C99.2024 25.8456 99.575 26.1185 99.8939 25.9494L107.59 21.872C107.716 21.805 107.867 21.805 107.994 21.872L115.69 25.9494C116.009 26.1185 116.381 25.8456 116.321 25.4879L114.851 16.8522C114.827 16.71 114.873 16.5653 114.976 16.4648L121.202 10.3491C121.46 10.0956 121.318 9.65441 120.961 9.6019L118.079 9.17969C113.418 17.6094 106.28 22.0478 99.4322 24.4942Z" fill="#FFAD00"/>
</g>
<g clip-path="url(#clip4_1728_459)">
<path d="M139.598 0.244083L143.446 8.10107C143.509 8.2305 143.631 8.31982 143.773 8.3405L152.377 9.60051C152.734 9.65262 152.876 10.0943 152.618 10.3478L146.392 16.4634C146.289 16.5639 146.243 16.709 146.267 16.8509L147.737 25.4865C147.797 25.8442 147.425 26.1171 147.106 25.948L139.41 21.8706C139.283 21.8037 139.132 21.8037 139.006 21.8706L131.31 25.948C130.991 26.1167 130.618 25.8442 130.679 25.4865L132.149 16.8509C132.173 16.7086 132.126 16.5639 132.024 16.4634L125.798 10.3478C125.54 10.0943 125.682 9.65303 126.039 9.60051L134.643 8.3405C134.785 8.31982 134.907 8.23009 134.97 8.10107L138.818 0.244083C138.977 -0.0813611 139.438 -0.0813611 139.597 0.244083H139.598Z" fill="#C8D6EC"/>
<path d="M139.209 2.0625L135.78 8.75582C135.6 9.10691 135.254 9.34138 134.864 9.37694L127.419 10.0617L135.285 10.4323C135.785 10.4558 136.242 10.1506 136.415 9.67799L139.209 2.0625Z" fill="#FFAC00"/>
<g clip-path="url(#clip5_1728_459)">
<path d="M139.598 0.244083L143.446 8.10107C143.509 8.2305 143.631 8.31982 143.773 8.3405L152.377 9.60051C152.734 9.65262 152.876 10.0943 152.618 10.3478L146.392 16.4634C146.289 16.5639 146.243 16.709 146.267 16.8509L147.737 25.4865C147.797 25.8442 147.425 26.1171 147.106 25.948L139.41 21.8706C139.283 21.8037 139.132 21.8037 139.006 21.8706L131.31 25.948C130.991 26.1167 130.618 25.8442 130.679 25.4865L132.149 16.8509C132.173 16.7086 132.126 16.5639 132.024 16.4634L125.798 10.3478C125.54 10.0943 125.682 9.65303 126.039 9.60051L134.643 8.3405C134.785 8.31982 134.907 8.23009 134.97 8.10107L138.818 0.244083C138.977 -0.0813611 139.438 -0.0813611 139.597 0.244083H139.598Z" fill="#FFAC00"/>
<path d="M139.208 2.0625L135.779 8.75582C135.6 9.10691 135.254 9.34138 134.864 9.37694L127.419 10.0617L135.285 10.4323C135.784 10.4558 136.242 10.1506 136.415 9.67799L139.208 2.0625Z" fill="#FFAC00"/>
<path d="M130.849 24.4942L130.68 25.4879C130.619 25.8456 130.992 26.1185 131.311 25.9494L139.006 21.872C139.133 21.805 139.284 21.805 139.411 21.872L147.107 25.9494C147.426 26.1185 147.798 25.8456 147.737 25.4879L146.268 16.8522C146.243 16.71 146.29 16.5653 146.393 16.4648L152.619 10.3491C152.877 10.0956 152.734 9.65441 152.378 9.6019L149.496 9.17969C144.835 17.6094 137.697 22.0478 130.849 24.4942Z" fill="#FFAC00"/>
</g>
</g>
<defs>
<clipPath id="clip0_1728_459">
<rect width="27.0833" height="26" fill="white"/>
</clipPath>
<clipPath id="clip1_1728_459">
<rect width="27.0833" height="26" fill="white" transform="translate(62.8334)"/>
</clipPath>
<clipPath id="clip2_1728_459">
<rect width="27.0833" height="26" fill="white" transform="translate(31.4167)"/>
</clipPath>
<clipPath id="clip3_1728_459">
<rect width="27.0833" height="26" fill="white" transform="translate(94.25)"/>
</clipPath>
<clipPath id="clip4_1728_459">
<rect width="27.0833" height="26" fill="white" transform="translate(125.667)"/>
</clipPath>
<clipPath id="clip5_1728_459">
<rect width="13" height="26" fill="white" transform="translate(125.667)"/>
</clipPath>
</defs>
</svg>
