<svg xmlns="http://www.w3.org/2000/svg" width="46.079" height="49.263" viewBox="0 0 46.079 49.263">
    <defs>
        <style>
            .cls-1{fill:#dcf5f8}.cls-2{fill:#f9f5f3}.cls-5{fill:none}.cls-6{fill:#363636}
        </style>
    </defs>
    <g id="View_request" transform="translate(-16.543 -0.001)">
        <g id="Group_17743" transform="translate(17.543 0.718)">
            <path id="Path_13027" d="M73.027 26.626L53.4 8.311a3.188 3.188 0 0 0-4.351 0L29.427 26.626V46.6h43.6z" class="cls-1" transform="translate(-28.909 -7.454)"/>
            <path id="Path_13028" d="M114.786 70.907l4.263 3.979a3.188 3.188 0 0 0 4.351 0l12.172-11.36V42.181a1.594 1.594 0 0 0-1.594-1.594h-25.507a1.594 1.594 0 0 0-1.594 1.594v21.345z" class="cls-2" transform="translate(-98.906 -37.399)"/>
            <path id="Path_13030" fill="#ffce69" d="M24.561 206.7l15.362 14.336 4.263 3.979a3.188 3.188 0 0 0 4.351 0L68.161 206.7a1.59 1.59 0 0 1 .518 1.176v24.287a3.188 3.188 0 0 1-3.188 3.188h-38.26a3.188 3.188 0 0 1-3.188-3.188v-24.29a1.59 1.59 0 0 1 .518-1.176z" transform="translate(-24.043 -187.525)"/>
            <path id="Path_13031" d="M24.561 206.7l15.362 14.336 4.263 3.979a3.188 3.188 0 0 0 4.351 0L68.161 206.7a1.59 1.59 0 0 1 .518 1.176v24.287a3.188 3.188 0 0 1-3.188 3.188h-38.26a3.188 3.188 0 0 1-3.188-3.188v-24.29a1.59 1.59 0 0 1 .518-1.176z" class="cls-1" transform="translate(-24.043 -187.525)"/>
            <path id="Path_13032" d="M436.662 206.7l-1.7 1.582v23.881a3.188 3.188 0 0 1-3.188 3.188h2.213a3.188 3.188 0 0 0 3.188-3.188v-24.288a1.59 1.59 0 0 0-.513-1.175z" class="cls-1" transform="translate(-392.544 -187.527)"/>
            <path id="Path_13033" d="M363.348 441.377a1.594 1.594 0 1 0 0-3.188h-6.377a1.594 1.594 0 1 0 0 3.188z" class="cls-2" transform="translate(-323.494 -396.741)"/>
            <path id="Path_13034" fill="#f9eae0" d="M417.425 438.19h-2.213a1.594 1.594 0 0 1 0 3.188h2.213a1.594 1.594 0 0 0 0-3.188z" transform="translate(-377.572 -396.742)"/>
            <g id="Group_17742" transform="translate(17.536 6.143)">
                <g id="Group_17741">
                    <circle id="Ellipse_209" cx="1.594" cy="1.594" r="1.594" class="cls-5" transform="matrix(0.16, -0.987, 0.987, 0.16, 2.947, 18.851)"/>
                    <g id="Group_17740">
                        <path id="Path_13035" d="M211.06 84.042a1.594 1.594 0 0 1-1.594-1.594v-1.595a3.554 3.554 0 0 1 2.2-3.307 1.595 1.595 0 1 0-1.692-2.642 1.579 1.579 0 0 0-.507 1.166 1.594 1.594 0 0 1-3.188 0 4.783 4.783 0 1 1 6.6 4.425.382.382 0 0 0-.222.357v1.594a1.594 1.594 0 0 1-1.597 1.596z" class="cls-5" transform="translate(-206.277 -71.289)"/>
                    </g>
                </g>
            </g>
        </g>
        <g id="Group_17744" transform="translate(16.543 0.001)">
            <path id="Path_13036" d="M61.877 19.364l-7.218-6.736V9.467a.722.722 0 0 0-1.443 0v17.065l-11.95 11.145a2.474 2.474 0 0 1-3.366 0L25.957 26.532V5.5a.873.873 0 0 1 .872-.872h25.507a.873.873 0 0 1 .872.872v1.08a.722.722 0 1 0 1.443 0V5.5a2.318 2.318 0 0 0-2.316-2.316h-7.8L42.25 1.048a3.922 3.922 0 0 0-5.335 0l-2.29 2.137h-7.8A2.318 2.318 0 0 0 24.514 5.5v7.121L17.3 19.357a2.322 2.322 0 0 0-.746 1.7v24.297a3.915 3.915 0 0 0 3.91 3.91h3.339a.722.722 0 1 0 0-1.443h-3.35a2.469 2.469 0 0 1-2.467-2.467V21.067l18.929 17.666a3.922 3.922 0 0 0 5.336 0l18.928-17.665v24.286a2.469 2.469 0 0 1-2.467 2.467H26.679a.722.722 0 1 0 0 1.443h32.033a3.915 3.915 0 0 0 3.91-3.91V21.066a2.322 2.322 0 0 0-.746-1.7zM37.9 2.1a2.474 2.474 0 0 1 3.366 0l1.159 1.081h-5.684zM24.514 25.185l-5.673-5.295 5.673-5.29v10.585zM54.652 14.6l5.673 5.295-5.673 5.295z" class="cls-6" transform="translate(-16.543 -0.001)"/>
            <path id="Path_13037" d="M356.57 435.323a2.316 2.316 0 0 0 0-4.632h-6.377a2.316 2.316 0 0 0 0 4.632zm-7.249-2.316a.873.873 0 0 1 .872-.872h6.377a.872.872 0 0 1 0 1.745h-6.377a.873.873 0 0 1-.872-.873z" class="cls-6" transform="translate(-315.995 -389.248)"/>
        </g>
        <path id="Path_10503" d="M262.114 1030.02a1.145 1.145 0 0 0-1.593 0l-3.779 3.777v-10.65a1.147 1.147 0 0 0-2.294 0v10.65l-3.777-3.777a1.147 1.147 0 0 0-1.622 1.621l5.735 5.735a1.147 1.147 0 0 0 1.622 0l5.734-5.735a1.146 1.146 0 0 0-.026-1.621z" class="cls-6" transform="translate(295.007 1048.001) rotate(180)"/>
    </g>
</svg>
