<svg xmlns="http://www.w3.org/2000/svg" width="42.334" height="42.334" viewBox="0 0 42.334 42.334">
    <defs>
        <style>
            .cls-2{fill:#fff}.cls-3{fill:#363636}
        </style>
    </defs>
    <g id="Group_14560" transform="translate(-586 -367.734)">
        <path id="Path_10655" fill="#dcf5f8" d="M-23988.16-9046.581l-23.57 23.72-4.5 13.661 13.961-3.9 26.422-26.271v-2.7l-7.654-7.656z" transform="translate(24603.096 9418.067)"/>
        <path id="Path_10656" d="M-23983.678-9034.238l-10.248-9.007 4.73-4.729 2.814-1.575 4.393 4.39 3.262 3.829v2.364z" class="cls-2" transform="translate(24605.906 9418.09)"/>
        <path id="Path_10657" d="M-24013.9-9019.457l4.5 4.246-6.436 2.831z" class="cls-3" transform="translate(24603.148 9421.879)"/>
        <path id="Path_10658" d="M-24012.816-9025.35l-1.383 5.854 5.629 5.066 5.631-2.138v-2.929l-4.5-1.463-1.8-4.391z" class="cls-2" transform="translate(24603.354 9421.138)"/>
        <g id="pencil" transform="translate(586 367.734)">
            <g id="Group_14558">
                <path id="Path_10654" d="M41.207 6.872l-5.773-5.777a3.935 3.935 0 0 0-5.445 0L4.127 27.214a.968.968 0 0 0-.242.414L.037 41.109A.963.963 0 0 0 1.226 42.3L14.7 38.448a.966.966 0 0 0 .413-.243l26.1-25.886a3.853 3.853 0 0 0 0-5.447zM25.8 8.1l3.542 3.542-18.495 18.487-1.327-2.655a.963.963 0 0 0-.861-.532H7.118zM2.363 39.973l1.253-4.387L6.75 38.72zM13.47 36.8l-4.6 1.315-4.649-4.645 1.315-4.6h2.528l1.658 3.317a.963.963 0 0 0 .43.43l3.317 1.658V36.8zm1.924-1.582v-1.541a.963.963 0 0 0-.532-.861l-2.655-1.327L30.7 13l3.54 3.54zm24.455-24.237l-4.242 4.2L27.15 6.73l4.2-4.24a1.97 1.97 0 0 1 2.721 0l5.773 5.773a1.924 1.924 0 0 1 0 2.718z" class="cls-3" transform="translate(0 -.002)"/>
            </g>
        </g>
    </g>
</svg>
