<svg width="71" height="69" viewBox="0 0 71 69" fill="none" xmlns="http://www.w3.org/2000/svg">
    <path d="M46.912 4.26H0l3.087 63.888H50L46.912 4.26z" fill="#8399CC"/>
    <path opacity=".2" d="M46.912 4.26H0l3.087 63.888H50L46.912 4.26z" fill="#000"/>
    <path d="M47.346 4.26H.434l3.089 63.888h46.912L47.345 4.26z" fill="#8399CC"/>
    <path opacity=".2" d="M44.869 6.408H2.579L5.532 65.26l36.774-.048 6.111-5.418-3.55-53.386z" fill="#000"/>
    <path d="M45.192 6.406a479.197 479.197 0 0 0 4.264 52.68 2556.687 2556.687 0 0 0-10.003 6.92H7.825a480.411 480.411 0 0 1-5.247-59.6h42.614z" fill="#fff"/>
    <path d="M49.456 59.086a2545.83 2545.83 0 0 0-10.002 6.92c.725-3.053 1.48-6.106 2.265-9.158l7.737 2.238z" fill="#EBEBEB"/>
    <path d="M14.046 11.791c.08 2.155.174 4.31.28 6.468H7.863a470.326 470.326 0 0 1-.281-6.468h6.465zm.66-.681H6.874c.09 2.609.204 5.219.34 7.83h7.832a458.65 458.65 0 0 1-.34-7.83h-.002z" fill="#333"/>
    <path d="M40.465 14.219H18.319c-.02-.486-.038-.975-.057-1.461h22.144c.018.486.038.975.059 1.461zM35.787 17.292h-17.33c-.023-.488-.047-.975-.068-1.46h17.329l.069 1.46z" fill="#E0E0E0"/>
    <path d="M14.68 24.457c.136 2.158.288 4.315.454 6.472H8.668a450.75 450.75 0 0 1-.454-6.472h6.468zm.64-.681H7.489c.16 2.611.342 5.223.547 7.835h7.841c-.203-2.61-.386-5.222-.55-7.835h-.007z" fill="#333"/>
    <path d="M27.151 26.887h-8.14c-.032-.488-.067-.974-.097-1.463h8.14c.03.489.063.975.098 1.463zM34.859 26.887h-5.985c-.033-.488-.068-.974-.098-1.463h5.985c.03.489.063.975.098 1.463zM38.615 29.962h-19.38c-.036-.488-.07-.974-.108-1.463h19.38l.108 1.463z" fill="#E0E0E0"/>
    <path d="M15.652 37.13c.194 2.157.403 4.314.626 6.471H9.811a474.291 474.291 0 0 1-.627-6.471h6.468zm.622-.682H8.441c.231 2.613.483 5.225.757 7.837h7.833a548.135 548.135 0 0 1-.757-7.837z" fill="#333"/>
    <path d="M42.354 41.174H20.206l.147 1.46H42.5l-.146-1.46zM37.246 38.099H19.915l.136 1.46H37.38c-.045-.486-.092-.968-.134-1.46z" fill="#E0E0E0"/>
    <path d="M16.96 49.802c.252 2.157.519 4.314.8 6.47h-6.468c-.28-2.155-.547-4.311-.8-6.47h6.468zm.61-.681H9.731c.299 2.613.621 5.224.967 7.833h7.825c-.343-2.61-.665-5.22-.967-7.833h.014z" fill="#333"/>
    <path d="M43.573 52.226H21.425c-.059-.489-.118-.975-.175-1.463h22.146c.059.494.116.98.177 1.463zM31.89 55.305H21.81c-.064-.486-.125-.975-.186-1.461h10.082c.06.486.122.974.185 1.46zM37.91 55.305h-4.352c-.063-.486-.124-.975-.185-1.461h4.353c.06.486.13.974.185 1.46z" fill="#E0E0E0"/>
    <path d="m11.197 17.335-.287-.456c-.627-.997-1.905-1.887-2.347-2.147l.33-.584a9.26 9.26 0 0 1 2.292 1.968c.985-1.341 2.442-2.727 4.436-4.217l.421.55c-2.128 1.593-3.618 3.052-4.558 4.456l-.287.43zM11.97 30.005l-.3-.456c-.65-.997-1.953-1.888-2.4-2.149l.31-.584a9.564 9.564 0 0 1 2.347 1.97c.949-1.343 2.367-2.729 4.323-4.22l.435.55c-2.086 1.596-3.537 3.053-4.438 4.46-.094.142-.185.287-.277.43zM13.094 42.71l-.312-.456c-.68-.997-2.006-1.888-2.46-2.147.098-.203.203-.39.297-.584a9.992 9.992 0 0 1 2.397 1.968c.914-1.343 2.296-2.727 4.209-4.22l.451.551c-2.035 1.595-3.46 3.053-4.32 4.459l-.262.43z" fill="#333"/>
    <path d="M33.61 62.495c-1.202 0-1.894-.444-2.504-.834-.61-.391-1.136-.729-2.15-.729-1.013 0-1.464.354-1.943.729-.478.374-1.064.834-2.265.834-1.2 0-1.892-.444-2.5-.834-.61-.391-1.134-.729-2.15-.729-1.015 0-1.465.354-1.943.729-.479.374-1.065.834-2.263.834-1.199 0-1.893-.444-2.503-.834-.61-.391-1.134-.729-2.15-.729-.026-.204-.054-.39-.08-.586 1.2 0 1.89.444 2.5.834.61.391 1.134.729 2.147.729 1.014 0 1.466-.354 1.944-.729.478-.374 1.066-.834 2.267-.834 1.2 0 1.888.444 2.499.834.61.391 1.136.729 2.149.729 1.013 0 1.465-.354 1.943-.729.479-.374 1.067-.834 2.267-.834 1.201 0 1.891.444 2.502.834.61.391 1.133.729 2.149.729.026.195.057.39.083.586z" fill="#EBEBEB"/>
    <path d="M35.331 5.84c-.688-1.83-2.277-3.033-3.987-3.033H27.86a1.325 1.325 0 0 1-1.21-.815A3.256 3.256 0 0 0 23.683 0a2.884 2.884 0 0 0-2.771 1.992 1.177 1.177 0 0 1-1.134.815h-3.482c-1.711 0-3.185 1.208-3.694 3.034l-.203.726h23.2l-.269-.726z" fill="#566078"/>
    <path d="M35.455 7.284H12.62a.761.761 0 0 1-.75-.717.677.677 0 0 1 .68-.714h22.834a.761.761 0 0 1 .751.714.678.678 0 0 1-.681.717z" fill="#8399CC"/>
    <path opacity=".2" d="M35.455 7.284H12.62a.761.761 0 0 1-.75-.717.677.677 0 0 1 .68-.714h22.834a.761.761 0 0 1 .751.714.678.678 0 0 1-.681.717z" fill="#000"/>
    <path d="M41.632 3.035c.74-.863 2.66-.32 3.981.38 0 0 .908.429 1.245.65h.011l3.082-.38c.25-.032.505.013.73.127l.254.127a.17.17 0 0 1-.01.307l-2.27.97v.027l2.24 1.473.035.021c.422.271.931.373 1.425.284l1.2-.215a.305.305 0 0 1 .262.53l-1.393 1.16a.733.733 0 0 1-.778.104l-.652-.299L47.7 6.733l.38 1.875a.128.128 0 0 1-.073.133.127.127 0 0 1-.053.011h-.155a.614.614 0 0 1-.507-.309l-1.327-2.535-3.888-1.849c-.518-.238-.703-.683-.444-1.024z" fill="#E0E0E0"/>
    <path d="M58.382 27.634h9.207s-.814-1.483-3.184-1.268c-2.264.206-2.378-.73-3.53-.844-1.152-.114-2.11.768-2.493 2.112zM58.39 32.28h4.594s-.406-.74-1.588-.634c-1.13.103-1.188-.364-1.762-.42-.574-.058-1.053.383-1.244 1.054z" fill="#F5F5F5"/>
    <path d="M56.092 19.561h4.596s-.407-.74-1.59-.634c-1.13.103-1.187-.363-1.761-.42-.574-.057-1.057.384-1.245 1.054z" fill="#FAFAFA"/>
    <path d="m59.312 43.54-.04.003.04-.004zm-3.476-.325v-.04.04zm3.07.73v.04-.04zM66.127 68.424a.938.938 0 1 1 1.695-.806.938.938 0 0 1-1.695.806z" fill="#333" stroke="#000" stroke-width=".081"/>
    <path d="m67.012 67.863-.224.11-.563-1.164.244-.156.543 1.21z" fill="#65696B" stroke="#000" stroke-width=".081"/>
    <path d="m56.882 43.546.632-.317 3.675 9.59-.742.241-3.565-9.514z" fill="#333" stroke="#000" stroke-width=".081"/>
    <path d="m69.786 65.582-5.477 2.176a.357.357 0 0 1-.462-.2L58.4 53.85a2.061 2.061 0 0 1 1.154-2.676l2.308-.917a2.06 2.06 0 0 1 2.676 1.154l5.447 13.709a.356.356 0 0 1-.2.462z" fill="#ACC0F0" stroke="#000" stroke-width=".081"/>
    <mask id="jpmjigqofa" fill="#fff">
        <path d="M63.803 67.636s-.008-.029-.028-.083l-.09-.243-.357-.933L62 62.955a4991.43 4991.43 0 0 1-1.98-5.072l-1.17-2.995c-.101-.258-.205-.52-.307-.784a1.59 1.59 0 0 1 2.485-1.84c.213.183.375.416.473.678l.308.787 1.176 2.992 1.996 5.065c.575 1.438 1.03 2.603 1.353 3.412l.37.928c.044.102.075.182.1.24l.035.08s-.008-.029-.028-.085l-.09-.243-.357-.931-1.327-3.422-1.98-5.073c-.371-.954-.764-1.956-1.17-2.994l-.308-.786a1.716 1.716 0 0 0-.496-.718 1.675 1.675 0 0 0-2.619 1.937l.308.792c.408 1.036.802 2.038 1.175 2.991l1.995 5.058 1.353 3.414.372.925a13.212 13.212 0 0 0 .135.325z"/>
    </mask>
    <path d="M63.803 67.636s-.008-.029-.028-.083l-.09-.243-.357-.933L62 62.955a4991.43 4991.43 0 0 1-1.98-5.072l-1.17-2.995c-.101-.258-.205-.52-.307-.784a1.59 1.59 0 0 1 2.485-1.84c.213.183.375.416.473.678l.308.787 1.176 2.992 1.996 5.065c.575 1.438 1.03 2.603 1.353 3.412l.37.928c.044.102.075.182.1.24l.035.08s-.008-.029-.028-.085l-.09-.243-.357-.931-1.327-3.422-1.98-5.073c-.371-.954-.764-1.956-1.17-2.994l-.308-.786a1.716 1.716 0 0 0-.496-.718 1.675 1.675 0 0 0-2.619 1.937l.308.792c.408 1.036.802 2.038 1.175 2.991l1.995 5.058 1.353 3.414.372.925a13.212 13.212 0 0 0 .135.325z" fill="#333"/>
    <path d="m63.803 67.636-.072.036.15-.06-.078.024zm-.028-.083.075-.028-.075.028zm-.09-.243.075-.028v-.001l-.076.029zm-.357-.933.075-.029-.075.03zM62 62.955l.075-.03-.075.03zm-1.98-5.072.076-.03-.075.03zm-1.17-2.995-.076.03.075-.03zm-.307-.784.076-.03-.001-.002-.075.032zm-.115-.82-.08-.01v.001l.08.01zm2.6-1.02.053-.061v-.001l-.053.062zm.473.678-.076.029.076-.029zm.308.787-.076.03.076-.03zm1.176 2.992-.076.03.076-.03zm1.996 5.065-.075.03.075-.03zm1.353 3.412-.076.03.076-.03zm.37.928-.075.03v.001l.075-.031zm.136.32-.073.036.15-.06-.078.024zm-.03-.085.077-.027v-.001l-.076.028zm-.09-.243.076-.028-.076.028zm-.356-.931.075-.029-.075.029zm-1.327-3.422.076-.03-.076.03zm-1.98-5.073-.075.03.076-.03zm-1.17-2.994-.076.03.075-.03zm-.308-.786-.076.028v.002l.076-.03zm-.496-.718.053-.062h-.001l-.052.062zm-2.74 1.075-.08-.01.08.01zm.121.862.076-.03-.001-.001-.075.031zm.308.792-.076.03.076-.03zm1.175 2.991-.075.03.076-.03zm1.995 5.058-.075.03.075-.03zm1.353 3.414-.075.03.075-.03zm.372.925-.075.03.075-.03zm.1.24.076-.027-.002-.004-.075.031zm.035.085.078-.023v-.002l-.002-.005-.006-.017a2.099 2.099 0 0 0-.023-.064l-.151.056c.01.026.016.046.02.06l.006.014v.004h.001l.077-.023zm.047-.111-.09-.243-.152.056.09.243.152-.056zm-.09-.244-.357-.933-.15.058.356.933.15-.058zm-.357-.933-1.327-3.422-.15.058 1.326 3.422.151-.058zm-1.327-3.423a5153.38 5153.38 0 0 1-1.979-5.072l-.15.059c.744 1.91 1.414 3.628 1.979 5.072l.15-.059zm-1.979-5.072-1.171-2.994-.15.059 1.17 2.994.151-.059zm-1.171-2.994-.306-.784-.151.058.306.785.15-.059zm-.307-.787a1.548 1.548 0 0 1-.11-.778l-.16-.019a1.71 1.71 0 0 0 .12.86l.15-.063zm-.11-.778c.034-.269.14-.524.306-.738l-.128-.1a1.67 1.67 0 0 0-.338.819l.16.02zm.306-.738c.167-.215.388-.38.64-.48l-.059-.15a1.67 1.67 0 0 0-.709.53l.128.1zm.64-.48c.253-.099.528-.128.796-.084l.026-.16a1.67 1.67 0 0 0-.88.094l.059.15zm.796-.084c.268.044.519.16.726.334l.104-.124a1.67 1.67 0 0 0-.804-.37l-.026.16zm.726.333c.202.174.357.396.45.646l.151-.057a1.736 1.736 0 0 0-.496-.711l-.105.122zm.45.647.307.786.151-.059-.307-.786-.151.059zm.308.786c.408 1.038.802 2.038 1.175 2.993l.15-.06c-.373-.954-.767-1.954-1.175-2.992l-.15.06zm1.175 2.993 1.997 5.065.15-.06-1.996-5.065-.15.06zm1.997 5.065c.575 1.438 1.03 2.602 1.352 3.412l.15-.06c-.32-.808-.777-1.975-1.352-3.412l-.15.06zm1.352 3.412.371.928.15-.06-.37-.928-.15.06zm.372.929.056.136.043.104.149-.063-.042-.102-.057-.138-.15.063zm.1.24a2.956 2.956 0 0 0 .034.08l.002.004.001.001.073-.036.072-.036-.002-.003a2.1 2.1 0 0 1-.032-.073l-.149.063zm.11.05.077-.024v-.002l-.002-.005-.005-.017a2.302 2.302 0 0 0-.023-.065l-.152.055c.01.027.016.047.02.061l.006.015v.004h.001l.078-.023zm.047-.114-.091-.243-.152.057.09.242.153-.056zm-.091-.243-.357-.932-.15.058c.153.403.274.716.356.931l.15-.057zm-.357-.932-1.326-3.422-.151.058 1.326 3.422.151-.058zm-1.327-3.423-1.979-5.072-.15.059 1.979 5.072.15-.059zm-1.979-5.072c-.372-.954-.764-1.956-1.171-2.994l-.15.059 1.17 2.994.151-.059zm-1.171-2.994c-.1-.26-.205-.522-.308-.786l-.15.059.307.786.15-.059zm-.307-.784a1.795 1.795 0 0 0-.52-.753l-.105.123c.214.184.377.42.473.685l.152-.055zm-.52-.753a1.755 1.755 0 0 0-.846-.39l-.026.16c.283.047.548.169.768.353l.104-.123zm-.846-.39a1.756 1.756 0 0 0-.925.099l.059.15c.267-.104.557-.135.84-.088l.026-.16zm-.925.099a1.756 1.756 0 0 0-.745.557l.127.1c.176-.227.41-.402.677-.506l-.06-.151zm-.745.557c-.194.25-.317.547-.356.86l.16.02c.036-.284.148-.554.323-.78l-.127-.1zm-.356.861c-.036.307.007.618.127.903l.149-.062a1.63 1.63 0 0 1-.115-.822l-.16-.019zm.126.901.307.792.151-.058-.307-.792-.151.058zm.307.793c.409 1.036.802 2.038 1.176 2.99l.15-.058c-.373-.953-.767-1.955-1.175-2.992l-.15.06zm1.176 2.99 1.995 5.059.15-.06-1.994-5.058-.15.06zm1.995 5.059 1.353 3.413.15-.06-1.352-3.413-.15.06zm1.353 3.414.372.925.15-.06-.372-.925-.15.06zm.372.926c.042.104.075.183.1.241l.149-.063a13.779 13.779 0 0 1-.099-.239l-.15.06zm.098.236a.834.834 0 0 0 .04.094l.145-.072a.682.682 0 0 1-.032-.076l-.153.054z" fill="#000" mask="url(#jpmjigqofa)"/>
    <path d="M65.033 57.227a33.151 33.151 0 0 1-1.287.536l.17-.084c.281-.138.673-.319 1.108-.511a30.335 30.335 0 0 1 1.286-.536l-.168.084c-.281.138-.673.32-1.109.511z" fill="#333" stroke="#000" stroke-width=".081"/>
    <path d="m53.942 37.608 2.647 3.591.007.009.01.004 1.006.42c.138.057.25.162.318.294l.61 1.207-.573.002h-.739a.266.266 0 0 0-.077.008.188.188 0 0 0-.109.068c-.03.042-.044.1-.032.178a.92.92 0 0 0 .123.3 1.6 1.6 0 0 1 .168.532c-.192.009-.4-.1-.608-.282a4.046 4.046 0 0 1-.628-.742 8.92 8.92 0 0 1-.636-1.094l-.01-.02-.002-.004v-.001l-.037.017.039-.018-.01-.01-1.712-1.768.245-2.691z" fill="#FFBE9D" stroke="#000" stroke-width=".081"/>
    <path d="m56.769 40.873-1.828 1.33-.005-.008-.077-.104a269.751 269.751 0 0 1-.619-.848l1.894-.99.635.62z" fill="#ACC0F0" stroke="#000" stroke-width=".081"/>
    <path d="M57.21 43.74a2.607 2.607 0 0 1 .194.135c.065.05.13.106.184.163.051.057.088.11.102.158v.092l-.51-.075.03-.473z" fill="#FFBE9D" stroke="#000" stroke-width=".081"/>
    <mask id="orlk4czahb" fill="#fff">
        <path d="M57.837 43.94a.642.642 0 0 1-.198-.261.223.223 0 0 1 .112-.277c.102-.035.207.038.287.112.101.09.197.186.288.287a.358.358 0 0 1 .123.3.22.22 0 0 1-.2.157.338.338 0 0 1-.248-.1.716.716 0 0 1-.151-.225"/>
    </mask>
    <path d="M57.837 43.94a.642.642 0 0 1-.198-.261.223.223 0 0 1 .112-.277c.102-.035.207.038.287.112.101.09.197.186.288.287a.358.358 0 0 1 .123.3.22.22 0 0 1-.2.157.338.338 0 0 1-.248-.1.716.716 0 0 1-.151-.225" fill="#FFBE9D"/>
    <path d="m57.639 43.679-.076.028v.003l.076-.031zm.112-.277-.026-.078-.01.005.036.073zm.287.112-.054.06.054-.06zm.288.287-.061.055.008.007.053-.062zm.123.3.078.024.002-.008v-.009l-.08-.006zm-.2.157v.081h.003l-.004-.08zm-.248-.1.058-.057-.058.057zm-.114-.281a.561.561 0 0 1-.173-.229l-.15.062a.724.724 0 0 0 .223.294l.1-.127zm-.172-.226a.142.142 0 0 1 .001-.102l-.15-.06a.304.304 0 0 0-.003.218l.152-.056zm.001-.102a.142.142 0 0 1 .07-.075l-.07-.145a.304.304 0 0 0-.15.16l.15.06zm.06-.07c.025-.01.054-.006.092.011a.496.496 0 0 1 .116.084l.109-.12a.657.657 0 0 0-.156-.11.28.28 0 0 0-.212-.019l.052.153zm.208.095c.1.089.193.182.282.281l.12-.108a3.787 3.787 0 0 0-.294-.294l-.108.121zm.289.289c.033.028.06.064.076.104l.15-.061a.44.44 0 0 0-.12-.166l-.106.123zm.076.104c.016.04.023.084.02.128l.16.013a.439.439 0 0 0-.03-.202l-.15.061zm.023.111a.14.14 0 0 1-.048.07l.1.128a.302.302 0 0 0 .103-.15l-.155-.048zm-.048.07a.14.14 0 0 1-.08.03l.008.161a.302.302 0 0 0 .171-.063l-.1-.128zm-.078.03a.257.257 0 0 1-.101-.02l-.061.15c.052.022.109.032.166.031l-.004-.162zm-.101-.02a.254.254 0 0 1-.086-.057l-.116.113c.04.04.088.073.14.094l.062-.15zm-.087-.057a.64.64 0 0 1-.134-.2l-.148.064c.04.093.096.178.167.25l.115-.114z" fill="#000" mask="url(#orlk4czahb)"/>
    <mask id="qoupt37j8c" fill="#fff">
        <path d="M58.338 43.897a.642.642 0 0 1-.198-.261.223.223 0 0 1 .112-.278c.102-.034.207.039.287.112.101.09.197.187.288.288a.358.358 0 0 1 .123.3.222.222 0 0 1-.2.157.338.338 0 0 1-.248-.1.718.718 0 0 1-.151-.225"/>
    </mask>
    <path d="M58.338 43.897a.642.642 0 0 1-.198-.261.223.223 0 0 1 .112-.278c.102-.034.207.039.287.112.101.09.197.187.288.288a.358.358 0 0 1 .123.3.222.222 0 0 1-.2.157.338.338 0 0 1-.248-.1.718.718 0 0 1-.151-.225" fill="#FFBE9D"/>
    <path d="m58.14 43.636-.076.027v.003l.076-.03zm.112-.278-.026-.077-.01.004.036.073zm.287.112-.054.06.054-.06zm.288.288-.061.054.008.007.053-.061zm.123.3.078.024.002-.009v-.008l-.08-.007zm-.2.157v.08h.003l-.004-.08zm-.248-.1.057-.058-.057.057zm-.114-.282a.563.563 0 0 1-.174-.228l-.15.061a.723.723 0 0 0 .224.295l.1-.128zm-.172-.225a.142.142 0 0 1 .001-.102l-.15-.061a.304.304 0 0 0-.003.218l.152-.055zm.001-.102a.142.142 0 0 1 .07-.075l-.07-.146a.304.304 0 0 0-.15.16l.15.06zm.06-.071c.025-.009.054-.006.092.012a.497.497 0 0 1 .116.083l.109-.12a.653.653 0 0 0-.156-.11.28.28 0 0 0-.212-.018l.052.153zm.208.096c.1.088.193.182.281.28l.12-.107a3.77 3.77 0 0 0-.293-.294l-.108.12zm.289.288c.033.029.06.064.076.105l.15-.062a.438.438 0 0 0-.12-.166l-.106.123zm.076.105c.016.04.023.084.02.128l.16.013a.438.438 0 0 0-.03-.203l-.15.062zm.023.11a.14.14 0 0 1-.048.07l.1.128a.303.303 0 0 0 .103-.15l-.155-.047zm-.048.07a.14.14 0 0 1-.08.03l.008.162a.302.302 0 0 0 .171-.064l-.1-.127zm-.078.03a.256.256 0 0 1-.101-.019l-.061.15a.42.42 0 0 0 .166.03l-.003-.161zm-.101-.019a.256.256 0 0 1-.087-.058l-.115.114a.42.42 0 0 0 .14.094l.062-.15zm-.087-.058a.638.638 0 0 1-.134-.199l-.148.064c.04.093.096.177.167.25l.115-.115z" fill="#000" mask="url(#qoupt37j8c)"/>
    <mask id="cc97g9aj8d" fill="#fff">
        <path d="M56.831 41.739c0-.018.128-.012.276.116.069.084.126.177.171.276.067.12.1.256.098.394a.842.842 0 0 1-.155.373.937.937 0 0 0-.138.575.384.384 0 0 1-.032-.297.886.886 0 0 1 .11-.31.845.845 0 0 0 .144-.344.762.762 0 0 0-.084-.36 1.409 1.409 0 0 0-.144-.271.726.726 0 0 0-.167-.124.746.746 0 0 0-.079-.029z"/>
    </mask>
    <path d="M56.831 41.739c0-.018.128-.012.276.116.069.084.126.177.171.276.067.12.1.256.098.394a.842.842 0 0 1-.155.373.937.937 0 0 0-.138.575.384.384 0 0 1-.032-.297.886.886 0 0 1 .11-.31.845.845 0 0 0 .144-.344.762.762 0 0 0-.084-.36 1.409 1.409 0 0 0-.144-.271.726.726 0 0 0-.167-.124.746.746 0 0 0-.079-.029z" fill="#EB996E"/>
    <path d="M56.831 41.739h-.08v.06l.057.017.023-.078zm.276.116.063-.052-.01-.01-.053.062zm.171.276-.074.033.003.006.071-.04zm.098.394.08.012v-.01l-.08-.002zm-.155.373-.066-.048-.003.006.069.042zm-.118.288-.08-.018.08.018zm-.02.287-.071.04.151-.046-.08.006zm-.032-.297.078.024.002-.012-.08-.012zm.11-.31-.066-.046-.003.006.07.04zm.144-.344.081.014v-.013l-.08-.001zm-.084-.36-.076.03.004.008.072-.038zm-.144-.271.067-.045-.005-.007-.005-.006-.057.058zm-.167-.124.039-.071-.007-.003-.032.074zm.002-.029a.077.077 0 0 1-.025.058.07.07 0 0 1-.025.014c-.008.003-.012.002-.01.002.005 0 .018.002.038.008.04.012.098.04.164.096l.106-.122a.626.626 0 0 0-.223-.13.302.302 0 0 0-.083-.013c-.011 0-.027 0-.042.005a.093.093 0 0 0-.033.02.085.085 0 0 0-.029.063h.162zm.132.168c.065.079.119.166.16.258l.148-.066a1.323 1.323 0 0 0-.182-.294l-.126.102zm.163.264c.06.108.09.23.088.353l.162.003a.857.857 0 0 0-.108-.434l-.142.078zm.089.343a.76.76 0 0 1-.14.337l.13.096a.923.923 0 0 0 .17-.41l-.16-.023zm-.144.343c-.06.096-.103.202-.128.312l.158.036a.855.855 0 0 1 .107-.263l-.137-.085zm-.128.312a1.06 1.06 0 0 0-.022.312l.161-.013a.899.899 0 0 1 .019-.264l-.158-.035zm.13.266a.303.303 0 0 1-.037-.115l-.16.017a.463.463 0 0 0 .055.177l.141-.079zm-.037-.115a.302.302 0 0 1 .011-.12l-.154-.047a.463.463 0 0 0-.018.184l.161-.017zm.014-.13a.807.807 0 0 1 .1-.281l-.14-.082a.965.965 0 0 0-.12.337l.16.026zm.097-.275a.928.928 0 0 0 .157-.378l-.16-.028a.764.764 0 0 1-.13.312l.133.094zm.158-.391a.843.843 0 0 0-.094-.398l-.143.075c.05.099.077.21.075.32l.162.003zm-.09-.39a1.484 1.484 0 0 0-.152-.288l-.134.091c.054.08.1.166.135.256l.15-.06zm-.162-.3a.811.811 0 0 0-.185-.137l-.077.142c.054.03.104.067.148.11l.114-.115zm-.192-.14a.848.848 0 0 0-.088-.032l-.046.155a.661.661 0 0 1 .07.026l.064-.15z" fill="#000" mask="url(#cc97g9aj8d)"/>
    <path d="m40.302 41.353-5.895-6.157 1.986-6.348 9.256 11.115-5.347 1.39z" fill="#C2CDE6" stroke="#000" stroke-width=".081"/>
    <mask id="fozjyntfye" fill="#fff">
        <path d="m36.374 28.764.046.053.137.16.529.63 1.97 2.35 6.694 8.006.037.045-.056.014-3.061.797-2.37.615h-.022l-.014-.016-5.925-6.186-.011-.013v-.016c.623-1.974 1.135-3.585 1.49-4.706.175-.555.314-.987.408-1.283l.107-.334.036-.11-1.985 6.45-.008-.029 5.932 6.18-.036-.01 2.37-.616 3.062-.796-.019.06-6.633-8.003-1.963-2.371-.53-.643-.143-.166-.042-.062z"/>
    </mask>
    <path d="m36.374 28.764.046.053.137.16.529.63 1.97 2.35 6.694 8.006.037.045-.056.014-3.061.797-2.37.615h-.022l-.014-.016-5.925-6.186-.011-.013v-.016c.623-1.974 1.135-3.585 1.49-4.706.175-.555.314-.987.408-1.283l.107-.334.036-.11-1.985 6.45-.008-.029 5.932 6.18-.036-.01 2.37-.616 3.062-.796-.019.06-6.633-8.003-1.963-2.371-.53-.643-.143-.166-.042-.062z" fill="#333"/>
    <path d="m36.374 28.764.062-.053-.129.098.067-.045zm.046.053.062-.052v-.001l-.062.053zm.137.16.062-.051-.062.052zm.529.63.062-.052-.062.052zm1.97 2.35.063-.052-.063.052zm6.694 8.006-.062.052.062-.052zm.037.045.02.078.125-.032-.083-.098-.062.052zm-.056.014-.02-.078.02.078zm-3.061.797.02.078-.02-.078zm-2.37.615v.08h.01l.01-.002-.02-.078zm-.022 0-.06.054.024.027h.036v-.081zm-.014-.016.06-.054-.002-.002-.058.056zm-5.925-6.186-.06.053.002.003.058-.056zm-.011-.013h-.081v.03l.02.023.06-.053zm0-.016-.078-.025-.003.012v.013h.08zm1.49-4.706.077.024-.077-.024zm.408-1.283.077.024-.077-.024zm.107-.334-.077-.025.077.025zm.036-.11.077.023-.155-.047.078.023zm-1.985 6.45-.079.02.07.281.086-.277-.077-.024zm-.008-.029.059-.056-.21-.219.073.295.078-.02zm5.932 6.18-.022.079.286.08-.205-.214-.059.056zm-.036-.01-.02-.077-.29.075.289.08.021-.077zm2.37-.616-.02-.078.02.078zm3.062-.796.077.024.043-.139-.14.037.02.078zm-.019.06-.062.052.096.115.044-.143-.078-.024zm-6.633-8.003-.062.052.062-.052zm-1.963-2.371-.063.051.063-.051zm-.53-.643.063-.051v-.002l-.062.053zm-.143-.166-.067.045.006.007.061-.052zm-.103-.01.046.054.123-.106-.046-.053-.123.106zm.046.053.136.161.124-.105-.137-.16-.123.104zm.136.16.529.63.124-.104-.53-.63-.123.105zm.529.63 1.97 2.35.124-.104-1.97-2.35-.124.104zm1.97 2.35 6.694 8.006.124-.104-6.694-8.006-.124.104zm6.694 8.006.037.045.124-.104-.037-.045-.124.104zm.08-.086-.057.015.04.157.056-.015-.04-.157zm-.057.015-3.061.796.04.157 3.062-.797-.041-.156zm-3.061.796-2.37.615.04.157 2.37-.615-.04-.157zm-2.35.613h-.022v.162h.022v-.162zm.038.026-.014-.015-.12.108.014.016.12-.109zm-.016-.017-5.925-6.186-.116.112 5.924 6.186.117-.112zM34.4 35.178l-.012-.013-.12.107.01.013.122-.107zm.008.04v-.015h-.161v.016h.161zm-.003.01c.623-1.974 1.135-3.585 1.49-4.707l-.154-.048c-.355 1.12-.867 2.732-1.49 4.706l.154.048zm1.49-4.707.408-1.283-.154-.05c-.095.297-.233.73-.408 1.285l.154.049zm.408-1.283.107-.333-.154-.05-.107.334.154.05zm.106-.332.028-.084.007-.021.001-.006v-.001l-.076-.025-.078-.023v.001l-.002.005-.006.02a6.713 6.713 0 0 1-.027.083l.153.05zm-.118-.16c-.069.225-.777 2.53-1.985 6.45l.155.048 1.985-6.45-.155-.048zM34.462 35.2l-.007-.028-.157.039.007.029.157-.04zm-.144.047 5.932 6.18.117-.111-5.932-6.18-.117.111zm6.012 6.047-.036-.01-.043.156.035.01.044-.156zm-.037.146 2.37-.616-.04-.157-2.37.617.04.156zm2.37-.616 3.061-.797-.04-.156-3.062.796.04.157zm2.964-.899-.019.06.155.048.018-.06-.154-.048zm.12.033-6.633-8.003-.124.103 6.633 8.003.125-.103zm-6.633-8.003-1.963-2.372-.125.103 1.964 2.372.124-.103zm-1.963-2.372-.529-.642-.125.103.53.642.124-.103zm-.53-.644-.144-.166-.122.105.144.167.122-.106zm-.138-.159-.042-.062-.134.09.042.063.134-.09z" fill="#000" mask="url(#fozjyntfye)"/>
    <path d="M38.997 33.738c.17.055.347.041.517.024l.048-.005c.155-.016.303-.032.446-.006.37.067.651.411.76.777.107.353.083.745.052 1.13l-1.872.024-2.337-2.672a.99.99 0 0 1 1.387-.251c.145.113.258.265.374.421l.083.111c.146.19.306.37.542.447z" fill="#E0E9FF" stroke="#000" stroke-width=".081"/>
    <path d="m33.317 34.175-.275-4.716L45.38 42.173l-4.965-.503-7.098-7.495z" fill="#C2CDE6" stroke="#000" stroke-width=".081"/>
    <mask id="ca63tgyalf" fill="#fff">
        <path d="m32.997 29.353.304 4.838v-.016c1.821 1.918 4.312 4.538 7.128 7.509l-.023-.012 3.905.394 1.185.12-.03.064a39499.092 39499.092 0 0 1-12.462-12.897l12.515 12.845.071.074-.102-.01-1.185-.121-3.904-.397h-.013l-.01-.008c-2.812-2.977-5.295-5.606-7.11-7.525v-.008a814.69 814.69 0 0 1-.27-4.85z"/>
    </mask>
    <path d="m32.997 29.353.304 4.838v-.016c1.821 1.918 4.312 4.538 7.128 7.509l-.023-.012 3.905.394 1.185.12-.03.064a39499.092 39499.092 0 0 1-12.462-12.897l12.515 12.845.071.074-.102-.01-1.185-.121-3.904-.397h-.013l-.01-.008c-2.812-2.977-5.295-5.606-7.11-7.525v-.008a814.69 814.69 0 0 1-.27-4.85z" fill="#333"/>
    <path d="m32.997 29.353.08-.005-.161.009.08-.004zm.304 4.838-.08.005.161-.005h-.08zm0-.016.059-.055-.14-.147v.202h.081zm7.128 7.509-.036.072.095-.128-.059.056zm-.023-.012.008-.08-.044.153.036-.073zm3.905.394.008-.08-.008.08zm1.185.12.073.036.049-.104-.114-.012-.008.08zm-.03.064-.059.056.081.084.05-.105-.073-.035zM33.003 29.353l.058-.056-.117.112.059-.056zm12.515 12.845-.058.057.058-.057zm.071.074-.008.08.222.022-.156-.159-.058.057zm-.102-.01-.008.08.008-.08zm-1.185-.121.008-.08-.008.08zm-3.904-.397.008-.08h-.008v.08zm-.013 0-.053.062.023.02h.03v-.082zm-.01-.008-.06.055.007.006.053-.061zm-7.11-7.525h-.081v.032l.022.024.058-.056zm0-.008h.08v-.005l-.08.005zm-.35-4.845c.011.188.115 1.844.305 4.838l.161-.01c-.19-2.994-.293-4.65-.305-4.838l-.161.01zm.466 4.833v-.016h-.162v.016h.162zm-.14.04c1.822 1.917 4.313 4.538 7.128 7.508l.118-.11c-2.816-2.972-5.307-5.592-7.128-7.51l-.117.112zm7.223 7.38-.023-.011-.072.145.023.011.072-.145zm-.067.142 3.905.394.016-.161-3.905-.394-.016.16zm3.905.394 1.184.12.017-.16-1.185-.121-.016.16zm1.12.005-.03.063.145.07.03-.063-.145-.07zm.1.042a41342.45 41342.45 0 0 1-12.46-12.897l-.118.112 12.462 12.897.117-.112zM32.947 29.409 45.46 42.255l.116-.113-12.515-12.845-.116.113zM45.46 42.255l.072.073.115-.113-.072-.073-.115.113zm.137-.064-.102-.01-.016.161.103.01.015-.16zm-.101-.01-1.186-.12-.017.16 1.186.121.017-.16zm-1.186-.12-3.904-.397-.016.16 3.903.397.017-.16zm-3.912-.398h-.013v.162h.013v-.162zm.04.02-.01-.009-.106.123.01.009.105-.123zm-.004-.003-7.11-7.524-.118.11c1.815 1.92 4.299 4.548 7.11 7.525l.118-.11zm-7.089-7.469v-.008h-.161v.008h.161zm0-.013a814.96 814.96 0 0 1-.269-4.849l-.161.008c.008.189.096 1.846.269 4.85l.161-.01z" fill="#000" mask="url(#ca63tgyalf)"/>
    <mask id="8mt64hiylg" fill="#fff">
        <path d="M37.884 34.468c-.385.445-.33 1.15 0 1.64s.873.787 1.422.998c.444.171.991.279 1.36-.023"/>
    </mask>
    <path d="M37.884 34.468c-.385.445-.33 1.15 0 1.64s.873.787 1.422.998c.444.171.991.279 1.36-.023" fill="#E0E9FF"/>
    <path d="m39.306 37.106.029-.075-.03.075zm-1.483-2.69c-.416.48-.349 1.227-.006 1.738l.134-.09c-.316-.47-.36-1.134-.006-1.542l-.122-.106zm-.006 1.738c.343.51.906.814 1.46 1.027l.058-.15c-.545-.21-1.069-.499-1.384-.968l-.134.09zm1.46 1.027c.226.088.483.16.733.172.252.01.502-.04.707-.208l-.103-.125c-.164.135-.37.181-.596.171a2.235 2.235 0 0 1-.683-.16l-.059.15z" fill="#000" mask="url(#8mt64hiylg)"/>
    <path d="M34.66 33.38c.143.087.21.232.263.378l.036.108c.037.113.073.221.133.314a.637.637 0 0 0 .869.169c.058-.041.111-.094.165-.15l.057-.063c.035-.037.07-.076.105-.11.111-.11.238-.207.407-.197m-2.034-.449-.522-.049a1.46 1.46 0 0 1-.483.05.325.325 0 0 1-.292-.285l-.002-.01-.005-.007-.084-.135-.206-3.434 4.13 4.277c.001.03-.015.058-.048.082a.205.205 0 0 1-.132.037c-.048-.004-.094-.02-.146-.036l-.005-.002a.652.652 0 0 0-.171-.04m-2.034-.448-.003-.001m.003.001-.003-.001m2.037.45-.003.04.002-.04zm-2.037-.45a.732.732 0 0 0-.52-.048l.52.048zM40.4 39.86l-.01.039c.126.034.251.02.372-.014a2.438 2.438 0 0 0 .356-.142c.235-.106.448-.195.653-.112.123.051.21.151.274.277.065.125.107.273.142.414.035.143.083.299.158.431.075.133.18.244.333.292.133.042.269.022.397-.002l.04-.007c.115-.022.224-.042.331-.028a.52.52 0 0 1 .43.57.443.443 0 0 1-.545.347l-.006-.001-2.895-.305-2.038-2.149a.62.62 0 0 1 .459-.474h.003a.803.803 0 0 1 .769.15c.098.085.177.194.258.306l.084.113c.111.146.238.283.425.334l.01-.04zm0 0c-.215-.059-.349-.242-.484-.43-.082-.112-.165-.227-.267-.315l3.041 1.892c-.279-.088-.393-.411-.464-.694-.07-.284-.17-.607-.44-.72-.23-.093-.467.015-.707.123-.225.102-.452.205-.678.144z" fill="#E0E9FF" stroke="#000" stroke-width=".081"/>
    <path d="m39.393 66.675.006.04.029-.005.005-.028.506-2.917 2.768.572-.972 4.497-5.612-1.183a.475.475 0 0 1 .15-.133c.097-.062.23-.123.389-.182a9.277 9.277 0 0 1 1.132-.32 23.087 23.087 0 0 1 1.57-.296l.026-.004.007-.001h.001l-.005-.04z" fill="#ACC0F0" stroke="#000" stroke-width=".081"/>
    <g opacity=".6">
        <mask id="zrjl5lsw4h" fill="#fff">
            <path d="M41.209 66.8a.237.237 0 0 1 .105.299.229.229 0 0 1-.296.106.25.25 0 0 1-.11-.318.237.237 0 0 1 .32-.076"/>
        </mask>
        <path d="M41.209 66.8a.237.237 0 0 1 .105.299.229.229 0 0 1-.296.106.25.25 0 0 1-.11-.318.237.237 0 0 1 .32-.076" fill="#fff"/>
        <path d="m41.314 67.099.072.036.002-.005-.074-.031zm-.296.106-.04.071.007.003.033-.074zm-.11-.318-.069-.044-.005.013.074.031zm.262-.016c.034.018.06.049.072.085l.153-.054a.319.319 0 0 0-.147-.173l-.078.142zm.072.085a.156.156 0 0 1-.003.112l.15.062a.318.318 0 0 0 .006-.228l-.153.054zm0 .106a.147.147 0 0 1-.082.073l.054.152a.31.31 0 0 0 .172-.152l-.145-.073zm-.082.073a.148.148 0 0 1-.11-.004l-.065.148a.31.31 0 0 0 .23.008l-.055-.152zm-.103 0a.168.168 0 0 1-.079-.094l-.153.053a.33.33 0 0 0 .154.182l.078-.142zm-.079-.094a.169.169 0 0 1 .005-.122l-.149-.063a.33.33 0 0 0-.009.238l.153-.053zm-.002-.11a.156.156 0 0 1 .096-.068l-.037-.157a.318.318 0 0 0-.195.138l.136.087zm.096-.068c.04-.01.08-.003.116.018l.082-.14a.318.318 0 0 0-.235-.035l.037.157z" fill="#000" mask="url(#zrjl5lsw4h)"/>
    </g>
    <path opacity=".6" d="m36.357 67.489 5.464.977-.086.371-5.62-1.18c.017-.052.065-.092.12-.122a.536.536 0 0 1 .119-.045l.003-.001z" fill="#fff" stroke="#000" stroke-width=".081"/>
    <path d="M39.586 66.786a.824.824 0 0 0-.14-.11.446.446 0 0 1 .26.26.944.944 0 0 0-.12-.15zM38.861 66.966a.697.697 0 0 0-.1-.146.38.38 0 0 1 .116.136c.036.07.047.135.047.184a.878.878 0 0 0-.063-.174zM38.18 67.113a.398.398 0 0 1 .005.162 1.045 1.045 0 0 0-.022-.157 1.06 1.06 0 0 0-.047-.15.398.398 0 0 1 .065.145zM39.808 65.986a1.136 1.136 0 0 0-.174-.032.5.5 0 0 1 .348.097 1.327 1.327 0 0 0-.174-.065z" fill="#333" stroke="#000" stroke-width=".081"/>
    <path opacity=".3" d="m42.49 65.346-2.73-.549.078-.445 2.738.603-.086.391z" fill="#000" stroke="#000" stroke-width=".081"/>
    <path d="M40.211 65.36a1.207 1.207 0 0 1-.104.019l.101-.023a1.78 1.78 0 0 0 .174-.055.393.393 0 0 0 .081-.04l.001.002.007-.008a.049.049 0 0 0 .01-.006.044.044 0 0 0 .015-.02.05.05 0 0 0 .002-.021.115.115 0 0 0-.005-.025c-.012-.036-.046-.05-.072-.057a.39.39 0 0 0-.092-.008c-.127.003-.251.025-.37.067a.965.965 0 0 1 .37-.085h.002a.33.33 0 0 1 .097.006.119.119 0 0 1 .08.065.084.084 0 0 1-.03.095.314.314 0 0 1-.089.043h-.002c-.057.021-.116.038-.176.051zM39.436 64.812a.701.701 0 0 0 .006.186.642.642 0 0 1-.016-.187.583.583 0 0 1 .038-.179.37.37 0 0 1 .047-.09.102.102 0 0 1 .093-.039.201.201 0 0 1 .122.15v.005a.931.931 0 0 1 .037.293.981.981 0 0 0-.052-.288.238.238 0 0 0-.043-.085.199.199 0 0 0-.056-.052.058.058 0 0 0-.056.001.11.11 0 0 0-.032.029.307.307 0 0 0-.045.082.674.674 0 0 0-.043.174z" fill="#333" stroke="#000" stroke-width=".081"/>
    <path d="m58.605 63.92-.001.002.01.008 1.495 1.03-2.018 3.885h-2.164a.981.981 0 0 1 .183-.236c.17-.165.475-.367 1.011-.505l.03-.008v-.03l.07-2.163.002-.017-.012-.012-1.914-2.103 2.036-1.512.04.052 1.232 1.61z" fill="#ACC0F0" stroke="#000" stroke-width=".081"/>
    <path opacity=".6" d="m57.956 68.484.023-.001.01-.02 1.867-3.682.257.176-2.018 3.885-2.145.003.193-.26 1.813-.1z" fill="#fff" stroke="#000" stroke-width=".081"/>
    <path d="M57.448 66.968a.49.49 0 0 1 .19.046.766.766 0 0 0-.39-.004.399.399 0 0 1 .2-.042zM57.458 66.345a.555.555 0 0 0-.186.076.392.392 0 0 1 .392-.077.56.56 0 0 0-.206 0zM57.394 65.636a.525.525 0 0 0-.16.092l.154-.11a.341.341 0 0 1 .195-.01.54.54 0 0 0-.19.028zM56.75 65.056a.41.41 0 0 1 .177-.069.703.703 0 0 0-.295.185.459.459 0 0 1 .118-.116zM56.448 64.616a3.984 3.984 0 0 1-.136.18l-.118-.395m.254.215.191-.27a.734.734 0 0 0 .104-.182m-.295.452-.033-.023m.033.023-.032-.023m.327-.43a.182.182 0 0 0-.013-.143m.013.144-.039-.013m.039.013-.038-.015v.001m.025-.13a.143.143 0 0 0-.137-.07m.137.07-.035.02m.035-.02-.036.02m-.1-.09a.412.412 0 0 0-.21.109.716.716 0 0 0-.144.155m.353-.264.008.04h-.002m-.006-.04.004.04h.002m-.36.224a.759.759 0 0 0-.117.326.414.414 0 0 0 .012.223c.002-.072.008-.144.017-.216v-.005a.825.825 0 0 1 .043-.141m.046-.187.034.022m-.034-.022.033.023m-.079.164a.76.76 0 0 1 .217-.302.412.412 0 0 1 .172-.094l.005-.001a.084.084 0 0 1 .084.042l.003.006c.01.03.01.062 0 .091l-.001.002a.838.838 0 0 1-.091.163l-.069.114-.103.172v.001a.974.974 0 0 0-.02.031l.024-.033m-.22-.192a.723.723 0 0 1 .078-.165m.142.357.191-.27.001-.001a.695.695 0 0 0 .098-.172m0 0a.142.142 0 0 0-.01-.11m0 0a.104.104 0 0 0-.096-.05m0 0a.372.372 0 0 0-.187.098l-.003.002a.678.678 0 0 0-.136.146M55.513 64.554a.225.225 0 0 0-.08.03l-.02.011v.01a.047.047 0 0 0-.003.03.085.085 0 0 0 .008.021h-.001l.007.009c.02.022.041.04.066.057a1.141 1.141 0 0 0 .305.157.956.956 0 0 1-.162-.058.851.851 0 0 1-.153-.087h-.001a.34.34 0 0 1-.071-.063.086.086 0 0 1-.018-.047.063.063 0 0 1 .018-.046.523.523 0 0 1 .515.031.597.597 0 0 0-.151-.056.627.627 0 0 0-.171-.013h-.002a.818.818 0 0 0-.086.014zm0 0 .007.04m-.007-.04h-.001l.008.04m0 0a.78.78 0 0 1 .083-.014m-.083.013a.18.18 0 0 0-.066.025c0 .002-.001.002-.002.003-.002.002-.005.003.002.017a1 1 0 0 0 .203.138l-.053-.196m0 0a.555.555 0 0 1 .403.135l-.404-.135zm-.174.007z" fill="#333" stroke="#000" stroke-width=".081"/>
    <path opacity=".6" d="M58.448 65.003a.227.227 0 1 1 .378-.252.227.227 0 0 1-.378.252z" fill="#fff" stroke="#000" stroke-width=".081"/>
    <path opacity=".3" d="m57.633 62.65-1.763 1.747-.375-.413 1.932-1.6.206.267z" fill="#000" stroke="#000" stroke-width=".081"/>
    <mask id="r8t8olbg2i" fill="#fff">
        <path d="M49.84 26.494a6.562 6.562 0 0 1 3.736-.17c.548.137 1.104.364 1.455.807.415.523.467 1.236.532 1.901.13 1.354.379 2.694.744 4.003.305 1.09.69 2.156.856 3.282.165 1.125.089 2.317-.482 3.294-.88 1.507-2.75 2.172-4.493 2.202-.917.014-1.857-.12-2.67-.545-.814-.425-1.491-1.168-1.69-2.064"/>
    </mask>
    <path d="M49.84 26.494a6.562 6.562 0 0 1 3.736-.17c.548.137 1.104.364 1.455.807.415.523.467 1.236.532 1.901.13 1.354.379 2.694.744 4.003.305 1.09.69 2.156.856 3.282.165 1.125.089 2.317-.482 3.294-.88 1.507-2.75 2.172-4.493 2.202-.917.014-1.857-.12-2.67-.545-.814-.425-1.491-1.168-1.69-2.064" fill="#ACC0F0"/>
    <path d="m53.577 26.325.019-.079-.02.079zm1.454.806-.063.05.063-.05zm.532 1.901.08-.007-.08.008zm.744 4.003-.078.022.078-.022zm.374 6.576.07.041-.07-.04zm-4.493 2.202.001.081-.001-.08zM49.866 26.57a6.48 6.48 0 0 1 3.691-.167l.039-.157a6.643 6.643 0 0 0-3.783.172l.053.152zm3.69-.167c.544.135 1.078.357 1.412.778l.126-.1c-.367-.465-.945-.697-1.498-.835l-.04.157zm1.412.778c.397.5.449 1.186.514 1.86l.161-.016c-.063-.658-.115-1.399-.549-1.944l-.126.1zm.514 1.86c.13 1.357.38 2.702.748 4.016l.155-.043a23.023 23.023 0 0 1-.742-3.99l-.16.016zm.748 4.016c.306 1.097.688 2.153.853 3.272l.16-.024c-.167-1.132-.555-2.21-.858-3.291l-.155.043zm.853 3.272c.163 1.115.086 2.286-.472 3.241l.14.082c.583-1 .658-2.212.492-3.347l-.16.024zm-.472 3.241c-.86 1.472-2.695 2.132-4.424 2.162l.002.162c1.758-.03 3.662-.701 4.562-2.242l-.14-.082zm-4.424 2.162c-.91.014-1.835-.118-2.632-.535l-.075.143c.83.434 1.785.568 2.71.554l-.003-.162zm-2.632-.535c-.798-.417-1.455-1.143-1.647-2.01l-.158.035c.204.924.9 1.684 1.73 2.118l.075-.143z" fill="#000" mask="url(#r8t8olbg2i)"/>
    <g opacity=".5">
        <mask id="pqk5vwhw4j" fill="#fff">
            <path d="M49.84 26.494a6.562 6.562 0 0 1 3.736-.17c.548.137 1.104.364 1.455.807.415.523.467 1.236.532 1.901.13 1.354.379 2.694.744 4.003.305 1.09.69 2.156.856 3.282.165 1.125.089 2.317-.482 3.294-.88 1.507-2.75 2.172-4.493 2.202-.917.014-1.857-.12-2.67-.545-.814-.425-1.491-1.168-1.69-2.064"/>
        </mask>
        <path d="M49.84 26.494a6.562 6.562 0 0 1 3.736-.17c.548.137 1.104.364 1.455.807.415.523.467 1.236.532 1.901.13 1.354.379 2.694.744 4.003.305 1.09.69 2.156.856 3.282.165 1.125.089 2.317-.482 3.294-.88 1.507-2.75 2.172-4.493 2.202-.917.014-1.857-.12-2.67-.545-.814-.425-1.491-1.168-1.69-2.064" fill="#000"/>
        <path d="m53.577 26.325.019-.079-.02.079zm1.454.806-.063.05.063-.05zm.532 1.901.08-.007-.08.008zm.744 4.003-.078.022.078-.022zm.374 6.576.07.041-.07-.04zm-4.493 2.202.001.081-.001-.08zM49.866 26.57a6.48 6.48 0 0 1 3.691-.167l.039-.157a6.643 6.643 0 0 0-3.783.172l.053.152zm3.69-.167c.544.135 1.078.357 1.412.778l.126-.1c-.367-.465-.945-.697-1.498-.835l-.04.157zm1.412.778c.397.5.449 1.186.514 1.86l.161-.016c-.063-.658-.115-1.399-.549-1.944l-.126.1zm.514 1.86c.13 1.357.38 2.702.748 4.016l.155-.043a23.023 23.023 0 0 1-.742-3.99l-.16.016zm.748 4.016c.306 1.097.688 2.153.853 3.272l.16-.024c-.167-1.132-.555-2.21-.858-3.291l-.155.043zm.853 3.272c.163 1.115.086 2.286-.472 3.241l.14.082c.583-1 .658-2.212.492-3.347l-.16.024zm-.472 3.241c-.86 1.472-2.695 2.132-4.424 2.162l.002.162c1.758-.03 3.662-.701 4.562-2.242l-.14-.082zm-4.424 2.162c-.91.014-1.835-.118-2.632-.535l-.075.143c.83.434 1.785.568 2.71.554l-.003-.162zm-2.632-.535c-.798-.417-1.455-1.143-1.647-2.01l-.158.035c.204.924.9 1.684 1.73 2.118l.075-.143z" fill="#000" mask="url(#pqk5vwhw4j)"/>
    </g>
    <path d="M54.335 30.73c.099.061.206.108.317.139a1.19 1.19 0 0 1-.324-.133 2.116 2.116 0 0 1-.705-.705 7.77 7.77 0 0 1-.462-.895 5.23 5.23 0 0 0-.217-.436c.082.139.157.282.225.428.139.306.294.604.467.891.175.288.414.531.698.71zM53.93 30.8c.029.285.066.67.11 1.133m-.11-1.132.708 8.04m-.707-8.04c.036.273.083.659.137 1.13l-.028.002m-.11-1.132.138 1.13-.028.002m0 0c.096.996.224 2.372.343 3.892.12 1.521.209 2.9.269 3.897m0 0c.03.474.053.865.07 1.153a26.698 26.698 0 0 0-.032-.928l-.01-.226h-.028zm0 0 .029-.002c-.012-.268-.027-.563-.043-.88m0 0a205.509 205.509 0 0 0-.47-5.993c.087.857.183 1.878.27 2.974.088 1.115.154 2.15.2 3.02zM55.62 35.115c.192-.024.374-.048.535-.07a11.949 11.949 0 0 1-1.139.14c.178-.02.385-.043.605-.07zM55.073 35.905a.591.591 0 0 0-.013-.145c.015.051.022.104.02.157a.151.151 0 0 1-.033.086l.032.025-.032-.026a.103.103 0 0 1-.084.039h-.001a.168.168 0 0 1-.15-.1.355.355 0 0 1-.028-.169v-.001c.002-.052.006-.103.011-.154v.025c0 .04 0 .08-.003.12a.354.354 0 0 0 .032.168c.026.051.072.094.14.094.03 0 .059-.012.08-.035a.125.125 0 0 0 .03-.084zm0 0h-.04.04z" fill="#E0E0E0" stroke="#000" stroke-width=".081"/>
    <path d="m54.425 26.3-5.775.674a1.338 1.338 0 0 1-1.484-1.174l-.125-1.072a1.338 1.338 0 0 1 1.173-1.484l5.775-.674a1.338 1.338 0 0 1 1.484 1.174l.125 1.072a1.338 1.338 0 0 1-1.173 1.484z" fill="#65696B" stroke="#000" stroke-width=".081"/>
    <path d="m52.512 23.515.001-.002.007-.014a.495.495 0 0 0-.008.016z" fill="#333" stroke="#000" stroke-width=".081"/>
    <mask id="bcxbkgeurk" fill="#fff">
        <path d="m50.587 22.914.891-.088a1.037 1.037 0 0 0-.575.44 1.74 1.74 0 0 0-.244.689c-.16 1.024.385 2.125 1.26 2.68l-.718.095s-2.056-1.835-.62-3.816"/>
    </mask>
    <path d="m50.587 22.914.891-.088a1.037 1.037 0 0 0-.575.44 1.74 1.74 0 0 0-.244.689c-.16 1.024.385 2.125 1.26 2.68l-.718.095s-2.056-1.835-.62-3.816" fill="#333"/>
    <path d="m51.478 22.826.024.078-.032-.158.008.08zm-.575.44-.068-.043.068.043zm-.244.689.08.012v-.002l-.08-.01zm1.26 2.68.011.08.221-.029-.188-.12-.044.07zm-.718.095-.054.06.028.025.036-.005-.01-.08zm-.606-3.736.891-.087-.016-.161-.89.087.015.161zm.86-.245a1.12 1.12 0 0 0-.62.474l.137.086a.957.957 0 0 1 .53-.405l-.047-.155zm-.62.475c-.136.219-.223.465-.256.72l.16.02c.03-.232.11-.456.233-.656l-.138-.084zm-.256.718c-.165 1.06.397 2.19 1.297 2.761l.087-.136c-.85-.54-1.378-1.61-1.224-2.6l-.16-.025zm1.33 2.613-.719.095.021.16.719-.095-.021-.16zm-.708.175.054-.06-.002-.001a3.931 3.931 0 0 1-.828-1.139c-.325-.688-.474-1.61.222-2.569l-.131-.095c-.74 1.021-.58 2.009-.237 2.733a4.1 4.1 0 0 0 .861 1.185l.005.005h.001v.001l.055-.06z" fill="#000" mask="url(#bcxbkgeurk)"/>
    <mask id="bfk5qc1rjl" fill="#fff">
        <path d="M49.578 24.8a1.527 1.527 0 0 0 1.933-1.508c-.01-.442-.211-.893-.073-1.314.095-.288.336-.515.418-.806.121-.439-.143-.88-.395-1.257a2.908 2.908 0 0 0-.553-.67.998.998 0 0 0-.811-.24"/>
    </mask>
    <path d="M49.578 24.8a1.527 1.527 0 0 0 1.933-1.508c-.01-.442-.211-.893-.073-1.314.095-.288.336-.515.418-.806.121-.439-.143-.88-.395-1.257a2.908 2.908 0 0 0-.553-.67.998.998 0 0 0-.811-.24" fill="#333"/>
    <path d="m51.511 23.292-.08.002.08-.002zm-.073-1.314-.077-.025.077.025zm.418-.806.078.021-.078-.021zm-.395-1.257-.07.042.003.003.067-.045zm-.553-.67.054-.061-.054.06zm-1.352 5.632c.242.067.497.077.743.028l-.032-.159c-.221.044-.45.036-.667-.024l-.044.155zm.743.028c.246-.05.477-.155.675-.31l-.1-.127a1.445 1.445 0 0 1-.607.278l.032.159zm.675-.31c.198-.154.357-.352.464-.579l-.146-.07c-.097.205-.24.383-.418.522l.1.128zm.464-.579c.107-.227.16-.475.154-.726l-.161.004c.005.225-.043.449-.14.653l.147.07zm.154-.726c-.005-.228-.06-.463-.093-.675-.034-.218-.047-.42.016-.612l-.154-.05c-.075.23-.056.463-.022.687.036.23.087.44.092.654l.161-.004zm-.077-1.287c.044-.132.121-.252.205-.383.082-.128.17-.267.214-.427l-.156-.043a1.468 1.468 0 0 1-.194.383c-.081.127-.172.264-.223.42l.154.05zm.42-.81c.066-.242.025-.48-.061-.702a3.319 3.319 0 0 0-.346-.62l-.134.09c.125.187.25.385.329.589.079.202.11.403.055.6l.156.043zm-.405-1.32a2.989 2.989 0 0 0-.568-.689l-.108.12c.21.19.392.41.538.653l.138-.083zm-.569-.69a1.077 1.077 0 0 0-.409-.227l-.046.155a.913.913 0 0 1 .348.194l.107-.121zm-.409-.227a1.076 1.076 0 0 0-.467-.032l.024.16a.914.914 0 0 1 .397.027l.046-.155z" fill="#000" mask="url(#bfk5qc1rjl)"/>
    <mask id="zivqz4k4um" fill="#fff">
        <path d="M45.496 19.043c.024.333-.195.632-.418.883-.223.25-.469.513-.518.843-.085.588.49 1.133.373 1.715-.065.312-.32.562-.365.877-.046.314.119.603.322.835.202.231.448.431.628.675.17.277.315.568.43.871.117.306.328.566.603.742.431.233 1.03.124 1.357.484.328.361.707.403 1.098.666"/>
    </mask>
    <path d="M45.496 19.043c.024.333-.195.632-.418.883-.223.25-.469.513-.518.843-.085.588.49 1.133.373 1.715-.065.312-.32.562-.365.877-.046.314.119.603.322.835.202.231.448.431.628.675.17.277.315.568.43.871.117.306.328.566.603.742.431.233 1.03.124 1.357.484.328.361.707.403 1.098.666" fill="#333"/>
    <path d="m44.56 20.77-.08-.013.08.012zm.373 1.714.079.016-.08-.016zm.585 2.387.069-.042-.004-.006-.065.048zm.43.871.076-.028-.075.028zm.603.742-.044.068.006.003.038-.071zm-1.136-7.435c.022.296-.174.571-.398.823l.121.107c.222-.249.466-.571.439-.942l-.162.012zm-.398.823c-.217.244-.484.526-.537.885l.16.024c.045-.302.27-.546.498-.802l-.12-.107zm-.537.886c-.046.32.088.625.204.902.12.287.223.545.17.808l.158.032c.065-.32-.062-.624-.178-.903-.121-.288-.232-.549-.194-.816l-.16-.023zm.373 1.71c-.029.141-.102.27-.18.414-.078.14-.16.293-.186.467l.16.023c.021-.14.089-.27.167-.412.076-.138.163-.29.198-.46l-.159-.032zm-.366.881c-.05.35.134.663.342.9l.121-.107c-.198-.225-.343-.49-.303-.77l-.16-.023zm.342.9c.103.118.218.23.326.337.109.109.212.216.297.333l.13-.096a3.134 3.134 0 0 0-.313-.351c-.11-.112-.22-.216-.319-.33l-.121.107zm.62.665c.168.272.31.559.424.857l.151-.058a5.277 5.277 0 0 0-.438-.884l-.137.085zm.424.857c.122.322.345.595.634.781l.088-.136a1.443 1.443 0 0 1-.57-.702l-.152.057zm.64.784c.23.124.505.157.74.203.244.047.45.106.595.265l.12-.109c-.184-.202-.44-.268-.685-.315-.253-.049-.492-.077-.694-.186l-.076.142zm1.335.468c.174.191.362.297.55.388.19.091.374.163.563.29l.09-.134c-.202-.136-.404-.217-.583-.302a1.51 1.51 0 0 1-.5-.351l-.12.109z" fill="#000" mask="url(#zivqz4k4um)"/>
    <mask id="sqdp9ck79n" fill="#fff">
        <path d="M50.637 19.553c.009-.302-.271-.536-.553-.646-.282-.111-.597-.154-.848-.324-.223-.144-.372-.382-.56-.575a1.868 1.868 0 0 0-3.138.855c-.108.432-.035.942.306 1.23.395.331.98.258 1.486.154.506-.103 1.078-.205 1.5.093.255.178.4.47.557.74.157.27.35.545.645.645.295.1.695-.073.706-.384"/>
    </mask>
    <path d="M50.637 19.553c.009-.302-.271-.536-.553-.646-.282-.111-.597-.154-.848-.324-.223-.144-.372-.382-.56-.575a1.868 1.868 0 0 0-3.138.855c-.108.432-.035.942.306 1.23.395.331.98.258 1.486.154.506-.103 1.078-.205 1.5.093.255.178.4.47.557.74.157.27.35.545.645.645.295.1.695-.073.706-.384" fill="#333"/>
    <path d="m49.236 18.583.045-.067h-.001l-.044.067zm-.56-.575.057-.056-.058.056zm-3.138.855-.079-.02.079.02zm.306 1.23-.052.061.052-.062zm2.987.247-.047.066.047-.066zm1.887-.784a.632.632 0 0 0-.19-.453 1.164 1.164 0 0 0-.414-.272l-.06.15c.133.053.262.133.357.233.094.1.15.213.146.337l.161.005zm-.604-.725c-.145-.056-.301-.097-.441-.141a1.49 1.49 0 0 1-.392-.174l-.09.134c.136.092.286.148.433.194.151.048.293.084.43.138l.06-.15zm-.834-.316a1.346 1.346 0 0 1-.276-.254c-.085-.097-.175-.211-.27-.31l-.116.114c.092.094.171.196.264.302.09.103.189.206.31.284l.088-.136zm-.547-.564a1.95 1.95 0 0 0-.88-.51l-.042.156c.306.082.584.243.807.468l.115-.114zm-.88-.51a1.95 1.95 0 0 0-1.017.002l.043.156c.305-.083.627-.084.932-.002l.042-.156zm-1.017.002a1.95 1.95 0 0 0-.877.514l.115.114c.222-.226.5-.389.805-.472l-.043-.156zm-.877.514a1.95 1.95 0 0 0-.5.886l.157.04a1.79 1.79 0 0 1 .458-.812l-.115-.114zm-.5.887c-.112.448-.04.995.333 1.31l.104-.123c-.308-.26-.383-.734-.28-1.148l-.157-.04zm.333 1.31c.216.182.48.25.75.26.27.01.55-.035.804-.087l-.032-.159a3.27 3.27 0 0 1-.765.084c-.248-.01-.474-.071-.653-.222l-.104.124zm1.554.173c.254-.052.516-.102.766-.103.25-.001.48.046.672.182l.093-.133c-.23-.161-.497-.212-.766-.21a4.156 4.156 0 0 0-.797.105l.032.159zm1.438.079c.236.165.372.436.533.714l.14-.08c-.152-.263-.307-.576-.58-.767l-.093.133zm.533.714c.157.27.363.57.69.682l.051-.153c-.263-.09-.444-.34-.601-.61l-.14.081zm.69.682c.17.058.365.036.52-.042.157-.08.285-.223.292-.416l-.162-.006c-.004.118-.082.216-.202.277a.53.53 0 0 1-.397.034l-.052.153z" fill="#000" mask="url(#sqdp9ck79n)"/>
    <path d="m49.427 19.656-2.686-.687c-.41-.042-.756.188-1.01.542a2.53 2.53 0 0 0-.436 1.254c-.063.96-.102 2.13.01 2.844.11.71.437 1.11.734 1.33a1.58 1.58 0 0 0 .518.255.514.514 0 0 0 .033.007h.006-.002a.04.04 0 0 0-.038.034l.004.001c.039-.031.076.005.076.006m2.791-5.586.12 7.32v.002c-.007.382-.29.688-.69.897a2.874 2.874 0 0 1-1.33.306c-.432-.01-.64-.12-.747-.308a.959.959 0 0 1-.103-.363 5.006 5.006 0 0 1-.024-.508 188.654 188.654 0 0 1-.017-1.669V25.243m2.791-5.587h.006a.464.464 0 0 1 .415.474l-.421-.474zm-2.791 5.586z" fill="#FFBE9D" stroke="#000" stroke-width=".081"/>
    <path d="M45.528 21.586a.177.177 0 0 1 .19-.167.184.184 0 0 1 .176.187m-.366-.02h.04v.001m-.04-.001.04.002m-.04-.002.178.187a.176.176 0 0 0 .171-.1.177.177 0 0 0 .017-.067m0 0-.04-.002m.04.002h-.04v-.002m0 0a.143.143 0 0 0-.138-.145h-.001a.135.135 0 0 0-.1.034.137.137 0 0 0-.047.094m.286.017a.136.136 0 0 1-.145.128h-.002a.144.144 0 0 1-.139-.145M45.609 21.305a.452.452 0 0 1 .263-.084c.094 0 .186.03.264.083h-.527zm0 0a.746.746 0 0 1 .26-.05.823.823 0 0 1 .273.054l-.533-.004zM47.508 21.636l.04.003v-.002l-.04-.001zm.327.02.04.002-.04-.003v.001zM47.563 21.347a.456.456 0 0 1 .528-.001l.024-.034m-.552.035-.023-.033c-.065.046-.088.09-.076.1.009.01.036 0 .078-.016a.763.763 0 0 1 .284-.061c.12 0 .218.036.284.06.044.016.072.026.081.016.022-.024-.011-.055-.076-.1m-.552.034h.002a.746.746 0 0 1 .261-.05c.107 0 .197.027.263.05l.008.002m-.534-.002.534.002m.018-.037-.023.034a.11.11 0 0 1 .005.003m.018-.037-.018.037M46.332 22.856c.024.01.053.013.08.013h.002c.07.005.139.015.207.03l-.289-.043z" fill="#333" stroke="#000" stroke-width=".081"/>
    <path d="m46.652 25.546-.014-.263a3.712 3.712 0 0 0 1.77-.431l-.01.014a1.619 1.619 0 0 1-.313.315c-.287.218-.745.423-1.433.365z" fill="#EB996E" stroke="#000" stroke-width=".081"/>
    <path d="M46.821 23.368a.361.361 0 0 1 .447-.094.33.33 0 0 1 .1.084.207.207 0 0 1 .015.237.24.24 0 0 1-.26.065.744.744 0 0 1-.255-.152.197.197 0 0 1-.056-.06.062.062 0 0 1 0-.073" fill="#EB996E"/>
    <path d="M47.323 23.027c-.032 0-.033.214-.219.367-.185.152-.415.13-.416.16-.002.03.051.041.143.044a.53.53 0 0 0 .348-.12.463.463 0 0 0 .17-.308c.013-.09-.017-.144-.026-.143z" fill="#333"/>
    <path d="M47.844 20.963c.113.012.221.05.317.111a.3.3 0 0 1 .075.071h-.009a.571.571 0 0 1-.092-.01l-.08-.014c-.066-.012-.143-.027-.225-.037-.09-.011-.176-.014-.247-.017a5.44 5.44 0 0 1-.061-.003.616.616 0 0 1-.093-.01h-.007l.003-.004a.362.362 0 0 1 .085-.05.73.73 0 0 1 .334-.037zM45.919 20.758c-.065 0-.126.006-.177.012l-.044.004a.378.378 0 0 1-.079 0l.003-.006a.158.158 0 0 1 .046-.05.447.447 0 0 1 .497-.014.171.171 0 0 1 .05.05l.002.006a.07.07 0 0 1-.012.004c-.016.003-.038.003-.067.003a2.4 2.4 0 0 1-.1-.005 2.095 2.095 0 0 0-.12-.004z" fill="#333" stroke="#000" stroke-width=".081"/>
    <path d="M50.444 24.358a1.28 1.28 0 0 1-1.524-1.415c.046-.354.236-.72.113-1.05-.162-.442-.783-.575-.948-1.02-.095-.257-.009-.558-.118-.81-.11-.25-.35-.373-.594-.46a2.46 2.46 0 0 1-.705-.307c-.204-.158-.33-.457-.2-.678 1.077.128 2.134.385 3.15.764.235.088.482.194.621.403.14.208.144.507.128.773l-.18 3.88" fill="#333"/>
    <mask id="1en89x573o" fill="#fff">
        <path d="M51.219 25.557a.923.923 0 0 0-.075-.36 1.174 1.174 0 0 0-.246-.351 1.94 1.94 0 0 0-.465-.33c-.189-.102-.406-.195-.627-.321a1.583 1.583 0 0 1-.596-.555.874.874 0 0 1-.121-.431c.006-.155.028-.308.065-.458.04-.147.05-.3.03-.452a.516.516 0 0 0-.266-.351c-.144-.08-.288-.13-.439-.2a.781.781 0 0 1-.372-.315.98.98 0 0 1-.11-.455v-.431a1.197 1.197 0 0 0-.057-.399.628.628 0 0 0-.218-.294 1.765 1.765 0 0 0-.64-.252 1.621 1.621 0 0 1-.543-.215.654.654 0 0 1-.26-.358.453.453 0 0 1 0-.28.274.274 0 0 1 .049-.082s-.016.03-.035.089a.445.445 0 0 0 .009.265.634.634 0 0 0 .254.331c.165.097.346.165.534.2.235.04.46.125.663.251a.696.696 0 0 1 .243.322c.045.136.067.278.065.42v.431a.93.93 0 0 0 .1.423c.08.13.2.23.341.287.144.068.298.117.446.203.074.044.14.1.195.167a.552.552 0 0 1 .105.233c.022.161.011.325-.031.482a2.214 2.214 0 0 0-.065.442c0 .14.038.278.11.4.14.224.335.409.567.535.216.127.431.223.621.33.173.09.332.207.47.346.104.106.187.232.243.37a.762.762 0 0 1 .056.346c.003.008.001.017 0 .017z"/>
    </mask>
    <path d="M51.219 25.557a.923.923 0 0 0-.075-.36 1.174 1.174 0 0 0-.246-.351 1.94 1.94 0 0 0-.465-.33c-.189-.102-.406-.195-.627-.321a1.583 1.583 0 0 1-.596-.555.874.874 0 0 1-.121-.431c.006-.155.028-.308.065-.458.04-.147.05-.3.03-.452a.516.516 0 0 0-.266-.351c-.144-.08-.288-.13-.439-.2a.781.781 0 0 1-.372-.315.98.98 0 0 1-.11-.455v-.431a1.197 1.197 0 0 0-.057-.399.628.628 0 0 0-.218-.294 1.765 1.765 0 0 0-.64-.252 1.621 1.621 0 0 1-.543-.215.654.654 0 0 1-.26-.358.453.453 0 0 1 0-.28.274.274 0 0 1 .049-.082s-.016.03-.035.089a.445.445 0 0 0 .009.265.634.634 0 0 0 .254.331c.165.097.346.165.534.2.235.04.46.125.663.251a.696.696 0 0 1 .243.322c.045.136.067.278.065.42v.431a.93.93 0 0 0 .1.423c.08.13.2.23.341.287.144.068.298.117.446.203.074.044.14.1.195.167a.552.552 0 0 1 .105.233c.022.161.011.325-.031.482a2.214 2.214 0 0 0-.065.442c0 .14.038.278.11.4.14.224.335.409.567.535.216.127.431.223.621.33.173.09.332.207.47.346.104.106.187.232.243.37a.762.762 0 0 1 .056.346c.003.008.001.017 0 .017z" fill="#333"/>
    <path d="M51.219 25.557h-.081v.08h.08v-.08zm-.075-.36.075-.031-.001-.002-.074.034zm-.246-.351.057-.058-.057.058zm-.465-.33-.039.072h.002l.037-.072zm-.627-.321.04-.07-.002-.002-.038.072zm-.596-.555-.07.04.001.003.069-.043zm-.121-.431-.081-.004v.005l.08-.002zm.065-.458-.079-.02v.001l.078.02zm.03-.452.08-.011-.001-.006-.08.017zm-.266-.351-.04.07.002.002.038-.072zm-.439-.2.034-.074h-.003l-.03.074zm-.372-.315-.072.038.003.005.07-.043zm-.11-.455h.082-.081zm0-.431-.08-.003v.003h.08zm-.057-.399.077-.024v-.003l-.077.027zm-.218-.294.048-.065-.004-.003-.044.068zm-.64-.252-.016.08h.002l.014-.08zm-.543-.215-.046.066.003.002.043-.068zm-.26-.358.077-.023v-.002l-.077.025zm0-.28-.076-.027-.001.003.077.025zm.049-.082.071.037-.133-.09.062.052zm-.035.089-.077-.025v.003l.077.022zm.009.265.077-.025v-.001l-.077.026zm.254.331-.044.068.003.002.041-.07zm.534.2-.015.08h.001l.014-.08zm.663.251.048-.065-.005-.003-.042.068zm.243.322.077-.025v-.003l-.077.028zm.065.42h-.08.08zm0 .431h.081-.08zm.1.423-.072.037.004.005.069-.042zm.341.287.035-.073-.004-.002-.03.075zm.446.203.041-.07-.041.07zm.195.167.065-.05-.002-.002-.063.052zm.105.233.08-.011v-.005l-.08.016zm-.031.482-.078-.02.078.02zm-.065.442-.08-.004v.004h.08zm.11.4-.07.04v.002l.07-.043zm.567.535.041-.07h-.002l-.039.07zm.621.33-.04.07.002.001.038-.071zm.47.346.058-.057-.058.057zm.243.37.075-.031-.075.03zm.056.273-.081.001v.005l.08-.006zm0 .073-.08-.006-.002.016.005.015.077-.025zm.08.017c0-.135-.027-.268-.08-.391l-.15.064a.84.84 0 0 1 .069.328l.162-.001zm-.081-.393a1.257 1.257 0 0 0-.263-.376l-.113.115c.095.095.173.206.229.328l.147-.067zm-.264-.377a2.025 2.025 0 0 0-.485-.343l-.073.145c.164.082.314.189.447.315l.111-.117zm-.483-.342c-.096-.052-.199-.102-.303-.153a5.758 5.758 0 0 1-.322-.168l-.08.14c.113.065.224.121.33.173.107.053.206.1.298.15l.077-.142zm-.627-.322a1.5 1.5 0 0 1-.566-.526l-.137.086c.154.245.37.447.627.583l.076-.143zm-.565-.524a.791.791 0 0 1-.11-.392l-.161.002a.954.954 0 0 0 .132.472l.14-.082zm-.11-.387c.007-.149.028-.297.063-.441l-.157-.039c-.038.155-.06.314-.067.473l.162.007zm.063-.44a1.23 1.23 0 0 0 .032-.484l-.16.021c.018.141.009.284-.029.421l.156.043zm.03-.49a.596.596 0 0 0-.107-.238l-.13.098c.04.051.066.11.08.173l.158-.033zm-.107-.238a.597.597 0 0 0-.2-.168l-.075.144c.057.03.107.071.146.122l.129-.098zm-.198-.167c-.147-.082-.302-.138-.444-.202l-.067.147c.16.073.292.118.432.197l.08-.142zm-.447-.204a.701.701 0 0 1-.334-.282l-.138.085c.097.156.24.278.411.347l.06-.15zm-.331-.277a.9.9 0 0 1-.1-.418h-.162c-.001.17.04.34.118.492l.144-.074zm-.1-.418V20.547h-.162V20.978h.162zm0-.43a1.28 1.28 0 0 0-.062-.424l-.154.05c.04.12.057.245.054.37l.162.005zm-.062-.427a.71.71 0 0 0-.247-.332l-.096.13a.547.547 0 0 1 .19.256l.153-.054zm-.251-.335c-.204-.131-.431-.22-.67-.263l-.028.159c.217.039.425.12.61.24l.088-.136zm-.668-.263a1.54 1.54 0 0 1-.516-.205l-.086.137a1.7 1.7 0 0 0 .57.227l.032-.16zm-.514-.203a.573.573 0 0 1-.228-.314l-.155.045a.734.734 0 0 0 .292.402l.091-.133zm-.228-.316a.372.372 0 0 1 0-.23l-.154-.049a.533.533 0 0 0 0 .329l.154-.05zm-.001-.226a.194.194 0 0 1 .034-.059l-.123-.105a.356.356 0 0 0-.063.108l.152.056zm-.027-.111-.072-.038v.001l-.001.002a.568.568 0 0 0-.039.1l.154.048a.696.696 0 0 1 .022-.06l.006-.013.001-.003-.071-.038zm-.113.067a.526.526 0 0 0 .01.314l.153-.053a.365.365 0 0 1-.007-.218l-.156-.043zm.01.313c.05.153.152.284.287.373l.088-.136a.552.552 0 0 1-.221-.288l-.154.051zm.29.375c.173.102.362.173.56.21l.03-.16a1.566 1.566 0 0 1-.508-.19l-.082.14zm.561.21c.225.037.441.119.635.24l.085-.137a1.897 1.897 0 0 0-.693-.263l-.027.16zm.63.237c.098.071.173.17.214.284l.152-.055a.777.777 0 0 0-.27-.36l-.096.13zm.214.282c.041.127.062.26.06.393l.162.002a1.376 1.376 0 0 0-.069-.446l-.153.05zm.06.394v.431h.162v-.43h-.162zm0 .431c0 .16.037.317.11.46l.144-.074a.849.849 0 0 1-.092-.385h-.162zm.113.465a.8.8 0 0 0 .379.32l.06-.15a.638.638 0 0 1-.301-.255l-.138.085zm.375.319c.074.034.152.065.224.095.074.031.146.063.215.104l.082-.14a1.976 1.976 0 0 0-.234-.113c-.078-.032-.148-.06-.218-.093l-.069.146zm.439.199c.066.039.125.089.174.148l.125-.103a.825.825 0 0 0-.217-.185l-.082.14zm.172.146a.47.47 0 0 1 .09.199l.159-.03a.634.634 0 0 0-.12-.268l-.129.1zm.09.194c.02.151.01.305-.03.451l.156.043c.045-.168.057-.343.033-.515l-.16.021zm-.03.453c-.038.15-.06.303-.068.457l.162.007a2.12 2.12 0 0 1 .062-.425l-.157-.04zm-.068.461c0 .155.042.307.12.44l.14-.081a.717.717 0 0 1-.098-.36l-.162.001zm.122.442c.147.237.353.431.597.564l.078-.142a1.451 1.451 0 0 1-.538-.507l-.137.085zm.595.563c.11.065.22.121.325.175.105.053.204.103.297.155l.08-.14c-.097-.055-.2-.107-.304-.16a5.892 5.892 0 0 1-.316-.17l-.082.14zm.624.331c.167.087.318.2.45.332l.115-.114a1.997 1.997 0 0 0-.49-.361l-.075.143zm.45.332c.097.098.174.215.226.343l.15-.061a1.228 1.228 0 0 0-.26-.396l-.116.114zm.226.343c.032.078.048.16.05.244l.162-.003a.842.842 0 0 0-.062-.302l-.15.06zm.05.248c.002.02.002.041 0 .062l.162.012a.58.58 0 0 0 0-.086l-.162.012zm.004.093a.048.048 0 0 1-.002-.018c0-.002 0-.008.003-.015 0-.003.003-.012.01-.02a.08.08 0 0 1 .066-.036v.162a.081.081 0 0 0 .078-.059.114.114 0 0 0-.002-.065l-.153.051z" fill="#000" mask="url(#1en89x573o)"/>
    <path d="M44.813 22.375c.057-.166.078-.342.062-.516l-.062.516z" fill="#333" stroke="#000" stroke-width=".081"/>
    <path d="m51.212 19.675-.005.004c.001-.002.002-.003.005-.003zm0 0 .005.04a.033.033 0 0 0 .015-.005.105.105 0 0 0-.02-.035zm-2.161.216h-.002a.791.791 0 0 1-.565-.204l-.023.021.022-.023-.002-.001-.002-.002a1.709 1.709 0 0 1-.33-.51l.902.72zm0 0-.562-.211a.788.788 0 0 0 .56.204l-.001-.033.001.033h.001v.007m0 0 .002.033-.001-.033m0 0 .568-.07a3.463 3.463 0 0 1-.568.07" fill="#65696B" stroke="#000" stroke-width=".081"/>
    <mask id="2apove7jcp" fill="#fff">
        <path d="M50.397 19.26a1.058 1.058 0 0 1 .052-2.073.639.639 0 0 1 .633.199c.132.18.123.448.287.595.164.146.457.089.69.143a.783.783 0 0 1 .563.843 1.06 1.06 0 0 1-.665.822c-.35.128-.734.135-1.09.02a4.005 4.005 0 0 1-.994-.483"/>
    </mask>
    <path d="M50.397 19.26a1.058 1.058 0 0 1 .052-2.073.639.639 0 0 1 .633.199c.132.18.123.448.287.595.164.146.457.089.69.143a.783.783 0 0 1 .563.843 1.06 1.06 0 0 1-.665.822c-.35.128-.734.135-1.09.02a4.005 4.005 0 0 1-.994-.483" fill="#333"/>
    <path d="m50.45 17.187.013.08.005-.001-.019-.079zm.631.199.066-.048-.005-.006-.06.054zm.978.739.022-.078-.004-.001-.018.079zm.563.842.08.013v-.004l-.08-.01zm-.665.822.028.076h.001l-.03-.076zm-1.09.02-.025.077.025-.077zm-.452-.628a.977.977 0 0 1-.553-.353l-.128.1c.161.207.39.352.645.41l.036-.157zm-.553-.353a.976.976 0 0 1-.205-.623l-.161-.004c-.007.262.078.519.238.726l.128-.099zm-.205-.623a.977.977 0 0 1 .236-.613l-.123-.105c-.17.199-.268.451-.274.714l.161.004zm.236-.613a.978.978 0 0 1 .57-.325l-.028-.16c-.259.047-.493.18-.665.38l.123.105zm.575-.326a.56.56 0 0 1 .3.01l.05-.155a.721.721 0 0 0-.388-.012l.038.157zm.3.01a.56.56 0 0 1 .253.163l.121-.107a.72.72 0 0 0-.325-.21l-.048.153zm.248.158c.057.076.084.172.12.287a.695.695 0 0 0 .179.32l.108-.12c-.064-.058-.098-.141-.133-.25-.032-.102-.068-.23-.143-.333l-.13.096zm.299.607c.103.093.242.116.366.127.134.012.25.01.36.035l.036-.157c-.123-.03-.27-.03-.382-.04-.121-.01-.212-.031-.272-.085l-.108.12zm.722.161c.16.046.298.147.39.285l.135-.09a.864.864 0 0 0-.48-.35l-.045.155zm.39.285a.703.703 0 0 1 .115.47l.16.019a.865.865 0 0 0-.14-.579l-.134.09zm.115.467a.98.98 0 0 1-.206.462l.126.102c.126-.156.209-.341.24-.538l-.16-.026zm-.206.462a.98.98 0 0 1-.408.297l.058.151c.186-.072.35-.191.476-.346l-.126-.102zm-.407.297a1.594 1.594 0 0 1-1.037.02l-.05.153c.373.12.775.113 1.143-.021l-.056-.152zm-1.037.02a3.92 3.92 0 0 1-.974-.474l-.09.134c.313.21.655.377 1.014.493l.05-.154z" fill="#000" mask="url(#2apove7jcp)"/>
    <mask id="9u2nu1qf4q" fill="#fff">
        <path d="M52.128 18.218a.61.61 0 0 1-.105.265 1.477 1.477 0 0 1-1.137.709.638.638 0 0 1-.287-.022c0-.013.11 0 .278-.032a1.64 1.64 0 0 0 1.098-.684c.099-.14.142-.24.153-.236z"/>
    </mask>
    <path d="M52.128 18.218a.61.61 0 0 1-.105.265 1.477 1.477 0 0 1-1.137.709.638.638 0 0 1-.287-.022c0-.013.11 0 .278-.032a1.64 1.64 0 0 0 1.098-.684c.099-.14.142-.24.153-.236z" fill="#65696B"/>
    <path d="m52.128 18.218.08.012.01-.065-.061-.023-.029.076zm-.105.265-.066-.047-.003.005.07.042zm-.482.49-.043-.069.043.069zm-.654.218-.007-.08h-.006l.013.08zm-.288-.021h-.08v.06l.056.017.024-.077zm.278-.032-.013-.08h-.002l.014.08zm.619-.229.043.07v-.001l-.043-.069zm.479-.455-.066-.047.066.047zm.073-.247a.53.53 0 0 1-.09.23l.132.092a.692.692 0 0 0 .118-.3l-.16-.022zm-.094.234a1.38 1.38 0 0 1-.456.463l.085.137c.209-.129.384-.306.51-.517l-.139-.083zm-.456.463a1.396 1.396 0 0 1-.618.207l.014.16c.245-.02.48-.1.69-.23l-.086-.137zm-.624.207a.557.557 0 0 1-.25-.018l-.049.154a.718.718 0 0 0 .324.024l-.025-.16zm-.194.059a.078.078 0 0 1-.031.063c-.011.007-.02.01-.023.01-.005.002-.006.002 0 .001l.053-.002c.05-.003.123-.008.212-.024l-.03-.16c-.078.015-.144.02-.19.022l-.06.003a.167.167 0 0 0-.029.005.093.093 0 0 0-.03.014.084.084 0 0 0-.034.068h.162zm.209.048a1.72 1.72 0 0 0 .65-.24l-.086-.137a1.56 1.56 0 0 1-.589.217l.025.16zm.65-.24c.197-.124.368-.287.502-.478l-.133-.093c-.121.174-.276.321-.455.434l.086.137zm.502-.477c.051-.073.088-.135.113-.178l.027-.045c.003-.005.003-.004 0-.001a.062.062 0 0 1-.016.012.078.078 0 0 1-.065.005l.057-.152a.084.084 0 0 0-.07.006.095.095 0 0 0-.023.018.176.176 0 0 0-.018.023 2.12 2.12 0 0 1-.137.218l.132.094z" fill="#000" mask="url(#9u2nu1qf4q)"/>
    <mask id="s9zpy7yzyr" fill="#fff">
        <path d="M51.367 19.812a2.29 2.29 0 0 0-1.546-.888.716.716 0 0 1 .274 0c.445.065.85.297 1.13.648.064.07.112.151.142.24z"/>
    </mask>
    <path d="M51.367 19.812a2.29 2.29 0 0 0-1.546-.888.716.716 0 0 1 .274 0c.445.065.85.297 1.13.648.064.07.112.151.142.24z" fill="#ACC0F0"/>
    <path d="m51.367 19.812-.064.049.14-.075-.076.026zm-1.546-.888-.016-.08.006.16.01-.08zm.274 0-.015.08h.004l.011-.08zm1.13.648-.063.05.004.005.06-.055zm.207.191a2.37 2.37 0 0 0-.708-.622l-.08.14c.256.148.48.345.659.58l.129-.098zm-.708-.622a2.37 2.37 0 0 0-.893-.297l-.02.16c.293.036.577.13.833.277l.08-.14zm-.888-.138a.636.636 0 0 1 .244 0l.03-.159a.8.8 0 0 0-.305 0l.031.16zm.248 0c.424.063.81.284 1.078.62l.126-.101a1.857 1.857 0 0 0-1.18-.678l-.024.16zm1.081.624a.597.597 0 0 1 .126.211l.153-.052a.757.757 0 0 0-.16-.269l-.118.11z" fill="#000" mask="url(#s9zpy7yzyr)"/>
    <path d="m37.233 35.8.739.345.017.008.018-.008.995-.498.042-.02-.027-.04-.362-.514 2.199.426.012 1.517-1.536.556a1.064 1.064 0 0 1-1.01-.277 1.174 1.174 0 0 1-.297-.54l-.008-.028-.029-.002a.267.267 0 0 1-.111-.044.875.875 0 0 1-.144-.115 1.916 1.916 0 0 1-.297-.38v-.001a2.717 2.717 0 0 1-.201-.386z" fill="#FFBE9D" stroke="#000" stroke-width=".081"/>
    <path d="M38.187 36.756zm.173-.033a.375.375 0 0 1-.13.028c.048-.008.091-.018.13-.028z" fill="#EB996E" stroke="#000" stroke-width=".081"/>
    <mask id="blylbhii1s" fill="#fff">
        <path d="M38.851 37.13c.015.015-.086.127-.258.171a.361.361 0 0 1-.31-.023c0-.021.144-.008.288-.048s.263-.115.28-.1z"/>
    </mask>
    <path d="M38.851 37.13c.015.015-.086.127-.258.171a.361.361 0 0 1-.31-.023c0-.021.144-.008.288-.048s.263-.115.28-.1z" fill="#EB996E"/>
    <path d="m38.851 37.13.058-.057-.003-.002-.055.06zm-.258.171-.02-.079-.01.004.03.075zm-.31-.023h-.08v.047l.04.024.04-.07zm.511-.09a.076.076 0 0 1-.022-.053c0-.012.003-.02.004-.024.002-.006.004-.007.001-.003a.21.21 0 0 1-.035.033.467.467 0 0 1-.17.082l.04.157a.63.63 0 0 0 .23-.112.368.368 0 0 0 .064-.062.154.154 0 0 0 .021-.037.097.097 0 0 0 .007-.035.086.086 0 0 0-.025-.06l-.115.114zm-.23.038a.28.28 0 0 1-.122.018l-.012.161a.441.441 0 0 0 .192-.028l-.059-.151zm-.122.018a.28.28 0 0 1-.118-.036l-.08.14c.057.033.12.053.186.057l.012-.16zm-.077.034c0 .024-.011.043-.022.054-.01.009-.019.013-.021.014-.006.003-.008.002-.001.001l.06-.005c.053-.005.132-.012.212-.035l-.044-.155a.977.977 0 0 1-.182.028c-.025.002-.052.004-.071.007a.159.159 0 0 0-.038.01c-.007.003-.055.025-.055.081h.162zm.228.03c.078-.022.149-.053.198-.075a.894.894 0 0 1 .056-.023l.003-.001h-.016a.074.074 0 0 1-.037-.019l.11-.12a.094.094 0 0 0-.076-.022.175.175 0 0 0-.037.009c-.02.007-.044.017-.067.028-.051.022-.112.048-.178.067l.044.155z" fill="#000" mask="url(#blylbhii1s)"/>
    <mask id="jqcuyufdht" fill="#fff">
        <path d="M39.436 35.376a1.265 1.265 0 0 1-.203.119c-.125.07-.287.188-.47.315-.156.113-.33.2-.514.257a.448.448 0 0 1-.239.021c0-.011.09-.021.223-.072.173-.07.337-.16.489-.268.154-.113.317-.213.487-.3a.526.526 0 0 1 .227-.072z"/>
    </mask>
    <path d="M39.436 35.376a1.265 1.265 0 0 1-.203.119c-.125.07-.287.188-.47.315-.156.113-.33.2-.514.257a.448.448 0 0 1-.239.021c0-.011.09-.021.223-.072.173-.07.337-.16.489-.268.154-.113.317-.213.487-.3a.526.526 0 0 1 .227-.072z" fill="#EB996E"/>
    <path d="m39.436 35.376.047.065.234-.169-.287.023.006.08zm-.203.119-.034-.074-.005.003.04.07zm-.47.315-.046-.067-.001.001.047.066zm-.514.257-.024-.078-.005.002.029.076zm-.239.021h-.08v.068l.066.012.014-.08zm.223-.072.029.076h.002l-.031-.075zm.489-.268.047.066-.047-.066zm.487-.3.037.071.004-.002-.041-.07zm.18-.138c-.06.043-.123.08-.19.112l.069.146c.075-.035.148-.078.215-.127l-.094-.131zm-.195.114c-.13.073-.297.195-.477.32l.093.132c.185-.129.342-.243.463-.31l-.08-.142zm-.478.32c-.15.108-.315.191-.491.246l.048.154c.193-.06.374-.15.538-.269l-.095-.13zm-.496.247a.367.367 0 0 1-.195.018l-.03.159a.529.529 0 0 0 .282-.026l-.057-.15zm-.129.097a.078.078 0 0 1-.021.054c-.008.008-.015.012-.017.013l-.002.001.041-.01c.04-.011.099-.027.17-.054l-.057-.151a1.503 1.503 0 0 1-.154.048l-.05.013a.142.142 0 0 0-.025.011.093.093 0 0 0-.023.017.084.084 0 0 0-.024.058h.162zm.173.003a2.53 2.53 0 0 0 .505-.277l-.094-.132a2.372 2.372 0 0 1-.473.26l.062.15zm.505-.278c.151-.11.31-.208.477-.294l-.074-.143a3.82 3.82 0 0 0-.498.306l.095.131zm.481-.296a.445.445 0 0 1 .192-.06l-.012-.162a.606.606 0 0 0-.262.083l.082.139z" fill="#000" mask="url(#jqcuyufdht)"/>
    <path d="m45.975 53.648-.033-.023-.005.006-.002.008-2.721 11.483-4.04-.876 2.114-11.93 5.806-10.771 6.466-2.166a.56.56 0 0 1 .042.049c.043.054.111.153.21.328.599 1.07.848 3.65-1.431 5.958-1.484 1.501-3.094 3.48-4.332 5.081a100.55 100.55 0 0 0-2.067 2.774l-.03.041-.008.011-.002.003.033.024z" fill="#333" stroke="#000" stroke-width=".081"/>
    <path d="m58.11 61.632-6.342-9.704-1.923-8.377-4.898 2.407 2.456 8.502 7.838 9.762 2.869-2.59z" fill="#333"/>
    <path d="M50.607 47.877c.263-.313.504-.598.722-.853.28-.335.52-.618.713-.841l-.021-.018c-.197.222-.44.502-.723.833-.215.257-.454.545-.714.86m.023.02-.023-.02m.023.02-.023-.02m.023.02a245.559 245.559 0 0 0-4.63 5.765m4.608-5.784-.01-.008.01.008m0 0a314.878 314.878 0 0 0-4.607 5.774m0 .01v-.01m0 .01v.006h-.001l-.002.005m.003-.01a.162.162 0 0 0-.004.004l-.004.005.005.001m.003-.02-.005.005a.356.356 0 0 1-.009.012l.004.002-1.994 8.334.012.003 1.81-7.658.002-.008.159-.672.01.001-.011-.009-.006-.005-.013-.01h.04v.005zm.032.024-.035-.004m-1.962 8.343 1.8-7.661.003-.007c.047-.202.094-.403.14-.593v.057l.013-.018.024-.1v-.002l-1.98 8.324z" fill="#65696B" stroke="#000" stroke-width=".081"/>
    <mask id="q2riwe7pru" fill="#fff">
        <path d="M50.683 42.397a.3.3 0 0 1-.1.054 1.676 1.676 0 0 1-.294.097 2.027 2.027 0 0 1-1.891-.55 1.776 1.776 0 0 1-.199-.24c-.04-.061-.059-.097-.054-.1.004-.003.1.127.287.3a2.14 2.14 0 0 0 1.844.538c.255-.046.403-.11.407-.1z"/>
    </mask>
    <path d="M50.683 42.397a.3.3 0 0 1-.1.054 1.676 1.676 0 0 1-.294.097 2.027 2.027 0 0 1-1.891-.55 1.776 1.776 0 0 1-.199-.24c-.04-.061-.059-.097-.054-.1.004-.003.1.127.287.3a2.14 2.14 0 0 0 1.844.538c.255-.046.403-.11.407-.1z" fill="#65696B"/>
    <path d="m50.683 42.397.052.062.044-.037-.02-.054-.076.029zm-.1.054-.024-.077-.007.003.032.074zm-.294.097-.018-.08.018.08zm-1.891-.55.057-.058-.057.057zm-.199-.24-.067.045v.002l.067-.046zm.233.2-.055.06.055-.06zm1.844.538-.014-.08.014.08zm.355-.161a.22.22 0 0 1-.072.04l.05.153a.38.38 0 0 0 .126-.069l-.104-.124zm-.08.042a1.6 1.6 0 0 1-.28.092l.036.158c.106-.025.21-.058.309-.101l-.064-.149zm-.28.092a1.946 1.946 0 0 1-.976-.029l-.046.155c.345.1.709.111 1.058.032l-.036-.158zm-.976-.029a1.946 1.946 0 0 1-.84-.5l-.115.114c.252.255.565.441.91.541l.045-.155zm-.84-.5a1.704 1.704 0 0 1-.19-.227l-.132.092c.061.089.13.172.207.25l.115-.115zm-.188-.225a1.03 1.03 0 0 1-.04-.067l-.006-.01.001.003.002.01c0 .003.002.012 0 .024a.08.08 0 0 1-.034.05l-.09-.134a.082.082 0 0 0-.036.08c.001.01.004.02.006.024a1.158 1.158 0 0 0 .062.108l.135-.089zm-.078.01a.081.081 0 0 1-.081.005c-.008-.004-.013-.008-.014-.01l-.002-.001a.628.628 0 0 1 .012.013l.056.064c.049.055.121.133.217.222l.11-.119a3.187 3.187 0 0 1-.207-.211l-.054-.062a.58.58 0 0 0-.017-.019l-.01-.01-.016-.01a.081.081 0 0 0-.083.004l.09.134zm.188.293c.253.235.559.408.89.505l.046-.155c-.308-.09-.59-.25-.826-.469l-.11.119zm.89.505a2.22 2.22 0 0 0 1.024.052l-.03-.159c-.315.058-.64.042-.948-.048l-.045.155zm1.024.053c.13-.024.234-.053.305-.074l.08-.023.01-.003H50.673c-.003 0-.047-.005-.065-.05l.152-.058c-.018-.047-.065-.052-.07-.053a.101.101 0 0 0-.026 0 .28.28 0 0 0-.031.008l-.081.024a2.7 2.7 0 0 1-.29.07l.03.159z" fill="#000" mask="url(#q2riwe7pru)"/>
    <path d="m46.56 27.437-.013.026-.063.117a30.789 30.789 0 0 0-.9 1.846c-.245.55-.49 1.149-.673 1.709-.184.56-.303 1.078-.3 1.466l1.95-5.164zm0 0 2.941-.789a3.52 3.52 0 0 1 1.692.395 3.169 3.169 0 0 1 1.613 3.121l-.746 4.754-.002.011.005.01 2.065 4.874c-1.232.643-2.839 1.157-4.3 1.446-.738.145-1.437.234-2.032.253-.58.018-1.056-.03-1.37-.152l-.045-4.752v-.01l-.006-.01-.034.02.034-.02-.001-.002-.004-.007-.014-.024a27.944 27.944 0 0 1-.861-1.556c-.222-.432-.442-.897-.608-1.322-.166-.427-.275-.809-.277-1.076l1.95-5.164z" fill="#ACC0F0" stroke="#000" stroke-width=".081"/>
    <g opacity=".3">
        <mask id="qscyc3wn2v" fill="#fff">
            <path d="M51 27.003c.173-.026.236.254.114.378-.122.123-.316.13-.487.155-.772.12-1.368.782-1.649 1.51-.28.73-.307 1.526-.353 2.3-.046.775-.122 1.582-.489 2.273a4.692 4.692 0 0 1 2.655-6.773"/>
        </mask>
        <path d="M51 27.003c.173-.026.236.254.114.378-.122.123-.316.13-.487.155-.772.12-1.368.782-1.649 1.51-.28.73-.307 1.526-.353 2.3-.046.775-.122 1.582-.489 2.273a4.692 4.692 0 0 1 2.655-6.773" fill="#000"/>
        <path d="m50.627 27.536-.012-.08.012.08zm-2.491 6.083-.07.04.072.128.07-.13-.072-.038zm2.877-6.536a.05.05 0 0 1 .042.012.125.125 0 0 1 .035.062c.017.062.002.13-.033.167l.115.114a.341.341 0 0 0 .074-.323.285.285 0 0 0-.085-.142.21.21 0 0 0-.172-.05l.024.16zm.044.241a.372.372 0 0 1-.187.092c-.08.02-.162.026-.255.04l.024.16c.078-.012.18-.021.268-.042a.532.532 0 0 0 .265-.136l-.115-.114zm-.443.132c-.81.127-1.425.817-1.711 1.562l.15.058c.275-.713.853-1.345 1.586-1.46l-.025-.16zm-1.711 1.562c-.286.743-.313 1.553-.359 2.324l.162.01c.046-.78.073-1.562.348-2.276l-.151-.058zm-.359 2.324c-.046.775-.122 1.565-.48 2.239l.144.076c.375-.709.452-1.532.498-2.306l-.162-.01zm-.337 2.237a4.61 4.61 0 0 1-.584-1.943l-.161.012c.05.707.255 1.393.604 2.01l.14-.079zm-.584-1.943a4.61 4.61 0 0 1 .307-2.005l-.151-.059a4.773 4.773 0 0 0-.317 2.076l.16-.012zm.307-2.005a4.61 4.61 0 0 1 1.137-1.68l-.11-.117a4.773 4.773 0 0 0-1.178 1.738l.15.06zm1.137-1.68c.5-.468 1.097-.819 1.748-1.028l-.049-.154a4.773 4.773 0 0 0-1.81 1.065l.111.118z" fill="#000" mask="url(#qscyc3wn2v)"/>
    </g>
    <path d="M51.138 26.977a3.517 3.517 0 0 0-2.775 2.328c-.203.545-.263 1.263-.24 2.03.022.767.127 1.587.257 2.339a28.457 28.457 0 0 0 .585 2.613 3.177 3.177 0 0 1-.15-.142 5.108 5.108 0 0 1-.596-.74c-.46-.683-.993-1.768-1.284-3.373-.289-1.6.085-2.896.649-3.818.282-.461.61-.828.928-1.092.318-.265.622-.424.852-.473l1.774.328zm0 0a1.103 1.103 0 0 0-.337-.247c-.277-.133-.732-.232-1.438-.081l1.775.328z" fill="#333" stroke="#000" stroke-width=".081"/>
    <g opacity=".3">
        <mask id="nc73ae2kdw" fill="#fff">
            <path d="M46.395 37.623c.591.19 1.158.431 1.773.509a3.486 3.486 0 0 0 1.828-.191c.79-.337 1.375-1.055 1.677-1.859.302-.803.344-1.683.263-2.538-.539.667-.474 1.654-.932 2.38-.288.453-.755.762-1.235 1.006a7.118 7.118 0 0 1-3.373.697"/>
        </mask>
        <path d="M46.395 37.623c.591.19 1.158.431 1.773.509a3.486 3.486 0 0 0 1.828-.191c.79-.337 1.375-1.055 1.677-1.859.302-.803.344-1.683.263-2.538-.539.667-.474 1.654-.932 2.38-.288.453-.755.762-1.235 1.006a7.118 7.118 0 0 1-3.373.697" fill="#000"/>
        <path d="m48.168 38.132.013-.08h-.003l-.01.08zm1.828-.191.03.075h.002l-.032-.075zm1.94-4.397.08-.008-.018-.197-.124.154.062.05zm-.932 2.38.068.044-.068-.044zm-1.235 1.006.035.073h.002l-.037-.073zm-3.398.77c.581.187 1.161.433 1.787.512l.02-.16c-.605-.077-1.157-.313-1.758-.506l-.05.154zm1.784.512c.63.103 1.276.035 1.87-.196l-.058-.15a3.405 3.405 0 0 1-1.786.186l-.026.16zm1.873-.197c.814-.347 1.413-1.085 1.721-1.904l-.151-.057c-.296.788-.87 1.486-1.634 1.812l.064.15zm1.721-1.904c.308-.82.35-1.712.268-2.575l-.161.015c.08.849.038 1.715-.258 2.503l.151.057zm.124-2.618c-.281.349-.403.779-.511 1.199-.11.425-.206.84-.427 1.189l.137.086c.237-.376.339-.819.446-1.235.109-.422.224-.82.481-1.137l-.126-.102zm-.938 2.388c-.275.434-.727.735-1.203.977l.074.144c.483-.246.967-.563 1.266-1.035l-.137-.086zm-1.201.976a7.037 7.037 0 0 1-3.335.69l-.007.161a7.199 7.199 0 0 0 3.412-.705l-.07-.146z" fill="#000" mask="url(#nc73ae2kdw)"/>
    </g>
    <path d="m52.38 35.692.414.974h-.003a6.915 6.915 0 0 1-.68.083 6.565 6.565 0 0 1-1.662-.083c-.619-.117-1.256-.354-1.778-.799-.52-.441-.93-1.09-1.096-2.038l.557-.94v.008c.004.099.014.24.04.406.051.332.167.768.423 1.183.256.415.654.807 1.267 1.049.607.24 1.423.331 2.518.157z" fill="#333" stroke="#000" stroke-width=".081"/>
    <path d="m52.494 30.13-1.102 4.933c-.234.684-.684 1.235-1.18 1.63-.497.395-1.037.63-1.448.685l-7.815.827v-2.854l7.262-1.078.032-.005.003-.032.342-3.995v-.002c.015-.264.088-.637.2-.995.112-.36.262-.7.428-.901.382-.465.956-1.079 1.892-.922.545.09.79.44 1.033.788l.031.046a2.321 2.321 0 0 1 .322 1.874z" fill="#ACC0F0" stroke="#000" stroke-width=".081"/>
    <path d="M47.649 37.614c.112-.01.23-.02.355-.035m-.355.035 4.631-6.147-.084.453-.003.018a51.846 51.846 0 0 1-.359 1.69l-.003.014c-.076.317-.156.65-.251.989l-.003.01m-3.928 2.973c-.322.022-.592.024-.797.026h-.022m.819-.026-1.14.027m1.495-.062a5.294 5.294 0 0 0 1.677-.452l.004-.002m-1.681.454L48 37.544m.004.035L48 37.544m1.684-.419.01.021-.01-.02m0 0a3.4 3.4 0 0 0 .854-.566l.004-.005m0 0 .015.016-.015-.016m0 0-.013-.014m.013.015c.27-.252.49-.55.652-.881l.003-.006m-.655.886-.013-.014m.668-.872.024.011-.024-.011m0 0-.013-.007m.013.007c.159-.33.286-.675.38-1.029m-.38 1.029-.013-.007m.393-1.022-.013-.003m.013.003-.013-.003m-.38 1.025c.16-.328.287-.672.38-1.025m-.38 1.025-.003.007a2.953 2.953 0 0 1-.652.872m1.035-1.904-1.887 2.472a3.367 3.367 0 0 0 .848-.564l.004-.004m1.035-1.904-.026-.008.026.008zM48 37.544c-.124.013-.242.023-.354.03m.354-.03v-.005.005m0 0h.001l-.355.03m0 0a15.905 15.905 0 0 1-.816.045v.022m.816-.067-.817.045m-.32.022h.32m-.32 0a.609.609 0 0 1-.11 0 .555.555 0 0 1 .11-.009l.32-.013m-.32.022.32-.022m0 .022v-.022" fill="#333" stroke="#000" stroke-width=".081"/>
    <mask id="8xts1vllbx" fill="#fff">
        <path d="M48.417 35.074a1.448 1.448 0 0 1-.177-.432 1.422 1.422 0 0 1-.106-.45c.142.275.239.57.287.876l-.004.006z"/>
    </mask>
    <path d="M48.417 35.074a1.448 1.448 0 0 1-.177-.432 1.422 1.422 0 0 1-.106-.45c.142.275.239.57.287.876l-.004.006z" fill="#333"/>
    <path d="m48.417 35.074-.069.042.062.101.072-.095-.065-.048zm-.177-.432.08-.018-.005-.013-.075.031zm-.106-.45.072-.037-.153.043.08-.006zm.287.876.065.048.02-.027-.005-.034-.08.013zm.065-.037a1.363 1.363 0 0 1-.167-.407l-.158.036c.038.161.1.315.187.456l.138-.085zm-.171-.42a1.338 1.338 0 0 1-.1-.424l-.162.01c.011.164.05.325.113.476l.149-.062zm-.253-.381c.138.266.232.554.28.85l.16-.025a2.969 2.969 0 0 0-.296-.9l-.144.075zm.295.79-.005.005.13.097.004-.006-.13-.097z" fill="#000" mask="url(#8xts1vllbx)"/>
    <path d="M48.52 34.653c.039.037.078.075.116.114a1.092 1.092 0 0 1-.117-.114zm-.165-.183c.038.041.074.083.11.126a1.077 1.077 0 0 1-.11-.126zM50.615 27.368c-.17.022-.367.087-.574.196a3.045 3.045 0 0 0-.786.637m1.36-.833-2.448 6.804.002-.012.018-.003.016-.002m2.412-6.787v.004l.002.004.003.02m-.005-.028-1.825 1.84-.022-.007m.487-1-.01-.008.009.01m0-.002.022.017-.001.001m-.02-.018-.001.001m0 0-.001.002c-.232.293-.403.63-.502.991v.002m.503-.995.02.018m-.523.977c-.126.408-.205.83-.237 1.256m.237-1.256.017.005m-.017-.006.017.005m-.254 1.252-.029-.002.029.002m0 0h.012v.001h-.012m0-.001v.002c-.037.74-.11 1.538-.187 2.374l-.05.55m0 0v.004l-.075.771m.075-.774h.007m-.007 0h.007m-.081.774-.005.047-.002.016-.077.032.054-.008.022-.004v.017m.008-.1h.007m0 0-.005.053-.002.018h.019m-.012-.072.034-.005-.006.06m-.028-.055.074-.773m-.062.845-.009.01-.002.002-.005.005-.003.003-.008.009m.027-.029.016-.016m-.016.016.016-.016m-.043.045-.004.004-.011.012.055-.004h-.04v-.012zm.043-.045.079-.826-.033-.003m.484-4.179a2.777 2.777 0 0 1 .507-.982m0 0c.257-.28.53-.484.785-.62.202-.11.394-.177.559-.202m0 0c.145-.022.29-.024.435-.006l.003-.014m-.437.02-.005-.029c.147-.02.296-.018.442.009m0 0-.003.014c.037.005.075.011.112.019l.001-.005m-.11-.028c.044.009.079.02.103.026a.62.62 0 0 1 .007.002m0 0-.001.005.039.008-.038-.013z" fill="#333" stroke="#000" stroke-width=".081"/>
    <mask id="bvrmn2kvry" fill="#fff">
        <path d="M46.091 37.606c-.02 0-.104-.663-.185-1.483-.082-.82-.133-1.49-.112-1.494.087.492.15.987.186 1.485.063.495.1.993.111 1.492z"/>
    </mask>
    <path d="M46.091 37.606c-.02 0-.104-.663-.185-1.483-.082-.82-.133-1.49-.112-1.494.087.492.15.987.186 1.485.063.495.1.993.111 1.492z" fill="#FAFAFA"/>
    <path d="M46.091 37.606v.081h.083l-.002-.083-.081.002zm-.297-2.977.08-.014-.015-.077-.077.011.012.08zm.186 1.485-.08.006v.004l.08-.01zm.111 1.411c.029 0 .047.015.054.022.008.007.012.014.014.016a.053.053 0 0 1 .003.007l.001.002-.001-.004a44.814 44.814 0 0 1-.176-1.454l-.16.017c.04.41.081.782.115 1.051a10.84 10.84 0 0 0 .06.411l.009.032a.123.123 0 0 0 .01.02.082.082 0 0 0 .072.042v-.162zm-.105-1.41c-.04-.41-.074-.782-.094-1.052a10.422 10.422 0 0 1-.022-.4v-.01a.12.12 0 0 1 0-.005v.003l-.002.008a.08.08 0 0 1-.063.05l-.023-.16a.082.082 0 0 0-.066.055.107.107 0 0 0-.006.023 1.68 1.68 0 0 0 0 .125c.003.077.01.188.02.323.021.272.054.645.095 1.056l.161-.016zm-.272-1.471c.087.488.15.981.186 1.476l.161-.012a14.5 14.5 0 0 0-.188-1.493l-.16.029zm.186 1.48c.062.493.099.988.11 1.484l.162-.004a14.647 14.647 0 0 0-.111-1.5l-.16.02z" fill="#000" mask="url(#bvrmn2kvry)"/>
    <mask id="hk7ljedlhz" fill="#fff">
        <path d="M51.846 33.152a3.51 3.51 0 0 1-.5.007c-.31 0-.735-.017-1.206-.035a52.571 52.571 0 0 1-1.205-.056 3.396 3.396 0 0 1-.497-.044c.166-.016.334-.02.5-.009.308 0 .735.017 1.205.035.47.017.895.037 1.204.056.167.002.334.017.499.046z"/>
    </mask>
    <path d="M51.846 33.152a3.51 3.51 0 0 1-.5.007c-.31 0-.735-.017-1.206-.035a52.571 52.571 0 0 1-1.205-.056 3.396 3.396 0 0 1-.497-.044c.166-.016.334-.02.5-.009.308 0 .735.017 1.205.035.47.017.895.037 1.204.056.167.002.334.017.499.046z" fill="#FAFAFA"/>
    <path d="m51.846 33.152.007.08.007-.16-.014.08zm-.5.007.004-.08h-.004v.08zm-2.41-.09.004-.081h-.003l-.002.08zm-.498-.045-.008-.08-.005.16.013-.08zm.5-.009-.005.081h.005v-.08zm2.41.09-.006.082h.004l.001-.081zm.491-.034a3.422 3.422 0 0 1-.489.007l-.009.162c.17.01.342.007.512-.008l-.014-.16zm-.493.007c-.307 0-.73-.017-1.203-.034l-.006.161c.47.017.898.035 1.209.035v-.162zm-1.203-.034a53.488 53.488 0 0 1-1.203-.056l-.01.161c.309.019.735.04 1.207.056l.006-.161zm-1.206-.056a3.332 3.332 0 0 1-.486-.044l-.026.16c.168.027.338.043.509.045l.003-.161zm-.491.116c.162-.015.325-.018.487-.008l.01-.161a3.198 3.198 0 0 0-.513.008l.016.161zm.492-.008c.306 0 .73.017 1.202.035l.006-.162c-.47-.017-.898-.035-1.208-.035v.162zm1.202.035c.47.017.894.037 1.202.056l.01-.162a54.23 54.23 0 0 0-1.206-.056l-.006.162zm1.206.056c.163.002.326.017.486.044l.028-.159a3.226 3.226 0 0 0-.512-.047l-.002.162z" fill="#000" mask="url(#hk7ljedlhz)"/>
    <mask id="7b0ovtqdsA" fill="#fff">
        <path d="M46.856 32.213a1.37 1.37 0 0 1-.327.043 9.115 9.115 0 0 1-1.58-.031 1.292 1.292 0 0 1-.324-.056c.109-.011.219-.011.328 0 .2.01.48.021.787.027.308.006.587 0 .788 0 .11-.006.22 0 .328.017z"/>
    </mask>
    <path d="M46.856 32.213a1.37 1.37 0 0 1-.327.043 9.115 9.115 0 0 1-1.58-.031 1.292 1.292 0 0 1-.324-.056c.109-.011.219-.011.328 0 .2.01.48.021.787.027.308.006.587 0 .788 0 .11-.006.22 0 .328.017z" fill="#FAFAFA"/>
    <path d="m46.856 32.213.02.079-.007-.159-.013.08zm-.327.043v-.08h-.005l.005.08zm-1.58-.031.009-.08-.006-.001-.004.08zm-.324-.056-.008-.08-.016.157.024-.077zm.328 0-.008.08h.004l.004-.08zm1.575.027v.081h.005l-.005-.081zm.308-.061c-.1.026-.204.04-.307.04l.001.162c.117-.001.233-.016.346-.045l-.04-.157zm-.312.04a9.028 9.028 0 0 1-.784.02l-.003.16c.312.007.595-.003.798-.018l-.011-.161zm-.784.02a8.534 8.534 0 0 1-.782-.05l-.019.16c.204.023.487.045.798.05l.003-.16zm-.788-.051a1.215 1.215 0 0 1-.303-.053l-.048.155c.112.034.227.054.344.06l.007-.162zm-.319.105c.104-.01.208-.01.312 0l.016-.16a1.747 1.747 0 0 0-.344 0l.016.16zm.316 0c.202.01.481.022.79.028l.003-.162a25.533 25.533 0 0 1-.785-.027l-.008.161zm.79.028c.308.006.59 0 .789 0v-.162c-.203 0-.48.006-.786 0l-.003.162zm.794 0c.103-.006.207 0 .31.016l.026-.16a1.568 1.568 0 0 0-.346-.018l.01.162z" fill="#000" mask="url(#7b0ovtqdsA)"/>
    <mask id="zpm5cynvqB" fill="#fff">
        <path d="M47.505 28.804c-.012.019-.313-.144-.704-.288-.391-.143-.719-.231-.719-.253.511.063 1 .248 1.423.54z"/>
    </mask>
    <path d="M47.505 28.804c-.012.019-.313-.144-.704-.288-.391-.143-.719-.231-.719-.253.511.063 1 .248 1.423.54z" fill="#FAFAFA"/>
    <path d="m47.505 28.804.069.042.04-.065-.063-.044-.046.067zm-1.423-.54.01-.08-.09-.012v.091h.08zm1.354.498a.078.078 0 0 1 .069-.037h.005a.4.4 0 0 1-.034-.013c-.035-.014-.084-.036-.148-.065a7.86 7.86 0 0 0-.5-.206l-.055.151c.192.071.364.147.49.203l.151.067a.514.514 0 0 0 .08.024.09.09 0 0 0 .03-.003.084.084 0 0 0 .05-.037l-.138-.084zm-.607-.322c-.198-.072-.379-.13-.51-.173a4.897 4.897 0 0 1-.187-.065l.002.001a.077.077 0 0 1 .029.06H46a.085.085 0 0 0 .036.07.608.608 0 0 0 .074.035l.159.053c.13.043.309.1.503.171l.056-.151zm-.757-.096a3.1 3.1 0 0 1 1.387.526l.092-.133c-.434-.3-.935-.49-1.46-.554l-.019.16z" fill="#000" mask="url(#zpm5cynvqB)"/>
    <path d="M52.243 38.105h-.002l.272-.096-.27.096-.002-.007.002.007z" fill="#FAFAFA" stroke="#000" stroke-width=".081"/>
    <mask id="co82lapomC" fill="#fff">
        <path d="M52.746 29.176c0 .02-.848.01-1.893-.024-1.045-.035-1.89-.078-1.89-.098 0-.02.848-.01 1.893.023s1.89.078 1.89.1z"/>
    </mask>
    <path d="M52.746 29.176c0 .02-.848.01-1.893-.024-1.045-.035-1.89-.078-1.89-.098 0-.02.848-.01 1.893.023s1.89.078 1.89.1z" fill="#FAFAFA"/>
    <path d="M52.665 29.176a.08.08 0 0 1 .033-.064c.009-.007.017-.01.019-.01l.007-.002a68.674 68.674 0 0 1-1.868-.029l-.006.162c.523.017.997.028 1.34.032a16.589 16.589 0 0 0 .523-.002.413.413 0 0 0 .057-.009.082.082 0 0 0 .057-.078h-.162zm-1.81-.105a77.353 77.353 0 0 1-1.335-.054 16.986 16.986 0 0 1-.509-.035.246.246 0 0 1-.02-.003c-.003 0 0 0 .005.002.002.001.01.004.018.01a.08.08 0 0 1 .03.063h-.162c0 .038.024.059.031.064.01.008.018.011.022.013a.41.41 0 0 0 .057.012 16.9 16.9 0 0 0 .52.035c.343.018.816.037 1.338.055l.006-.162zm-1.811-.017a.08.08 0 0 1-.052.075l-.007.002a72.229 72.229 0 0 1 1.868.027l.005-.162a73.377 73.377 0 0 0-1.34-.031 17.012 17.012 0 0 0-.522.002.415.415 0 0 0-.036.004c-.005 0-.013.002-.021.005a.082.082 0 0 0-.057.078h.162zm1.81.104c.521.016.993.036 1.334.054a15.762 15.762 0 0 1 .509.035.316.316 0 0 1 .02.004l-.006-.003c-.002 0-.01-.004-.018-.011a.08.08 0 0 1-.028-.06h.162a.082.082 0 0 0-.051-.077.358.358 0 0 0-.058-.013 15.29 15.29 0 0 0-.521-.037 67.553 67.553 0 0 0-1.339-.054l-.005.162z" fill="#000" mask="url(#co82lapomC)"/>
    <path d="M42.557 36.448a13.438 13.438 0 0 1-.017-.43c.008.143.014.287.017.43zm.028.726a14.048 14.048 0 0 1-.017-.43c.008.143.014.286.017.43z" fill="#FAFAFA" stroke="#000" stroke-width=".081"/>
</svg>
