<svg xmlns="http://www.w3.org/2000/svg" width="45.228" height="45.732" viewBox="0 0 45.228 45.732">
    <defs>
        <linearGradient id="pz57k8gi8a" x1="1.401" x2="-.447" y1=".34" y2=".33" gradientUnits="objectBoundingBox">
            <stop offset="0" stop-color="#195dff"/>
            <stop offset=".162" stop-color="#264a9f"/>
            <stop offset="1" stop-color="#35d3e1"/>
        </linearGradient>
    </defs>
    <path fill="url(#pz57k8gi8a)" d="M589.2 1203.1l-.3-.3a5.724 5.724 0 0 0-7.986 0l-6.867 6.867-20.6-5.374a1.063 1.063 0 0 0-1.045.3l-3.433 3.359a.961.961 0 0 0-.3.895 1.033 1.033 0 0 0 .448.821l14.032 10.9-3.432 3.432-10.9-2.831a1.063 1.063 0 0 0-1.045.3l-1.866 1.865a.961.961 0 0 0-.3.9 1.032 1.032 0 0 0 .448.821l7.239 5.667a5.653 5.653 0 0 0 .747 7.015l.3.3a5.528 5.528 0 0 0 3.955 1.642 5.615 5.615 0 0 0 3.06-.9l5.9 7.69a1.291 1.291 0 0 0 .821.448h.074a1.545 1.545 0 0 0 .821-.3l1.866-1.866a1.106 1.106 0 0 0 .3-1.045l-2.986-11.42 3.21-3.21 11.2 14.48a1.291 1.291 0 0 0 .821.448h.074a1.542 1.542 0 0 0 .821-.3l3.433-3.433a1.1 1.1 0 0 0 .3-1.045l-5.445-21.5 6.643-6.643a5.721 5.721 0 0 0-.008-7.983zm-37.766 5.522l2.015-2.016 18.733 4.851-7.462 7.464zM548.369 1224l.523-.522 9.031 2.313-3.134 3.135zm20.525 19.406l-.522.522-5.224-6.792 3.284-3.284zm16.794-4.553l-2.015 2.016-10.6-13.655 7.613-7.613zm1.877-29.339l-.012.011-26.793 26.8a3.333 3.333 0 0 1-4.715.058l-.058-.058-.3-.3a3.334 3.334 0 0 1-.057-4.715l.057-.058 26.8-26.874a3.425 3.425 0 0 1 4.773 0l.3.3a3.424 3.424 0 0 1 .005 4.832z" transform="translate(-545.591 -1201.18)"/>
</svg>
