<svg xmlns="http://www.w3.org/2000/svg" width="24" height="24" viewBox="0 0 24 24">
    <defs>
        <linearGradient id="p7hlnz7gna" x1="-.692" x2="2.008" y1=".5" y2=".5" gradientUnits="objectBoundingBox">
            <stop offset="0" stop-color="#35d3e1"/>
            <stop offset=".723" stop-color="#264a9f"/>
            <stop offset="1" stop-color="#195dff"/>
        </linearGradient>
    </defs>
    <g>
        <path fill="url(#p7hlnz7gna)" d="M11.25 1.148V.75a.75.75 0 0 1 1.5 0v.4C18.8 1.5 24 6.17 24 12.375a.75.75 0 0 1-1.06.683 5.292 5.292 0 0 0-5.872.563.744.744 0 0 1-1.032.094c-.06-.049-.07-.074-.232-.2a5.977 5.977 0 0 0-3.054-1.1v8.965a2.625 2.625 0 0 1-5.25 0 .75.75 0 1 1 1.5 0 1.125 1.125 0 0 0 2.25 0v-8.969a5.957 5.957 0 0 0-3.071 1.119c-.145.114-.15.132-.206.179a.743.743 0 0 1-1.04-.087 5.293 5.293 0 0 0-5.873-.564.75.75 0 0 1-1.06-.683C0 6.169 5.2 1.5 11.25 1.148zm4.47 10.563c-.18-4.16-1.146-6.394-1.969-7.559A3.87 3.87 0 0 0 12 2.653a3.8 3.8 0 0 0-1.65 1.359c-.867 1.156-1.885 3.411-2.07 7.7a8.682 8.682 0 0 1 7.44-.001zm6.713-.442a10.03 10.03 0 0 0-7.7-8.308c1.827 2.308 2.371 5.818 2.489 8.758a6.819 6.819 0 0 1 5.211-.451zm-15.655.45c.122-2.942.663-6.451 2.489-8.759a10.03 10.03 0 0 0-7.7 8.308 6.819 6.819 0 0 1 5.211.45z"/>
    </g>
</svg>
