<svg xmlns="http://www.w3.org/2000/svg" id="whatsapp" width="44.001" height="44" viewBox="0 0 44.001 44">
    <defs>
        <style>
            .cls-1{fill:#fafafa}
        </style>
    </defs>
    <path id="Path_10575" d="M37.62 6.323A22.26 22.26 0 0 0 22.083 0C5.271 0-5.286 18.214 3.109 32.7L0 44l11.614-3.029a23.03 23.03 0 0 0 10.479 2.653c19.494 0 29.2-23.584 15.5-37.229z" class="cls-1" transform="translate(0)"/>
    <path id="Path_10576" fill="#4caf50" d="M20.348 38.239h-.04a18.472 18.472 0 0 1-9.927-2.922L3.505 37.1l1.843-6.68-.438-.688a18.092 18.092 0 0 1-2.78-9.643c0-16.121 19.7-24.182 31.1-12.788 11.37 11.275 3.387 30.938-12.882 30.938z" transform="translate(1.775 1.638)"/>
    <path id="Path_10577" d="M27.116 20.936l-.017.138c-.552-.275-3.24-1.59-3.74-1.771-1.124-.416-.807-.066-2.964 2.405-.321.357-.64.385-1.184.137a14.879 14.879 0 0 1-4.411-2.722 16.633 16.633 0 0 1-3.043-3.795c-.537-.928.587-1.06 1.61-3a1.008 1.008 0 0 0-.046-.961c-.138-.275-1.232-2.97-1.69-4.044-.44-1.071-.893-.935-1.232-.935a2.729 2.729 0 0 0-2.499.635c-2.964 3.252-2.218 6.607.314 10.177 4.976 6.512 7.627 7.711 12.474 9.376a7.585 7.585 0 0 0 3.447.222c1.052-.167 3.24-1.322 3.7-2.614a4.538 4.538 0 0 0 .33-2.612c-.14-.251-.499-.389-1.049-.636z" class="cls-1" transform="translate(4.98 5.294)"/>
</svg>
